<svg width="3722" height="2400" viewBox="0 0 3722 2400" fill="none" xmlns="http://www.w3.org/2000/svg">
    <path d="M2414.5 195.821L2478.71 360.128L2438.83 359.96L2406.81 258.96L2414.5 195.821Z" fill="#E0E0E0" />
    <path d="M2195.26 44.0403L2173.18 358.836L2401.08 363.555L2426.69 44.0403H2195.26Z" fill="#EBEBEB" />
    <path d="M2218.07 69.4308L2199.64 331.368L2369.06 339.344L2392.76 67.8579L2218.07 69.4308Z" fill="#FAFAFA" />
    <path d="M2255.2 106.449L2241.49 290.586H2334.91L2351.42 106.449H2255.2Z" fill="#E0E0E0" />
    <path d="M1970.51 360.802V203.18H2085.89V360.69L1970.51 360.802Z" fill="#EBEBEB" />
    <path
        d="M2036.12 203.18C2036.12 203.18 2063.93 -0.280577 2056.12 0.000290526C2048.31 0.281158 2028.76 185.373 2028.76 185.373C2028.76 185.373 2027.86 32.1315 2020.62 32.9179C2013.37 33.7044 2020.62 195.315 2020.62 195.315C2020.62 195.315 2008.03 64.2066 2001.29 67.3523C1994.55 70.498 2004.16 203.18 2004.16 203.18H2036.12Z"
        fill="#E0E0E0" />
    <path
        d="M2015.11 203.18C2015.11 203.18 2024.77 101.787 2027.86 108.696C2030.95 115.605 2027.86 169.082 2027.86 169.082C2027.86 169.082 2054.54 38.0298 2061.57 42.5236C2068.59 47.0175 2034.21 184.755 2034.21 184.755C2034.21 184.755 2060.27 106.112 2066 114.369C2071.73 122.627 2044.71 196.439 2044.71 196.439C2044.71 196.439 2072.8 144.254 2074.6 151.5C2076.4 158.746 2061.23 203.404 2061.23 203.404L2015.11 203.18Z"
        fill="#EBEBEB" />
    <path
        d="M1998.65 203.798C1998.65 203.798 1936.86 82.6875 1944.61 86.4512C1952.36 90.2148 1991.69 168.408 1991.69 168.408C1991.69 168.408 1965.57 92.7988 1971.3 90.608C1977.02 88.4173 2005.67 175.43 2005.67 175.43L2012.08 203.798H1998.65Z"
        fill="#F5F5F5" />
    <path d="M2023.93 203.461L2026.79 361.027H1971.97L1970.9 202.955L2023.93 203.461Z" fill="#E0E0E0" />
    <path d="M1970.62 217.111L2023.76 218.009L2085.89 217.111L2087.86 202.056H1969.1L1970.62 217.111Z" fill="#E0E0E0" />
    <path d="M2661.61 356.421H1853.67V398.045H2661.61V356.421Z" fill="#E0E0E0" />
    <path d="M587.35 1054.83L598.978 2369.17H78.3619V1072.74L587.35 1054.83Z" fill="#F5F5F5" />
    <path d="M306.876 1064.71L311.482 2369.17H78.3619V1072.74L306.876 1064.71Z" fill="#E0E0E0" />
    <path d="M571.003 1071.06V1255.25H324.402V1079.77L571.003 1071.06Z" fill="#E0E0E0" />
    <path d="M485.957 1121.73V1148.92H410.516V1119.26L485.957 1121.73Z" fill="#F5F5F5" />
    <path d="M485.957 1171.83H408.044V1182.96H485.957V1171.83Z" fill="#F5F5F5" />
    <path d="M571.003 1716.6V1900.85H324.402V1725.31L571.003 1716.6Z" fill="#E0E0E0" />
    <path d="M485.957 1767.33V1794.52H410.516V1764.86L485.957 1767.33Z" fill="#F5F5F5" />
    <path d="M485.957 1817.38H408.044V1828.5H485.957V1817.38Z" fill="#F5F5F5" />
    <path d="M571.003 1278.73V1462.98H324.402V1287.44L571.003 1278.73Z" fill="#E0E0E0" />
    <path d="M485.957 1329.4V1356.65H410.516V1326.93L485.957 1329.4Z" fill="#F5F5F5" />
    <path d="M485.957 1379.51H408.044V1390.63H485.957V1379.51Z" fill="#F5F5F5" />
    <path d="M571.003 1924.28V2108.47H324.402V1932.99L571.003 1924.28Z" fill="#E0E0E0" />
    <path d="M485.957 1974.95V2002.14H410.516V1972.48L485.957 1974.95Z" fill="#F5F5F5" />
    <path d="M485.957 2025.05H408.044V2036.18H485.957V2025.05Z" fill="#F5F5F5" />
    <path d="M573.643 2131.9V2316.14H327.042V2140.6L573.643 2131.9Z" fill="#E0E0E0" />
    <path d="M488.597 2182.56V2209.81H413.156V2180.09L488.597 2182.56Z" fill="#F5F5F5" />
    <path d="M488.597 2232.67H410.684V2243.79H488.597V2232.67Z" fill="#F5F5F5" />
    <path d="M574.205 1499.33H327.604V1683.58H574.205V1499.33Z" fill="#E0E0E0" />
    <path d="M487.529 1582.35V1607.91H416.582V1580.05L487.529 1582.35Z" fill="#F5F5F5" />
    <path d="M487.529 1629.42H414.279V1639.87H487.529V1629.42Z" fill="#F5F5F5" />
    <path d="M2107.29 2208.8V2369.4H2342.15H2601.17V2208.8H2107.29Z" fill="#F5F5F5" />
    <path d="M2086.56 2163.92V2208.8H2618.41V2163.92H2342.15H2086.56Z" fill="#E0E0E0" />
    <path d="M2352.49 2369.4H2601.17V2208.8H2618.41V2163.92H2342.15V2204.64L2352.49 2369.4Z" fill="#E0E0E0" />
    <path d="M2276.54 2234.69H2176.38V2258.85H2276.54V2234.69Z" fill="#E0E0E0" />
    <path d="M2292.05 2289.07H2163.46V2340.13H2292.05V2289.07Z" fill="white" />
    <path d="M2745.37 2003.31V2163.91H2980.17H3239.19V2003.31H2745.37Z" fill="#F5F5F5" />
    <path d="M2724.64 1958.43V2003.31H3256.43V1958.43H2980.17H2724.64Z" fill="#E0E0E0" />
    <path d="M2990.56 2163.91H3239.19V2003.31H3256.43V1958.43H2980.17V1999.16L2990.56 2163.91Z" fill="#E0E0E0" />
    <path d="M2914.56 2029.21H2814.4V2053.36H2914.56V2029.21Z" fill="#E0E0E0" />
    <path d="M2930.12 2083.59H2801.54V2134.65H2930.12V2083.59Z" fill="white" />
    <path d="M2721.66 2208.8V2369.4H2956.52H3215.54V2208.8H2721.66Z" fill="#F5F5F5" />
    <path d="M2700.99 2163.92V2208.8H3232.78V2163.92H2956.52H2700.99Z" fill="#E0E0E0" />
    <path d="M2966.91 2369.4H3215.54V2208.8H3232.78V2163.92H2956.52V2204.64L2966.91 2369.4Z" fill="#E0E0E0" />
    <path d="M2890.91 2234.69H2790.75V2258.85H2890.91V2234.69Z" fill="#E0E0E0" />
    <path d="M2906.47 2289.07H2777.89V2340.13H2906.47V2289.07Z" fill="white" />
    <path d="M3208.57 1054.15L3196.94 2368.44H3717.5V1072.07L3208.57 1054.15Z" fill="#F5F5F5" />
    <path d="M3489.05 1064.04L3484.44 2368.44H3717.5V1072.07L3489.05 1064.04Z" fill="#E0E0E0" />
    <path d="M3224.92 1070.39V1254.58H3471.52V1079.09L3224.92 1070.39Z" fill="#E0E0E0" />
    <path d="M3309.97 1121.05V1148.24H3385.41V1118.58L3309.97 1121.05Z" fill="#F5F5F5" />
    <path d="M3387.88 1171.16H3309.97V1182.28H3387.88V1171.16Z" fill="#F5F5F5" />
    <path d="M3224.92 1715.93V1900.18H3471.52V1724.64L3224.92 1715.93Z" fill="#E0E0E0" />
    <path d="M3309.97 1766.66V1793.84H3385.41V1764.18L3309.97 1766.66Z" fill="#F5F5F5" />
    <path d="M3387.88 1816.71H3309.97V1827.83H3387.88V1816.71Z" fill="#F5F5F5" />
    <path d="M3224.92 1278.06V1462.31H3471.52V1286.77L3224.92 1278.06Z" fill="#E0E0E0" />
    <path d="M3309.97 1328.73V1355.97H3385.41V1326.26L3309.97 1328.73Z" fill="#F5F5F5" />
    <path d="M3387.88 1378.83H3309.97V1389.96H3387.88V1378.83Z" fill="#F5F5F5" />
    <path d="M3224.92 1923.6V2107.8H3471.52V1932.31L3224.92 1923.6Z" fill="#E0E0E0" />
    <path d="M3309.97 1974.27V2001.46H3385.41V1971.8L3309.97 1974.27Z" fill="#F5F5F5" />
    <path d="M3387.88 2024.38H3309.97V2035.5H3387.88V2024.38Z" fill="#F5F5F5" />
    <path d="M3222.28 2131.22V2315.47H3468.88V2139.93L3222.28 2131.22Z" fill="#E0E0E0" />
    <path d="M3307.27 2181.89V2209.13H3382.77V2179.42L3307.27 2181.89Z" fill="#F5F5F5" />
    <path d="M3385.18 2232H3307.27V2243.12H3385.18V2232Z" fill="#F5F5F5" />
    <path d="M3468.32 1498.65H3221.72V1682.9H3468.32V1498.65Z" fill="#E0E0E0" />
    <path d="M3308.39 1581.68V1607.24H3379.34V1579.32L3308.39 1581.68Z" fill="#F5F5F5" />
    <path d="M3381.64 1628.75H3308.39V1639.2H3381.64V1628.75Z" fill="#F5F5F5" />
    <path
        d="M3721.04 2369.23C3721.04 2370.01 2887.99 2370.69 1860.63 2370.69C833.277 2370.69 0 2370.01 0 2369.23C0 2368.44 832.884 2367.82 1860.63 2367.82C2888.38 2367.82 3721.04 2368.39 3721.04 2369.23Z"
        fill="#263238" />
    <path
        d="M1108.19 859.005L1147.85 1535.28C1148.52 1546.88 1153.6 1557.79 1162.05 1565.78C1170.49 1573.77 1181.67 1578.23 1193.29 1578.25L2410.57 1581.96C2416.57 1581.98 2422.51 1580.82 2428.05 1578.54C2433.6 1576.27 2438.64 1572.92 2442.89 1568.7C2447.15 1564.47 2450.52 1559.45 2452.83 1553.92C2455.14 1548.38 2456.34 1542.45 2456.35 1536.46L2457.98 1009.89C2458 1003.87 2456.82 997.901 2454.52 992.336C2452.22 986.772 2448.85 981.716 2444.59 977.461C2440.33 973.207 2435.27 969.836 2429.7 967.544C2424.13 965.252 2418.17 964.083 2412.14 964.105L1663.52 966.633C1657.53 966.656 1651.59 965.497 1646.05 963.222C1640.51 960.947 1635.47 957.601 1631.22 953.376L1501.52 824.851C1492.99 816.413 1481.49 811.653 1469.5 811.594L1153.92 810.639C1147.68 810.629 1141.51 811.893 1135.79 814.355C1130.06 816.816 1124.89 820.422 1120.61 824.952C1116.33 829.481 1113.02 834.839 1110.88 840.695C1108.75 846.551 1107.83 852.782 1108.19 859.005Z"
        fill="#4EAD60" />
    <path opacity="0.3"
        d="M1108.19 859.005L1147.85 1535.28C1148.52 1546.88 1153.6 1557.79 1162.05 1565.78C1170.49 1573.77 1181.67 1578.23 1193.29 1578.25L2410.57 1581.96C2416.57 1581.98 2422.51 1580.82 2428.05 1578.54C2433.6 1576.27 2438.64 1572.92 2442.89 1568.7C2447.15 1564.47 2450.52 1559.45 2452.83 1553.92C2455.14 1548.38 2456.34 1542.45 2456.35 1536.46L2457.98 1009.89C2458 1003.87 2456.82 997.901 2454.52 992.336C2452.22 986.772 2448.85 981.716 2444.59 977.461C2440.33 973.207 2435.27 969.836 2429.7 967.544C2424.13 965.252 2418.17 964.083 2412.14 964.105L1663.52 966.633C1657.53 966.656 1651.59 965.497 1646.05 963.222C1640.51 960.947 1635.47 957.601 1631.22 953.376L1501.52 824.851C1492.99 816.413 1481.49 811.653 1469.5 811.594L1153.92 810.639C1147.68 810.629 1141.51 811.893 1135.79 814.355C1130.06 816.816 1124.89 820.422 1120.61 824.952C1116.33 829.481 1113.02 834.839 1110.88 840.695C1108.75 846.551 1107.83 852.782 1108.19 859.005Z"
        fill="black" />
    <path d="M1522.33 556.466L1122.05 1081.91L1542.12 1401.93L1942.41 876.481L1522.33 556.466Z" fill="white" />
    <path
        d="M1522.3 556.399L1520.45 558.983L1514.83 566.341C1509.89 572.914 1502.64 582.463 1493.26 594.99L1411.64 702.731L1123.08 1082.63L1122.8 1080.83L1542.97 1400.69L1540.89 1400.97L1941.36 875.689L1941.64 877.374L1637.23 644.703L1552.3 579.598L1529.83 562.409L1522.3 556.399L1529.94 562.016L1552.41 578.868L1637.34 643.299L1943.15 875.408L1944.11 876.138L1943.38 877.149L1543.31 1402.76L1542.41 1403.94L1541.23 1403.05L1121.28 1082.86L1120.27 1082.07L1121.05 1081L1411.19 701.214L1493.2 594.091L1514.89 566.004L1520.5 558.814L1522.3 556.399Z"
        fill="#263238" />
    <path d="M1534.43 595.388L1162.26 1083.92L1529.48 1363.67L1901.64 875.133L1534.43 595.388Z" fill="#263238" />
    <path d="M1529.49 1369.4L1431.19 1024.89L1654.53 1027.97L1632.79 898.102L1901.64 880.856L1529.49 1369.4Z"
        fill="#455A64" />
    <path
        d="M1495.22 933.545C1521.68 929.934 1540.21 905.552 1536.6 879.085C1532.99 852.619 1508.61 834.092 1482.14 837.703C1455.67 841.314 1437.15 865.697 1440.76 892.163C1444.37 918.629 1468.75 937.157 1495.22 933.545Z"
        fill="#455A64" />
    <path d="M1611.26 550.708L1580.99 1285.11L2499.61 1322.97L2529.87 588.566L1611.26 550.708Z" fill="white" />
    <path
        d="M2529.66 588.417H2525.28L2512.47 587.968L2462.64 586.058L2274.69 578.7L1611 552.017L1612.35 550.781C1603.42 769.352 1593.14 1019.94 1582.29 1285.14L1580.89 1283.62L2499.72 1321.59L2498.48 1322.77C2507.86 1101.45 2515.62 917.987 2520.95 789.856C2523.76 725.705 2525.95 675.374 2527.41 641.108C2528.2 623.975 2528.76 610.831 2529.15 601.787C2529.55 592.743 2529.83 588.305 2529.83 588.305C2529.83 588.305 2529.83 592.743 2529.44 601.562C2529.04 610.381 2528.59 623.47 2527.97 640.49C2526.63 674.756 2524.66 724.751 2522.36 789.013C2517.25 917.369 2509.89 1101.11 2501.01 1322.66V1323.84H2499.72L1580.78 1286.49H1579.32V1285.02C1590.27 1019.83 1600.66 769.24 1609.71 550.669V549.377H1611L2275.47 577.464L2463.09 585.553L2512.64 587.743L2525.33 588.305L2529.66 588.417Z"
        fill="#263238" />
    <path d="M1640.99 598.226L1614.53 1240.19L2468.6 1275.39L2495.05 633.425L1640.99 598.226Z" fill="#455A64" />
    <path d="M1614.43 1240.09L1929.11 853.331L2103.64 1110.61L2234.47 982.306L2468.49 1275.25L1614.43 1240.09Z"
        fill="#263238" />
    <path
        d="M2192.75 827.257C2200.88 790.991 2178.07 754.999 2141.81 746.866C2105.54 738.733 2069.55 761.539 2061.42 797.805C2053.28 834.071 2076.09 870.063 2112.36 878.196C2148.62 886.329 2184.61 863.523 2192.75 827.257Z"
        fill="#263238" />
    <path d="M2574.15 904.112L1329.79 1075.44L1461.58 1986.8L2695.71 1812.94L2574.15 904.112Z" fill="#EBEBEB" />
    <path d="M2578.92 790.417L1348.95 1045.33L1541.96 1945.74L2761.54 1688.97L2578.92 790.417Z" fill="#E0E0E0" />
    <path d="M2470.28 689.361L1285.42 1106.28L1596.9 1972.87L2771.32 1555.5L2470.28 689.361Z" fill="white" />
    <path
        d="M2470.28 689.361C2473.54 698.686 2589.43 1030.61 2772.44 1555.11L2772.83 1556.23L2771.71 1556.62L1597.69 1974.22L1596.28 1974.72L1595.83 1973.32L1593.53 1967.03C1482.7 1658.47 1377.6 1365.97 1284.57 1106.73L1284.13 1105.44L1285.36 1105.04L2470.62 689.361L1285.87 1107.52L1286.65 1105.83L1596 1966.02L1598.3 1972.36L1596.39 1971.46L2770.92 1554.38L2770.19 1555.89C2588.53 1030.9 2473.54 698.686 2470.28 689.361Z"
        fill="#263238" />
    <path
        d="M2503.71 1520.56C2501.4 1521.4 2444.5 1373.61 2376.59 1190.48C2308.67 1007.36 2255.36 858.219 2257.67 857.376C2259.97 856.533 2316.82 1004.27 2384.79 1187.45C2452.76 1370.63 2505.95 1519.6 2503.71 1520.56Z"
        fill="#263238" />
    <path
        d="M2402.48 1566.79C2400.24 1567.63 2343.28 1419.84 2275.36 1236.77C2207.45 1053.7 2154.2 904.449 2156.44 903.607C2158.69 902.764 2215.65 1050.56 2283.62 1233.68C2351.59 1416.81 2404.79 1565.95 2402.48 1566.79Z"
        fill="#263238" />
    <path
        d="M2088.3 1698.4C2086.06 1699.25 2029.1 1551.46 1961.18 1368.33C1893.27 1185.2 1840.02 1036.06 1842.26 1035.22C1844.51 1034.38 1901.47 1182.11 1969.39 1365.3C2037.3 1548.48 2090.55 1697.56 2088.3 1698.4Z"
        fill="#263238" />
    <path
        d="M2188.46 1658.07C2186.16 1658.91 2129.26 1511.12 2061.34 1328C1993.43 1144.87 1940.12 995.731 1942.42 994.888C1944.73 994.046 2001.57 1141.78 2069.54 1324.96C2137.51 1508.15 2190.77 1657.23 2188.46 1658.07Z"
        fill="#263238" />
    <path
        d="M2288.56 1617.74C2286.32 1618.58 2229.41 1470.79 2161.44 1287.72C2093.47 1104.65 2040.28 955.398 2042.52 954.556C2044.77 953.713 2101.73 1101.51 2169.7 1284.63C2237.67 1467.76 2290.87 1616.9 2288.56 1617.74Z"
        fill="#263238" />
    <path
        d="M1972.31 1731.77C1970.06 1732.61 1913.1 1584.82 1845.19 1401.7C1777.27 1218.57 1724.02 1069.43 1726.27 1068.59C1728.51 1067.75 1785.47 1215.48 1853.44 1398.66C1921.41 1581.85 1974.61 1730.93 1972.31 1731.77Z"
        fill="#263238" />
    <path
        d="M1861.36 1772.39C1859.12 1773.23 1802.21 1625.44 1734.24 1442.37C1666.27 1259.3 1613.08 1110.1 1615.32 1109.54C1617.57 1108.98 1674.53 1256.49 1742.5 1439.61C1810.47 1622.74 1863.67 1771.6 1861.36 1772.39Z"
        fill="#263238" />
    <path
        d="M1750.48 1813.11C1748.17 1813.95 1691.27 1666.16 1623.3 1483.09C1555.33 1300.02 1502.13 1150.77 1504.44 1149.93C1506.74 1149.08 1563.59 1296.88 1631.56 1480C1699.53 1663.13 1752.61 1812.27 1750.48 1813.11Z"
        fill="#263238" />
    <path
        d="M1083.31 1229.19L1182.34 2058.25C1183.19 2065.37 1186.61 2071.93 1191.96 2076.7C1197.31 2081.47 1204.21 2084.12 1211.38 2084.15L2507.53 2088.08C2514.92 2088.12 2522.06 2085.36 2527.51 2080.36C2532.95 2075.36 2536.31 2068.49 2536.91 2061.12L2604.71 1232.56C2605.03 1228.52 2604.52 1224.45 2603.2 1220.62C2601.88 1216.79 2599.79 1213.27 2597.04 1210.28C2594.3 1207.3 2590.97 1204.91 2587.26 1203.28C2583.56 1201.64 2579.55 1200.78 2575.5 1200.76L1112.57 1196.33C1108.41 1196.31 1104.3 1197.18 1100.5 1198.88C1096.7 1200.58 1093.3 1203.06 1090.54 1206.17C1087.77 1209.27 1085.7 1212.93 1084.45 1216.9C1083.2 1220.87 1082.81 1225.06 1083.31 1229.19Z"
        fill="#4EAD60" />
    <path d="M2669.14 997.978L2625.44 1029.27L2650.94 1154.53L2708.35 1103.3L2669.14 997.978Z" fill="#BF7A62" />
    <path
        d="M2679.08 1940.12L2860.8 1851.81L3093.92 1879.9C3109.53 1891.66 3120.01 1908.98 3123.19 1928.27C3124.73 1934.5 3123.79 1941.09 3120.55 1946.64C3115.32 1953.94 3104.59 1954.84 3095.89 1952.7C3087.18 1950.57 3079.04 1946.02 3070.1 1944.95C3052.75 1942.93 3036.74 1953.99 3023.71 1965.62C3010.67 1977.25 2997.7 1990.51 2980.68 1994.44C2965.37 1996.95 2949.66 1994.01 2936.3 1986.13C2922.71 1979.05 2910.57 1969.27 2896.98 1961.69C2872.35 1946.81 2843.52 1940.4 2814.91 1943.43C2792.44 1946.41 2771.09 1956.3 2748.51 1959.89C2725.93 1963.49 2691.05 1959.5 2678.8 1940.23"
        fill="#455A64" />
    <path
        d="M3112.35 2300.7C3112.35 2300.7 2963.49 1793.17 2960.68 1776.94C2958.09 1762.27 2981.29 1406.7 2991.69 1314.46L2827.72 1315.81V1317.38L2749.8 1319.29L2784.63 2328.5L2885.46 2336.25L2884.79 2003.26C2948.38 2164.08 3022.13 2343.16 3022.13 2343.16L3112.35 2300.7Z"
        fill="#D89377" />
    <path
        d="M2818.33 1753.68C2818.33 1753.68 2818 1757.61 2817.66 1764.91C2817.08 1774.93 2817.23 1784.97 2818.11 1794.97C2819.35 1809.81 2821.81 1824.52 2825.47 1838.95C2830.3 1856.55 2836.23 1873.83 2843.22 1890.69C2857.04 1927.09 2869.4 1960.17 2878.16 1984.1C2882.32 1995.79 2885.8 2005.39 2888.38 2012.58C2889.75 2016.04 2890.88 2019.59 2891.75 2023.2C2889.99 2019.93 2888.47 2016.53 2887.2 2013.03C2884.39 2005.9 2880.58 1996.18 2875.97 1984.95C2866.64 1961.18 2853.95 1928.27 2840.13 1891.81C2836.7 1882.71 2833.33 1873.78 2830.13 1865.18C2827.11 1856.83 2824.56 1848.32 2822.49 1839.68C2818.95 1825.06 2816.7 1810.15 2815.75 1795.14C2815.11 1785.03 2815.3 1774.88 2816.31 1764.8C2816.71 1761.21 2817.16 1758.51 2817.55 1756.66C2817.63 1755.63 2817.9 1754.62 2818.33 1753.68Z"
        fill="#BF7A62" />
    <path
        d="M2885.01 2124.37C2885.01 2121.28 2887.32 2011.4 2887.32 2011.4C2887.32 2011.4 2850.8 1909.45 2849.85 1912.54C2848.89 1915.63 2885.01 2124.37 2885.01 2124.37Z"
        fill="#BF7A62" />
    <path
        d="M2778.96 2328.17V2316.93L2885.69 2319.07L2885.13 2356.48L2878.55 2356.81C2849.17 2357.88 2729.02 2360.35 2709.47 2354.06C2688.18 2346.87 2778.96 2328.17 2778.96 2328.17Z"
        fill="#4EAD60" />
    <g opacity="0.3">
        <path
            d="M2847.04 2354.85C2848.77 2345.89 2853.75 2337.89 2861.03 2332.38C2868.15 2326.91 2877.08 2324.32 2886.02 2325.13L2885.52 2354.85H2847.04Z"
            fill="white" />
    </g>
    <path opacity="0.3"
        d="M2734.58 2338.9C2734.58 2338.9 2702.67 2347.43 2706.49 2352.77C2710.31 2358.11 2831.87 2360.13 2885.52 2356.37V2354.01L2743.79 2352.77C2743.79 2352.77 2740.76 2339.23 2734.58 2338.9Z"
        fill="white" />
    <path
        d="M2887.32 2353.95C2886.7 2354.02 2886.08 2354.02 2885.46 2353.95H2880.24L2860.86 2354.45C2844.51 2354.74 2821.93 2354.9 2796.99 2354.45C2772.05 2354.01 2749.47 2353.16 2733.12 2352.32L2713.8 2351.2L2708.57 2350.8H2713.8L2733.18 2351.53C2749.52 2352.15 2772.05 2352.88 2796.99 2353.28C2821.93 2353.67 2844.51 2353.72 2860.86 2353.67H2880.24H2885.46L2887.32 2353.95Z"
        fill="#263238" />
    <path
        d="M2743.74 2354.4C2742.94 2351.18 2741.78 2348.07 2740.25 2345.13C2738.39 2342.38 2736.23 2339.86 2733.79 2337.6C2737.09 2338.85 2739.8 2341.3 2741.38 2344.46C2743.34 2347.38 2744.17 2350.91 2743.74 2354.4Z"
        fill="#263238" />
    <path
        d="M2775.42 2339.01C2775.08 2339.01 2773.62 2337.32 2772.1 2334.85C2771.02 2333.45 2770.27 2331.81 2769.91 2330.08C2770.25 2330.08 2771.71 2331.7 2773.23 2334.18C2774.32 2335.6 2775.07 2337.25 2775.42 2339.01Z"
        fill="#263238" />
    <path
        d="M2784.07 2334.63C2784.07 2334.63 2782.22 2333.73 2780.36 2332.04C2778.51 2330.36 2777.33 2328.78 2777.55 2328.5C2777.78 2328.22 2779.46 2329.4 2781.26 2331.09C2783.06 2332.77 2784.35 2334.12 2784.07 2334.63Z"
        fill="#263238" />
    <path
        d="M2789.74 2324.68C2787.93 2325.28 2786.02 2325.47 2784.13 2325.24C2781.09 2325.24 2778.51 2324.96 2778.51 2324.57C2780.31 2323.96 2782.23 2323.75 2784.13 2323.95C2786.03 2323.76 2787.95 2324.01 2789.74 2324.68Z"
        fill="#263238" />
    <path
        d="M2791.82 2317.61C2789.89 2318.59 2787.77 2319.17 2785.61 2319.29C2783.44 2319.42 2781.27 2319.09 2779.24 2318.34C2781.32 2318.02 2783.43 2317.9 2785.53 2318C2787.61 2317.69 2789.72 2317.56 2791.82 2317.61Z"
        fill="#263238" />
    <path
        d="M2771.94 2329.68C2769.68 2330.05 2767.39 2330.05 2765.14 2329.68C2762.66 2329.33 2760.21 2328.75 2757.84 2327.94C2756.41 2327.49 2755.04 2326.89 2753.74 2326.14C2752.93 2325.66 2752.34 2324.9 2752.05 2324.01C2751.97 2323.49 2752.03 2322.96 2752.23 2322.48C2752.43 2321.99 2752.75 2321.57 2753.17 2321.26C2755.81 2320.03 2758.79 2319.76 2761.61 2320.49C2764.43 2321.22 2766.9 2322.9 2768.62 2325.24C2769.63 2326.6 2770.35 2328.15 2770.76 2329.79C2770.76 2330.97 2770.76 2331.65 2770.76 2331.65C2770.1 2329.62 2769.09 2327.72 2767.78 2326.03C2766.3 2324.23 2764.36 2322.87 2762.16 2322.1C2760.84 2321.63 2759.44 2321.42 2758.04 2321.5C2756.64 2321.58 2755.28 2321.93 2754.02 2322.55C2752.89 2323.33 2753.29 2324.57 2754.52 2325.36C2755.72 2326.04 2756.98 2326.61 2758.29 2327.04C2760.57 2327.89 2762.92 2328.54 2765.31 2329.01C2769.35 2329.4 2771.94 2329.46 2771.94 2329.68Z"
        fill="#263238" />
    <path
        d="M2770.19 2329.96C2769.34 2328.53 2769.08 2326.81 2769.46 2325.19C2769.71 2323.41 2770.39 2321.71 2771.43 2320.24C2772.01 2319.26 2772.82 2318.43 2773.81 2317.84C2774.79 2317.25 2775.9 2316.92 2777.05 2316.87C2777.74 2317.04 2778.34 2317.46 2778.73 2318.06C2779.12 2318.65 2779.26 2319.38 2779.13 2320.08C2778.92 2321.16 2778.5 2322.19 2777.89 2323.11C2776.99 2324.61 2775.87 2325.98 2774.58 2327.15C2772.44 2329.23 2770.7 2330.02 2770.64 2329.85C2770.59 2329.68 2772.05 2328.67 2773.96 2326.54C2775.06 2325.29 2776.04 2323.93 2776.88 2322.49C2777.83 2321.03 2778.51 2318.45 2776.88 2318.11C2775.25 2317.77 2773.4 2319.63 2772.33 2320.98C2771.34 2322.27 2770.64 2323.76 2770.31 2325.36C2770.12 2326.89 2770.08 2328.43 2770.19 2329.96Z"
        fill="#263238" />
    <path
        d="M2885.46 2324.8C2885.46 2324.8 2882.43 2324.46 2877.6 2324.8C2871.33 2325.39 2865.36 2327.72 2860.35 2331.54C2855.31 2335.39 2851.42 2340.56 2849.12 2346.48C2847.43 2351.03 2847.21 2354.12 2846.98 2354.06C2846.86 2353.36 2846.86 2352.63 2846.98 2351.93C2847.17 2350.01 2847.59 2348.13 2848.22 2346.31C2850.28 2340.07 2854.2 2334.6 2859.45 2330.64C2864.65 2326.67 2870.91 2324.35 2877.43 2323.95C2879.31 2323.86 2881.19 2323.96 2883.05 2324.23C2883.88 2324.27 2884.7 2324.46 2885.46 2324.8Z"
        fill="#263238" />
    <path
        d="M2833.84 2344.23C2828.73 2345.32 2823.5 2345.76 2818.28 2345.52C2813.05 2345.69 2807.82 2345.19 2802.72 2344.01C2802.72 2343.61 2809.68 2344.01 2818.28 2344.01C2826.87 2344.01 2833.78 2343.84 2833.84 2344.23Z"
        fill="#263238" />
    <path
        d="M2854.68 2344.57C2854.68 2344.85 2854.06 2346.03 2853.33 2347.6C2852.6 2349.17 2852.21 2350.58 2851.81 2350.58C2851.42 2350.58 2851.31 2348.89 2852.15 2347.04C2852.99 2345.19 2854.45 2344.29 2854.68 2344.57Z"
        fill="#263238" />
    <path
        d="M2862.71 2334.91C2862.71 2335.19 2862.26 2336.25 2861.14 2337.38C2860.02 2338.5 2858.89 2339.12 2858.67 2338.89C2858.44 2338.67 2859.12 2337.55 2860.24 2336.42C2861.36 2335.3 2862.43 2334.68 2862.71 2334.91Z"
        fill="#263238" />
    <path
        d="M2874 2330.64C2874 2331.03 2872.54 2330.97 2870.97 2331.48C2869.4 2331.99 2868.27 2332.83 2867.99 2332.6C2867.71 2332.38 2868.61 2330.86 2870.58 2330.24C2872.54 2329.63 2874.17 2330.3 2874 2330.64Z"
        fill="#263238" />
    <path
        d="M2882.09 2328.5C2882.09 2328.84 2881.59 2329.4 2880.69 2329.68C2879.79 2329.96 2879 2330.02 2878.83 2329.68C2878.67 2329.35 2879.34 2328.84 2880.24 2328.5C2881.14 2328.17 2881.7 2328.5 2882.09 2328.5Z"
        fill="#263238" />
    <path
        d="M3022.13 2345.35L3017.3 2335.07L3113.92 2289.29L3130.21 2323L3124.59 2326.26C3098.75 2340.36 2992.3 2396.14 2972.03 2399.28C2949.11 2402.76 3022.13 2345.35 3022.13 2345.35Z"
        fill="#4EAD60" />
    <g opacity="0.3">
        <path
            d="M3095.16 2339.01C3092.7 2330.22 3093.58 2320.84 3097.63 2312.66C3101.59 2304.6 3108.43 2298.31 3116.78 2295.02L3129.59 2321.87L3095.16 2339.01Z"
            fill="white" />
    </g>
    <path opacity="0.3"
        d="M2987.14 2374.9C2987.14 2374.9 2962.48 2396.81 2968.26 2399.79C2974.05 2402.76 3083.75 2350.47 3130.15 2323.17L3128.97 2321.09L3001.52 2383.22C3001.52 2383.22 2992.87 2372.49 2987.14 2374.9Z"
        fill="white" />
    <path
        d="M3130.44 2320.3C3129.95 2320.69 3129.42 2321.03 3128.86 2321.31L3124.26 2323.84L3107.4 2332.94C3092.91 2340.47 3072.74 2350.69 3050.22 2361.42C3027.69 2372.15 3007.13 2381.47 2992.14 2387.99L2974.1 2395.91L2969.22 2397.88L2967.48 2398.5C2967.99 2398.16 2968.54 2397.88 2969.1 2397.65L2973.88 2395.46L2991.52 2387.49C3006.4 2380.74 3026.91 2371.31 3049.43 2360.58C3071.96 2349.85 3092.12 2339.74 3106.73 2332.49L3124.03 2323.78L3128.75 2321.48C3129.28 2321.05 3129.85 2320.66 3130.44 2320.3Z"
        fill="#263238" />
    <path
        d="M3002.25 2384.68C3000.16 2382.11 2997.74 2379.82 2995.06 2377.88C2992.16 2376.25 2989.09 2374.95 2985.9 2374C2989.41 2373.72 2992.9 2374.72 2995.73 2376.81C2998.83 2378.5 3001.17 2381.31 3002.25 2384.68Z"
        fill="#263238" />
    <path
        d="M3023.76 2356.59C3022.02 2356.21 3020.39 2355.44 3018.99 2354.34C3016.52 2352.83 3014.66 2351.31 3014.89 2351.03C3015.11 2350.75 3017.19 2351.7 3019.66 2353.22C3022.13 2354.74 3023.93 2356.59 3023.76 2356.59Z"
        fill="#263238" />
    <path
        d="M3029.55 2349.01C3029.55 2349.34 3027.47 2349.01 3025.11 2348.33C3022.75 2347.66 3020.9 2346.82 3021.01 2346.48C3021.12 2346.14 3023.09 2346.48 3025.5 2347.1C3027.92 2347.71 3029.66 2348.61 3029.55 2349.01Z"
        fill="#263238" />
    <path
        d="M3030.17 2337.55C3030.17 2337.88 3028.2 2339.23 3025.45 2340.58C3023.84 2341.57 3022.04 2342.22 3020.17 2342.49C3020.17 2342.15 3022.13 2340.8 3024.88 2339.46C3026.49 2338.46 3028.29 2337.81 3030.17 2337.55Z"
        fill="#263238" />
    <path
        d="M3028.82 2330.36C3028.82 2330.36 3027.13 2332.88 3023.99 2334.68C3022.19 2335.95 3020.06 2336.63 3017.86 2336.65C3019.63 2335.44 3021.51 2334.41 3023.48 2333.56C3026.35 2331.87 3028.54 2330.08 3028.82 2330.36Z"
        fill="#263238" />
    <path
        d="M3016.51 2349.96C3014.65 2351.3 3012.56 2352.29 3010.34 2352.88C3007.96 2353.66 3005.51 2354.23 3003.03 2354.57C3001.54 2354.77 3000.03 2354.77 2998.54 2354.57C2997.61 2354.51 2996.74 2354.08 2996.12 2353.39C2995.84 2352.95 2995.68 2352.45 2995.68 2351.93C2995.68 2351.41 2995.84 2350.9 2996.12 2350.47C2997.95 2348.2 3000.49 2346.63 3003.34 2346.02C3006.18 2345.4 3009.15 2345.78 3011.74 2347.1C3013.26 2347.87 3014.6 2348.97 3015.67 2350.3C3016.46 2351.2 3016.74 2351.81 3016.63 2351.87C3015.12 2350.26 3013.33 2348.93 3011.35 2347.94C3009.18 2346.99 3006.78 2346.67 3004.44 2347.04C3003.04 2347.2 3001.69 2347.63 3000.47 2348.32C2999.24 2349 2998.17 2349.92 2997.3 2351.03C2996.69 2352.26 2997.58 2353.22 2998.99 2353.33C3000.39 2353.47 3001.8 2353.47 3003.2 2353.33C3005.61 2353.05 3007.99 2352.6 3010.34 2351.98C3014.04 2350.97 3016.51 2349.79 3016.51 2349.96Z"
        fill="#263238" />
    <path
        d="M3015.05 2350.97C3015.05 2350.97 3013.31 2349.96 3012.3 2347.04C3011.71 2345.33 3011.55 2343.49 3011.85 2341.7C3011.91 2340.53 3012.27 2339.4 3012.9 2338.41C3013.53 2337.43 3014.41 2336.63 3015.45 2336.09C3016.13 2335.91 3016.86 2336.02 3017.47 2336.38C3018.08 2336.73 3018.52 2337.31 3018.71 2338C3019.07 2339.04 3019.16 2340.16 3018.99 2341.25C3018.84 2343.02 3018.46 2344.76 3017.86 2346.42C3017.46 2347.99 3016.64 2349.43 3015.5 2350.58C3015.5 2350.58 3016.23 2348.89 3016.96 2346.14C3017.42 2344.53 3017.7 2342.87 3017.81 2341.2C3017.81 2339.46 3017.47 2336.87 3015.78 2337.32C3014.1 2337.77 3013.37 2340.19 3012.98 2341.87C3012.63 2343.46 3012.63 2345.11 3012.98 2346.7C3013.51 2348.2 3014.2 2349.63 3015.05 2350.97Z"
        fill="#263238" />
    <path
        d="M3115.94 2294.8C3115.94 2294.8 3113.08 2295.87 3108.98 2298.45C3103.63 2301.8 3099.32 2306.57 3096.51 2312.21C3093.82 2317.92 3092.73 2324.25 3093.36 2330.52C3093.87 2335.3 3095.05 2338.16 3094.82 2338.22C3094.38 2337.65 3094.06 2337 3093.87 2336.31C3093.24 2334.48 3092.77 2332.6 3092.46 2330.69C3091.32 2323.23 3092.83 2315.6 3096.73 2309.14C3100.63 2302.67 3106.67 2297.78 3113.81 2295.3C3114.49 2295.03 3115.21 2294.86 3115.94 2294.8Z"
        fill="#263238" />
    <path
        d="M3078.31 2335.41C3074.23 2338.69 3069.73 2341.41 3064.94 2343.5C3060.36 2346.02 3055.47 2347.91 3050.39 2349.12C3050.39 2348.78 3056.68 2346.2 3064.37 2342.38C3072.07 2338.56 3078.31 2335.08 3078.31 2335.41Z"
        fill="#263238" />
    <path
        d="M3097.18 2326.42C3097.52 2326.42 3097.18 2328 3097.18 2329.74C3097.18 2331.48 3097.52 2332.94 3097.18 2333.05C3096.84 2333.17 3096 2331.76 3095.94 2329.74C3095.89 2327.72 3096.84 2326.26 3097.18 2326.42Z"
        fill="#263238" />
    <path
        d="M3100.05 2314.18C3100.38 2314.18 3100.05 2315.58 3100.05 2317.1C3100.05 2318.62 3098.81 2319.68 3098.47 2319.57C3098.14 2319.46 3098.47 2318.17 3098.81 2316.65C3099.15 2315.13 3099.71 2314.07 3100.05 2314.18Z"
        fill="#263238" />
    <path
        d="M3108.3 2305.3C3108.3 2305.7 3107.12 2306.26 3105.94 2307.44C3104.76 2308.62 3104.09 2309.85 3103.75 2309.74C3103.42 2309.63 3103.75 2307.94 3105.04 2306.54C3106.34 2305.13 3108.25 2304.97 3108.3 2305.3Z"
        fill="#263238" />
    <path
        d="M3114.59 2299.97C3114.59 2299.97 3114.59 2300.98 3113.92 2301.65C3113.25 2302.33 3112.52 2302.72 3112.29 2302.44C3112.07 2302.16 3112.29 2301.48 3112.96 2300.75C3113.64 2300.02 3114.37 2299.74 3114.59 2299.97Z"
        fill="#263238" />
    <path
        d="M2987.3 1285.87C2942.37 1208.35 2931.13 1217.39 2946.3 1172.23L2990.11 1025.28L2971.58 933.154C2961.37 923.214 2949.18 915.544 2935.8 910.645C2922.42 905.747 2908.16 903.731 2893.94 904.73L2802.49 911.022C2802.49 911.022 2757.56 901.191 2691.16 965.566L2645.43 1008.43L2703.24 1118.13L2706.16 1167.9L2747.84 1304.01L2736.6 1364.06C2731.77 1409.73 2670.37 1933.49 2678.69 1941.8C2687 1950.12 2815.41 1886.36 2846.42 1912.54C2877.43 1938.72 2939.84 1954.78 2975.06 1943.49C3010.28 1932.2 3063.08 1862.15 3116.39 1909.39C3116.5 1909.39 3099.09 1444.67 2987.3 1285.87Z"
        fill="#263238" />
    <path
        d="M2936.97 911.078C2936.97 911.078 3032.47 936.412 3018.14 1004.44C3011.23 1038.14 2965.57 1107.68 2965.57 1107.68L2857.6 1056.62L2936.97 911.078Z"
        fill="#263238" />
    <path
        d="M2742.67 1331.93C2761.5 1315.65 2785.76 1307.03 2810.64 1307.78C2823.26 1308.23 2835.55 1311.88 2846.37 1318.39C2858.91 1325.91 2868.75 1337.22 2874.45 1350.69C2877.46 1358 2878.81 1365.89 2878.38 1373.78C2877.78 1381.99 2875.39 1389.97 2871.36 1397.15C2863.67 1411.92 2851.53 1424.22 2843.28 1439.28C2835.02 1454.33 2834.51 1471.58 2835.69 1487.64C2836.87 1503.71 2839.23 1519.83 2835.69 1534.88C2834.18 1542.2 2831.41 1549.2 2827.49 1555.56C2823.89 1561.74 2818.67 1566.81 2812.38 1570.22C2806.41 1573.33 2799.61 1574.49 2792.94 1573.53C2786.95 1572.54 2781.22 1570.34 2776.09 1567.07C2767.59 1561.29 2759.81 1554.52 2752.89 1546.91C2747.4 1541.55 2741.62 1536.48 2735.59 1531.74C2731.79 1528.71 2727.77 1525.97 2723.57 1523.54C2720.71 1521.85 2719.08 1521.12 2719.13 1521.01C2719.19 1520.9 2719.58 1521.01 2720.37 1521.4C2721.16 1521.8 2722.39 1522.25 2723.85 1522.98C2728.19 1525.24 2732.34 1527.85 2736.27 1530.78C2742.45 1535.44 2748.37 1540.43 2754.02 1545.73C2760.96 1553.12 2768.73 1559.7 2777.16 1565.33C2782.1 1568.38 2787.6 1570.4 2793.34 1571.28C2799.52 1572.12 2805.8 1571 2811.31 1568.08C2817.18 1564.83 2822.04 1560.03 2825.36 1554.21C2829.07 1548.08 2831.7 1541.35 2833.11 1534.32C2836.54 1519.89 2834.06 1504.1 2833.11 1487.87C2832.35 1479.5 2832.35 1471.07 2833.11 1462.7C2834.05 1454 2836.68 1445.56 2840.86 1437.87C2849.23 1422.31 2861.31 1410.12 2868.95 1395.85C2872.84 1388.96 2875.16 1381.28 2875.74 1373.39C2876.17 1365.9 2874.92 1358.42 2872.09 1351.48C2866.73 1338.51 2857.39 1327.57 2845.41 1320.25C2834.99 1313.82 2823.1 1310.16 2810.86 1309.63C2793.04 1308.51 2775.27 1312.57 2759.69 1321.31C2755.42 1323.62 2751.28 1326.15 2747.28 1328.9L2744.13 1331.09C2743.12 1331.76 2742.73 1331.99 2742.67 1331.93Z"
        fill="#FAFAFA" />
    <path
        d="M3105.27 1767.5L3103.81 1767.89L3099.43 1768.62C3095.55 1769.24 3089.88 1770.14 3082.57 1771.09C3061.83 1774.24 3040.86 1775.67 3019.89 1775.36C3005.36 1775.13 2990.9 1773.25 2976.8 1769.75C2960.52 1765.71 2945.08 1758.85 2931.19 1749.47C2915.64 1739.13 2903.28 1724.66 2895.52 1707.67C2887.3 1689.24 2885.61 1668.55 2890.74 1649.03C2893.56 1639.19 2898.53 1630.09 2905.29 1622.4C2912.02 1615.33 2919.33 1608.83 2927.14 1602.97C2934.55 1597.42 2941.31 1591.07 2947.31 1584.04C2952.72 1577.1 2956.45 1569.01 2958.21 1560.39C2961.8 1543.54 2960.12 1526.68 2960.9 1511.07C2960.85 1496.38 2964.52 1481.93 2971.58 1469.05C2977.57 1458.56 2985.73 1449.47 2995.51 1442.37C3002.82 1436.97 3010.96 1432.8 3019.6 1430.01C3025.07 1428.23 3030.73 1427.1 3036.46 1426.64H3040.89H3042.41C3034.76 1427.22 3027.21 1428.75 3019.94 1431.19C3011.5 1434.11 3003.57 1438.36 2996.46 1443.77C2985.94 1451.54 2977.42 1461.71 2971.61 1473.43C2965.81 1485.16 2962.89 1498.1 2963.09 1511.18C2962.42 1526.63 2964.27 1543.48 2960.62 1561.01C2958.88 1570.03 2955.03 1578.52 2949.39 1585.78C2943.29 1593.03 2936.4 1599.57 2928.83 1605.27C2921.14 1611.05 2913.94 1617.45 2907.31 1624.42C2900.89 1631.79 2896.15 1640.48 2893.44 1649.87C2888.49 1668.74 2890.11 1688.73 2898.04 1706.55C2905.53 1723.12 2917.52 1737.25 2932.65 1747.33C2946.25 1756.59 2961.36 1763.39 2977.31 1767.44C2991.21 1771.06 3005.47 1773.11 3019.83 1773.57C3040.7 1774.01 3061.58 1772.9 3082.29 1770.25L3099.15 1768.34L3103.53 1767.84L3105.27 1767.5Z"
        fill="#FAFAFA" />
    <path
        d="M2837.49 1907.93C2838.09 1907.39 2838.75 1906.92 2839.46 1906.53C2841.49 1905.51 2843.38 1904.22 2845.07 1902.71C2847.04 1900.74 2846.25 1897.09 2845.07 1893.1C2843.4 1888.71 2841.33 1884.48 2838.89 1880.46C2833.78 1871.19 2827.66 1860.18 2820.36 1848.39C2812.49 1835.56 2803.06 1823.77 2792.27 1813.28C2781.52 1802.81 2768.62 1794.8 2754.47 1789.8C2742.94 1785.73 2730.6 1784.56 2718.51 1786.37C2710.38 1787.77 2702.68 1791.06 2696.05 1795.98C2691.38 1799.52 2689.19 1801.99 2688.97 1801.6C2689.37 1800.9 2689.86 1800.25 2690.43 1799.69C2691.96 1797.97 2693.61 1796.38 2695.37 1794.91C2701.93 1789.47 2709.76 1785.78 2718.12 1784.18C2730.56 1781.98 2743.35 1782.97 2755.31 1787.05C2769.91 1792.04 2783.23 1800.22 2794.29 1810.98C2805.27 1821.64 2814.81 1833.68 2822.66 1846.82C2830.02 1858.72 2835.81 1869.96 2840.75 1879.28C2843.03 1883.48 2844.91 1887.88 2846.37 1892.43C2846.97 1894.36 2847.34 1896.36 2847.49 1898.38C2847.56 1899.28 2847.44 1900.19 2847.14 1901.04C2846.84 1901.89 2846.37 1902.67 2845.75 1903.33C2843.97 1904.82 2841.96 1906.02 2839.79 1906.86C2838.33 1907.71 2837.55 1908.04 2837.49 1907.93Z"
        fill="#FAFAFA" />
    <path
        d="M2960.34 1247.5C2960.34 1247.5 2959.67 1248.85 2957.65 1250.42C2954.7 1252.6 2951.3 1254.1 2947.7 1254.8C2942.33 1255.85 2936.76 1255.38 2931.64 1253.46C2925.38 1250.98 2919.99 1246.72 2916.13 1241.21C2909.39 1231.2 2906.48 1219.09 2907.93 1207.11C2908.11 1202.22 2909.18 1197.41 2911.08 1192.9C2911.58 1192.9 2910.35 1198.52 2910.01 1207.22C2909.21 1218.61 2912.19 1229.95 2918.49 1239.47C2922.06 1244.44 2926.94 1248.33 2932.59 1250.7C2937.27 1252.58 2942.36 1253.22 2947.37 1252.56C2951.99 1251.76 2956.4 1250.04 2960.34 1247.5Z"
        fill="#FAFAFA" />
    <path
        d="M2968.49 1085.95C2968.49 1085.95 2967.76 1085.95 2966.3 1086.45C2964.17 1086.64 2962.02 1086.64 2959.89 1086.45C2951.95 1085.85 2944.35 1082.98 2937.98 1078.19C2933.55 1074.9 2929.85 1070.71 2927.14 1065.89C2924.04 1060.31 2922.31 1054.07 2922.09 1047.69C2921.73 1040.63 2923.18 1033.59 2926.3 1027.24C2929.98 1020.79 2934.56 1014.89 2939.89 1009.72C2942.31 1007.09 2944.35 1004.14 2945.96 1000.96C2947.45 997.967 2948.02 994.604 2947.59 991.293C2945.86 984.874 2943.09 978.782 2939.39 973.262C2936.43 968.016 2935.11 962.01 2935.58 956.008C2936.05 950.006 2938.29 944.28 2942.03 939.558C2944.57 936.469 2947.73 933.937 2951.29 932.12C2954.86 930.304 2958.76 929.24 2962.76 928.997C2964.9 928.854 2967.05 928.986 2969.16 929.39C2969.9 929.461 2970.63 929.67 2971.3 930.008C2971.3 930.345 2968.26 929.503 2962.87 930.008C2959.07 930.462 2955.4 931.669 2952.07 933.56C2948.74 935.45 2945.82 937.986 2943.49 941.018C2940.11 945.448 2938.12 950.782 2937.78 956.344C2937.44 961.905 2938.76 967.442 2941.58 972.251C2945.54 977.997 2948.49 984.381 2950.29 991.125C2950.76 994.97 2950.12 998.871 2948.43 1002.36C2946.71 1005.8 2944.52 1008.97 2941.92 1011.8C2936.78 1016.81 2932.33 1022.48 2928.66 1028.65C2925.78 1034.57 2924.39 1041.11 2924.62 1047.69C2924.73 1053.29 2926.09 1058.79 2928.58 1063.8C2931.08 1068.81 2934.65 1073.21 2939.05 1076.68C2945.09 1081.38 2952.26 1084.4 2959.84 1085.44C2965.4 1086.11 2968.49 1085.66 2968.49 1085.95Z"
        fill="#FAFAFA" />
    <path
        d="M2710.71 1139.98C2713.71 1140.35 2716.73 1140.5 2719.75 1140.43C2727.95 1140.03 2735.75 1136.79 2741.83 1131.28C2746.17 1127.17 2749.33 1121.96 2750.96 1116.21C2752.59 1110.45 2752.64 1104.36 2751.1 1098.58C2749.29 1091.7 2745.36 1085.57 2739.86 1081.06C2733.49 1076.25 2727.92 1070.46 2723.35 1063.93C2719.62 1056.64 2718.3 1048.36 2719.58 1040.28C2720.42 1032.58 2722.22 1025.45 2723.4 1018.65C2724.75 1012.32 2725.15 1005.83 2724.58 999.382C2724.05 993.825 2721.92 988.54 2718.46 984.159C2713.35 977.764 2706.04 973.499 2697.96 972.195C2694.95 971.858 2691.93 971.745 2688.91 971.858C2688.91 971.858 2689.64 971.577 2691.21 971.24C2693.49 970.96 2695.79 970.96 2698.07 971.24C2706.66 972.166 2714.56 976.396 2720.09 983.036C2723.92 987.642 2726.32 993.264 2727 999.214C2727.71 1005.91 2727.38 1012.67 2726.04 1019.27C2724.92 1026.23 2723.18 1033.31 2722.45 1040.73C2721.26 1048.21 2722.46 1055.87 2725.87 1062.63C2730.35 1068.88 2735.72 1074.43 2741.83 1079.09C2747.61 1084.06 2751.71 1090.69 2753.57 1098.08C2755.16 1104.3 2755.03 1110.84 2753.18 1116.98C2751.32 1123.13 2747.83 1128.66 2743.06 1132.96C2736.57 1138.61 2728.25 1141.72 2719.64 1141.73C2717.33 1141.76 2715.03 1141.52 2712.79 1141C2711.44 1140.38 2710.65 1140.1 2710.71 1139.98Z"
        fill="#FAFAFA" />
    <path
        d="M2849.17 629.255C2858.76 627.346 2868.64 627.508 2878.16 629.731C2887.67 631.955 2896.6 636.188 2904.35 642.146C2912.1 648.105 2918.48 655.651 2923.07 664.279C2927.66 672.907 2930.35 682.416 2930.96 692.17C2931.64 702.899 2930.29 715.313 2937.87 722.953C2943.49 728.57 2951.47 729.469 2958.15 733.12C2964.4 736.732 2969.19 742.415 2971.69 749.185C2974.2 755.955 2974.25 763.386 2971.86 770.195C2969.27 776.879 2964.33 782.553 2961.8 789.294C2958.09 799.236 2955.01 810.64 2958.04 820.807C2973.65 874.172 2935.57 880.688 2915.68 884.283C2887.26 889.282 2858.44 880.238 2855.52 850.579C2854.57 840.973 2837.43 842.041 2827.88 843.276C2816.65 844.793 2807.83 854.511 2799.4 862.319C2786.64 875.315 2770.49 884.463 2752.78 888.721C2743.94 890.751 2734.73 890.572 2725.97 888.202C2717.21 885.831 2709.17 881.34 2702.56 875.127C2689.98 862.151 2686.89 839.85 2697.96 825.582C2691.2 822.503 2685.23 817.936 2680.49 812.222C2675.75 806.507 2672.36 799.795 2670.58 792.586C2668.8 785.377 2668.68 777.86 2670.22 770.597C2671.76 763.334 2674.92 756.513 2679.47 750.646C2686.38 741.715 2696.33 735.086 2701.33 724.919C2705.48 716.381 2709.98 696.832 2713.23 687.788C2717.84 675.037 2733.57 653.185 2745.76 647.231"
        fill="#455A64" />
    <path
        d="M2899.67 920.683L2794.18 922.2C2792.38 910.01 2788.84 862.656 2788.84 862.656C2788.84 862.656 2744.64 859.96 2739.97 816.481C2735.31 773.003 2733.46 672.228 2733.46 672.228C2757.21 659.268 2783.99 652.878 2811.04 653.717C2838.08 654.557 2864.41 662.595 2887.32 677.003L2894.23 681.328L2899.67 920.683Z"
        fill="#D89377" />
    <path
        d="M2785.31 788.114C2782.11 787.135 2778.76 786.736 2775.42 786.934C2773.85 786.934 2772.55 786.934 2772.38 785.867C2772.17 784.299 2772.4 782.701 2773.06 781.261L2776.65 768.622C2781.6 750.646 2784.86 735.873 2783.9 735.648C2782.95 735.423 2778.28 749.747 2773.34 767.723C2772.22 772.104 2771.09 776.317 2770.03 780.418C2769.29 782.566 2769.29 784.899 2770.03 787.047C2770.31 787.62 2770.72 788.122 2771.22 788.511C2771.73 788.901 2772.32 789.169 2772.95 789.294C2773.84 789.402 2774.75 789.402 2775.64 789.294C2778.91 789.409 2782.17 789.011 2785.31 788.114Z"
        fill="#263238" />
    <path
        d="M2788.68 862.038C2808.82 860.497 2828.06 853.009 2843.95 840.524C2843.95 840.524 2833.5 873.161 2789.63 873.329L2788.68 862.038Z"
        fill="#BF7A62" />
    <path
        d="M2818.11 742.613C2818.11 744.103 2817.52 745.532 2816.46 746.585C2815.41 747.639 2813.98 748.231 2812.49 748.231C2811.79 748.276 2811.08 748.179 2810.41 747.945C2809.74 747.71 2809.12 747.344 2808.6 746.867C2808.08 746.39 2807.65 745.812 2807.36 745.168C2807.06 744.524 2806.9 743.827 2806.88 743.119C2806.88 741.629 2807.47 740.2 2808.52 739.147C2809.57 738.093 2811 737.502 2812.49 737.502C2813.2 737.456 2813.91 737.553 2814.58 737.788C2815.25 738.022 2815.86 738.389 2816.39 738.866C2816.91 739.343 2817.33 739.92 2817.63 740.564C2817.93 741.208 2818.09 741.905 2818.11 742.613Z"
        fill="#263238" />
    <path
        d="M2827.15 736.659C2826.48 737.333 2822.38 734.187 2816.43 734.075C2810.47 733.963 2806.09 736.827 2805.19 736.097C2804.29 735.367 2805.64 734.468 2807.55 733.12C2810.16 731.4 2813.24 730.519 2816.37 730.592C2819.46 730.641 2822.46 731.685 2824.91 733.569C2826.93 735.03 2827.49 736.322 2827.15 736.659Z"
        fill="#263238" />
    <path
        d="M2757.27 742.445C2757.27 743.935 2756.68 745.364 2755.63 746.417C2754.58 747.471 2753.15 748.062 2751.66 748.062C2750.95 748.116 2750.24 748.026 2749.58 747.798C2748.91 747.57 2748.29 747.209 2747.77 746.736C2747.24 746.264 2746.82 745.69 2746.52 745.049C2746.22 744.408 2746.06 743.713 2746.04 743.007C2746.04 741.517 2746.63 740.088 2747.69 739.035C2748.74 737.981 2750.17 737.389 2751.66 737.389C2753.05 737.382 2754.4 737.897 2755.44 738.831C2756.48 739.766 2757.13 741.055 2757.27 742.445Z"
        fill="#263238" />
    <path
        d="M2765.14 737.558C2764.46 738.232 2760.36 735.086 2754.41 734.974C2748.46 734.862 2744.07 737.726 2743.18 736.996C2742.28 736.266 2743.62 735.367 2745.53 734.019C2748.16 732.319 2751.23 731.457 2754.35 731.547C2757.44 731.58 2760.43 732.604 2762.89 734.468C2764.91 735.929 2765.53 737.221 2765.14 737.558Z"
        fill="#263238" />
    <path
        d="M2795.3 803.393C2794.71 802.007 2794.38 800.52 2794.35 799.012C2794.36 798.25 2794.58 797.506 2795 796.869C2795.42 796.232 2796.01 795.728 2796.71 795.417C2797.72 795.08 2798.96 795.417 2799.85 794.686C2800.75 793.956 2801.09 792.102 2801.82 790.754C2802.36 789.896 2803.15 789.228 2804.09 788.845C2805.03 788.462 2806.06 788.383 2807.04 788.62C2808.99 789.179 2810.74 790.268 2812.1 791.765C2813.87 793.324 2814.99 795.488 2815.25 797.832C2815.18 798.957 2814.85 800.051 2814.28 801.026C2813.72 802.001 2812.93 802.831 2811.99 803.449C2810.04 804.699 2807.83 805.469 2805.53 805.696C2803.07 806.071 2800.59 806.165 2798.11 805.977C2797.4 805.961 2796.69 805.809 2796.03 805.528C2795.71 805.372 2795.44 805.122 2795.26 804.812C2795.08 804.502 2795 804.145 2795.02 803.786"
        fill="#BF7A62" />
    <path
        d="M2790.98 804.292C2795.87 803.702 2800.53 801.834 2804.47 798.876C2808.42 795.918 2811.51 791.974 2813.45 787.44"
        fill="#BF7A62" />
    <path
        d="M2813.62 787.44C2812.51 792.475 2809.63 796.946 2805.51 800.038C2801.39 803.131 2796.29 804.641 2791.15 804.292C2795.53 802.405 2799.77 800.208 2803.84 797.72C2810.02 793.114 2812.83 787.047 2813.62 787.44Z"
        fill="#263238" />
    <path d="M2743.62 721.492C2748.7 719.094 2754.43 718.442 2759.91 719.638Z" fill="#BF7A62" />
    <path
        d="M2759.91 719.638C2759.47 721.267 2755.93 721.661 2751.94 722.11C2747.95 722.559 2744.41 722.897 2743.62 721.492C2742.84 720.088 2746.04 716.886 2751.32 716.324C2756.6 715.762 2760.36 718.122 2759.91 719.638Z"
        fill="#263238" />
    <path d="M2804.8 721.942C2812.36 719.406 2820.6 719.869 2827.83 723.234Z" fill="#BF7A62" />
    <path
        d="M2827.83 723.178C2827.04 724.638 2822.21 723.515 2816.26 723.178C2810.3 722.841 2805.42 723.178 2805.02 721.829C2804.63 720.481 2809.52 716.886 2816.82 717.335C2824.12 717.785 2828.61 721.942 2827.83 723.178Z"
        fill="#263238" />
    <path
        d="M2828.95 628.413C2825.83 624.823 2822.01 621.91 2817.72 619.853C2813.43 617.795 2808.76 616.636 2804.01 616.448C2789.69 615.027 2775.24 617.392 2762.12 623.307C2749 629.222 2737.66 638.479 2729.24 650.152C2719.64 663.971 2714.81 683.238 2723.63 697.45C2726.65 702.224 2730.99 706.025 2736.12 708.399C2741.25 710.774 2746.96 711.62 2752.56 710.838C2758.16 710.056 2763.41 707.679 2767.69 703.99C2771.98 700.3 2775.11 695.456 2776.71 690.035C2776.8 693.301 2777.54 696.516 2778.88 699.493C2780.23 702.471 2782.15 705.15 2784.54 707.376C2786.93 709.602 2789.75 711.329 2792.81 712.457C2795.88 713.584 2799.14 714.09 2802.4 713.945C2805.66 713.8 2808.87 713.006 2811.82 711.609C2814.77 710.213 2817.42 708.243 2819.6 705.813C2821.79 703.384 2823.47 700.544 2824.54 697.458C2825.61 694.373 2826.06 691.105 2825.86 687.844C2828.55 696.801 2834.02 704.669 2841.48 710.314C2849.29 715.201 2861.59 714.021 2865.63 705.708C2870.58 711.325 2877.49 717.56 2884.9 715.707C2887.99 714.635 2890.64 712.585 2892.46 709.867C2894.27 707.15 2895.15 703.914 2894.96 700.652C2894.41 694.12 2892.21 687.835 2888.55 682.396C2874.17 657.342 2852.94 634.311 2825.02 626.728"
        fill="#455A64" />
    <path
        d="M2862.43 687.844C2868.93 699.415 2872.39 712.441 2872.5 725.71C2872.61 738.979 2869.36 752.06 2863.05 763.735C2858.35 770.688 2854.35 778.081 2851.08 785.811C2849.53 789.701 2849.18 793.971 2850.09 798.061C2851.01 802.151 2853.13 805.87 2856.2 808.73C2860.3 811.819 2866.59 813.392 2867.43 818.392C2867.62 820.956 2867.09 823.522 2865.91 825.807C2862.05 835.923 2861.57 847.023 2864.57 857.432C2866.59 864.285 2866.93 872.767 2883.27 879.902C2891.36 883.553 2895.8 889.732 2913.38 885.238C2944.16 877.318 2933.27 808.505 2930.23 776.879C2927.2 745.254 2912.59 688.799 2894.84 662.454"
        fill="#455A64" />
    <path
        d="M2792.21 903.607C2792.21 903.607 2760.31 1022.75 2780.64 1010.95C2800.98 999.158 2899.67 920.683 2899.67 920.683L2849.79 883.047L2792.21 903.607Z"
        fill="#D89377" />
    <path
        d="M2491.74 1108.81C2488.2 1097.12 2444.05 1073.08 2450.74 1066.62C2459.44 1058.14 2495.67 1093.81 2498.99 1096.56C2502.3 1099.32 2506.29 1094.6 2503.2 1092.24C2498.71 1088.87 2452.65 1052.19 2461.3 1043.82C2466.02 1039.15 2473.43 1048.59 2473.43 1048.59C2473.43 1048.59 2513.87 1086.17 2517.75 1082.29C2521.63 1078.42 2498.65 1055.28 2490.34 1048.14C2482.02 1041.01 2482.08 1034.21 2488.09 1033.09C2492.25 1032.3 2518.14 1053.59 2526.18 1061.17C2534.21 1068.76 2555.95 1088.75 2553.2 1069.82C2553.2 1069.54 2553.2 1069.26 2553.2 1068.93C2549.94 1050.39 2553.59 1035.22 2557.63 1031.29C2558.6 1030.54 2559.75 1030.08 2560.97 1029.96C2562.18 1029.84 2563.4 1030.06 2564.5 1030.6C2565.59 1031.13 2566.51 1031.97 2567.16 1033C2567.8 1034.04 2568.14 1035.24 2568.14 1036.46C2568.33 1037.36 2568.33 1038.3 2568.14 1039.21C2568.14 1039.6 2568.14 1040.16 2568.14 1040.61C2567.87 1047.06 2568.29 1053.52 2569.37 1059.88C2570.19 1065.61 2571.98 1071.16 2574.65 1076.28C2577.8 1081.9 2580.72 1087.18 2583.25 1091.28C2612.8 1107.68 2697.73 1150.94 2782.89 1157.74C2798.22 1158.97 2866.19 1051.74 2866.19 1051.74L2967.31 1099.48C2943.75 1143.79 2916.84 1186.23 2886.81 1226.44C2800.98 1341.7 2534.55 1148.86 2534.55 1148.86L2532.08 1147.62C2511.85 1137.63 2492.2 1126.53 2473.21 1114.37C2450.29 1098.19 2451.63 1096.06 2453.94 1093.64C2460.06 1087.07 2495.28 1120.44 2491.74 1108.81Z"
        fill="#D89377" />
    <path
        d="M958.376 2343.5L957.87 2297.44L871.475 2297.89V2365.3L877.093 2365.63C900.91 2366.81 998.371 2370.02 1014.27 2365.13C1031.85 2359.62 958.376 2343.5 958.376 2343.5Z"
        fill="#455A64" />
    <path
        d="M870.352 2363.33H871.812H876.081L891.81 2363.95C905.067 2364.34 923.379 2364.68 943.602 2364.62C963.824 2364.57 982.193 2364.06 995.45 2363.55L1011.12 2362.82L1015.39 2362.54H1016.85C1016.37 2362.48 1015.88 2362.48 1015.39 2362.54H1011.12L995.394 2362.88C982.137 2363.22 963.824 2363.61 943.602 2363.67C923.379 2363.72 905.067 2363.67 891.81 2363.33L876.081 2363.05H870.464L870.352 2363.33Z"
        fill="#263238" />
    <path
        d="M986.687 2365.18C987.343 2362.57 988.305 2360.05 989.552 2357.66C991.19 2355.45 993.075 2353.43 995.169 2351.65C992.443 2352.64 990.209 2354.66 988.934 2357.26C987.21 2359.52 986.407 2362.35 986.687 2365.18Z"
        fill="#263238" />
    <path
        d="M961.128 2352.38C961.409 2352.38 962.588 2351.03 963.824 2349.06C964.73 2347.93 965.364 2346.6 965.678 2345.19C965.678 2345.19 964.217 2346.48 962.982 2348.5C961.746 2350.52 960.903 2352.21 961.128 2352.38Z"
        fill="#263238" />
    <path
        d="M954.106 2348.73C954.106 2348.73 955.679 2347.99 957.14 2346.65C958.6 2345.3 959.668 2344.06 959.499 2343.84C959.33 2343.61 957.926 2344.51 956.466 2345.86C955.005 2347.21 953.938 2348.5 954.106 2348.73Z"
        fill="#263238" />
    <path
        d="M949.669 2340.58C951.113 2341.07 952.642 2341.26 954.162 2341.14C955.698 2341.31 957.251 2341.13 958.713 2340.64C957.259 2340.1 955.702 2339.91 954.162 2340.07C952.646 2339.91 951.112 2340.09 949.669 2340.58Z"
        fill="#263238" />
    <path
        d="M948.152 2334.85C949.637 2335.82 951.381 2336.31 953.151 2336.25C954.921 2336.53 956.733 2336.29 958.376 2335.58C956.691 2335.26 954.975 2335.15 953.264 2335.24C951.578 2334.94 949.865 2334.81 948.152 2334.85Z"
        fill="#263238" />
    <path
        d="M964.049 2344.79C965.902 2345.18 967.814 2345.18 969.666 2344.79C971.689 2344.56 973.683 2344.13 975.621 2343.5C976.792 2343.16 977.922 2342.69 978.991 2342.1C979.626 2341.69 980.101 2341.07 980.339 2340.36C980.426 2339.94 980.392 2339.51 980.243 2339.11C980.094 2338.71 979.835 2338.37 979.497 2338.11C977.369 2337.1 974.958 2336.84 972.668 2337.4C970.377 2337.95 968.346 2339.27 966.914 2341.14C966.061 2342.26 965.449 2343.54 965.116 2344.91C964.982 2345.38 964.982 2345.89 965.116 2346.37C965.632 2344.65 966.47 2343.05 967.588 2341.65C968.83 2340.18 970.468 2339.11 972.306 2338.56C973.381 2338.17 974.522 2338.01 975.661 2338.08C976.8 2338.15 977.913 2338.44 978.935 2338.95C979.834 2339.63 979.497 2340.64 978.486 2341.2C977.521 2341.78 976.482 2342.24 975.396 2342.55C973.577 2343.23 971.696 2343.74 969.779 2344.06C966.184 2344.62 964.049 2344.62 964.049 2344.79Z"
        fill="#263238" />
    <path
        d="M965.453 2345.35C966.152 2344.21 966.374 2342.84 966.071 2341.53C965.926 2340.08 965.403 2338.68 964.555 2337.49C964.084 2336.67 963.416 2335.99 962.611 2335.5C961.806 2335.01 960.89 2334.73 959.948 2334.68C959.392 2334.8 958.902 2335.13 958.579 2335.6C958.255 2336.07 958.123 2336.65 958.207 2337.21C958.343 2338.09 958.669 2338.94 959.162 2339.68C959.901 2340.91 960.788 2342.04 961.802 2343.05C962.67 2344.05 963.769 2344.82 965.004 2345.3C965.004 2345.3 963.881 2344.29 962.364 2342.55C961.455 2341.53 960.663 2340.42 960.005 2339.23C959.274 2338.05 958.713 2335.97 960.005 2335.69C961.297 2335.41 962.813 2336.93 963.656 2338.05C964.447 2339.12 964.985 2340.34 965.229 2341.65C965.438 2342.87 965.513 2344.11 965.453 2345.35Z"
        fill="#263238" />
    <path
        d="M871.981 2339.74C871.981 2339.74 874.452 2339.74 878.384 2339.74C883.434 2340.31 888.219 2342.3 892.193 2345.47C896.167 2348.64 899.168 2352.86 900.854 2357.66C902.202 2361.36 902.314 2363.84 902.539 2363.78C902.63 2363.2 902.63 2362.62 902.539 2362.04C902.412 2360.47 902.091 2358.92 901.584 2357.43C900.016 2352.36 896.963 2347.88 892.821 2344.57C888.627 2341.31 883.568 2339.36 878.272 2338.95C876.705 2338.77 875.121 2338.77 873.554 2338.95C872.994 2339.13 872.464 2339.4 871.981 2339.74Z"
        fill="#263238" />
    <path
        d="M880.8 2303.73C880.215 2309.63 879.99 2315.56 880.126 2321.48C879.856 2327.4 879.987 2333.33 880.519 2339.23C881.065 2333.33 881.271 2327.41 881.137 2321.48C881.373 2315.56 881.261 2309.64 880.8 2303.73Z"
        fill="#263238" />
    <path
        d="M913.718 2356.03C917.85 2356.92 922.074 2357.31 926.301 2357.21C930.542 2357.41 934.792 2357.05 938.94 2356.14C938.94 2355.8 933.322 2356.14 926.301 2356.14C919.279 2356.14 913.718 2355.69 913.718 2356.03Z"
        fill="#263238" />
    <path
        d="M896.753 2356.03C896.753 2356.03 897.259 2357.26 897.82 2358.56C898.382 2359.85 898.719 2360.97 899 2360.97C899.281 2360.97 899.449 2359.57 899 2358.11C898.551 2356.65 896.978 2355.86 896.753 2356.03Z"
        fill="#263238" />
    <path
        d="M890.349 2348.16C890.349 2348.16 890.743 2349.23 891.641 2350.13C892.54 2351.03 893.383 2351.59 893.607 2351.42C893.832 2351.25 893.27 2350.3 892.372 2349.4C891.473 2348.5 890.574 2347.94 890.349 2348.16Z"
        fill="#263238" />
    <path
        d="M881.249 2344.57C881.249 2344.85 882.429 2344.85 883.721 2345.3C885.013 2345.75 885.912 2346.37 886.137 2346.2C886.361 2346.03 885.631 2344.79 884.058 2344.29C882.485 2343.78 881.137 2344.29 881.249 2344.57Z"
        fill="#263238" />
    <path
        d="M874.733 2342.88C874.733 2343.16 875.126 2343.61 875.857 2343.89C876.587 2344.18 877.205 2343.89 877.317 2343.89C877.43 2343.89 876.924 2343.16 876.194 2342.88C875.463 2342.6 874.846 2342.6 874.733 2342.88Z"
        fill="#263238" />
    <path
        d="M455.623 2277.05L480.058 2237.73L407.033 2191.61L370.745 2248.62L375.07 2251.77C394.506 2265.59 474.834 2320.81 490.844 2325.25C508.819 2330.19 455.623 2277.05 455.623 2277.05Z"
        fill="#455A64" />
    <path
        d="M370.745 2246.26L371.925 2247.22L375.407 2249.69L388.271 2258.68C399.506 2266.15 414.504 2276.32 431.581 2287.16C448.657 2298 464.33 2307.49 475.789 2314.18L489.383 2322.04L493.147 2324.12C493.989 2324.57 494.439 2324.8 494.495 2324.74L493.259 2323.9L489.608 2321.71L476.182 2313.56C464.948 2306.71 449.219 2297.1 432.142 2286.26C415.066 2275.42 399.73 2265.42 388.72 2258.17L375.632 2249.47L372.037 2247.16L370.745 2246.26Z"
        fill="#263238" />
    <path
        d="M467.813 2310.53C469.791 2308.71 471.957 2307.11 474.273 2305.75C476.76 2304.72 479.362 2303.98 482.025 2303.56C479.232 2302.95 476.312 2303.39 473.823 2304.8C471.162 2305.87 469.011 2307.92 467.813 2310.53Z"
        fill="#263238" />
    <path
        d="M453.208 2285.98C453.208 2286.26 455.174 2285.64 457.252 2284.63C459.33 2283.62 461.016 2282.61 460.903 2282.33C459.453 2282.47 458.052 2282.93 456.803 2283.68C455.005 2284.69 453.095 2285.7 453.208 2285.98Z"
        fill="#263238" />
    <path
        d="M449.388 2279.13C449.388 2279.41 451.073 2279.13 453.039 2279.13C455.005 2279.13 456.578 2278.28 456.522 2278C456.466 2277.72 454.837 2278 452.871 2278C450.904 2278 449.388 2278.85 449.388 2279.13Z"
        fill="#263238" />
    <path
        d="M449.893 2269.86C449.893 2269.86 451.298 2271.37 453.376 2272.78C455.454 2274.18 457.308 2275.03 457.477 2274.74C457.645 2274.46 456.072 2273.23 453.994 2271.88C452.785 2270.92 451.388 2270.23 449.893 2269.86Z"
        fill="#263238" />
    <path
        d="M451.691 2264.18C451.691 2264.18 452.814 2266.37 455.174 2268.12C456.49 2269.3 458.135 2270.07 459.892 2270.31C459.892 2270.03 458.038 2268.96 455.791 2267.27C454.505 2266.14 453.134 2265.11 451.691 2264.18Z"
        fill="#263238" />
    <path
        d="M459.724 2281.15C461.079 2282.42 462.66 2283.43 464.386 2284.13C466.191 2284.97 468.072 2285.65 470.003 2286.15C471.173 2286.51 472.379 2286.73 473.599 2286.82C474.358 2286.85 475.1 2286.59 475.677 2286.09C475.963 2285.79 476.156 2285.41 476.236 2285.01C476.316 2284.6 476.278 2284.18 476.126 2283.79C474.904 2281.78 473.02 2280.25 470.796 2279.47C468.573 2278.69 466.149 2278.71 463.937 2279.52C462.621 2280 461.418 2280.75 460.398 2281.71C459.724 2282.38 459.443 2282.83 459.499 2282.89C460.887 2281.74 462.465 2280.85 464.161 2280.25C465.993 2279.69 467.948 2279.69 469.779 2280.25C470.935 2280.48 472.03 2280.95 472.997 2281.63C473.963 2282.31 474.78 2283.18 475.396 2284.18C475.789 2285.19 474.947 2285.87 473.767 2285.87C472.646 2285.79 471.536 2285.6 470.453 2285.31C468.538 2284.85 466.66 2284.25 464.836 2283.51C461.577 2282.16 459.78 2281.04 459.724 2281.15Z"
        fill="#263238" />
    <path
        d="M460.622 2282.16C460.622 2282.16 462.083 2281.49 463.206 2279.24C463.861 2277.93 464.171 2276.48 464.105 2275.03C464.141 2274.08 463.938 2273.15 463.516 2272.3C463.094 2271.46 462.466 2270.73 461.69 2270.2C461.153 2269.99 460.558 2270.01 460.033 2270.24C459.508 2270.47 459.094 2270.9 458.881 2271.43C458.51 2272.24 458.337 2273.13 458.376 2274.01C458.317 2275.45 458.45 2276.88 458.769 2278.28C458.978 2279.59 459.498 2280.82 460.285 2281.88C460.285 2281.88 459.836 2280.42 459.499 2278.12C459.35 2276.77 459.35 2275.42 459.499 2274.07C459.499 2272.67 460.173 2270.59 461.465 2271.15C462.757 2271.71 463.15 2273.68 463.319 2275.08C463.365 2276.4 463.155 2277.72 462.701 2278.96C462.102 2280.08 461.407 2281.16 460.622 2282.16Z"
        fill="#263238" />
    <path
        d="M384.957 2227.39C384.957 2227.39 387.147 2228.51 390.181 2230.99C394.162 2234.2 397.176 2238.46 398.888 2243.29C400.538 2248.12 400.81 2253.31 399.674 2258.29C398.775 2262.16 397.596 2264.3 397.764 2264.41C398.126 2263.96 398.428 2263.47 398.663 2262.95C399.399 2261.54 399.983 2260.05 400.404 2258.51C401.766 2253.39 401.59 2247.98 399.899 2242.95C398.117 2237.95 394.915 2233.58 390.686 2230.37C389.405 2229.43 388.031 2228.62 386.586 2227.95C386.078 2227.67 385.528 2227.48 384.957 2227.39Z"
        fill="#263238" />
    <path
        d="M411.752 2201.72C408.067 2206.36 404.671 2211.21 401.584 2216.27C398.191 2221.12 395.114 2226.19 392.372 2231.44C396.034 2226.78 399.41 2221.9 402.483 2216.83C405.833 2211.96 408.927 2206.91 411.752 2201.72Z"
        fill="#263238" />
    <path
        d="M411.302 2263.45C414.244 2266.5 417.59 2269.13 421.245 2271.26C424.709 2273.72 428.487 2275.71 432.48 2277.16C432.48 2276.88 427.649 2274.18 421.807 2270.36C415.965 2266.54 411.471 2263.23 411.302 2263.45Z"
        fill="#263238" />
    <path
        d="M396.978 2254.41C396.978 2254.41 396.978 2255.65 396.528 2257.05C396.079 2258.45 395.967 2259.58 396.528 2259.75C397.09 2259.91 397.652 2258.79 397.877 2257.22C398.101 2255.65 397.259 2254.3 396.978 2254.41Z"
        fill="#263238" />
    <path
        d="M395.854 2244.24C395.854 2244.24 395.854 2245.31 395.854 2246.6C395.854 2247.89 396.528 2248.79 396.809 2248.74C397.09 2248.68 397.146 2247.61 396.809 2246.38C396.472 2245.14 396.135 2244.24 395.854 2244.24Z"
        fill="#263238" />
    <path
        d="M390.069 2236.32C390.069 2236.6 390.967 2237.22 391.81 2238.29C392.653 2239.36 393.046 2240.37 393.327 2240.37C393.608 2240.37 393.664 2238.91 392.596 2237.61C391.529 2236.32 390.181 2236.04 390.069 2236.32Z"
        fill="#263238" />
    <path
        d="M385.519 2231.43C385.519 2231.43 385.519 2232.22 385.912 2232.84C386.305 2233.46 386.923 2233.79 387.148 2233.63C387.372 2233.46 387.148 2232.84 386.754 2232.22C386.361 2231.6 385.743 2231.21 385.519 2231.43Z"
        fill="#263238" />
    <path
        d="M790.08 1383.05C790.08 1383.05 863.105 1869.79 852.657 1893.27C842.209 1916.75 499.944 2292.95 499.944 2292.95L373.947 2209.42C373.947 2209.42 672.677 1833.05 670.43 1824.23C668.183 1815.41 557.241 1343.89 557.241 1343.89L790.08 1383.05Z"
        fill="#4EAD60" />
    <path
        d="M515.616 1337.27L511.179 1355.3C498.197 1408.54 506.245 1464.73 533.648 1512.19L732.165 1856.65C746.274 1881.03 756.543 1907.44 762.611 1934.95L852.488 2332.66H990.844C990.844 2340.92 955.061 2005 937.086 1893.44C923.604 1809.18 810.976 1548.14 756.432 1424.78L790.136 1383.22L731.379 1373.55L515.616 1337.27Z"
        fill="#4EAD60" />
    <path
        d="M760.589 1423.72C761.825 1425.46 762.843 1427.35 763.622 1429.33C765.42 1432.93 767.891 1438.21 770.868 1444.78C776.823 1457.87 784.631 1476.18 792.608 1496.63C800.584 1517.08 807.156 1535.95 811.65 1549.55C813.841 1556.4 815.582 1561.96 816.706 1565.84C817.425 1567.81 817.915 1569.87 818.166 1571.96C817.079 1570.21 816.229 1568.32 815.639 1566.34C814.01 1561.96 811.987 1556.62 809.684 1550.33C804.741 1536.85 797.832 1518.26 789.855 1497.81C781.878 1477.36 774.407 1458.99 768.958 1445.68C766.487 1439.5 764.352 1434.45 762.555 1429.9C761.604 1427.94 760.942 1425.86 760.589 1423.72Z"
        fill="#263238" />
    <path
        d="M776.879 2001.01C776.461 1999.75 776.16 1998.45 775.98 1997.14C775.475 1994.27 774.801 1990.56 774.014 1985.9C773.565 1983.43 773.115 1980.73 772.61 1977.81C772.104 1974.89 771.262 1971.69 770.475 1968.26C768.959 1961.47 767.386 1953.66 764.858 1945.18C763.678 1940.91 762.499 1936.47 761.207 1931.86L756.657 1917.54C753.736 1907.65 749.635 1897.37 745.422 1886.42C736.884 1864.73 726.491 1841.48 714.414 1817.32C693.25 1776.56 669.943 1736.93 644.591 1698.63C634.985 1684.14 627.177 1672.28 621.503 1663.8C618.919 1659.87 616.897 1656.72 615.268 1654.31C614.498 1653.23 613.821 1652.08 613.246 1650.88C614.198 1651.82 615.045 1652.85 615.774 1653.97L622.458 1663.13C628.076 1671.16 636.445 1682.85 646.332 1697.51C672.216 1735.56 695.813 1775.12 716.998 1815.98C729.132 1840.07 739.468 1863.61 747.95 1885.41C751.826 1896.64 755.87 1906.81 758.735 1916.81L763.117 1931.19C764.296 1935.91 765.476 1940.34 766.599 1944.67C768.959 1953.21 770.363 1961.07 771.767 1967.93C772.441 1971.37 773.059 1974.57 773.621 1977.53C774.07 1980.51 774.407 1983.15 774.801 1985.68C775.362 1990.34 775.868 1994.1 776.261 1996.91C776.615 1998.25 776.822 1999.63 776.879 2001.01Z"
        fill="#263238" />
    <path
        d="M518.481 2272.83C516.542 2272.41 514.657 2271.77 512.864 2270.92C507.735 2268.91 502.727 2266.61 497.865 2264.02C481.885 2255.3 466.598 2245.36 452.14 2234.3C435.288 2221.6 419.784 2210.03 408.212 2202.39C396.641 2194.75 389.17 2190.48 389.394 2190.04C391.36 2190.63 393.246 2191.46 395.012 2192.51C398.551 2194.19 403.438 2197 409.392 2200.65C421.357 2207.9 436.973 2219.25 453.938 2231.94C468.288 2242.92 483.296 2253.01 498.876 2262.16C510.729 2269.02 518.65 2272.33 518.481 2272.83Z"
        fill="#263238" />
    <path
        d="M990.338 2311.65C988.472 2311.87 986.587 2311.87 984.721 2311.65H969.048L917.537 2311.26L865.97 2311.54H850.298C848.419 2311.63 846.535 2311.52 844.68 2311.2C846.504 2310.66 848.395 2310.37 850.298 2310.36C854.005 2310.08 859.342 2309.69 865.97 2309.4C879.115 2308.73 897.427 2308.17 917.594 2308.22C937.76 2308.28 956.016 2308.79 969.217 2309.52C975.789 2309.85 981.126 2310.19 984.833 2310.53C986.712 2310.64 988.565 2311.02 990.338 2311.65Z"
        fill="#263238" />
    <path
        d="M606.673 840.411C594.508 842.06 582.127 840.107 571.06 834.794C565.58 832.117 560.939 827.989 557.642 822.859C554.344 817.729 552.515 811.793 552.354 805.696C552.354 798.562 555.668 791.541 554.488 784.519C553.309 777.497 548.085 771.88 544.714 765.588C540.709 757.556 539.573 748.395 541.494 739.628C543.415 730.86 548.278 723.014 555.275 717.392C562.634 711.774 572.127 708.853 578.193 701.944C585.496 693.799 586.676 682.002 591.113 672.003C594.409 664.801 599.42 658.516 605.707 653.698C611.994 648.88 619.365 645.676 627.177 644.366C635.827 643.018 644.815 643.973 653.073 641.22C659.893 638.273 666.326 634.5 672.228 629.986C691.771 617.353 715.492 612.895 738.288 617.571C748.276 619.335 757.553 623.915 765.026 630.772C773.059 638.749 783.395 647.624 786.316 658.297C789.743 671.217 785.53 687.395 782.103 700.259C778.677 713.122 768.285 724.919 755.028 726.492"
        fill="#263238" />
    <path
        d="M603.921 939.782L709.415 941.243C711.212 929.109 715.032 881.699 715.032 881.699C715.032 881.699 759.241 879.059 763.847 835.524C768.453 791.99 770.363 691.327 770.363 691.327C746.609 678.339 719.816 671.933 692.756 672.773C665.696 673.612 639.351 681.666 616.448 696.102L609.538 700.483L603.921 939.782Z"
        fill="#FFBE9D" />
    <path
        d="M718.29 807.157C721.522 806.251 724.88 805.871 728.233 806.033C729.806 806.033 731.042 805.753 731.266 804.91C731.428 803.355 731.176 801.786 730.536 800.36L726.941 787.721C723.451 776.975 721.023 765.911 719.694 754.691C724.269 765.025 727.807 775.789 730.255 786.822C731.435 791.204 732.502 795.36 733.569 799.517C734.342 801.64 734.342 803.967 733.569 806.09C733.286 806.673 732.869 807.181 732.351 807.571C731.833 807.962 731.231 808.224 730.592 808.337C729.698 808.471 728.79 808.471 727.896 808.337C724.65 808.502 721.4 808.103 718.29 807.157Z"
        fill="#263238" />
    <path
        d="M714.92 881.081C694.772 879.579 675.529 872.108 659.645 859.623C659.645 859.623 670.15 892.203 713.965 892.372L714.92 881.081Z"
        fill="#EB996E" />
    <path
        d="M609.875 746.265C608.977 745.871 580.047 741.153 581.789 775.587C583.53 810.021 617.627 796.989 617.684 795.978C617.74 794.967 609.875 746.265 609.875 746.265Z"
        fill="#FFBE9D" />
    <path
        d="M606.673 784.406C606.673 784.406 606.055 784.856 605.101 785.361C603.698 786.035 602.094 786.156 600.607 785.698C598.323 784.387 596.425 782.497 595.104 780.219C593.783 777.941 593.085 775.356 593.079 772.722C592.854 769.76 593.296 766.785 594.371 764.015C594.649 762.936 595.182 761.939 595.925 761.108C596.667 760.277 597.599 759.637 598.641 759.241C599.325 759.033 600.059 759.065 600.723 759.33C601.386 759.595 601.94 760.079 602.292 760.701C602.797 761.656 602.292 762.33 602.797 762.386C603.303 762.442 603.471 761.768 603.134 760.364C602.903 759.523 602.387 758.788 601.674 758.286C601.204 757.938 600.666 757.693 600.095 757.567C599.524 757.441 598.932 757.437 598.36 757.555C596.954 757.885 595.66 758.577 594.605 759.562C593.55 760.548 592.773 761.793 592.349 763.173C591.015 766.229 590.456 769.567 590.72 772.891C590.679 775.963 591.555 778.977 593.236 781.549C594.917 784.12 597.327 786.132 600.157 787.327C601.12 787.586 602.131 787.614 603.107 787.409C604.083 787.204 604.997 786.772 605.775 786.148C606.673 785.249 606.673 784.462 606.673 784.406Z"
        fill="#EB996E" />
    <path
        d="M679.193 745.422C678.688 744.804 679.53 743.175 681.777 741.434C684.766 739.314 688.287 738.069 691.945 737.839C695.601 737.552 699.264 738.312 702.505 740.029C704.977 741.434 705.988 742.951 705.595 743.568C704.752 745.029 699.191 743.119 692.338 743.568C685.485 744.018 680.204 746.714 679.193 745.422Z"
        fill="#263238" />
    <path
        d="M740.254 745.759C739.917 744.242 744.636 741.995 750.815 742.052C756.994 742.108 761.712 744.298 761.431 745.871C761.151 747.444 756.432 747.894 750.815 747.894C745.197 747.894 740.535 747.388 740.254 745.759Z"
        fill="#263238" />
    <path
        d="M598.922 711.044C600.607 721.604 602.254 732.184 603.865 742.782C604.146 747.829 605.882 752.687 608.864 756.769C614.482 763.004 624.705 762.386 631.895 758.286C642.4 752.163 648.186 740.423 652.623 729.076C657.061 717.728 660.993 705.764 669.475 697.113C675.574 703.499 683.534 707.796 692.219 709.39C700.905 710.984 709.872 709.793 717.841 705.988C724.862 702.505 730.704 697 737.445 692.956C740.666 690.678 744.366 689.169 748.262 688.546C752.157 687.922 756.144 688.201 759.915 689.361C763.903 691.046 767.498 694.304 771.767 694.079C773.405 693.941 774.978 693.382 776.336 692.457C777.694 691.532 778.791 690.272 779.519 688.799C780.919 685.804 781.408 682.464 780.924 679.193C779.519 667.06 769.689 657.398 758.454 652.006C742.782 644.31 724.75 643.242 707.224 643.186C690.605 642.695 673.992 644.337 657.791 648.073C641.523 651.902 626.725 660.394 615.212 672.509C609.54 678.616 605.32 685.925 602.869 693.892C600.418 701.858 599.798 710.275 601.056 718.515"
        fill="#263238" />
    <path
        d="M736.266 676.217C738.564 687.397 744.488 697.507 753.118 704.977C757.008 708.855 762.184 711.173 767.667 711.493C772.07 710.969 776.126 708.84 779.058 705.513C781.991 702.187 783.595 697.896 783.564 693.462C783.17 684.523 779.324 676.085 772.835 669.925C767.293 663.363 759.416 659.214 750.871 658.353C746.633 658.15 742.475 659.553 739.226 662.281C735.977 665.009 733.877 668.862 733.345 673.071"
        fill="#263238" />
    <path
        d="M685.316 761.713C685.316 763.202 685.908 764.631 686.962 765.685C688.015 766.738 689.444 767.33 690.934 767.33C691.641 767.376 692.35 767.278 693.019 767.044C693.688 766.81 694.303 766.443 694.827 765.966C695.351 765.489 695.774 764.911 696.07 764.267C696.366 763.624 696.53 762.927 696.551 762.218C696.551 760.728 695.959 759.3 694.906 758.246C693.852 757.193 692.423 756.601 690.934 756.601C690.225 756.547 689.512 756.639 688.84 756.87C688.167 757.102 687.549 757.468 687.023 757.946C686.498 758.425 686.075 759.006 685.781 759.653C685.488 760.301 685.33 761.002 685.316 761.713Z"
        fill="#263238" />
    <path
        d="M676.441 755.646C677.171 756.376 681.272 753.174 687.226 753.062C693.181 752.949 697.562 755.87 698.18 755.084C698.798 754.298 697.787 753.511 695.821 752.163C693.244 750.449 690.202 749.567 687.108 749.637C684.014 749.708 681.016 750.727 678.519 752.556C676.722 754.073 676.104 755.646 676.441 755.646Z"
        fill="#263238" />
    <path
        d="M746.321 761.544C746.321 763.034 746.912 764.463 747.966 765.516C749.019 766.57 750.448 767.161 751.938 767.161C752.647 767.215 753.36 767.123 754.032 766.892C754.704 766.661 755.322 766.294 755.848 765.816C756.374 765.337 756.797 764.756 757.09 764.109C757.384 763.461 757.542 762.76 757.555 762.05C757.555 760.56 756.963 759.131 755.91 758.077C754.857 757.024 753.428 756.432 751.938 756.432C750.532 756.426 749.175 756.948 748.134 757.895C747.094 758.841 746.447 760.143 746.321 761.544Z"
        fill="#263238" />
    <path
        d="M738.456 756.601C739.131 757.331 743.287 754.129 749.242 754.017C755.196 753.904 759.578 756.825 760.476 756.095C761.375 755.365 760.083 754.466 758.117 753.118C755.532 751.391 752.475 750.508 749.367 750.588C746.259 750.669 743.252 751.709 740.76 753.567C738.737 754.972 738.119 756.32 738.456 756.601Z"
        fill="#263238" />
    <path
        d="M716.886 824.795C716.886 825.188 715.425 825.863 712.729 825.694C709.219 825.435 705.933 823.872 703.516 821.313C701.073 818.763 699.654 815.404 699.528 811.875C699.528 809.235 700.258 807.719 700.595 807.775C700.932 807.831 700.595 814.235 705.595 819.29C710.594 824.346 716.942 824.009 716.886 824.795Z"
        fill="#263238" />
    <path
        d="M736.771 1049.83L824.458 1020.5C824.458 1020.5 885.462 1164.93 901.191 1166.55C988.204 1174.48 1081.34 1145.66 1113.98 1134.25C1117.29 1130.49 1121.11 1126.05 1125.21 1120.55C1128.8 1115.84 1131.58 1110.56 1133.41 1104.93C1135.92 1098 1137.49 1090.77 1138.07 1083.42C1137.89 1081.99 1138.16 1080.54 1138.85 1079.27C1139.54 1078 1140.61 1076.99 1141.91 1076.37C1143.21 1075.74 1144.68 1075.55 1146.1 1075.81C1147.52 1076.06 1148.82 1076.76 1149.81 1077.8C1153.58 1082.69 1154.53 1101.34 1145.94 1121.39C1137.34 1141.45 1167.73 1125.49 1178.91 1119.87C1190.09 1114.26 1225.54 1098.53 1229.97 1100.61C1236.49 1103.64 1234.47 1111.17 1223.18 1116.5C1211.89 1121.84 1179.08 1140.32 1182.34 1146.05C1185.6 1151.78 1242.11 1122.4 1242.11 1122.4C1242.11 1122.4 1253.34 1114.14 1257.16 1120.66C1264.35 1132.46 1201.89 1159.25 1195.93 1161.67C1191.72 1163.35 1195.03 1169.76 1199.42 1167.68C1203.8 1165.6 1255.14 1137.06 1262.55 1149.03C1268.17 1158.18 1211.44 1171.5 1204.13 1183.35C1196.83 1195.2 1246.15 1168.86 1251.26 1177.73C1253.12 1181.1 1254.07 1183.86 1223.51 1194.59C1201.15 1201.61 1178.42 1207.42 1155.43 1212C1155.43 1212 840.861 1352.77 784.687 1216.94C726.997 1079.2 736.771 1049.83 736.771 1049.83Z"
        fill="#EB996E" />
    <path
        d="M853.837 1068.08C818.728 985.901 772.778 953.713 748.511 941.805C740.009 937.678 730.762 935.309 721.323 934.839L718.402 920.683L602.123 910.235L599.258 928.211L582.406 927.256C582.406 927.256 482.193 937.311 481.968 1053.42C481.968 1107.74 511.235 1160.6 521.571 1186.5C528.031 1240.65 504.719 1338.89 505.449 1362.82L790.417 1383.05L802.101 1205.03L799.461 1188.18L893.27 1159.42L853.837 1068.08Z"
        fill="#EBEBEB" />
    <path
        d="M1484.78 675.093C1443.64 624.15 1388.33 586.544 1325.83 567.028C1263.33 547.513 1196.45 546.963 1133.64 565.45C1070.83 583.936 1014.9 620.629 972.941 670.89C930.977 721.15 904.855 782.724 897.877 847.827C892.245 900.754 899.467 954.259 918.927 1003.8C938.388 1053.34 969.513 1097.46 1009.66 1132.4L719.863 1472.53L761.431 1507.98L1053.53 1164.98C1095.48 1190.88 1142.7 1207.03 1191.72 1212.22C1203.62 1213.5 1215.59 1214.14 1227.56 1214.13C1289.98 1213.93 1351.08 1196.09 1403.81 1162.69C1456.54 1129.29 1498.77 1081.67 1525.63 1025.32C1552.49 968.969 1562.89 906.18 1555.63 844.181C1548.38 782.181 1523.76 723.491 1484.61 674.868L1484.78 675.093ZM1501.97 912.37C1495.16 975.946 1466.52 1035.2 1420.93 1080.03C1375.34 1124.85 1315.62 1152.49 1251.94 1158.22C1188.26 1163.95 1124.56 1147.43 1071.69 1111.46C1018.83 1075.49 980.073 1022.31 962.026 960.967C943.979 899.628 947.758 833.929 972.72 775.063C997.682 716.198 1042.28 667.809 1098.92 638.14C1155.56 608.472 1220.73 599.36 1283.34 612.356C1345.94 625.352 1402.1 659.654 1442.25 709.415C1465.13 737.617 1482.19 770.075 1492.44 804.912C1502.69 839.749 1505.93 876.273 1501.97 912.37Z"
        fill="#263238" />
    <path
        d="M1461.47 651.781C1420.35 600.812 1365.03 563.181 1302.53 543.649C1240.02 524.117 1173.12 523.561 1110.3 542.051C1047.48 560.541 991.548 597.246 949.587 647.525C907.626 697.803 881.518 759.397 874.565 824.514C868.924 877.443 876.141 930.951 895.602 980.494C915.063 1030.04 946.194 1074.15 986.35 1109.09L693.012 1451.75L737.445 1487.31L1030.39 1141.45C1072.34 1167.32 1119.56 1183.46 1168.58 1188.69C1180.48 1189.94 1192.44 1190.58 1204.42 1190.6C1266.84 1190.39 1327.93 1172.56 1380.67 1139.15C1433.4 1105.75 1475.63 1058.13 1502.49 1001.78C1529.35 945.433 1539.75 882.644 1532.49 820.644C1525.23 758.644 1500.61 699.954 1461.47 651.332V651.781ZM1478.65 889.058C1471.86 952.665 1443.22 1011.95 1397.61 1056.8C1352 1101.66 1292.25 1129.31 1228.54 1135.05C1164.83 1140.79 1101.1 1124.26 1048.21 1088.28C995.321 1052.3 956.545 999.089 938.489 937.721C920.434 876.353 924.217 810.623 949.193 751.731C974.169 692.839 1018.79 644.43 1075.46 614.752C1132.13 585.075 1197.33 575.965 1259.97 588.975C1322.6 601.986 1378.78 636.311 1418.94 686.103C1441.81 714.309 1458.86 746.768 1469.11 781.604C1479.36 816.44 1482.6 852.961 1478.65 889.058Z"
        fill="#455A64" />
    <path
        d="M1053.53 1039.04C1052.7 1038.33 1051.97 1037.52 1051.34 1036.63C1049.99 1034.94 1047.92 1032.52 1045.73 1029.21C1038.9 1019.95 1032.72 1010.23 1027.24 1000.11C1008.94 966.682 997.824 929.796 994.603 891.82C991.381 853.843 996.128 815.612 1008.54 779.576C1012.21 768.699 1016.64 758.094 1021.8 747.838C1023.54 744.13 1025.17 741.434 1026.23 739.58C1026.67 738.577 1027.25 737.648 1027.97 736.828C1027.65 737.873 1027.24 738.888 1026.74 739.861C1025.9 741.827 1024.44 744.58 1022.81 748.287C1018.09 758.701 1013.96 769.372 1010.45 780.25C998.695 816.149 994.289 854.047 997.494 891.685C1000.7 929.323 1011.45 965.93 1029.1 999.326C1034.36 1009.45 1040.22 1019.26 1046.62 1028.7C1048.81 1032.13 1050.72 1034.32 1051.9 1036.4C1052.53 1037.22 1053.08 1038.11 1053.53 1039.04Z"
        fill="#263238" />
    <path
        d="M1067.3 699.079C1067.8 699.753 1064.43 702.899 1061.06 707.337C1057.69 711.774 1055.44 715.763 1054.66 715.482C1053.87 715.201 1054.99 710.314 1058.7 705.539C1062.41 700.764 1066.9 698.405 1067.3 699.079Z"
        fill="#263238" />
    <path
        d="M776.093 1006.01C776.996 1008.53 777.673 1011.12 778.115 1013.76C779.238 1018.76 780.699 1026.06 782.44 1035.16C785.811 1053.25 789.911 1078.42 793.675 1106.34C797.439 1134.25 799.292 1159.65 800.36 1178.01C800.921 1187.23 801.258 1194.87 801.371 1199.81C801.637 1202.48 801.637 1205.17 801.371 1207.84C800.797 1205.24 800.459 1202.59 800.36 1199.92C799.854 1194.3 799.18 1186.95 798.394 1178.18C796.764 1159.87 794.293 1134.54 790.866 1106.67C787.44 1078.81 783.62 1053.7 780.755 1035.5C779.407 1026.85 778.283 1019.6 777.385 1013.93C776.672 1011.34 776.239 1008.69 776.093 1006.01Z"
        fill="#263238" />
    <path
        d="M931.075 1281.93C931.075 1281.93 616.504 1422.99 560.33 1287.16C502.696 1148.8 512.471 1119.43 512.471 1119.43L600.157 1090.1C600.157 1090.1 661.218 1234.52 676.89 1236.15C763.959 1244.13 857.095 1215.26 889.731 1203.85C893.046 1200.15 896.809 1195.65 900.966 1190.2C905.123 1184.75 908.381 1178.97 912.201 1174.08C920.515 1163.69 927.087 1161.95 930.738 1157.85C939.389 1148.02 947.59 1155.21 943.546 1160.49C939.501 1165.77 930.457 1171.16 921.863 1191.27C913.268 1211.38 943.883 1201.44 956.016 1198.29C969.385 1194.75 994.495 1184.98 994.495 1184.98C995.113 1190.88 988.428 1202.73 977.137 1208.07C971.02 1211.04 964.737 1213.67 958.319 1215.93C958.319 1215.93 981.519 1213.07 982.137 1218.4C982.755 1223.74 975.284 1262.84 950.567 1274.58L931.075 1281.93Z"
        fill="#FFBE9D" />
    <path
        d="M579.542 964.274L636.052 1134.87L512.471 1183.74C512.471 1183.74 447.983 1016.18 529.66 975.172L579.542 964.274Z"
        fill="#EBEBEB" />
    <path
        d="M644.254 1128.24C644.254 1128.24 643.579 1127.8 642.568 1126.67C641.168 1124.91 639.927 1123.03 638.861 1121.05C635.422 1113.76 632.439 1106.25 629.929 1098.58C623.02 1079.49 613.639 1052.97 603.472 1023.71L589.26 982.362C584.878 969.667 581.452 957.87 574.992 950.287C572.585 947.208 569.52 944.706 566.021 942.966C562.521 941.226 558.677 940.292 554.769 940.232C551.884 940.42 549.052 941.104 546.399 942.254C546.399 942.254 546.961 941.636 548.309 940.906C550.294 939.864 552.476 939.251 554.713 939.108C558.871 938.921 563.014 939.713 566.81 941.421C570.605 943.128 573.947 945.703 576.565 948.939C583.642 956.859 587.294 968.937 591.788 981.463C596.281 993.99 601.112 1008.09 606.224 1022.75C616.448 1052.02 625.492 1078.92 631.895 1097.91C635.153 1107.57 637.513 1115.49 639.872 1120.38C642.231 1125.27 644.478 1128.08 644.254 1128.24Z"
        fill="#263238" />
    <path
        d="M641.613 1131.45C640.193 1132.62 638.625 1133.6 636.951 1134.37C633.861 1136.11 629.311 1138.47 623.638 1141.28C612.403 1146.89 596.394 1154.2 578.699 1161.44C561.004 1168.69 544.208 1174.48 532.131 1178.3C526.121 1180.2 520.896 1181.67 517.751 1182.56C515.942 1183.21 514.051 1183.61 512.133 1183.74C518.324 1180.86 524.706 1178.4 531.232 1176.39C543.141 1172.06 559.319 1165.99 577.351 1158.8C595.382 1151.61 611.055 1144.59 622.739 1139.42C628.86 1136.38 635.163 1133.71 641.613 1131.45Z"
        fill="#263238" />
    <path
        d="M532.693 1177.45C527.587 1169.8 524.178 1161.14 522.694 1152.06C525.647 1155.63 527.81 1159.79 529.042 1164.25C531.212 1168.33 532.458 1172.84 532.693 1177.45Z"
        fill="#263238" />
    <path
        d="M558.814 1167.4C558.083 1167.79 554.713 1162.85 552.241 1156.16C550.289 1152.11 549.51 1147.6 549.994 1143.13C552.291 1146.87 553.978 1150.94 554.994 1155.21C556.865 1159.06 558.152 1163.17 558.814 1167.4Z"
        fill="#263238" />
    <path
        d="M586.17 1155.54C582.76 1152.38 580.324 1148.31 579.149 1143.8C577.098 1139.61 576.28 1134.91 576.789 1130.27C579.063 1134.17 580.783 1138.36 581.901 1142.74C583.899 1146.79 585.336 1151.1 586.17 1155.54Z"
        fill="#263238" />
    <path
        d="M615.437 1143.75C612.728 1139.81 610.82 1135.39 609.819 1130.72C607.953 1126.33 606.98 1121.61 606.954 1116.84C609.723 1120.72 611.638 1125.14 612.572 1129.82C614.49 1134.21 615.466 1138.96 615.437 1143.75Z"
        fill="#263238" />
    <path
        d="M895.517 1157.62C880.006 1164.18 864.118 1169.81 847.938 1174.47C832.058 1180.04 815.872 1184.69 799.461 1188.41C814.982 1181.87 830.868 1176.25 847.04 1171.55C862.915 1165.97 879.101 1161.32 895.517 1157.62Z"
        fill="#263238" />
    <path
        d="M820.133 1177.45C819.346 1177.79 816.875 1173.63 814.515 1168.24C812.156 1162.85 810.976 1158.19 811.707 1157.85C812.437 1157.51 814.908 1161.67 817.324 1167.12C819.739 1172.57 820.975 1176.95 820.133 1177.45Z"
        fill="#263238" />
    <path
        d="M844.4 1172C843.669 1172 841.029 1167.4 839.232 1160.77C837.688 1156.88 837.26 1152.64 837.996 1148.52C838.838 1148.52 840.299 1153.63 842.04 1159.76C843.613 1163.65 844.415 1167.81 844.4 1172Z"
        fill="#263238" />
    <path
        d="M870.689 1163.69C867.176 1156.18 865.501 1147.94 865.802 1139.65C867.967 1143.22 869.293 1147.23 869.678 1151.39C870.957 1155.36 871.303 1159.57 870.689 1163.69Z"
        fill="#263238" />
    <path
        d="M613.526 926.638C612.684 926.638 612.291 923.492 612.515 919.672C612.74 915.852 613.695 912.875 614.481 912.931C615.268 912.988 615.717 916.133 615.436 919.897C615.156 923.661 614.313 926.694 613.526 926.638Z"
        fill="#263238" />
    <path
        d="M639.142 928.154C638.299 928.154 637.569 925.121 637.4 921.357C637.232 917.594 637.794 914.448 638.58 914.448C639.366 914.448 640.153 917.425 640.321 921.245C640.49 925.065 639.928 928.098 639.142 928.154Z"
        fill="#263238" />
    <path
        d="M658.915 931.581C658.128 931.581 657.51 928.379 657.51 924.447C657.51 920.515 658.241 917.369 659.027 917.369C659.814 917.369 660.488 920.571 660.432 924.447C660.375 928.323 659.757 931.581 658.915 931.581Z"
        fill="#263238" />
    <path
        d="M685.653 934.502C684.923 934.502 683.294 931.075 683.182 926.244C683.069 921.414 684.418 917.706 685.148 917.875C685.878 918.043 685.934 921.694 686.103 926.132C686.271 930.57 686.496 934.277 685.653 934.502Z"
        fill="#263238" />
    <path
        d="M707.786 934.502C706.943 934.502 705.876 930.963 705.314 926.357C704.752 921.751 704.977 917.931 705.763 917.875C706.55 917.818 707.673 921.414 708.235 926.02C708.797 930.626 708.516 934.39 707.786 934.502Z"
        fill="#263238" />
</svg>