<svg width="2332" height="2123" viewBox="0 0 2332 2123" fill="none" xmlns="http://www.w3.org/2000/svg">
    <path
        d="M799.249 722.079C808.471 784.523 798.961 848.299 771.922 905.336C744.884 962.372 701.532 1010.11 647.354 1042.49C593.177 1074.88 530.608 1090.47 467.567 1087.29C404.527 1084.1 343.848 1062.29 293.21 1024.6C242.573 986.918 204.253 935.058 183.101 875.587C161.949 816.115 158.915 751.705 174.384 690.509C189.852 629.312 223.128 574.081 269.999 531.803C316.871 489.526 375.23 462.104 437.693 453.008C521.319 440.746 606.391 462.205 674.195 512.665C742 563.125 786.983 638.453 799.249 722.079Z"
        fill="#F5F5F5" />
    <path
        d="M724.16 733.032C731.177 780.615 723.919 829.21 703.306 872.666C682.694 916.123 649.652 952.488 608.364 977.158C567.076 1001.83 519.397 1013.7 471.362 1011.26C423.326 1008.82 377.093 992.19 338.514 963.466C299.935 934.743 270.745 895.221 254.636 849.901C238.528 804.581 236.227 755.501 248.023 708.873C259.819 662.245 285.183 620.164 320.905 587.956C356.627 555.749 401.1 534.862 448.697 527.941C480.251 523.317 512.407 524.954 543.328 532.759C574.249 540.564 603.33 554.384 628.91 573.429C654.489 592.474 676.067 616.371 692.41 643.756C708.754 671.141 719.542 701.477 724.16 733.032Z"
        fill="#EBEBEB" />
    <path
        d="M722.955 725.485C721.54 725.485 718.973 715.32 712.475 697.504C703.32 672.415 690.347 648.89 674.014 627.76C662.739 613.381 649.93 600.274 635.815 588.67C619.586 575.5 601.728 564.476 582.682 555.868C572.423 551.168 561.826 547.245 550.98 544.131C539.716 540.794 528.204 538.359 516.554 536.847C504.525 535.178 492.383 534.46 480.241 534.699C467.716 535.001 455.23 536.21 442.88 538.314C430.569 540.598 418.434 543.75 406.567 547.746C395.053 551.725 383.859 556.577 373.084 562.261C362.679 567.74 352.712 574.012 343.269 581.02C334.168 587.66 325.585 594.982 317.593 602.923C302.678 617.503 289.715 633.953 279.027 651.864C269.753 667.605 262.233 684.316 256.6 701.696C248.544 727.116 244.461 753.628 244.496 780.295C244.496 799.316 245.701 809.953 244.496 810.215C243.291 810.477 239.78 800.154 237.527 780.662C234.592 752.905 236.867 724.845 244.234 697.923C249.292 679.208 256.556 661.161 265.875 644.161C276.672 624.579 290.068 606.547 305.698 590.557C314.11 581.846 323.204 573.821 332.894 566.558C342.919 558.841 353.557 551.954 364.7 545.965C376.269 539.789 388.306 534.533 400.699 530.245C413.461 525.763 426.547 522.26 439.841 519.765C453.159 517.486 466.628 516.208 480.136 515.94C493.248 515.758 506.355 516.617 519.331 518.507C531.864 520.324 544.234 523.127 556.325 526.891C567.921 530.373 579.223 534.771 590.123 540.044C610.313 549.691 629.103 562.03 645.98 576.723C660.58 589.476 673.614 603.917 684.808 619.743C700.99 642.497 712.79 668.068 719.602 695.146C724.16 714.429 724.16 725.223 722.955 725.485Z"
        fill="#E0E0E0" />
    <path
        d="M531.592 907.521L538.3 949.44L500.991 955.414L494.441 914.752C457.133 918.42 419.824 912.499 396.716 899.766L409.764 850.982C433.603 862.48 460.014 867.607 486.424 865.863L476.416 803.508C433.396 800.102 384.874 793.657 376.333 740.262C369.993 700.7 393.31 662.134 451.212 645.943L444.557 604.495L481.918 598.521L488.415 639.183C515.35 636.377 542.567 639.968 567.853 649.663L556.535 698.604C537.365 691.131 516.895 687.568 496.328 688.124L506.493 751.58C549.461 754.672 597.249 761.169 605.685 813.831C612.078 852.921 589.075 891.067 531.592 907.521ZM467.875 748.489L459.386 695.46C440.313 703.111 434.182 715.215 436.173 727.529C438.164 739.843 450.583 746.183 467.875 748.489ZM546.474 828.188C544.378 815.088 532.431 809.744 515.453 806.704L523.732 858.265C541.758 850.982 548.413 840.135 546.474 828.188Z"
        fill="#E0E0E0" />
    <path
        d="M1957.59 435.297C1981.46 474.468 1993.18 519.841 1991.25 565.673C1989.32 611.505 1973.84 655.734 1946.76 692.763C1919.69 729.792 1882.23 757.955 1839.14 773.687C1796.05 789.42 1749.26 792.015 1704.7 781.143C1660.13 770.272 1619.8 746.423 1588.79 712.615C1557.79 678.807 1537.51 636.561 1530.52 591.223C1523.54 545.886 1530.17 499.495 1549.56 457.925C1568.95 416.354 1600.25 381.472 1639.47 357.693C1665.46 341.896 1694.3 331.372 1724.35 326.722C1754.4 322.073 1785.07 323.389 1814.61 330.595C1844.15 337.802 1871.98 350.758 1896.52 368.722C1921.05 386.687 1941.8 409.31 1957.59 435.297Z"
        fill="#F5F5F5" />
    <path
        d="M1910.43 463.855C1928.64 493.708 1937.57 528.291 1936.11 563.226C1934.65 598.162 1922.86 631.878 1902.22 660.107C1881.59 688.336 1853.05 709.809 1820.2 721.807C1787.36 733.805 1751.7 735.789 1717.73 727.507C1683.75 719.225 1653 701.051 1629.37 675.284C1605.73 649.517 1590.27 617.317 1584.95 582.759C1579.62 548.201 1584.67 512.84 1599.45 481.152C1614.23 449.464 1638.08 422.874 1667.98 404.748C1707.97 380.455 1755.98 373.034 1801.44 384.117C1846.9 395.201 1886.1 423.881 1910.43 463.855Z"
        fill="#EBEBEB" />
    <path
        d="M1907.55 459.139C1906.66 459.767 1901.99 453.532 1892.51 443.419C1879.3 429.216 1863.95 417.159 1847.03 407.682C1835.4 401.231 1823.1 396.082 1810.35 392.329C1795.75 388.121 1780.68 385.797 1765.49 385.413C1757.3 385.201 1749.11 385.587 1740.97 386.565C1732.49 387.536 1724.1 389.165 1715.87 391.439C1707.34 393.724 1699 396.686 1690.93 400.294C1674.28 407.748 1658.9 417.754 1645.34 429.952C1638.77 435.86 1632.68 442.272 1627.11 449.13C1616.49 462.09 1607.86 476.553 1601.48 492.045C1595.63 506.068 1591.63 520.794 1589.59 535.851C1587.85 549.002 1587.55 562.303 1588.7 575.518C1590.51 594.828 1595.3 613.742 1602.9 631.585C1608.14 644.318 1612.12 651.13 1611.23 651.707C1610.34 652.283 1605.2 646.467 1598.18 633.943C1588.36 616.194 1581.93 596.773 1579.21 576.67C1577.29 562.778 1577.03 548.706 1578.43 534.751C1581.04 509.774 1588.82 485.613 1601.27 463.802C1605.91 455.805 1611.17 448.184 1616.99 441.008C1622.92 433.495 1629.46 426.485 1636.54 420.049C1651.05 406.753 1667.65 395.952 1685.69 388.085C1694.42 384.23 1703.44 381.093 1712.68 378.706C1721.56 376.345 1730.62 374.698 1739.77 373.78C1748.47 372.845 1757.23 372.6 1765.97 373.046C1796.38 374.22 1825.96 383.246 1851.85 399.246C1869.12 409.871 1884.26 423.626 1896.49 439.803C1905.03 451.488 1908.39 458.719 1907.55 459.139Z"
        fill="#E0E0E0" />
    <path
        d="M1831.1 635.202L1847.39 661.402L1824.13 675.969L1808.41 650.607C1784.46 663.602 1757.84 670.257 1738.72 668.266L1733.74 631.586C1752.96 632.549 1772.11 628.485 1789.28 619.797L1764.92 580.916C1735.15 590.82 1700.89 600.304 1680.03 566.978C1664.57 542.298 1669.24 509.863 1703.4 482.667L1687.21 456.782L1710.53 442.215L1726.25 467.629C1743.56 458.128 1762.89 452.9 1782.63 452.38L1788.92 488.326C1773.98 488.823 1759.28 492.278 1745.69 498.492L1770.47 538.106C1800.13 527.94 1833.93 518.823 1854.31 551.625C1869.45 575.833 1864.9 607.902 1831.1 635.202ZM1743.33 547.066L1722.63 514.002C1712.15 524.482 1711.37 534.333 1716.19 542.036C1721.01 549.738 1731.07 550 1743.33 547.066ZM1818.52 578.087C1813.28 569.965 1803.9 569.755 1791.69 572.532L1811.82 604.653C1821.88 594.592 1823.19 585.37 1818.52 577.877V578.087Z"
        fill="#E0E0E0" />
    <path
        d="M1645.45 220.67C1625.5 233.318 1602.25 239.764 1578.63 239.191C1555.02 238.618 1532.1 231.051 1512.79 217.45C1493.48 203.848 1478.64 184.823 1470.15 162.782C1461.65 140.741 1459.89 116.676 1465.08 93.6323C1470.27 70.5887 1482.18 49.6031 1499.3 33.3318C1516.43 17.0605 1537.99 6.23518 1561.27 2.22609C1584.55 -1.78301 1608.49 1.20441 1630.07 10.8102C1651.65 20.4159 1669.89 36.2082 1682.49 56.1878C1690.86 69.4199 1696.54 84.171 1699.21 99.5986C1701.88 115.026 1701.48 130.828 1698.04 146.102C1694.6 161.376 1688.18 175.823 1679.16 188.617C1670.14 201.412 1658.68 212.303 1645.45 220.67Z"
        fill="#F5F5F5" />
    <path
        d="M1630.3 196.671C1615.1 206.303 1597.38 211.208 1579.39 210.767C1561.4 210.325 1543.94 204.556 1529.23 194.189C1514.51 183.823 1503.21 169.325 1496.74 152.53C1490.27 135.735 1488.92 117.399 1492.88 99.8404C1496.83 82.2824 1505.91 66.292 1518.95 53.893C1532 41.494 1548.43 33.2436 1566.17 30.1858C1583.9 27.128 1602.15 29.4003 1618.59 36.7152C1635.04 44.0301 1648.94 56.0587 1658.55 71.2789C1664.93 81.3657 1669.26 92.6112 1671.3 104.373C1673.33 116.135 1673.03 128.182 1670.41 139.827C1667.78 151.471 1662.89 162.485 1656.01 172.239C1649.13 181.992 1640.39 190.294 1630.3 196.671Z"
        fill="#EBEBEB" />
    <path
        d="M1632.66 195.151C1632.4 194.679 1635.54 192.216 1640.68 187.238C1647.86 180.303 1653.92 172.296 1658.65 163.501C1661.86 157.458 1664.39 151.079 1666.2 144.48C1668.24 136.947 1669.3 129.179 1669.34 121.372C1669.42 117.149 1669.15 112.926 1668.56 108.744C1667.97 104.385 1667.06 100.075 1665.83 95.8537C1664.55 91.4926 1662.94 87.2358 1661.01 83.1207C1658.99 78.8786 1656.68 74.7816 1654.09 70.8592C1651.45 66.9523 1648.52 63.24 1645.34 59.7505C1642.24 56.4324 1638.89 53.3498 1635.33 50.5282C1631.88 47.803 1628.22 45.3503 1624.38 43.1923C1620.73 41.1544 1616.93 39.4025 1613.01 37.9524C1605.71 35.1189 1598.09 33.2004 1590.32 32.2408C1583.53 31.4812 1576.68 31.4812 1569.89 32.2408C1559.95 33.3305 1550.24 35.9647 1541.12 40.0484C1537.8 41.9052 1534.28 43.3985 1530.64 44.5023C1533.14 41.5998 1536.23 39.2604 1539.71 37.638C1548.74 32.3679 1558.67 28.8148 1569 27.1581C1576.17 26.0541 1583.46 25.8078 1590.69 26.4245C1599.01 27.067 1607.21 28.8295 1615.06 31.6644C1619.32 33.2248 1623.45 35.117 1627.42 37.3236C1631.57 39.5877 1635.53 42.1811 1639.26 45.0787C1643.16 48.0796 1646.82 51.3728 1650.22 54.9298C1653.63 58.656 1656.78 62.6128 1659.65 66.7721C1662.56 71.0376 1665.13 75.5225 1667.35 80.1863C1669.47 84.6486 1671.22 89.2748 1672.59 94.0198C1673.89 98.5651 1674.82 103.209 1675.37 107.906C1675.91 112.408 1676.12 116.944 1676 121.477C1675.59 137.159 1671.17 152.475 1663.16 165.964C1657.84 174.944 1650.89 182.852 1642.67 189.282C1639.8 191.938 1636.38 193.94 1632.66 195.151Z"
        fill="#E0E0E0" />
    <path
        d="M1541.59 157.371L1528.28 166.017L1520.63 154.07L1533.52 145.686C1527 134.94 1523.64 122.572 1523.83 110.002L1542.53 107.068C1542.23 116.975 1544.49 126.792 1549.08 135.573L1568.63 122.63C1563.39 107.382 1558.15 89.8283 1575.02 78.772C1587.6 70.5977 1604.31 72.6937 1618.67 90.0379L1631.82 81.4968L1639.53 93.339L1626.64 101.671C1631.67 110.465 1634.56 120.32 1635.07 130.438L1616.63 134.001C1616.18 126.419 1614.25 118.998 1610.97 112.15L1590.79 125.303C1596.3 140.446 1601.27 157.79 1584.61 168.637C1572.25 176.549 1555.74 174.506 1541.59 157.371ZM1586.24 111.364L1603.11 100.413C1597.61 95.173 1592.63 94.8062 1588.59 97.3738C1584.56 99.9414 1584.3 105.077 1586.03 111.364H1586.24ZM1570.94 150.402C1575.13 147.677 1575.13 142.804 1573.61 136.516L1557.21 146.996C1562.18 152.236 1566.95 152.865 1570.73 150.402H1570.94Z"
        fill="#E0E0E0" />
    <path
        d="M2328.63 2121.35C2328.63 2122.14 1807.31 2122.72 1164.37 2122.72C521.427 2122.72 0 2122.14 0 2121.35C0 2120.57 521.217 2119.99 1164.37 2119.99C1807.52 2119.99 2328.63 2120.62 2328.63 2121.35Z"
        fill="#263238" />
    <path
        d="M311.567 1960.49C317.488 1937.59 302.45 1914.53 285.368 1897.92C268.285 1881.31 248.374 1866.48 239.623 1844.42C225.423 1808.79 244.496 1762.68 220.287 1732.97C206.035 1715.47 180.464 1709.6 167.888 1691.05C161.233 1681.25 159.085 1669.2 156.465 1657.67C143.085 1598.45 114.018 1543.92 72.3115 1499.79C69.5285 1552.5 80.9665 1604.98 105.428 1651.75C115.227 1670.41 127.278 1688.43 130.527 1709.39C135.767 1743.24 116.903 1778.14 125.287 1811.36C134.772 1849.4 177.687 1874.87 179.521 1914.01C181.25 1947.13 152.378 1976.16 154.526 2009.22C156.283 2023.28 161.328 2036.72 169.25 2048.47C194.926 2091.23 232.392 2120.52 289.245 2119.57L359.041 2121.98L311.567 1960.49Z"
        fill="#4EAD60" />
    <g opacity="0.3">
        <path
            d="M311.567 1960.49C317.488 1937.59 302.45 1914.53 285.368 1897.92C268.285 1881.31 248.374 1866.48 239.623 1844.42C225.423 1808.79 244.496 1762.68 220.287 1732.97C206.035 1715.47 180.464 1709.6 167.888 1691.05C161.233 1681.25 159.085 1669.2 156.465 1657.67C143.085 1598.45 114.018 1543.92 72.3115 1499.79C69.5285 1552.5 80.9665 1604.98 105.428 1651.75C115.227 1670.41 127.278 1688.43 130.527 1709.39C135.767 1743.24 116.903 1778.14 125.287 1811.36C134.772 1849.4 177.687 1874.87 179.521 1914.01C181.25 1947.13 152.378 1976.16 154.526 2009.22C156.283 2023.28 161.328 2036.72 169.25 2048.47C194.926 2091.23 232.392 2120.52 289.245 2119.57L359.041 2121.98L311.567 1960.49Z"
            fill="black" />
    </g>
    <path
        d="M373.084 2121.51C379.467 2122.51 385.975 2122.39 392.315 2121.15C400.026 2119.97 407.606 2118.06 414.951 2115.43C425.083 2111.91 434.556 2106.72 442.985 2100.08C448.043 2096 452.004 2090.72 454.513 2084.73C456.636 2077.94 457.731 2070.88 457.762 2063.77C457.919 2056.22 458.478 2048.68 459.438 2041.19C460.779 2033.23 463.662 2025.61 467.927 2018.76C476.154 2004.3 489.83 1990.62 494.127 1970.97C498.424 1951.32 495.489 1930.78 492.24 1909.82C488.992 1888.86 485.848 1866.07 493.865 1844.27C501.882 1822.47 516.659 1802.72 524.309 1778.14C531.959 1753.56 528.396 1726.53 529.968 1700.17C530.485 1686.8 533.581 1673.65 539.086 1661.45C544.745 1649.08 552.552 1637.45 558.683 1624.4C571.049 1598.2 573.25 1568.33 576.656 1539.15C578.298 1524.4 580.044 1509.54 581.896 1494.55C582.951 1479.45 585.549 1464.49 589.651 1449.91C594.362 1435.2 599.944 1420.78 606.366 1406.73C609.664 1399.44 612.363 1391.88 614.436 1384.15C615.621 1376.2 616.373 1368.18 616.689 1360.15C617.463 1344.02 616.85 1327.86 614.855 1311.84C612.969 1295.75 610.034 1279.77 608.305 1263.63L607.991 1260.85L607.624 1257.66L604.794 1259.07C590 1266.61 577.144 1277.46 567.224 1290.77C557.546 1303.79 549.766 1318.12 544.116 1333.32C532.483 1363.29 528.396 1394.73 522.423 1424.71C516.449 1454.68 509.323 1484.28 493.603 1509.23C486.005 1521.64 476.73 1532.96 468.608 1545.12C459.975 1556.94 454.07 1570.52 451.317 1584.89C447.177 1614.39 463.421 1640.33 460.067 1666.48C458.461 1679.32 454.119 1691.66 447.334 1702.68C440.994 1713.85 433.553 1724.17 426.374 1734.6C419.158 1744.73 412.879 1755.5 407.615 1766.77C402.703 1777.83 399.81 1789.69 399.074 1801.77C397.345 1825.3 400.699 1847.62 399.074 1868.69C397.148 1888.75 391.309 1908.24 381.887 1926.06C373.399 1943.2 364.019 1958.76 356.159 1973.8C352.229 1981.34 348.561 1988.68 345.679 1996.02C342.889 2003.16 340.835 2010.57 339.548 2018.13C337.49 2031.31 337.331 2044.72 339.077 2057.95C340.937 2076.35 347.866 2093.88 359.094 2108.57C360.793 2110.76 362.668 2112.81 364.7 2114.7C366.104 2116.14 367.649 2117.44 369.311 2118.58C371.879 2120.52 373.294 2121.36 373.294 2121.36C368.289 2117.44 363.752 2112.95 359.775 2107.99C349.002 2093.22 342.446 2075.8 340.806 2057.59C339.265 2044.51 339.565 2031.28 341.697 2018.29C343.041 2010.92 345.112 2003.71 347.88 1996.75C350.867 1989.57 354.535 1982.24 358.36 1974.79C366.325 1959.91 375.809 1944.46 384.56 1927.16C394.3 1909.08 400.356 1889.24 402.375 1868.79C404.209 1847.25 401.013 1824.88 402.795 1801.88C403.543 1790.2 406.383 1778.75 411.179 1768.08C416.379 1757.05 422.589 1746.53 429.728 1736.64C436.749 1726.16 444.295 1715.94 450.688 1704.52C457.782 1693.06 462.339 1680.21 464.05 1666.84C467.403 1638.97 451.264 1612.87 455.456 1585.47C458.131 1571.7 463.841 1558.71 472.171 1547.43C480.136 1535.48 489.463 1524.16 497.323 1511.43C513.043 1485.75 520.851 1455.73 526.667 1425.6C532.483 1395.47 536.78 1364.34 548.255 1334.95C553.744 1320.15 561.313 1306.21 570.735 1293.55C580.224 1280.77 592.546 1270.37 606.733 1263.16L603.484 1261.38L603.799 1264.21C605.58 1280.5 608.462 1296.54 610.349 1312.41C612.316 1328.19 612.93 1344.11 612.183 1359.99C611.902 1367.8 611.184 1375.58 610.034 1383.31C608.042 1390.76 605.43 1398.04 602.227 1405.06C595.775 1419.27 590.159 1433.84 585.407 1448.7C581.212 1463.52 578.578 1478.72 577.547 1494.08C575.87 1509.14 574.228 1524.02 572.621 1538.73C569.268 1568.02 567.067 1597.36 555.172 1622.57C549.251 1635.19 541.444 1646.88 535.627 1659.66C529.945 1672.32 526.76 1685.94 526.248 1699.8C524.728 1726.74 528.239 1753.09 521.008 1776.93C513.777 1800.78 498.581 1820.48 490.878 1843.01C483.175 1865.54 486.057 1889.33 489.359 1910.19C492.66 1931.04 496.118 1951.63 491.612 1970.24C487.105 1988.84 474.32 2002.51 465.936 2017.4C461.55 2024.52 458.612 2032.45 457.29 2040.71C456.355 2048.29 455.865 2055.92 455.823 2063.56C455.814 2070.43 454.808 2077.26 452.836 2083.84C450.502 2089.56 446.773 2094.6 441.989 2098.51C433.786 2105.11 424.566 2110.33 414.689 2113.97C407.438 2116.68 399.946 2118.69 392.315 2119.99C387.627 2120.85 382.878 2121.32 378.114 2121.41C374.971 2121.46 373.084 2121.51 373.084 2121.51Z"
        fill="#263238" />
    <path
        d="M593.791 1299.37C593.487 1300.05 593.259 1300.78 593.11 1301.51C592.69 1303.19 592.219 1305.23 591.59 1307.8C590.228 1313.3 588.551 1321.58 585.931 1331.96C583.311 1342.33 576.866 1353.97 571.469 1368.38C565.096 1384.59 559.552 1401.12 554.858 1417.89C549.618 1436.49 544.797 1457.19 539.872 1479.3C534.946 1501.42 529.706 1525.1 517.55 1547.42C511.838 1558.74 505.393 1570.22 500.258 1582.79C495.233 1595.66 491.87 1609.11 490.249 1622.83C486.727 1651.21 481.69 1679.39 475.158 1707.24C461.168 1764.46 447.858 1818.91 435.702 1868.53L402.638 2000.05C393.468 2037.25 385.975 2067.49 380.735 2088.76C378.324 2099.24 376.386 2107.1 374.971 2112.97C374.447 2115.54 373.975 2117.63 373.608 2119.31C373.4 2120.01 373.294 2120.73 373.294 2121.46C373.627 2120.81 373.89 2120.12 374.08 2119.42L375.862 2113.18C377.486 2107.36 379.634 2099.35 382.411 2089.23C388.018 2067.96 395.983 2037.88 405.729 2000.78L439.736 1869.52C451.998 1819.9 465.412 1765.46 479.56 1708.24C486.071 1680.26 491.091 1651.96 494.599 1623.46C496.138 1610.15 499.324 1597.09 504.083 1584.58C509.008 1572.37 515.349 1560.94 521.06 1549.47C533.374 1526.73 538.457 1502.31 543.382 1480.3C548.308 1458.29 552.657 1437.49 557.74 1418.89C562.823 1400.29 568.22 1383.78 573.46 1369.48C578.7 1355.17 584.726 1343.28 587.293 1332.53C589.861 1321.79 591.066 1313.72 592.166 1308.12C592.586 1305.55 592.952 1303.45 593.267 1301.78C593.536 1301 593.712 1300.19 593.791 1299.37Z"
        fill="#263238" />
    <path
        d="M385.608 2121.98C431.195 2094.89 444.295 2014.72 425.274 1965.21C406.253 1915.69 372.874 1870.47 367.635 1817.7C363.652 1777.14 376.962 1735.49 367.635 1695.82C354.954 1642.22 302.712 1600.87 303.34 1545.85C303.655 1514.99 321.209 1485.96 319.846 1455.1C318.117 1417.32 289.088 1387.29 271.115 1353.97C243.553 1302.98 241.771 1242.67 232.339 1185.5C222.907 1128.33 200.9 1067.08 150.491 1038.78C142.998 1087.31 130.213 1120.58 134.247 1186.34C135.662 1209.97 163.12 1255.14 166.84 1306.86C169.093 1337.83 170.613 1368.79 172.499 1399.76C174.333 1429.89 176.272 1460.55 187.118 1488.84C195.398 1510.48 208.655 1530.08 214.838 1552.4C226.366 1594.32 211.17 1639.8 220.497 1682.3C228.409 1718.3 253.351 1749.32 258.434 1785.84C265.613 1837.14 232.234 1890.64 249.369 1939.37C257.805 1963.69 277.822 1983.18 283.481 2008.23C287.883 2027.72 283.062 2048.31 287.044 2067.86C293.489 2099.3 353.539 2123.82 385.608 2121.83"
        fill="#4EAD60" />
    <path
        d="M163.015 1087.15C162.933 1088.07 162.933 1089 163.015 1089.93C163.015 1091.97 163.644 1094.59 164.063 1097.89C165.111 1104.91 166.264 1115.18 168.622 1128.49C170.98 1141.8 178.106 1156.94 183.608 1175.13C189.11 1193.31 195.188 1214.16 200.323 1237.53C205.459 1260.9 209.86 1286.84 214.419 1314.67C218.978 1342.49 224.008 1372.88 237.789 1401.91C244.182 1416.48 251.361 1431.05 256.758 1446.61C262.018 1462.56 265.24 1479.11 266.347 1495.86C268.907 1531.47 273.385 1566.9 279.761 1602.03C293.699 1673.97 307.009 1742.46 319.113 1804.86C331.217 1867.27 343.374 1922.92 353.015 1970.03C362.657 2017.13 370.726 2054.76 376.281 2081.32C379.058 2094.21 381.259 2104.33 382.831 2111.56C383.564 2114.81 384.193 2117.37 384.665 2119.36C384.816 2120.26 385.062 2121.14 385.398 2121.98C385.432 2121.07 385.326 2120.15 385.084 2119.26C384.717 2117.27 384.298 2114.65 383.721 2111.35C382.359 2104.12 380.42 2093.95 378.01 2080.96C372.77 2054.34 365.329 2016.3 356.159 1969.4C346.989 1922.5 335.566 1866.22 323.148 1804.03L284.163 1601.29C277.879 1566.29 273.471 1530.97 270.958 1495.5C269.774 1478.39 266.429 1461.51 261.002 1445.25C255.448 1429.53 248.217 1414.75 241.771 1400.29C228.043 1371.73 223.222 1341.86 218.296 1314.09C213.371 1286.32 209.022 1260.33 203.625 1236.91C198.227 1213.48 192.254 1192.52 186.176 1174.39C180.097 1156.26 173.285 1141.22 170.456 1128.18C167.626 1115.13 166.369 1104.7 165.216 1097.79C164.587 1094.54 164.115 1091.92 163.749 1089.87C163.628 1088.94 163.381 1088.02 163.015 1087.15Z"
        fill="#263238" />
    <path
        d="M2149.43 1809.89C2156.51 1813.27 2162.84 1818.04 2168.03 1823.92C2173.23 1829.8 2177.18 1836.67 2179.66 1844.11C2184.51 1859.06 2185.89 1874.92 2183.69 1890.48C2180.29 1920.61 2163.15 1950.95 2144.76 1975C2119.4 1952.89 2113.32 1914.32 2111.85 1894.57C2109.13 1863.13 2123.12 1805.23 2149.43 1809.89Z"
        fill="#4EAD60" />
    <path
        d="M2174.16 2024.73C2172.46 2016.15 2173.06 2007.27 2175.88 1999C2178.71 1990.72 2183.66 1983.33 2190.24 1977.57C2196.95 1971.93 2204.71 1967.67 2213.08 1965.05C2221.44 1962.44 2230.25 1961.51 2238.98 1962.32C2243.02 1962.28 2247.03 1963.11 2250.72 1964.77C2254.41 1966.42 2257.7 1968.86 2260.35 1971.91C2262.34 1975.15 2263.42 1978.86 2263.49 1982.66C2263.55 1986.45 2262.6 1990.2 2260.72 1993.5C2256.88 2000.06 2251.36 2005.49 2244.74 2009.22C2222.78 2023 2198.99 2032.33 2174.16 2024.94"
        fill="#4EAD60" />
    <path
        d="M2141.67 2116.85C2141.79 2114.77 2142.09 2112.7 2142.56 2110.67C2143.35 2106.32 2144.39 2100.71 2145.65 2093.95C2148.46 2075.3 2154.28 2057.23 2162.89 2040.45C2171.81 2023.71 2185.03 2009.66 2201.2 1999.74C2206.13 1996.79 2211.41 1994.47 2216.92 1992.82C2218.39 1992.35 2219.9 1991.97 2221.42 1991.67C2222.47 1991.67 2223.05 1991.35 2223.05 1991.67C2210.51 1995.71 2198.9 2002.23 2188.92 2010.82C2178.93 2019.41 2170.76 2029.91 2164.88 2041.71C2156.45 2058.21 2150.52 2075.87 2147.28 2094.11C2145.7 2101.13 2144.45 2106.79 2143.5 2110.67C2143.11 2112.79 2142.5 2114.86 2141.67 2116.85Z"
        fill="#263238" />
    <path
        d="M2142.61 1854.9C2142.78 1855.8 2142.89 1856.71 2142.93 1857.63C2142.93 1859.62 2143.19 1862.19 2143.4 1865.38C2143.77 1872.09 2144.13 1881.84 2144.55 1893.94C2145.29 1918.05 2145.91 1951.58 2145.76 1988.26C2145.6 2024.94 2144.71 2058.42 2143.71 2082.58C2143.24 2094.63 2142.72 2104.38 2142.3 2111.14C2142.3 2114.28 2141.93 2116.85 2141.77 2118.89C2141.77 2119.79 2141.66 2120.69 2141.46 2121.57C2141.38 2120.66 2141.38 2119.75 2141.46 2118.84C2141.46 2116.85 2141.46 2114.28 2141.46 2111.09C2141.46 2104.06 2141.88 2094.37 2142.14 2082.53C2142.77 2058.42 2143.4 2024.89 2143.56 1988.21C2143.71 1951.53 2143.56 1918.1 2142.98 1893.89C2142.98 1882.05 2142.67 1872.35 2142.51 1865.33V1857.58C2142.47 1856.68 2142.5 1855.79 2142.61 1854.9Z"
        fill="#263238" />
    <path
        d="M2130.3 2042.86C2127.24 2024.62 2119.88 2007.37 2108.83 1992.55C2097.78 1977.72 2083.35 1965.74 2066.74 1957.61C2058.3 1953.52 2047.19 1950.9 2040.28 1957.19C2033.36 1963.48 2035.04 1974.85 2038.23 1983.39C2045.7 2001.55 2058.36 2017.1 2074.64 2028.09C2090.92 2039.07 2110.09 2045 2129.72 2045.11"
        fill="#4EAD60" />
    <path
        d="M2070.83 1986.16C2072.65 1986.75 2074.4 1987.52 2076.07 1988.47C2078.15 1989.44 2080.18 1990.52 2082.14 1991.72C2084.81 1993.21 2087.4 1994.84 2089.9 1996.59C2092.97 1998.65 2095.92 2000.87 2098.75 2003.25C2102.04 2005.93 2105.19 2008.78 2108.19 2011.79C2114.99 2018.76 2120.98 2026.48 2126.05 2034.79C2130.99 2043.2 2134.95 2052.15 2137.84 2061.46C2139.06 2065.53 2140.06 2069.65 2140.83 2073.83C2141.53 2077.47 2142.04 2081.14 2142.35 2084.83C2142.66 2087.86 2142.8 2090.91 2142.77 2093.95C2142.91 2096.24 2142.91 2098.53 2142.77 2100.81C2142.75 2102.79 2142.54 2104.75 2142.14 2106.68C2141.62 2106.68 2142.51 2098.3 2141.04 2084.99C2140.64 2081.36 2140.04 2077.76 2139.26 2074.2C2138.44 2070.1 2137.39 2066.06 2136.12 2062.09C2133.19 2052.95 2129.25 2044.16 2124.38 2035.89C2119.4 2027.7 2113.55 2020.08 2106.93 2013.15C2104.02 2010.15 2100.96 2007.3 2097.76 2004.61C2095.04 2002.18 2092.19 1999.91 2089.22 1997.8C2078.27 1990.04 2070.83 1986.58 2070.83 1986.16Z"
        fill="#263238" />
    <path
        d="M1778.23 972.602C1778.23 972.602 1533.57 799.212 1502.61 782.183C1473.11 765.939 1379.47 754.149 1371.08 752.105L1203.41 715.426L947.277 723.076L873.918 767.249L688.005 853.079C637.334 876.42 597.395 918.101 576.237 969.72L458.862 1256.4L750.36 1342.54L759.425 1644.94L690.729 2121.35H1543.16L1500.25 1208.29L1589.01 1227.84L1778.23 972.602Z"
        fill="#263238" />
    <path
        d="M755.6 1220.77C755.6 1220.77 752.508 1223.02 746.587 1226.48C738.243 1231.55 728.985 1234.93 719.339 1236.43C704.894 1237.45 690.401 1235.34 676.843 1230.25C660.126 1224.68 643.925 1217.67 628.426 1209.29C611.816 1200.64 596.253 1191.89 581.686 1184.87C568.839 1178.46 555.484 1173.11 541.758 1168.89C532.487 1166.1 522.981 1164.17 513.357 1163.13C509.951 1162.76 507.331 1162.6 505.497 1162.55H502.772C506.27 1162.42 509.772 1162.55 513.252 1162.92C522.923 1163.7 532.49 1165.46 541.81 1168.16C555.613 1172.24 569.041 1177.5 581.948 1183.88C596.62 1190.9 612.182 1199.6 628.793 1208.29C644.246 1216.62 660.372 1223.63 677.001 1229.25C690.37 1234.3 704.656 1236.46 718.92 1235.59C728.481 1234.19 737.68 1230.95 746.011 1226.06C748.997 1224.38 751.251 1223.02 752.823 1222.08C754.395 1221.13 755.6 1220.77 755.6 1220.77Z"
        fill="white" />
    <path
        d="M743.129 1079.5H741.19L735.636 1079.24C730.815 1078.97 723.846 1078.45 715.252 1077.61C670.49 1073.1 626.475 1062.96 584.254 1047.43C576.132 1044.44 569.634 1041.87 565.18 1039.99L559.94 1037.79L558.159 1036.95L560.045 1037.58L565.285 1039.57C569.791 1041.35 576.341 1043.81 584.463 1046.7C626.797 1061.84 670.765 1071.95 715.462 1076.83C724.003 1077.77 731.182 1078.45 735.74 1078.82L741.295 1079.29L743.129 1079.5Z"
        fill="white" />
    <path
        d="M926.37 782.182C926.37 782.182 924.169 785.745 919.558 791.718C912.982 800.107 905.437 807.688 897.078 814.303C884.561 823.999 870.927 832.161 856.469 838.616C838.777 846.529 820.549 853.182 801.921 858.528C782.166 864.396 763.303 869.584 746.378 875.138C731.329 879.902 716.652 885.769 702.467 892.692C692.908 897.347 683.758 902.798 675.114 908.988C671.97 911.084 669.874 913.023 668.198 914.228C666.521 915.433 665.735 916.01 665.735 916.01C665.735 916.01 668.826 913.18 674.852 908.621C683.446 902.305 692.562 896.731 702.1 891.959C716.296 884.96 730.99 879.022 746.063 874.195C762.988 868.536 781.904 863.348 801.607 857.48C820.189 852.162 838.381 845.561 856.05 837.725C870.449 831.316 884.058 823.263 896.607 813.726C905.058 807.252 912.74 799.833 919.505 791.614C921.968 788.784 923.488 786.374 924.745 784.749C926.003 783.125 926.37 782.182 926.37 782.182Z"
        fill="white" />
    <path
        d="M1450.63 821.221C1450.63 821.221 1449.84 820.854 1448.37 820.016C1446.91 819.177 1444.91 817.92 1442.08 816.505C1434.28 812.343 1426.15 808.838 1417.77 806.025C1405.31 801.843 1392.56 798.568 1379.62 796.226C1365.06 793.449 1348.87 791.301 1331.89 788.89L1245.01 776.577L1218.81 772.699L1211.63 771.599L1209.17 771.127L1211.68 771.389L1218.86 772.28L1245.06 775.79L1331.99 787.79C1348.97 790.148 1365.16 792.349 1379.78 795.178C1392.73 797.56 1405.49 800.923 1417.93 805.239C1426.34 808.144 1434.48 811.792 1442.24 816.138C1447.8 819.23 1450.63 821.221 1450.63 821.221Z"
        fill="white" />
    <path
        d="M1331.99 879.068C1331.99 879.068 1330.05 880.012 1326.33 881.636C1322.61 883.26 1317.06 885.618 1309.88 888.5C1295.47 894.212 1274.46 902.124 1247.84 909.879C1216.69 919.113 1184.93 926.117 1152.79 930.839C1116.47 936.393 1075.97 936.393 1033.79 934.979C991.606 933.564 951.207 931.782 914.632 934.088C882.232 935.659 850.183 941.508 819.317 951.484C798.523 958.325 778.774 968.006 760.63 980.252C754.394 984.758 749.521 988.321 746.482 991.046C743.443 993.771 741.661 994.976 741.661 994.976C741.661 994.976 743.233 993.509 746.325 990.889C749.416 988.269 754.132 984.496 760.42 979.885C778.497 967.464 798.237 957.655 819.055 950.751C849.973 940.655 882.096 934.717 914.579 933.092C951.259 930.734 991.554 932.516 1033.79 933.878C1076.02 935.241 1116.42 935.345 1152.68 929.843C1184.79 925.108 1216.52 918.104 1247.63 908.884C1274.2 901.233 1295.26 893.426 1309.72 887.924C1316.95 885.094 1322.51 882.684 1326.23 881.217L1331.99 879.068Z"
        fill="white" />
    <path
        d="M1412.27 930.315C1411.98 930.524 1411.66 930.684 1411.33 930.787L1408.55 931.782C1406.14 932.673 1402.63 933.826 1398.07 935.083C1386.59 938.36 1374.74 940.121 1362.8 940.323C1350.85 940.335 1338.97 938.569 1327.54 935.083C1323.14 933.773 1319.63 932.568 1317.06 931.625L1314.33 930.525L1313.39 930.053H1314.44L1317.22 930.944C1319.63 931.782 1323.14 932.883 1327.7 934.088C1339.11 937.269 1350.91 938.856 1362.75 938.804C1374.62 938.462 1386.41 936.703 1397.86 933.564C1402.21 932.359 1405.77 931.363 1408.34 930.577L1411.12 929.791L1412.27 930.315Z"
        fill="white" />
    <path
        d="M1246.95 1078.61C1246.95 1078.61 1221.8 1083.85 1180.77 1090.03C1160.23 1093.12 1135.71 1096.16 1108.41 1098.88C1081.11 1101.61 1050.77 1103.65 1019.33 1104.86C987.886 1106.06 957.495 1105.96 930.247 1105.38C902.999 1104.81 877.848 1103.34 857.412 1101.77C816.016 1098.62 790.603 1095.16 790.603 1095.16L795.214 1095.53L808.523 1096.84C820.051 1098.05 836.766 1099.51 857.464 1100.98C878.162 1102.45 902.842 1103.65 930.247 1104.33C957.652 1105.01 987.886 1104.86 1019.33 1103.76C1050.77 1102.66 1081 1100.4 1108.41 1097.89C1135.81 1095.37 1160.23 1092.23 1180.77 1089.24C1201.31 1086.26 1217.87 1083.64 1229.29 1081.59L1242.44 1079.29L1246.95 1078.61Z"
        fill="white" />
    <path
        d="M1452.15 1063.72H1450.26H1445.02C1440.25 1063.72 1433.39 1063.72 1424.9 1063.72C1407.92 1063.72 1384.45 1063.04 1358.66 1060.84C1332.88 1058.64 1309.57 1055.13 1292.9 1052.09C1284.52 1050.62 1277.81 1049.26 1273.15 1048.27L1267.91 1047.11L1266.08 1046.64H1267.96L1273.2 1047.59L1292.96 1051.1C1309.67 1053.93 1332.88 1057.28 1358.66 1059.48C1384.45 1061.68 1407.92 1062.41 1424.85 1062.68H1444.97H1450.21L1452.15 1063.72Z"
        fill="white" />
    <path
        d="M1190.51 1279.72C1190.51 1279.72 1189 1280.03 1186.22 1280.4L1173.85 1282.13C1168.61 1282.91 1161.9 1283.8 1154.2 1284.33C1146.5 1284.85 1137.8 1285.9 1128 1286.06C1118.2 1286.21 1107.72 1286.95 1096.56 1286.74C1090.85 1286.74 1084.98 1286.74 1078.9 1286.74L1060.2 1286.11C1034.57 1285.11 1006.49 1283.17 977.039 1280.87C947.591 1278.56 919.4 1275.63 893.986 1274.11C868.573 1272.59 845.412 1271.44 825.867 1271.75H812.086L799.772 1272.38C792.122 1272.69 785.467 1273.06 780.122 1273.74L767.704 1274.95L763.354 1275.31C763.354 1275.31 764.874 1275.05 767.704 1274.74L780.07 1273.27C785.31 1272.54 792.069 1272.17 799.772 1271.75L812.086 1271.07H825.867C845.255 1270.7 868.363 1271.65 893.986 1273.22C919.61 1274.79 947.591 1277.41 977.039 1279.87C1006.49 1282.34 1034.68 1284.38 1060.14 1285.48L1078.8 1286.16C1084.88 1286.16 1090.75 1286.16 1096.46 1286.16C1107.83 1286.16 1118.41 1285.9 1127.9 1285.64C1137.38 1285.37 1146.29 1284.48 1154.1 1284.01C1161.9 1283.54 1168.35 1282.75 1173.75 1282.02L1186.11 1280.5L1190.51 1279.72Z"
        fill="white" />
    <path
        d="M1498.89 1218.2L1496.58 1218.56L1489.87 1219.25C1484.11 1219.87 1475.67 1220.56 1465.3 1221.29C1444.34 1222.7 1415.68 1223.7 1383.87 1222.91C1352.06 1222.13 1323.3 1219.51 1302.6 1216.99C1292.12 1215.74 1283.89 1214.58 1278.13 1213.69L1271.52 1212.64L1269.22 1212.17L1271.52 1212.43L1278.18 1213.27C1283.94 1214.06 1292.33 1215.11 1302.7 1216.26C1323.4 1218.56 1352.06 1220.97 1383.87 1221.81C1415.68 1222.65 1444.44 1221.81 1465.25 1220.5C1475.72 1219.93 1484.06 1219.3 1489.87 1218.83L1496.53 1218.3L1498.89 1218.2Z"
        fill="white" />
    <path
        d="M1502.61 1408.62L1494.96 1408.2C1489.72 1408.2 1482.54 1407.15 1473 1406.89C1453.93 1405.89 1426.31 1405.68 1392.2 1407.36C1358.09 1409.04 1317.69 1413.07 1272.94 1418.99C1228.19 1424.91 1179.14 1432.62 1127.64 1439.11C1078.99 1445.68 1030 1449.4 980.917 1450.28C940.898 1450.96 900.898 1448.07 861.394 1441.63C834.772 1437.24 808.567 1430.61 783.057 1421.82C778.498 1420.41 774.568 1418.89 771.162 1417.53L762.464 1414.07C757.8 1412.23 755.39 1411.19 755.39 1411.19L762.569 1413.86L771.267 1417.21C774.673 1418.57 778.655 1420.04 783.214 1421.46C808.746 1430.07 834.948 1436.56 861.551 1440.84C901.016 1447.15 940.958 1449.97 980.917 1449.28C1030 1448.29 1078.99 1444.48 1127.64 1437.86C1179.25 1431.2 1228.3 1423.55 1273.1 1417.79C1317.9 1412.02 1358.19 1408.15 1392.2 1406.42C1419.12 1405.04 1446.08 1405.04 1473 1406.42C1492.07 1407.52 1502.61 1408.62 1502.61 1408.62Z"
        fill="white" />
    <path
        d="M1214.46 1604.28C1214.46 1604.28 1189.26 1608.57 1148.18 1612.97C1127.69 1615.18 1103.16 1617.17 1075.92 1618.74C1048.67 1620.31 1018.59 1621.04 987.1 1620.89C955.608 1620.73 925.583 1619.26 898.336 1617.48C871.088 1615.7 846.617 1613.18 826.129 1610.67C785.1 1605.43 760.001 1601.03 760.001 1601.03L764.612 1601.6L777.764 1603.54C783.424 1604.43 790.445 1605.43 798.724 1606.42C807.003 1607.42 816.121 1608.83 826.339 1609.88C846.879 1612.29 871.35 1614.6 898.545 1616.49C925.74 1618.37 955.765 1619.47 987.257 1619.79C1018.75 1620.1 1048.77 1619.11 1076.02 1617.74C1103.27 1616.38 1127.74 1614.34 1148.28 1612.19C1158.76 1611.25 1167.83 1610.04 1175.95 1609.15C1184.07 1608.26 1191.09 1607.32 1196.91 1606.53L1210.06 1604.8L1214.46 1604.28Z"
        fill="white" />
    <path
        d="M1499.67 1566.76C1499.67 1566.76 1498.68 1567.13 1496.84 1567.65L1488.82 1570.11C1481.8 1572.21 1471.64 1575.09 1459.01 1578.5C1433.81 1585.26 1398.65 1593.64 1359.45 1600.82C1320.26 1608 1284.36 1612.66 1258.37 1615.28C1245.38 1616.59 1234.84 1617.48 1227.56 1618.01L1219.18 1618.58H1216.24L1219.13 1618.22L1227.51 1617.43C1234.79 1616.8 1245.32 1615.75 1258.27 1614.34C1284.47 1611.51 1320.05 1606.79 1359.24 1599.61C1398.44 1592.44 1433.54 1584.16 1458.8 1577.55C1471.43 1574.31 1481.59 1571.53 1488.62 1569.54L1496.74 1567.28L1499.67 1566.76Z"
        fill="white" />
    <path
        d="M1014.56 1822.73C1001.05 1824.83 987.444 1826.17 973.791 1826.77C961.163 1827.45 946.072 1827.5 929.304 1826.77C892.966 1825.03 856.962 1818.99 822.042 1808.79C805.956 1804.02 791.703 1799.05 780.123 1794.28C767.417 1789.23 754.981 1783.53 742.867 1777.2L745.487 1778.35L752.875 1781.75C756.071 1783.27 760.001 1785.11 764.665 1786.99C769.328 1788.88 774.463 1791.29 780.385 1793.49C792.122 1798.21 806.584 1803.08 822.304 1807.8C839.76 1812.73 857.46 1816.75 875.332 1819.85C893.232 1822.68 911.263 1824.6 929.356 1825.61C946.072 1826.35 961.11 1826.4 973.739 1825.61C980.079 1825.61 985.79 1824.93 990.821 1824.62C995.851 1824.3 1000.1 1823.83 1003.66 1823.46L1011.73 1822.63L1014.56 1822.73Z"
        fill="white" />
    <path
        d="M1518.64 1809.37L1513.4 1810.31L1498.41 1812.72C1485.42 1814.77 1466.55 1817.65 1443.24 1820.95C1396.6 1827.6 1331.99 1835.88 1260.47 1843.01C1188.94 1850.14 1123.92 1854.64 1077.07 1857.26C1053.54 1858.57 1034.47 1859.52 1021.32 1860.04L1006.17 1860.62H1000.93L1006.17 1860.3L1021.32 1859.52L1077.02 1856.42C1124.18 1853.59 1188.94 1848.88 1260.42 1841.8C1331.89 1834.73 1396.65 1826.56 1443.18 1820.11L1498.41 1812.2L1513.4 1810L1518.64 1809.37Z"
        fill="white" />
    <path
        d="M1546.1 2002.36C1546.1 2002.36 1534.67 2004.77 1513.77 2008.17C1492.86 2011.58 1462.57 2015.82 1424.69 2018.97C1380.51 2022.57 1336.16 2023.65 1291.86 2022.21C1241.81 2020.59 1187.06 2014.98 1129.78 2007.96C1072.51 2000.94 1017.91 1993.87 968.08 1989.99C923.945 1986.18 879.613 1985.19 835.352 1987C805.465 1988.39 775.705 1991.79 746.273 1997.17C735.793 1999.16 727.828 2000.84 722.431 2002.15L714.152 2004.03C714.152 2004.03 716.981 2003.25 722.379 2001.94C727.776 2000.63 735.793 1998.84 746.168 1996.7C775.581 1991.14 805.346 1987.63 835.247 1986.22C879.518 1984.23 923.872 1985.12 968.027 1988.89C1017.96 1992.77 1072.51 1999.84 1129.78 2006.86C1187.06 2013.88 1241.81 2019.49 1291.8 2021.11C1336.07 2022.63 1380.38 2021.63 1424.53 2018.13C1462.21 2015.09 1492.65 2010.95 1513.61 2007.65C1524.09 2005.97 1532.16 2004.66 1537.66 2003.67L1546.1 2002.36Z"
        fill="white" />
    <path
        d="M1699.84 925.705C1699.84 925.705 1698.32 929.845 1694.91 937.076C1690 947.242 1684.29 957.001 1677.83 966.262C1668.22 979.953 1657.72 992.994 1646.39 1005.3C1633.71 1019.34 1619.14 1034.12 1604.47 1050.15C1590.46 1065.07 1577.67 1081.08 1566.22 1098.05C1556.89 1111.91 1549.34 1126.89 1543.74 1142.64C1539.92 1153.37 1537.44 1164.52 1536.35 1175.86C1535.83 1179.79 1535.98 1182.93 1535.83 1185.03C1535.67 1187.13 1535.83 1188.23 1535.83 1188.23C1535.69 1184.08 1535.79 1179.94 1536.14 1175.81C1537.04 1164.52 1539.38 1153.39 1543.11 1142.69C1548.64 1126.85 1556.16 1111.78 1565.49 1097.84C1576.93 1080.78 1589.74 1064.67 1603.79 1049.68C1618.57 1033.7 1633.19 1018.92 1645.71 1004.93C1657.01 992.678 1667.51 979.708 1677.15 966.105C1683.68 956.931 1689.48 947.26 1694.49 937.181C1696.38 933.617 1697.48 930.735 1698.42 928.849C1699.37 926.963 1699.84 925.705 1699.84 925.705Z"
        fill="white" />
    <path
        d="M1458.49 1015.99L1460.27 1014.68L1465.51 1011.11C1470.12 1008.13 1476.56 1003.52 1484.32 997.543C1492.07 991.57 1501.03 984.129 1510.52 975.326C1520.74 965.732 1530.45 955.605 1539.6 944.987C1548.64 934.25 1557.12 923.057 1565.01 911.451C1572.14 900.657 1578.17 890.491 1582.78 882.055C1587.39 873.619 1590.95 866.335 1593.26 861.095L1595.93 855.384L1596.93 853.393C1592.99 863.309 1588.51 873 1583.51 882.422C1578.95 891.12 1573.03 901.181 1565.85 911.975C1558.04 923.676 1549.57 934.925 1540.49 945.668C1531.31 956.331 1521.55 966.477 1511.25 976.06C1501.66 984.81 1492.7 992.303 1485.05 998.172C1476.54 1004.61 1467.67 1010.55 1458.49 1015.99Z"
        fill="white" />
    <path
        d="M1083.99 1261.01C1084.37 1260.75 1084.8 1260.56 1085.24 1260.43L1089.02 1258.97C1092.42 1257.81 1097.19 1255.72 1103.32 1252.89C1120.37 1244.3 1136 1233.17 1149.7 1219.88C1169.88 1200.05 1187.7 1177.95 1202.78 1154.01C1221.7 1124.96 1238.99 1094.87 1254.55 1063.88C1282.46 1007.38 1306.96 949.25 1327.91 889.811C1336.13 867.07 1342.53 848.521 1347.03 835.787L1352.27 821.063C1352.85 819.491 1353.32 818.286 1353.69 817.238C1354.05 816.19 1354.21 815.98 1354.21 815.98C1354.18 816.444 1354.1 816.902 1353.95 817.343C1353.63 818.391 1353.22 819.648 1352.74 821.22C1351.64 824.836 1350.07 829.814 1348.03 836.102C1343.89 848.992 1337.55 867.541 1329.69 890.44C1309.21 950.177 1284.86 1008.52 1256.8 1065.09C1241.21 1096.16 1223.84 1126.31 1204.77 1155.37C1189.47 1179.37 1171.39 1201.48 1150.9 1221.24C1137.02 1234.53 1121.1 1245.51 1103.74 1253.78C1099.02 1255.96 1094.17 1257.87 1089.23 1259.49L1085.35 1260.69C1084.91 1260.87 1084.45 1260.97 1083.99 1261.01Z"
        fill="#455A64" />
    <path
        d="M1075.24 1371.88C1076.1 1371.05 1077.05 1370.32 1078.07 1369.68L1086.55 1363.87C1093.84 1358.63 1104.37 1351.24 1117.05 1341.55C1142.46 1322.21 1175.84 1293.34 1211.68 1260.38C1229.71 1243.93 1246.95 1228.36 1261.83 1213.48C1275.14 1200.4 1287.5 1186.39 1298.82 1171.56C1306.42 1161.53 1313.19 1150.89 1319.05 1139.76C1321.25 1135.88 1322.61 1132.68 1323.66 1130.59C1324.16 1129.5 1324.74 1128.44 1325.39 1127.44C1325.13 1128.62 1324.72 1129.76 1324.19 1130.85C1323.24 1133 1322.04 1136.09 1319.94 1140.23C1314.42 1151.63 1307.84 1162.49 1300.29 1172.66C1289.17 1187.76 1276.91 1201.99 1263.61 1215.21C1248.73 1230.3 1231.54 1245.92 1213.52 1262.37C1183.13 1290.86 1151.32 1317.8 1118.2 1343.07C1105.37 1352.65 1094.68 1359.89 1087.13 1364.76C1083.41 1367.22 1080.42 1368.95 1078.43 1370C1077.41 1370.7 1076.34 1371.33 1075.24 1371.88Z"
        fill="#455A64" />
    <path
        d="M933.758 1932.09L934.387 1930.88C934.963 1930.04 935.644 1928.94 936.483 1927.58C938.317 1924.65 941.146 1920.46 944.919 1915.11C952.517 1904.63 964.202 1889.59 979.607 1872.09C1010.68 1837.19 1054.17 1789.67 1102.12 1737L1225.31 1602.6L1262.88 1562.04L1273.36 1551.09L1276.08 1548.31C1276.71 1547.69 1277.03 1547.37 1277.08 1547.42C1277.13 1547.48 1276.82 1547.79 1276.29 1548.47L1273.73 1551.46L1263.87 1562.72C1254.97 1572.58 1242.39 1586.62 1226.93 1603.81L1104.27 1738.79L980.917 1873.3C965.197 1890.64 953.46 1905.31 945.653 1915.74C941.723 1920.98 938.788 1925.07 936.797 1927.84L934.544 1931.04C934.338 1931.43 934.072 1931.78 933.758 1932.09Z"
        fill="#455A64" />
    <path
        d="M1422.96 990.313C1422.11 987.712 1421.46 985.049 1421.02 982.348C1420.44 979.781 1419.81 976.584 1419.34 972.864C1418.87 969.143 1418.09 964.899 1417.88 960.183C1417.67 955.467 1417.09 950.28 1417.14 944.463C1417.19 938.647 1417.14 932.935 1417.56 926.648C1419.38 899.493 1426.02 872.879 1437.16 848.048C1439.83 842.389 1442.4 836.992 1445.12 832.329C1447.85 827.665 1450.36 823.001 1453.04 819.019C1455.71 815.037 1458.28 811.526 1460.27 808.539C1462.1 805.902 1464.08 803.365 1466.19 800.941C1467.78 798.77 1469.53 796.721 1471.43 794.811C1470.07 797.195 1468.51 799.457 1466.76 801.57C1465.19 803.666 1463.25 806.234 1461.26 809.378C1459.27 812.522 1456.7 815.928 1454.4 819.857C1452.09 823.787 1449.16 828.294 1446.8 833.219C1444.44 838.145 1441.56 843.699 1439.15 848.939C1428.33 873.647 1421.77 900.01 1419.76 926.91C1419.45 933.093 1418.98 938.961 1419.08 944.463C1419.19 949.965 1419.08 954.943 1419.5 959.816C1419.92 964.69 1420.23 968.724 1420.6 972.445C1420.97 976.165 1421.39 979.361 1421.81 981.981C1422.46 984.715 1422.84 987.505 1422.96 990.313Z"
        fill="#455A64" />
    <path
        d="M1499.2 1178.32C1498.57 1178.32 1489.14 1157.78 1478.24 1131.79C1467.34 1105.8 1458.96 1084.63 1459.59 1084.21C1467.35 1099.36 1474.35 1114.89 1480.55 1130.74C1487.59 1146.27 1493.82 1162.15 1499.2 1178.32Z"
        fill="#455A64" />
    <path
        d="M750.36 1012.16C749.94 1012.42 745.853 1004.93 738.15 993.561C718.027 963.878 692.024 938.642 661.752 919.416C650.172 912.08 642.574 908.202 642.784 907.783C644.714 908.346 646.576 909.12 648.338 910.089C651.849 911.713 656.774 914.333 662.748 917.844C678.258 927.1 692.642 938.125 705.61 950.698C718.55 963.318 729.996 977.383 739.722 992.618C743.39 998.487 746.168 1003.36 747.897 1006.82C748.898 1008.51 749.723 1010.3 750.36 1012.16Z"
        fill="#455A64" />
    <path
        d="M956.028 888.291C955.725 886.558 955.725 884.785 956.028 883.051C956.917 873.204 961.152 863.958 968.027 856.851L968.341 856.537V856.904C968.715 857.635 968.997 858.409 969.18 859.21C969.18 859.21 968.603 858.528 967.87 857.166H968.341C964.944 861.182 962.171 865.686 960.115 870.528C957.935 876.231 956.559 882.209 956.028 888.291Z"
        fill="#455A64" />
    <path
        d="M1025.4 924.342C1024.74 922.671 1024.37 920.899 1024.3 919.102C1023.85 914.81 1023.95 910.477 1024.62 906.212C1025.29 901.951 1026.5 897.795 1028.23 893.845C1028.86 892.181 1029.75 890.625 1030.85 889.234C1028.49 894.757 1026.73 900.52 1025.61 906.421C1024.91 912.37 1024.84 918.378 1025.4 924.342Z"
        fill="#455A64" />
    <path
        d="M1101.02 918.264C1100.77 913.377 1100.11 908.521 1099.03 903.749C1097.56 899.052 1095.65 894.507 1093.31 890.178C1094.36 891.205 1095.25 892.389 1095.93 893.688C1097.75 896.736 1099.14 900.014 1100.07 903.435C1100.98 906.856 1101.45 910.376 1101.49 913.915C1101.58 915.381 1101.42 916.852 1101.02 918.264Z"
        fill="#455A64" />
    <path
        d="M1167.14 889.287C1164.92 884.63 1162.29 880.177 1159.29 875.978C1155.93 872.057 1152.25 868.429 1148.28 865.131C1149.7 865.711 1151.03 866.506 1152.21 867.489C1155.17 869.744 1157.83 872.368 1160.12 875.296C1162.41 878.242 1164.31 881.464 1165.78 884.885C1166.47 886.27 1166.93 887.756 1167.14 889.287Z"
        fill="#455A64" />
    <path
        d="M1212.68 844.38C1211 838.869 1207.87 833.91 1203.62 830.023C1199.2 826.344 1193.85 823.968 1188.16 823.158C1188.16 823.158 1188.68 823.158 1189.57 823.158C1190.82 823.2 1192.07 823.358 1193.29 823.63C1197.38 824.603 1201.17 826.544 1204.35 829.289C1207.54 832.02 1210 835.493 1211.53 839.402C1212.02 840.561 1212.37 841.775 1212.58 843.018C1212.67 843.465 1212.7 843.923 1212.68 844.38Z"
        fill="#455A64" />
    <path
        d="M1237.05 761.432C1233.02 758.209 1228.3 755.951 1223.26 754.829C1218.15 754.047 1212.93 754.478 1208.02 756.087C1212.75 753.613 1218.17 752.785 1223.43 753.734C1228.68 754.683 1233.48 757.354 1237.05 761.327V761.432Z"
        fill="#455A64" />
    <path
        d="M910.545 832.38C910.646 830.825 911.019 829.3 911.645 827.874C914.435 820.853 919.714 815.107 926.474 811.735C927.844 810.991 929.334 810.494 930.876 810.268C926.127 812.324 921.864 815.355 918.361 819.164C914.859 822.973 912.196 827.476 910.545 832.38Z"
        fill="#455A64" />
    <path
        d="M893.986 777.151C894.617 775.616 895.503 774.199 896.606 772.959C899.06 769.762 902.015 766.984 905.357 764.733C908.699 762.436 912.375 760.669 916.256 759.493C917.823 758.944 919.47 758.661 921.129 758.654C910.236 761.452 900.647 767.932 893.986 776.994V777.151Z"
        fill="#455A64" />
    <path
        d="M763.722 1099.2C763.722 1099.2 763.722 1098.89 763.407 1099.2C763.187 1099.74 763.028 1100.3 762.936 1100.88C762.674 1102.5 762.412 1104.86 762.097 1107.95C761.468 1114.08 760.787 1122.99 760.054 1134.15C758.534 1156.21 756.805 1186.55 755.18 1220.45C753.556 1254.35 752.298 1284.69 751.565 1306.81C751.198 1317.29 750.936 1326.4 750.727 1333.01C750.727 1335.84 750.727 1338.25 750.412 1340.13C750.49 1340.95 750.49 1341.78 750.412 1342.6C750.18 1341.8 750.091 1340.96 750.15 1340.13C750.15 1338.19 750.15 1335.84 750.15 1333.01C750.15 1326.82 750.15 1317.86 750.15 1306.81C750.15 1284.69 751.303 1254.09 752.98 1220.35C754.656 1186.6 756.648 1156.11 758.639 1134.05C759.634 1122.99 760.63 1114.08 761.573 1107.85C762.045 1104.81 762.516 1102.61 762.936 1100.82C763.08 1100.19 763.328 1099.59 763.669 1099.04C763.669 1098.57 763.826 1099.3 763.722 1099.2Z"
        fill="#263238" />
    <path
        d="M1341.06 40.7829C1297.36 27.421 1251.98 66.5634 1206.92 57.7603C1179.67 52.5203 1159.13 30.6698 1134.87 17.1507C1098.66 -3.07546 1047.41 -6.37661 1010.42 12.4348C973.424 31.2462 949.478 51.2627 944.5 92.5011C910.807 73.1657 854.635 115.557 835.509 156.481C816.383 197.405 821.151 239.639 831.998 283.497C850.843 359.141 884.348 430.352 930.614 493.095C934.701 498.649 941.094 504.78 947.434 501.845C949.389 500.477 950.995 498.669 952.123 496.567C953.252 494.464 953.871 492.126 953.932 489.741C960.377 449.656 955.294 408.732 951.783 368.279C948.272 327.827 946.543 286.117 959.381 247.761C972.219 209.404 1002.35 174.087 1042.17 166.227C1071.62 160.411 1102.17 169.947 1128.32 184.672C1154.46 199.396 1177.47 218.993 1202.36 235.709C1227.25 252.424 1255.23 266.52 1285.2 267.777C1315.17 269.035 1347.35 254.992 1360.08 227.849C1372.81 200.706 1358.56 162.14 1329.22 155.904C1342.88 154.707 1355.7 148.786 1365.47 139.16C1375.25 129.533 1381.36 116.803 1382.76 103.157C1384.16 89.5118 1380.76 75.8044 1373.15 64.3921C1365.54 52.9799 1354.19 44.576 1341.06 40.6257V40.7829Z"
        fill="#263238" />
    <path
        d="M1206.23 743.722L1201.99 657.105C1201.99 657.105 1316.33 635.202 1313.76 520.186C1312.5 464.695 1300.55 350.516 1288.61 247.342C1282.45 193.798 1256.34 144.54 1215.48 109.386C1174.63 74.2311 1122.03 55.761 1068.16 57.6561L1057.05 58.0229C937.74 69.2363 880.52 176.865 895.035 295.864L922.544 759.075C924.762 796.535 941.711 831.596 969.691 856.602C997.672 881.607 1034.41 894.526 1071.88 892.536C1109.4 890.53 1144.6 873.748 1169.78 845.86C1194.95 817.973 1208.06 781.249 1206.23 743.722Z"
        fill="#FFBE9D" />
    <path
        d="M1202.15 657.105C1202.15 657.105 1129.68 665.541 1050.77 619.744C1050.77 619.744 1089.12 701.278 1203.46 686.868L1202.15 657.105Z"
        fill="#EB996E" />
    <path
        d="M1249.88 325.154C1250.06 329.424 1248.56 333.594 1245.72 336.782C1242.87 339.971 1238.9 341.926 1234.64 342.236C1232.55 342.475 1230.44 342.295 1228.43 341.707C1226.42 341.119 1224.55 340.134 1222.92 338.811C1221.29 337.488 1219.95 335.853 1218.96 334.003C1217.98 332.152 1217.38 330.123 1217.19 328.036C1216.98 323.762 1218.46 319.578 1221.3 316.377C1224.14 313.176 1228.11 311.211 1232.38 310.901C1234.47 310.655 1236.59 310.831 1238.61 311.418C1240.63 312.006 1242.52 312.994 1244.15 314.324C1245.78 315.653 1247.13 317.296 1248.12 319.157C1249.1 321.017 1249.7 323.057 1249.88 325.154Z"
        fill="#263238" />
    <path
        d="M1265.87 304.247C1263.87 306.447 1251.14 297.697 1233.48 298.378C1215.82 299.059 1203.2 308.334 1201.2 306.238C1200.21 305.295 1202.15 301.365 1207.65 297.068C1215.1 291.498 1224.08 288.368 1233.38 288.108C1242.57 287.745 1251.64 290.334 1259.26 295.496C1264.87 299.426 1266.81 303.251 1265.87 304.247Z"
        fill="#263238" />
    <path
        d="M1076.34 337.469C1076.52 341.748 1075.04 345.932 1072.19 349.131C1069.34 352.331 1065.36 354.294 1061.09 354.603C1059.01 354.843 1056.9 354.663 1054.88 354.075C1052.87 353.487 1051 352.502 1049.37 351.179C1047.75 349.856 1046.4 348.221 1045.42 346.37C1044.43 344.52 1043.83 342.491 1043.64 340.403C1043.45 336.124 1044.94 331.941 1047.79 328.741C1050.63 325.541 1054.62 323.578 1058.89 323.269C1060.97 323.03 1063.08 323.209 1065.09 323.797C1067.1 324.386 1068.98 325.37 1070.6 326.693C1072.23 328.016 1073.57 329.651 1074.56 331.502C1075.54 333.352 1076.15 335.381 1076.34 337.469Z"
        fill="#263238" />
    <path
        d="M1092.32 313.627C1090.38 315.828 1077.59 307.077 1059.94 307.758C1042.28 308.439 1029.65 317.714 1027.66 315.618C1026.66 314.675 1028.6 310.745 1034.1 306.448C1041.57 300.877 1050.57 297.748 1059.88 297.488C1069.06 297.129 1078.11 299.719 1085.72 304.876C1091.32 308.859 1093.31 312.631 1092.32 313.627Z"
        fill="#263238" />
    <path
        d="M1161.01 442.267C1161.01 441.219 1171.81 438.966 1189.52 436.084C1194.03 435.455 1198.27 434.407 1198.95 431.264C1199.14 426.592 1197.92 421.972 1195.44 418.006C1190.83 407.265 1186.01 395.946 1180.93 384.156C1160.65 335.897 1145.82 296.125 1147.81 295.077C1149.8 294.029 1167.72 332.753 1187.95 381.012C1192.87 392.89 1197.54 404.26 1201.94 415.124C1204.96 420.462 1206.02 426.693 1204.92 432.731C1204.33 434.343 1203.37 435.799 1202.12 436.988C1200.88 438.177 1199.38 439.069 1197.75 439.595C1195.26 440.361 1192.69 440.801 1190.1 440.905C1172.23 442.949 1161.12 443.42 1161.01 442.267Z"
        fill="#263238" />
    <path
        d="M1109.45 456.467C1112.34 456.152 1113.07 475.33 1129.94 488.378C1146.81 501.425 1167.14 498.596 1167.41 501.268C1167.72 502.473 1163.01 505.146 1154.36 505.67C1143.07 506.3 1131.92 502.881 1122.92 496.028C1114.41 489.453 1108.78 479.838 1107.2 469.2C1106.2 461.183 1108.14 456.362 1109.45 456.467Z"
        fill="#263238" />
    <path
        d="M1090.96 223.081C1089.38 227.901 1071.67 226.277 1051.03 229.473C1030.38 232.67 1013.82 238.958 1010.94 234.713C1009.63 232.67 1012.36 228.059 1018.96 223.186C1027.77 217.148 1037.85 213.207 1048.42 211.663C1059 210.119 1069.78 211.013 1079.95 214.278C1087.6 216.95 1091.58 220.775 1090.96 223.081Z"
        fill="#263238" />
    <path
        d="M1257.59 253.629C1254.6 257.716 1242.29 253.995 1227.67 254.31C1213.05 254.624 1200.73 257.978 1197.69 253.838C1196.38 251.847 1198.22 247.76 1203.51 243.777C1210.55 238.847 1218.97 236.262 1227.56 236.389C1236.12 236.086 1244.56 238.448 1251.72 243.149C1257.01 247.288 1258.9 251.323 1257.59 253.629Z"
        fill="#263238" />
    <path
        d="M907.558 380.646C905.567 379.86 827.753 360.053 832.993 438.286C838.233 516.518 915.994 495.296 915.994 493.043C915.994 490.79 907.558 380.646 907.558 380.646Z"
        fill="#FFBE9D" />
    <path
        d="M889.847 465.166C889.48 465.166 888.537 466.214 886.284 467.419C883.166 469.096 879.512 469.472 876.118 468.467C867.577 465.952 859.717 453.271 858.407 439.123C857.756 432.416 858.615 425.648 860.923 419.316C861.481 416.805 862.648 414.47 864.32 412.515C865.992 410.559 868.118 409.045 870.512 408.103C872.055 407.577 873.734 407.609 875.256 408.193C876.778 408.777 878.048 409.876 878.843 411.299C880.048 413.447 879.629 415.019 880.048 415.124C880.467 415.229 881.673 413.709 880.782 410.513C880.21 408.602 879.01 406.941 877.376 405.797C875.095 404.33 872.334 403.804 869.673 404.33C866.493 405.175 863.584 406.824 861.226 409.118C858.868 411.412 857.139 414.274 856.207 417.43C853.332 424.461 852.217 432.087 852.958 439.647C854.53 455.367 863.438 469.672 875.175 472.187C877.321 472.664 879.546 472.652 881.686 472.153C883.827 471.654 885.828 470.681 887.541 469.305C889.847 467.104 890.109 465.323 889.847 465.166Z"
        fill="#EB996E" />
    <path
        d="M1312.08 222.191C1286.85 229.616 1260.22 230.946 1234.38 226.073C1208.53 221.199 1184.22 210.261 1163.42 194.157C1134.6 171.415 1111.86 138.089 1076.44 128.5C1064.37 125.743 1051.88 125.412 1039.68 127.526C1027.48 129.64 1015.82 134.157 1005.39 140.814C984.557 154.232 966.719 171.803 952.988 192.428C977.249 250.067 964.621 315.828 951.626 376.978C950.911 383.921 947.906 390.429 943.085 395.475C934.072 402.916 919.924 397.833 911.645 389.659C898.178 376.507 892.467 357.486 888.537 339.146C878.803 297.344 877.503 254.021 884.712 211.711C892.088 169.256 911.766 129.902 941.303 98.5279C979.761 60.3819 1031.55 38.6958 1085.72 38.0589C1139.6 37.8317 1192.18 54.5896 1236 85.952C1256.33 100.205 1275.19 117.392 1286.2 139.871"
        fill="#263238" />
    <path
        d="M1375.01 67.3485C1375.34 69.6442 1375.18 71.9838 1374.54 74.2128C1372.88 80.699 1369.21 86.4945 1364.06 90.771C1355.8 97.3789 1345.65 101.195 1335.08 101.67C1328.59 102.245 1322.05 102.069 1315.59 101.146C1308.18 100.148 1301.17 97.1599 1295.31 92.5002C1292.02 89.8947 1289.36 86.5723 1287.55 82.786C1285.73 78.9996 1284.8 74.8489 1284.83 70.6497C1285.25 66.0789 1286.94 61.7176 1289.72 58.066C1292.5 54.4145 1296.26 51.6204 1300.55 50.0043C1305.01 48.1536 1309.84 47.3643 1314.65 47.6987C1319.66 48.1957 1324.41 50.1444 1328.33 53.3055C1332.26 56.6333 1335.43 60.7721 1337.62 65.4386C1339.81 70.1052 1340.96 75.1895 1341.01 80.3436C1341.2 91.2192 1337.11 101.736 1329.64 109.635C1322 117.714 1312.37 123.627 1301.71 126.769C1280.12 133.529 1256.01 130.28 1234.32 121.844C1213.27 113.191 1193.3 102.131 1174.79 88.8847C1157.74 76.7924 1139.71 66.1529 1120.88 57.0782C1103.91 48.9777 1085.22 45.112 1066.43 45.8123C1050.14 46.9987 1034.31 51.7574 1020.06 59.7506C999.286 71.5786 981.894 88.5376 969.546 109.006C966.05 114.436 962.849 120.051 959.957 125.826C959.068 127.921 958.035 129.952 956.866 131.905C956.961 131.324 957.137 130.759 957.39 130.228C957.756 129.18 958.333 127.555 959.224 125.512C961.763 119.478 964.722 113.63 968.079 108.01C980.094 86.8967 997.486 69.3416 1018.49 57.1306C1033.12 48.805 1049.43 43.8466 1066.22 42.616C1085.58 41.7123 1104.86 45.5434 1122.4 53.7771C1141.51 62.9349 1159.81 73.698 1177.1 85.9503C1195.35 98.9762 1215.02 109.892 1235.74 118.49C1256.96 126.665 1280.12 129.809 1300.66 123.416C1310.65 120.291 1319.65 114.6 1326.75 106.91C1333.52 99.8703 1337.28 90.4735 1337.23 80.7104C1337.24 76.0648 1336.23 71.4736 1334.3 67.2504C1332.36 63.0272 1329.54 59.2715 1326.02 56.2398C1322.62 53.5482 1318.54 51.8456 1314.23 51.3187C1309.92 50.7919 1305.55 51.4611 1301.6 53.2531C1297.8 54.5872 1294.45 56.9665 1291.94 60.1177C1289.43 63.269 1287.85 67.0646 1287.4 71.0689C1287.4 74.8288 1288.24 78.5411 1289.87 81.9326C1291.49 85.3241 1293.85 88.3085 1296.78 90.6663C1302.26 95.0415 1308.81 97.8807 1315.75 98.893C1322.02 99.8723 1328.39 100.136 1334.72 99.679C1345.11 99.4506 1355.17 95.9278 1363.43 89.6183C1368.41 85.5322 1372.05 80.0609 1373.91 73.8984C1374.42 71.7406 1374.79 69.5529 1375.01 67.3485Z"
        fill="#455A64" />
    <path
        d="M823.719 224.652C831.609 227.142 839.713 228.896 847.927 229.892C856.815 230.37 865.712 229.125 874.127 226.224C884.466 222.554 894.224 217.419 903.104 210.976C919.147 199.003 930.863 182.139 936.482 162.925C938.448 154.851 939.901 146.66 940.832 138.402C941.402 140.625 941.614 142.925 941.46 145.214C941.442 151.436 940.649 157.632 939.102 163.659C934.083 183.914 922.147 201.78 905.357 214.172C896.178 220.924 886.016 226.226 875.227 229.892C866.335 232.819 856.925 233.836 847.613 232.879C841.4 232.166 835.326 230.542 829.587 228.058C827.445 227.278 825.458 226.125 823.719 224.652Z"
        fill="#455A64" />
    <path
        d="M829.273 281.402C829.273 280.668 838.601 282.397 853.43 281.035C872.704 279.392 891.184 272.602 906.937 261.375C922.69 250.148 935.138 234.896 942.98 217.212C949.111 203.641 950.473 194.366 951.207 194.523C951.35 196.726 951.137 198.938 950.578 201.073C949.427 206.967 947.671 212.727 945.338 218.26C937.954 236.844 925.375 252.908 909.105 264.532C892.834 276.157 873.56 282.85 853.587 283.812C847.6 284.121 841.598 283.84 835.666 282.974C833.466 282.79 831.308 282.259 829.273 281.402Z"
        fill="#455A64" />
    <path
        d="M1036.25 390.811C1035.99 390.864 1035.72 390.863 1035.46 390.809C1035.2 390.756 1034.95 390.65 1034.73 390.499C1034.51 390.347 1034.32 390.153 1034.18 389.927C1034.03 389.702 1033.94 389.45 1033.89 389.186C1033.8 388.932 1033.77 388.662 1033.79 388.394C1033.81 388.126 1033.89 387.865 1034.02 387.629C1034.15 387.392 1034.32 387.185 1034.54 387.02C1034.75 386.855 1034.99 386.736 1035.26 386.671C1035.77 386.619 1036.29 386.756 1036.71 387.056C1037.14 387.357 1037.44 387.801 1037.56 388.306C1037.68 388.811 1037.62 389.344 1037.38 389.804C1037.13 390.265 1036.74 390.622 1036.25 390.811Z"
        fill="#EB996E" />
    <path
        d="M1070 381.955C1069.43 381.952 1068.88 381.757 1068.44 381.403C1068 381.05 1067.69 380.557 1067.56 380.006C1067.44 379.455 1067.5 378.877 1067.74 378.365C1067.98 377.854 1068.39 377.439 1068.9 377.187C1069.47 377.14 1070.05 377.314 1070.51 377.674C1070.96 378.033 1071.27 378.552 1071.36 379.126C1071.54 379.682 1071.51 380.289 1071.25 380.817C1071 381.346 1070.55 381.754 1070 381.955Z"
        fill="#EB996E" />
    <path
        d="M1092.48 380.592C1091.38 380.592 1090.33 379.492 1090.01 377.763C1089.7 376.033 1090.38 374.461 1091.43 374.304C1092.48 374.147 1093.58 375.405 1093.89 377.134C1094.2 378.863 1093.52 380.435 1092.48 380.592Z"
        fill="#EB996E" />
    <path
        d="M1053.6 411.404C1052.55 411.404 1051.6 410.933 1051.6 410.251C1051.6 409.57 1052.44 408.941 1053.49 408.941C1054.54 408.941 1055.48 409.413 1055.48 410.094C1055.48 410.775 1054.7 411.352 1053.6 411.404Z"
        fill="#EB996E" />
    <path
        d="M1084.3 403.125C1083.75 403.154 1083.22 402.967 1082.81 402.605C1082.39 402.242 1082.14 401.733 1082.1 401.186C1082.05 400.914 1082.05 400.635 1082.1 400.363C1082.16 400.092 1082.27 399.834 1082.42 399.605C1082.58 399.376 1082.78 399.18 1083.01 399.029C1083.24 398.878 1083.5 398.774 1083.78 398.723C1084.33 398.708 1084.87 398.907 1085.28 399.278C1085.69 399.649 1085.94 400.163 1085.98 400.715C1086.07 401.256 1085.95 401.812 1085.63 402.262C1085.32 402.713 1084.84 403.023 1084.3 403.125Z"
        fill="#EB996E" />
    <path
        d="M1244.75 378.234C1244.48 378.287 1244.2 378.285 1243.94 378.229C1243.67 378.173 1243.41 378.063 1243.19 377.907C1242.96 377.75 1242.77 377.55 1242.63 377.318C1242.48 377.087 1242.38 376.828 1242.34 376.558C1242.25 376.3 1242.22 376.027 1242.24 375.755C1242.26 375.484 1242.34 375.219 1242.46 374.978C1242.59 374.738 1242.77 374.526 1242.98 374.356C1243.19 374.186 1243.44 374.061 1243.7 373.99C1244.24 373.922 1244.78 374.054 1245.22 374.359C1245.67 374.664 1245.98 375.122 1246.11 375.646C1246.24 376.17 1246.17 376.723 1245.92 377.2C1245.67 377.677 1245.25 378.045 1244.75 378.234Z"
        fill="#EB996E" />
    <path
        d="M1267.65 375.354C1267.08 375.303 1266.54 375.06 1266.13 374.662C1265.71 374.265 1265.45 373.739 1265.37 373.17C1265.3 372.601 1265.42 372.024 1265.72 371.535C1266.02 371.046 1266.48 370.674 1267.02 370.48C1268.07 370.48 1269.06 371.319 1269.27 372.629C1269.4 373.205 1269.3 373.808 1269 374.315C1268.7 374.822 1268.22 375.194 1267.65 375.354Z"
        fill="#EB996E" />
    <path
        d="M1224.42 379.388C1224.09 379.42 1223.75 379.356 1223.46 379.203C1223.16 379.051 1222.91 378.816 1222.75 378.527C1222.58 378.238 1222.5 377.907 1222.52 377.574C1222.54 377.242 1222.65 376.921 1222.85 376.652C1223.04 376.382 1223.31 376.175 1223.62 376.054C1223.94 375.934 1224.27 375.906 1224.6 375.973C1224.93 376.041 1225.23 376.201 1225.46 376.435C1225.7 376.669 1225.86 376.966 1225.94 377.292C1226 377.769 1225.88 378.252 1225.59 378.641C1225.31 379.031 1224.89 379.298 1224.42 379.388Z"
        fill="#EB996E" />
    <path
        d="M1242.29 401.972C1241.76 402.149 1241.19 402.124 1240.69 401.901C1240.18 401.677 1239.78 401.273 1239.56 400.767C1239.42 400.527 1239.33 400.261 1239.29 399.985C1239.26 399.71 1239.28 399.43 1239.35 399.161C1239.42 398.893 1239.55 398.642 1239.72 398.423C1239.89 398.204 1240.1 398.021 1240.35 397.885C1240.86 397.754 1241.41 397.807 1241.89 398.034C1242.38 398.261 1242.77 398.65 1243 399.132C1243.22 399.614 1243.28 400.161 1243.15 400.679C1243.02 401.197 1242.71 401.654 1242.29 401.972Z"
        fill="#EB996E" />
    <path
        d="M1261.78 397.308C1261.54 397.276 1261.32 397.198 1261.11 397.077C1260.91 396.957 1260.73 396.797 1260.59 396.606C1260.45 396.416 1260.35 396.199 1260.29 395.969C1260.23 395.739 1260.22 395.499 1260.26 395.265C1260.42 394.818 1260.76 394.453 1261.19 394.247C1261.62 394.042 1262.11 394.012 1262.56 394.164C1263.03 394.23 1263.45 394.475 1263.73 394.848C1264.02 395.221 1264.14 395.691 1264.08 396.156C1263.93 396.612 1263.6 396.99 1263.17 397.205C1262.74 397.421 1262.24 397.458 1261.78 397.308Z"
        fill="#EB996E" />
    <path
        d="M1222.9 1703.21L1221.64 1586.72C1221.64 1586.72 1143.93 1479.04 1174.48 1362.24C1174.48 1362.24 1225.15 1326.61 1361.02 1347.47C1361.02 1347.47 1531.58 1181.31 1760.2 1223.6C1988.82 1265.88 2010.09 1465.05 2012.3 1519.29C2014.5 1573.52 2013.97 1678.84 1935.27 1781.81L1930.03 1883.99C1930.03 1883.99 1911.27 1922.45 1857.04 1919.83C1802.8 1917.21 1805.84 1909.35 1805.84 1909.35C1805.84 1909.35 1737.72 1964.31 1734.79 1978.67C1731.85 1993.03 1721.16 2047.47 1721.16 2047.47C1721.16 2047.47 1697.53 2079.59 1646.55 2083.37C1626.38 2084.8 1606.21 2080.66 1588.23 2071.42C1581.41 2067.96 1575.34 2063.19 1570.38 2057.37C1565.43 2051.55 1561.68 2044.8 1559.35 2037.52C1554.48 2021.39 1546.25 2006.47 1535.21 1993.75C1524.17 1981.02 1510.55 1970.78 1495.27 1963.69L1460.06 1954.46C1460.06 1954.46 1445.86 1967.41 1396.44 1972.7C1347.03 1977.99 1346.82 1960.49 1346.82 1960.49C1346.82 1960.49 1269.95 1978.25 1212.21 1902.85C1166.62 1843.22 1141.84 1735.96 1222.9 1703.21Z"
        fill="#4EAD60" />
    <path
        d="M1696.8 1709.91C1697.57 1708.67 1698.43 1707.48 1699.37 1706.35C1701.1 1704.05 1703.66 1700.69 1706.86 1696.29C1713.3 1687.54 1722.32 1674.6 1732.27 1657.88C1743.86 1638.29 1753.92 1617.82 1762.35 1596.68C1767.12 1584.73 1771.57 1572 1775.5 1558.64C1779.43 1545.27 1782.73 1530.81 1779.27 1516.72C1775.11 1503.06 1766.19 1491.34 1754.12 1483.71C1743 1476.25 1731.09 1470.04 1718.6 1465.21C1697.45 1456.86 1675.22 1451.57 1652.57 1449.49C1637.31 1448.04 1621.94 1448.04 1606.67 1449.49C1601.43 1449.96 1597.08 1450.48 1594.2 1450.9C1592.77 1451.2 1591.31 1451.36 1589.85 1451.38C1591.25 1450.93 1592.69 1450.6 1594.15 1450.38C1596.93 1449.8 1601.12 1449.07 1606.57 1448.44C1621.88 1446.54 1637.35 1446.24 1652.73 1447.55C1675.7 1449.28 1698.29 1454.42 1719.75 1462.8C1732.45 1467.62 1744.56 1473.86 1755.85 1481.4C1768.47 1489.39 1777.78 1501.67 1782.05 1515.98C1785.72 1531.02 1782.05 1546.01 1778.23 1559.37C1774.4 1572.73 1769.69 1585.57 1764.81 1597.62C1756.25 1618.84 1745.98 1639.32 1734.11 1658.88C1726.09 1672.04 1717.34 1684.74 1707.91 1696.92C1704.55 1701.27 1701.83 1704.52 1699.99 1706.67C1699.04 1707.85 1697.97 1708.94 1696.8 1709.91Z"
        fill="#263238" />
    <path
        d="M1377.16 1352.55C1377.56 1353.4 1377.82 1354.3 1377.95 1355.22C1378.46 1357.9 1378.58 1360.63 1378.31 1363.35C1376.99 1373.37 1372.39 1382.68 1365.21 1389.81C1356.67 1399.24 1343.68 1406.94 1331 1417.32C1317.11 1428.49 1304.28 1440.92 1292.69 1454.47C1271.59 1479.09 1254.57 1506.93 1242.29 1536.94C1237.57 1548.47 1234.48 1557.9 1232.38 1564.72C1231.49 1567.81 1230.71 1570.38 1230.08 1572.42C1229.86 1573.33 1229.55 1574.2 1229.13 1575.04C1229.14 1574.1 1229.28 1573.16 1229.55 1572.26C1230.08 1570.17 1230.65 1567.6 1231.39 1564.4C1233.88 1554.85 1236.92 1545.46 1240.5 1536.26C1252.34 1505.76 1269.3 1477.49 1290.65 1452.69C1302.34 1439.03 1315.33 1426.54 1329.43 1415.38C1342.37 1404.9 1355.36 1397.51 1363.85 1388.5C1370.89 1381.71 1375.58 1372.87 1377.27 1363.24C1377.62 1359.68 1377.58 1356.1 1377.16 1352.55Z"
        fill="#263238" />
    <g opacity="0.5">
        <path
            d="M1468.55 1366.8L1538.08 1384.57C1538.08 1384.57 1639.89 1270.18 1751.71 1241.2L1709.79 1231.3C1617.9 1252.02 1534.06 1299.11 1468.55 1366.8Z"
            fill="black" />
    </g>
    <path
        d="M1729.02 1235.7C1637.58 1256.26 1554.39 1303.71 1490.13 1371.94L1468.55 1366.7C1468.55 1366.7 1567.16 1258.49 1709.85 1231.19L1729.02 1235.7Z"
        fill="#4EAD60" />
    <g opacity="0.7">
        <path
            d="M1729.02 1235.7C1637.58 1256.26 1554.39 1303.71 1490.13 1371.94L1468.55 1366.7C1468.55 1366.7 1567.16 1258.49 1709.85 1231.19L1729.02 1235.7Z"
            fill="black" />
    </g>
    <path
        d="M1189.31 1726.94C1227.82 1671.82 1324.45 1688.69 1368.52 1738.26C1412.58 1787.83 1432.13 1856.06 1403.47 1914.85C1391.2 1939.95 1367.73 1962.01 1339.8 1961.48C1353.74 1945.85 1363.72 1927.11 1368.92 1906.82C1374.11 1886.54 1374.37 1865.3 1369.67 1844.89C1360.71 1803.76 1334.77 1767.45 1301.97 1741.04C1285.36 1727.62 1266.65 1712.9 1245.38 1710.8C1224.1 1708.71 1207.07 1708.08 1189.31 1726.94Z"
        fill="#4EAD60" />
    <g opacity="0.3">
        <path
            d="M1189.31 1726.94C1227.82 1671.82 1324.45 1688.69 1368.52 1738.26C1412.58 1787.83 1432.13 1856.06 1403.47 1914.85C1391.2 1939.95 1367.73 1962.01 1339.8 1961.48C1353.74 1945.85 1363.72 1927.11 1368.92 1906.82C1374.11 1886.54 1374.37 1865.3 1369.67 1844.89C1360.71 1803.76 1334.77 1767.45 1301.97 1741.04C1285.36 1727.62 1266.65 1712.9 1245.38 1710.8C1224.1 1708.71 1207.07 1708.08 1189.31 1726.94Z"
            fill="black" />
    </g>
    <g opacity="0.3">
        <path
            d="M1700.68 1706.67C1699.94 1718.35 1710.63 1728.67 1722.21 1730.04C1728.06 1730.39 1733.91 1729.34 1739.27 1726.99C1744.64 1724.64 1749.37 1721.05 1753.08 1716.52C1760.37 1707.35 1765.72 1696.8 1768.8 1685.5C1780.85 1647.72 1787.08 1591.18 1780.74 1552.24C1764.08 1602.91 1734.32 1666.11 1699.79 1706.77"
            fill="black" />
    </g>
    <g opacity="0.3">
        <path
            d="M1737.2 1532.44C1729.7 1510.27 1706.75 1497.33 1684.8 1489.68C1662.28 1481.82 1638.76 1477.2 1614.95 1475.95C1607.46 1475.13 1599.88 1475.87 1592.68 1478.1C1589.11 1479.26 1585.89 1481.32 1583.34 1484.07C1580.78 1486.82 1578.96 1490.17 1578.06 1493.82C1577.59 1496.81 1578.05 1499.87 1579.38 1502.59C1580.71 1505.31 1582.85 1507.55 1585.5 1509.01C1623.47 1552.97 1651.8 1604.39 1668.66 1659.98C1669.38 1662.42 1670.74 1664.63 1672.6 1666.36C1674.47 1668.1 1676.77 1669.3 1679.26 1669.83C1681.75 1670.37 1684.34 1670.22 1686.75 1669.41C1689.16 1668.6 1691.31 1667.15 1692.97 1665.22C1710.79 1644.89 1721.06 1617.48 1730.28 1591.49C1736.88 1572.42 1743.7 1551.56 1737.2 1532.44Z"
            fill="black" />
    </g>
    <g opacity="0.3">
        <path
            d="M1236.21 1542.65C1212.39 1505.6 1200.13 1462.3 1200.99 1418.26C1200.99 1408.98 1202.36 1398.92 1208.8 1392.32C1216.61 1384.3 1229.29 1384.15 1240.24 1384.88C1271.11 1386.81 1301.79 1391.12 1331.99 1397.77C1334.35 1398.29 1337.23 1399.08 1337.97 1401.33C1338.8 1403.07 1339.04 1405.02 1338.68 1406.91C1338.31 1408.8 1337.34 1410.52 1335.92 1411.81C1289.03 1440.58 1255.75 1493.5 1238.04 1545.27"
            fill="black" />
    </g>
    <path
        d="M1177.78 1366.38C1177.88 1369.03 1177.76 1371.67 1177.42 1374.3C1177 1379.54 1176.52 1386.71 1176.21 1395.78C1174.62 1432.44 1179.22 1469.11 1189.83 1504.25C1193.4 1515.72 1197.12 1525.83 1200.68 1534.22C1204.24 1542.6 1207.34 1549.26 1209.59 1553.76C1210.92 1556.06 1212.01 1558.48 1212.84 1560.99C1211.25 1558.88 1209.85 1556.64 1208.65 1554.29C1206.08 1549.89 1202.72 1543.28 1198.95 1534.95C1194.53 1525.21 1190.68 1515.22 1187.42 1505.03C1183.54 1492.5 1180.43 1479.74 1178.1 1466.83C1174.14 1443.42 1172.86 1419.64 1174.27 1395.94C1174.85 1386.87 1175.58 1379.48 1176.37 1374.45C1176.58 1371.72 1177.05 1369.02 1177.78 1366.38Z"
        fill="#FAFAFA" />
    <path
        d="M1705.76 1227.52C1704.89 1227.96 1703.98 1228.29 1703.03 1228.52L1695.17 1230.83C1691.72 1231.77 1687.52 1232.92 1682.7 1234.49C1677.88 1236.07 1672.22 1237.59 1666.41 1239.73C1654.3 1243.77 1640.21 1249.17 1624.75 1255.77C1609.29 1262.37 1592.68 1270.54 1575.76 1279.98C1558.83 1289.41 1543.32 1299.52 1529.54 1309.11C1515.76 1318.7 1503.86 1328.13 1494.17 1336.36C1489.19 1340.29 1484.95 1344.22 1481.12 1347.52C1477.3 1350.82 1474.1 1353.76 1471.53 1356.22L1465.45 1361.72C1464.04 1362.98 1463.25 1363.61 1463.2 1363.5C1463.75 1362.72 1464.38 1362 1465.09 1361.35L1470.8 1355.43C1473.26 1352.86 1476.35 1349.83 1480.13 1346.42C1483.9 1343.01 1487.99 1338.98 1492.91 1334.89C1502.5 1326.45 1514.4 1316.97 1528.07 1307.07C1543.02 1296.48 1558.5 1286.65 1574.45 1277.62C1590.46 1268.73 1606.92 1260.67 1623.75 1253.46C1639.47 1246.97 1653.62 1241.73 1665.67 1237.74C1671.75 1235.7 1677.31 1234.28 1682.18 1232.87C1687.05 1231.45 1691.3 1230.41 1694.81 1229.62L1702.77 1227.84C1703.75 1227.58 1704.75 1227.48 1705.76 1227.52Z"
        fill="#FAFAFA" />
    <path
        d="M1766.91 1504.4C1766.49 1504.88 1758.58 1496.81 1743.38 1487.11C1734.47 1481.48 1725.11 1476.59 1715.4 1472.49C1703.55 1467.53 1691.27 1463.66 1678.72 1460.91C1655.78 1455.88 1632.2 1454.45 1608.82 1456.67C1590.9 1458.5 1580.05 1461.49 1579.9 1460.91C1582.37 1459.99 1584.91 1459.25 1587.49 1458.71C1594.38 1456.93 1601.39 1455.61 1608.45 1454.78C1632.06 1451.93 1655.98 1453.1 1679.19 1458.24C1691.94 1461.04 1704.4 1465.04 1716.4 1470.19C1726.19 1474.44 1735.57 1479.58 1744.43 1485.54L1749.67 1489.16L1754.23 1492.77C1756.71 1494.61 1759.06 1496.62 1761.25 1498.8C1763.28 1500.51 1765.18 1502.39 1766.91 1504.4Z"
        fill="#FAFAFA" />
    <path
        d="M1298.2 1952.99C1297.33 1952.89 1296.48 1952.66 1295.68 1952.31C1293.32 1951.59 1290.99 1950.75 1288.71 1949.8C1280.23 1946.44 1272.04 1942.38 1264.24 1937.64C1238.23 1922.08 1216.59 1900.19 1201.3 1874.02C1186.02 1847.85 1177.61 1818.23 1176.84 1787.94C1176.53 1778.83 1177.01 1769.71 1178.25 1760.69C1178.62 1757.49 1179.2 1755.03 1179.46 1753.35C1179.6 1752.5 1179.81 1751.66 1180.09 1750.84C1180.04 1754.17 1179.78 1757.5 1179.3 1760.79C1178.47 1769.8 1178.28 1778.85 1178.73 1787.88C1180.03 1817.75 1188.58 1846.84 1203.66 1872.65C1218.73 1898.46 1239.87 1920.21 1265.24 1936.02C1272.91 1940.83 1280.89 1945.11 1289.13 1948.86C1294.95 1951.37 1298.25 1952.79 1298.2 1952.99Z"
        fill="#FAFAFA" />
    <g opacity="0.2">
        <path
            d="M1311.92 1831.95C1307.85 1830.56 1303.46 1830.39 1299.29 1831.46C1295.12 1832.53 1291.35 1834.8 1288.45 1837.98C1285.62 1841.22 1283.55 1845.05 1282.4 1849.2C1281.25 1853.34 1281.04 1857.69 1281.79 1861.93C1282.58 1870.13 1286.11 1877.82 1291.8 1883.78C1296.53 1888.35 1302.58 1891.3 1309.09 1892.21C1313.16 1892.12 1317.13 1890.91 1320.55 1888.72C1323.98 1886.53 1326.74 1883.45 1328.54 1879.79C1330.79 1875.6 1332.15 1870.99 1332.53 1866.24C1332.91 1861.49 1332.3 1856.72 1330.74 1852.22C1329.18 1847.73 1326.7 1843.6 1323.46 1840.11C1320.22 1836.62 1316.29 1833.84 1311.92 1831.95Z"
            fill="black" />
    </g>
    <path
        d="M1303.8 1830.85C1300.03 1835.41 1297.47 1840.85 1296.38 1846.66C1295.28 1852.48 1295.68 1858.47 1297.54 1864.09C1299.4 1869.71 1302.66 1874.76 1307.01 1878.77C1311.36 1882.78 1316.66 1885.62 1322.4 1887.02C1320.05 1889.14 1317.22 1890.66 1314.16 1891.47C1311.1 1892.29 1307.89 1892.36 1304.8 1891.69C1297.1 1889.13 1290.49 1884.06 1286.03 1877.3C1281.56 1870.53 1279.5 1862.46 1280.17 1854.38C1280.5 1847.76 1283.2 1841.47 1287.77 1836.67C1292.21 1832.81 1297.92 1830.74 1303.8 1830.85Z"
        fill="#4EAD60" />
    <g opacity="0.4">
        <path
            d="M1303.8 1830.85C1300.03 1835.41 1297.47 1840.85 1296.38 1846.66C1295.28 1852.48 1295.68 1858.47 1297.54 1864.09C1299.4 1869.71 1302.66 1874.76 1307.01 1878.77C1311.36 1882.78 1316.66 1885.62 1322.4 1887.02C1320.05 1889.14 1317.22 1890.66 1314.16 1891.47C1311.1 1892.29 1307.89 1892.36 1304.8 1891.69C1297.1 1889.13 1290.49 1884.06 1286.03 1877.3C1281.56 1870.53 1279.5 1862.46 1280.17 1854.38C1280.5 1847.76 1283.2 1841.47 1287.77 1836.67C1292.21 1832.81 1297.92 1830.74 1303.8 1830.85Z"
            fill="black" />
    </g>
    <g opacity="0.2">
        <path
            d="M1234.69 1802.14C1230.75 1800.83 1226.52 1800.68 1222.5 1801.72C1218.48 1802.76 1214.85 1804.95 1212.05 1808.01C1209.31 1811.13 1207.31 1814.83 1206.2 1818.83C1205.08 1822.83 1204.88 1827.03 1205.61 1831.11C1206.47 1838.97 1209.88 1846.33 1215.3 1852.07C1219.88 1856.48 1225.73 1859.32 1232.02 1860.2C1235.93 1860.11 1239.75 1858.96 1243.05 1856.85C1246.35 1854.74 1249 1851.77 1250.72 1848.25C1252.89 1844.2 1254.2 1839.74 1254.56 1835.16C1254.93 1830.58 1254.33 1825.97 1252.83 1821.63C1251.32 1817.29 1248.93 1813.3 1245.81 1809.93C1242.69 1806.56 1238.9 1803.87 1234.69 1802.03"
            fill="black" />
    </g>
    <path
        d="M1226.88 1801.19C1223.22 1805.58 1220.74 1810.83 1219.67 1816.45C1218.61 1822.06 1218.99 1827.86 1220.79 1833.28C1222.59 1838.71 1225.75 1843.59 1229.96 1847.45C1234.17 1851.32 1239.29 1854.04 1244.85 1855.37C1242.57 1857.42 1239.84 1858.9 1236.88 1859.69C1233.92 1860.48 1230.82 1860.56 1227.82 1859.93C1220.4 1857.45 1214.03 1852.55 1209.72 1846.01C1205.42 1839.47 1203.44 1831.68 1204.09 1823.88C1204.39 1817.51 1206.97 1811.47 1211.37 1806.85C1215.72 1803.06 1221.33 1801.04 1227.09 1801.19"
        fill="#4EAD60" />
    <g opacity="0.4">
        <path
            d="M1226.88 1801.19C1223.22 1805.58 1220.74 1810.83 1219.67 1816.45C1218.61 1822.06 1218.99 1827.86 1220.79 1833.28C1222.59 1838.71 1225.75 1843.59 1229.96 1847.45C1234.17 1851.32 1239.29 1854.04 1244.85 1855.37C1242.57 1857.42 1239.84 1858.9 1236.88 1859.69C1233.92 1860.48 1230.82 1860.56 1227.82 1859.93C1220.4 1857.45 1214.03 1852.55 1209.72 1846.01C1205.42 1839.47 1203.44 1831.68 1204.09 1823.88C1204.39 1817.51 1206.97 1811.47 1211.37 1806.85C1215.72 1803.06 1221.33 1801.04 1227.09 1801.19"
            fill="black" />
    </g>
    <path d="M1433.49 1657.93C1433.49 1657.93 1434.02 1657.93 1434.22 1657.57H1434.59L1433.49 1657.93Z"
        fill="#263238" />
    <path
        d="M1473.1 1674.28C1470.62 1667.58 1465.8 1662 1459.53 1658.56C1454.56 1656.07 1449.06 1654.8 1443.5 1654.84H1443.03C1439.93 1655.03 1436.92 1655.93 1434.22 1657.46C1428.41 1660.36 1423.43 1664.7 1419.76 1670.06C1416.09 1675.43 1413.85 1681.64 1413.26 1688.12C1412.9 1696.39 1414.99 1704.59 1419.28 1711.68C1423.57 1718.77 1429.87 1724.43 1437.37 1727.94C1442.32 1730.49 1447.97 1731.34 1453.46 1730.35C1458.88 1728.8 1463.63 1725.46 1466.92 1720.87C1471.93 1714.32 1475.14 1706.57 1476.23 1698.4C1477.31 1690.23 1476.24 1681.91 1473.1 1674.28Z"
        fill="#263238" />
    <path d="M1271.52 1606.95C1271.74 1606.82 1271.97 1606.72 1272.21 1606.63H1272.52L1271.52 1606.95Z"
        fill="#263238" />
    <path
        d="M1305.79 1621.25C1303.69 1615.36 1299.49 1610.44 1294 1607.42C1289.72 1605.26 1284.97 1604.14 1280.17 1604.17H1279.59C1276.92 1604.35 1274.32 1605.14 1272 1606.48C1266.94 1608.98 1262.62 1612.73 1259.43 1617.39C1256.25 1622.04 1254.31 1627.43 1253.81 1633.04C1253.5 1640.21 1255.33 1647.31 1259.06 1653.44C1262.79 1659.57 1268.26 1664.46 1274.77 1667.47C1278.99 1669.97 1284.02 1670.73 1288.79 1669.6C1293.56 1668.46 1297.7 1665.52 1300.34 1661.39C1304.65 1655.75 1307.41 1649.08 1308.37 1642.04C1309.32 1635.01 1308.44 1627.84 1305.79 1621.25Z"
        fill="#263238" />
    <path
        d="M1316.27 1708.81C1317.38 1708.89 1318.47 1709.1 1319.52 1709.44C1322.61 1710.23 1325.65 1711.17 1328.64 1712.27C1339.67 1716.31 1350.05 1721.94 1359.45 1728.99C1373.52 1739.39 1385.49 1752.37 1394.72 1767.24C1405.91 1785.5 1413.35 1805.81 1416.62 1826.98C1419.96 1848.1 1419.71 1869.65 1415.88 1890.69C1413.11 1908.11 1405.58 1924.43 1394.14 1937.85C1386.27 1946.74 1376.07 1953.26 1364.69 1956.66C1360.59 1958.01 1356.27 1958.6 1351.96 1958.39C1356.16 1957.82 1360.32 1956.91 1364.38 1955.67C1375.36 1951.94 1385.15 1945.34 1392.72 1936.54C1403.66 1923.28 1410.81 1907.32 1413.42 1890.33C1417.08 1869.54 1417.24 1848.29 1413.89 1827.45C1410.7 1806.63 1403.45 1786.64 1392.57 1768.6C1383.59 1753.92 1371.97 1741.02 1358.3 1730.56C1349.08 1723.52 1338.99 1717.7 1328.27 1713.27C1320.78 1710.33 1316.27 1709.08 1316.27 1708.81Z"
        fill="#263238" />
    <path
        d="M1266.23 1646.83C1265.97 1646.83 1264.61 1645.88 1263.19 1643.42C1261.49 1640.18 1260.58 1636.59 1260.52 1632.94C1260.54 1629.29 1261.44 1625.69 1263.14 1622.46C1264.56 1620 1265.87 1618.84 1266.18 1619.05C1264.65 1623.6 1263.66 1628.32 1263.25 1633.1C1263.72 1637.77 1264.73 1642.38 1266.23 1646.83Z"
        fill="#FAFAFA" />
    <path
        d="M1424.22 1704.73C1423.9 1704.73 1422.59 1703.52 1421.44 1700.74C1420.03 1697.06 1419.64 1693.05 1420.34 1689.16C1420.93 1685.29 1422.6 1681.66 1425.16 1678.68C1427.15 1676.38 1428.83 1675.54 1429.04 1675.8C1426.31 1680.08 1424.27 1684.77 1423.01 1689.69C1422.56 1694.73 1422.97 1699.82 1424.22 1704.73Z"
        fill="#FAFAFA" />
    <path
        d="M1523.62 1981.61C1523.36 1982.03 1517.02 1977.62 1505.91 1972.07C1491.35 1965.05 1476.31 1959.09 1460.9 1954.25C1442.82 1948.38 1426.36 1943.35 1414.57 1939.16C1408.71 1937.12 1404.09 1935.34 1400.74 1933.92C1399.03 1933.33 1397.39 1932.54 1395.87 1931.56C1402.41 1933.14 1408.87 1935.07 1415.2 1937.33C1427.05 1941.05 1443.6 1945.76 1461.73 1951.69C1477.3 1956.52 1492.38 1962.78 1506.8 1970.39C1509.57 1971.81 1512.04 1973.33 1514.08 1974.64C1515.9 1975.71 1517.65 1976.9 1519.32 1978.2C1520.9 1979.14 1522.34 1980.29 1523.62 1981.61Z"
        fill="#263238" />
    <path
        d="M1895.39 1812.83C1893.98 1815.41 1892.37 1817.88 1890.57 1820.21C1887.43 1824.88 1882.45 1831.43 1876.11 1839.29C1859.24 1859.56 1840.93 1878.58 1821.3 1896.19C1798.4 1917.15 1777.07 1934.92 1761.98 1948.33L1744.17 1964.05C1742.09 1966.12 1739.85 1968.01 1737.46 1969.71C1739.27 1967.41 1741.27 1965.28 1743.43 1963.32C1747.42 1959.28 1753.34 1953.62 1760.73 1946.71C1775.5 1932.93 1796.62 1914.69 1819.41 1893.99C1838.94 1876.44 1857.37 1857.7 1874.59 1837.87C1881.14 1830.22 1886.33 1823.88 1889.73 1819.43C1891.45 1817.08 1893.34 1814.88 1895.39 1812.83Z"
        fill="#263238" />
    <g opacity="0.2">
        <path
            d="M1806.31 1909.87C1834.5 1912.18 1866.52 1903.53 1886.54 1883.67C1896.58 1873.44 1903.37 1860.46 1906.02 1846.38C1908.68 1832.29 1907.1 1817.73 1901.47 1804.55C1885.02 1828.02 1866.47 1852.96 1843.83 1872.14C1829.58 1884.25 1820.09 1898.92 1806.31 1910.03"
            fill="black" />
    </g>
    <g opacity="0.5">
        <path
            d="M1705.92 1250.84C1742.6 1304.81 1817.79 1321.9 1854.15 1375.97C1868.25 1396.93 1875.11 1421.66 1881.93 1445.98L1965.76 1748.48C1969.22 1682.93 1953.45 1618.06 1937.73 1554.29C1922.29 1491.41 1906.8 1428.53 1891.25 1365.65C1888.69 1351.58 1883.58 1338.1 1876.16 1325.88C1867.88 1313.98 1855.57 1305.65 1843.57 1297.58C1800.5 1268.66 1756.17 1239.21 1705.65 1227.68"
            fill="black" />
    </g>
    <g opacity="0.3">
        <path
            d="M1448.74 1414.22C1451.04 1421.56 1440.98 1431.57 1425.32 1443.99C1417.4 1450.17 1408.18 1457.24 1398.02 1464.95C1387.85 1472.65 1377.06 1481.08 1365.69 1490.2C1354.32 1499.32 1344.05 1508.39 1334.25 1516.4C1324.45 1524.42 1315.91 1532.44 1308.05 1538.88C1292.69 1551.72 1280.9 1559.53 1274.14 1555.75C1267.38 1551.98 1267.86 1537.1 1276.82 1516.25C1282.18 1504.15 1288.99 1492.75 1297.1 1482.29C1316.95 1456.56 1342.49 1435.77 1371.71 1421.56C1383.61 1415.78 1396.15 1411.43 1409.07 1408.62C1431.55 1404.27 1446.54 1407.2 1448.74 1414.22Z"
            fill="white" />
    </g>
    <path
        d="M1308.57 1827.76C1304.72 1829.15 1300.73 1830.12 1296.68 1830.64C1292.82 1831.97 1288.83 1832.9 1284.78 1833.42C1287.87 1830.5 1291.82 1828.66 1296.05 1828.18C1300.07 1826.73 1304.46 1826.58 1308.57 1827.76Z"
        fill="#FAFAFA" />
    <path
        d="M1229.03 1798.89C1225.38 1799.75 1221.69 1800.4 1217.97 1800.83C1212.05 1802.14 1207.49 1804.6 1207.18 1803.92C1206.86 1803.24 1210.85 1799.62 1217.34 1798.15C1219.24 1797.49 1221.25 1797.22 1223.26 1797.35C1225.27 1797.47 1227.23 1798 1229.03 1798.89Z"
        fill="#FAFAFA" />
    <path
        d="M1581.78 2042.55C1581.05 2042.91 1574.08 2031.18 1564.38 2017.39C1554.69 2003.61 1546.05 1993.08 1546.62 1992.56C1554.36 1999.33 1561.1 2007.16 1566.64 2015.82C1572.9 2023.99 1578 2032.98 1581.78 2042.55Z"
        fill="#FAFAFA" />
    <path
        d="M1269.64 1492.61C1270.37 1493.08 1260.05 1508.33 1251.09 1528.77C1242.13 1549.2 1237.83 1567.07 1236.99 1566.86C1237.11 1562.85 1237.82 1558.88 1239.09 1555.07C1241.48 1545.69 1244.66 1536.52 1248.57 1527.67C1252.46 1518.8 1257.07 1510.26 1262.35 1502.15C1264.37 1498.67 1266.81 1495.47 1269.64 1492.61Z"
        fill="#FAFAFA" />
    <path
        d="M1523.67 1391.17C1513.58 1390.18 1503.68 1387.77 1494.27 1383.99C1484.57 1381.03 1475.32 1376.77 1466.76 1371.31C1467.13 1370.58 1479.5 1375.92 1495.17 1381.37C1510.83 1386.82 1523.88 1390.38 1523.67 1391.17Z"
        fill="#FAFAFA" />
    <path
        d="M1932.39 1306.23C1920.13 1322.95 1902.12 1334.55 1881.82 1338.77C1891.01 1334.64 1899.98 1330.04 1908.7 1324.99C1916.91 1319.14 1924.81 1312.88 1932.39 1306.23Z"
        fill="#EB996E" />
    <path
        d="M2085.86 1271.17C2057.67 1206.2 1776.08 975.537 1776.08 975.537L1617.31 1181.68C1619.61 1178.58 1876.32 1334.94 1876.32 1334.94L1952.04 1680.15L1965.08 1741.77C1965.08 1741.77 1931.02 1771.48 1932.44 1802.82C1933.33 1823.78 1885.28 1868.9 1885.28 1868.9C1873.86 1859.41 1866.52 1856.74 1860.76 1857.84L1809.67 1905.68L1821.82 1916.79C1835.38 1929.15 1853.21 1935.75 1871.55 1935.18L1958.9 1932.51C1971.36 1932.15 1983.18 1926.94 1991.86 1917.99C2018.74 1890.38 2075.44 1828.6 2076.54 1798.84C2077.22 1782.17 2077.32 1766.3 2077.27 1753.51C2077.01 1753.35 2114 1336.15 2085.86 1271.17Z"
        fill="#FFBE9D" />
    <path
        d="M2002.23 1823.2C2000.79 1824.51 1999.15 1825.57 1997.36 1826.35C1994.16 1828.13 1989.24 1830.22 1983.53 1833.37C1976.95 1837.16 1971.14 1842.16 1966.39 1848.09C1960.39 1855.57 1953.33 1862.14 1945.43 1867.58C1930.83 1877.31 1913.49 1882.08 1895.97 1881.21C1892.9 1881.2 1889.85 1880.67 1886.96 1879.64C1885.79 1879.22 1884.77 1878.48 1884.02 1877.49C1883.28 1876.5 1882.84 1875.32 1882.76 1874.08C1882.72 1873.31 1882.86 1872.54 1883.18 1871.83C1883.5 1871.13 1883.98 1870.52 1884.6 1870.05C1885.49 1869.52 1886.06 1869.63 1886.06 1869.68C1886.06 1869.73 1885.59 1869.68 1884.91 1870.47C1884.46 1870.93 1884.12 1871.49 1883.93 1872.11C1883.74 1872.73 1883.7 1873.39 1883.81 1874.03C1883.96 1875.02 1884.39 1875.94 1885.05 1876.69C1885.71 1877.45 1886.57 1877.99 1887.53 1878.27C1890.28 1879.1 1893.15 1879.45 1896.02 1879.32C1913.05 1879.65 1929.77 1874.79 1943.97 1865.38C1951.65 1860.09 1958.55 1853.74 1964.45 1846.52C1969.46 1840.44 1975.6 1835.41 1982.53 1831.69C1988.51 1828.7 1993.48 1826.92 1996.84 1825.4C1998.57 1824.51 2000.38 1823.78 2002.23 1823.2Z"
        fill="#EB996E" />
    <path
        d="M1962.31 1868.68C1962.67 1869.36 1955.44 1873.61 1947.69 1880.21C1939.93 1886.81 1934.48 1893.15 1933.85 1892.68C1936.71 1886.97 1940.87 1882.01 1946.01 1878.22C1950.58 1873.75 1956.17 1870.48 1962.31 1868.68Z"
        fill="#EB996E" />
    <path
        d="M1997.47 1725.69C1997.47 1726.47 1989.76 1726.94 1981.33 1730.93C1972.89 1734.91 1967.55 1740.52 1966.97 1739.94C1970.27 1735 1974.85 1731.05 1980.22 1728.52C1985.6 1725.99 1991.56 1724.97 1997.47 1725.58V1725.69Z"
        fill="#EB996E" />
    <path
        d="M1942.97 1895.62C1942.97 1896.09 1937.36 1893.36 1927.93 1891.16C1912.24 1887.29 1895.77 1887.98 1880.46 1893.16C1878.75 1893.8 1877 1894.32 1875.22 1894.73C1873.26 1895.08 1871.25 1894.65 1869.61 1893.52L1855.99 1883.25C1851.59 1880.35 1847.47 1877.05 1843.67 1873.4C1848.38 1875.79 1852.88 1878.56 1857.14 1881.68L1871.24 1891.27C1873.49 1893 1876.48 1891.69 1879.78 1890.48C1883.21 1889.29 1886.71 1888.31 1890.26 1887.55C1902.94 1885.05 1916.03 1885.58 1928.46 1889.12C1932.18 1890.18 1935.81 1891.57 1939.3 1893.26C1941.77 1894.67 1943.08 1895.46 1942.97 1895.62Z"
        fill="#EB996E" />
    <path
        d="M1350.49 1094.96C1316.9 1085.37 1302.02 1081.23 1302.02 1081.23V1065.82H1315.38C1328.8 1065.82 1348.08 1049.11 1348.08 1049.11L1376.74 1005.25L1380.41 977.109C1377.37 942.42 1335.56 956.149 1335.56 956.149C1333.57 944.045 1280.01 931.888 1239.77 924.395C1226.29 921.876 1212.42 922.384 1199.16 925.882C1185.91 929.38 1173.59 935.781 1163.11 944.621L1124.49 977.214L1008.79 1078.4L710.117 1330.7L513.776 1272.75C513.776 1272.75 451.316 1463.74 441.203 1532.18C421.658 1663.65 602.384 1751.26 682.24 1683.61C744.177 1631.21 1105.42 1241.99 1165.26 1177.48H1165.73C1202.41 1172.82 1264.66 1135.56 1264.66 1135.56L1296.57 1139.34C1296.57 1139.34 1381.35 1155.53 1391.41 1138.92C1398.96 1126.08 1384.08 1104.54 1350.49 1094.96Z"
        fill="#FFBE9D" />
    <path
        d="M1176.58 1056.81C1176.58 1056.81 1177.42 1058.01 1178.41 1060.48C1179.86 1063.95 1181.02 1067.55 1181.87 1071.22C1184.72 1083.36 1185.18 1095.94 1183.23 1108.26C1181.3 1120.59 1176.96 1132.42 1170.45 1143.06C1168.51 1146.28 1166.3 1149.33 1163.84 1152.18C1162.11 1154.22 1161.07 1155.27 1160.91 1155.11C1160.75 1154.95 1164.26 1150.29 1168.77 1142.11C1180.67 1120.65 1184.65 1095.69 1180.04 1071.59C1178.2 1062.42 1176.11 1056.97 1176.58 1056.81Z"
        fill="#EB996E" />
    <path
        d="M1198.22 949.807C1199.28 949.532 1200.37 949.34 1201.47 949.231C1203.67 948.917 1206.71 948.497 1210.95 948.131C1222.66 946.844 1234.48 946.968 1246.16 948.497C1254.27 949.691 1262.16 952.056 1269.59 955.519C1278.21 959.447 1285.83 965.289 1291.86 972.601C1298.73 980.74 1302.53 991.031 1302.6 1001.68C1302.5 1007.33 1301.08 1012.87 1298.46 1017.87C1295.67 1022.91 1292.13 1027.51 1287.98 1031.5C1280.14 1039.07 1271.56 1045.83 1262.35 1051.67C1258 1054.6 1253.39 1057.13 1248.57 1059.22C1246.08 1060.21 1243.4 1060.66 1240.71 1060.53C1239.32 1060.46 1237.95 1060.1 1236.71 1059.47C1235.46 1058.84 1234.36 1057.95 1233.48 1056.86C1231.87 1054.71 1231.07 1052.05 1231.23 1049.37C1231.28 1046.92 1231.73 1044.5 1232.54 1042.19C1234.05 1037.9 1236.11 1033.84 1238.67 1030.08C1243.29 1023.31 1249.47 1017.76 1256.7 1013.89L1257.01 1015.73L1221.27 1008.91L1211.58 1006.92C1210.43 1006.76 1209.3 1006.46 1208.23 1006.03C1209.39 1006.03 1210.54 1006.14 1211.68 1006.35L1221.43 1007.87L1257.32 1013.79L1260.1 1014.26L1257.64 1015.62C1250.79 1019.44 1244.93 1024.83 1240.56 1031.34C1238.14 1034.94 1236.21 1038.86 1234.84 1042.97C1233.95 1044.93 1233.54 1047.06 1233.65 1049.21C1233.76 1051.35 1234.39 1053.44 1235.47 1055.29C1237.09 1056.79 1239.15 1057.74 1241.34 1058C1243.53 1058.26 1245.75 1057.83 1247.68 1056.75C1252.31 1054.74 1256.73 1052.28 1260.89 1049.42C1269.93 1043.68 1278.36 1037.02 1286.04 1029.56C1290.04 1026.03 1293.31 1021.75 1295.66 1016.96C1298.01 1012.17 1299.39 1006.96 1299.72 1001.63C1299.67 991.594 1296.13 981.886 1289.71 974.173C1283.93 967.112 1276.64 961.436 1268.38 957.563C1261.18 954.104 1253.52 951.703 1245.64 950.436C1234.12 948.747 1222.45 948.325 1210.85 949.179L1201.31 949.755C1200.29 949.904 1199.25 949.921 1198.22 949.807Z"
        fill="#EB996E" />
    <path
        d="M1335.98 957.773C1336.5 959.616 1336.8 961.517 1336.87 963.433C1337.38 968.656 1337.59 973.905 1337.5 979.152C1337.53 996.529 1333.03 1013.61 1324.45 1028.72C1313.97 1046.28 1297.57 1057.59 1284 1059.38C1281.29 1059.75 1278.54 1059.46 1275.97 1058.55C1273.4 1057.64 1271.08 1056.13 1269.22 1054.14C1268.25 1053.03 1267.5 1051.75 1267.02 1050.36C1266.8 1049.91 1266.71 1049.4 1266.76 1048.9C1267.66 1050.52 1268.75 1052.03 1270 1053.4C1271.86 1055.06 1274.06 1056.26 1276.45 1056.94C1278.83 1057.61 1281.35 1057.73 1283.79 1057.28C1296.26 1055.24 1312.08 1044.08 1322.09 1027.2C1330.41 1012.44 1335.04 995.882 1335.56 978.943C1336.24 965.895 1335.5 957.773 1335.98 957.773Z"
        fill="#EB996E" />
    <path
        d="M1261.83 1107.43C1261.52 1107.06 1264.24 1104.7 1267.49 1099.99C1271.66 1093.92 1274.25 1086.92 1275.04 1079.6C1275.7 1072.26 1274.49 1064.87 1271.52 1058.12C1269.27 1052.88 1267.07 1050.05 1267.44 1049.79C1269.98 1051.75 1271.99 1054.33 1273.25 1057.28C1276.95 1064.2 1278.52 1072.05 1277.76 1079.85C1277.01 1087.65 1273.96 1095.06 1269.01 1101.14C1267.17 1103.8 1264.71 1105.96 1261.83 1107.43Z"
        fill="#EB996E" />
    <path
        d="M1210.9 1008.18C1212.79 1011.69 1213.38 1015.75 1212.58 1019.66C1212.24 1023.96 1210.99 1028.14 1208.91 1031.92C1206.53 1036.53 1203.54 1040.8 1200 1044.6C1193.34 1051.25 1185.31 1056.38 1176.47 1059.64C1172.99 1061.33 1169.31 1062.56 1165.52 1063.31C1168.7 1061.18 1172.11 1059.43 1175.69 1058.07C1183.98 1054.39 1191.55 1049.24 1198.01 1042.87C1201.39 1039.23 1204.32 1035.18 1206.71 1030.82C1208.75 1027.36 1210.1 1023.53 1210.69 1019.55C1211.15 1015.78 1211.22 1011.97 1210.9 1008.18Z"
        fill="#EB996E" />
    <path
        d="M1433.7 1023.59L1286.3 1103.91C1286.3 1103.91 1365.16 1123.46 1436.79 1199.18C1475.73 1240.42 1506.21 1288.89 1526.5 1341.86L1673.22 1244.19C1673.22 1244.19 1594.25 1065.3 1433.7 1023.59Z"
        fill="#455A64" />
    <path
        d="M1312.29 1100.93L1431.29 1032.81H1431.66H1432.02C1453.07 1038.47 1473.3 1046.8 1492.23 1057.59C1513.75 1070.04 1533.82 1084.84 1552.07 1101.71C1572.31 1120.28 1590.86 1140.6 1607.51 1162.44C1625.56 1185.74 1641.57 1210.54 1655.35 1236.59L1655.93 1237.69L1654.88 1238.37L1647.18 1243.61L1533.89 1319.33L1532.53 1320.22L1531.95 1318.75C1515.93 1279.11 1493.91 1242.18 1466.66 1209.24C1445 1183.42 1419.96 1160.64 1392.2 1141.54C1374.09 1128.97 1354.78 1118.23 1334.56 1109.47C1327.43 1106.43 1321.88 1104.23 1318.05 1103.02L1313.76 1101.56L1312.29 1101.03L1313.81 1101.35L1318.21 1102.6C1322.09 1103.81 1327.7 1105.75 1334.88 1108.63C1355.39 1117.08 1374.99 1127.62 1393.35 1140.07C1421.39 1159.08 1446.69 1181.84 1468.55 1207.72C1496.1 1240.77 1518.38 1277.89 1534.57 1317.76L1532.63 1317.18L1645.87 1241.36L1653.57 1236.12L1653.1 1237.85C1639.4 1211.97 1623.52 1187.3 1605.62 1164.12C1589.1 1142.38 1570.69 1122.15 1550.6 1103.65C1532.45 1086.85 1512.51 1072.09 1491.13 1059.64C1472.4 1048.84 1452.39 1040.46 1431.55 1034.69H1432.29L1312.29 1100.93Z"
        fill="white" />
    <path
        d="M1553.59 1149.34C1549.71 1172.03 1521 1185.76 1489.4 1180C1457.8 1174.23 1435.22 1151.18 1439.1 1128.49C1442.98 1105.8 1471.69 1092.07 1503.29 1097.84C1534.88 1103.6 1557.31 1126.66 1553.59 1149.34Z"
        fill="#FAFAFA" />
    <path
        d="M1484.89 1156.63L1479.65 1162.29L1473.79 1156.58L1478.71 1151.34C1474.49 1146.91 1471.43 1141.51 1469.8 1135.62L1479.71 1131.32C1481.03 1136.8 1483.84 1141.8 1487.83 1145.78C1491.86 1149.71 1494.48 1150.03 1496 1148.35C1501.24 1142.69 1477.93 1127.86 1489.87 1114.66C1495.11 1109.1 1503.08 1108.11 1511.88 1114.66L1517.12 1109.1L1522.99 1114.81L1518.01 1120.05C1521.32 1123.7 1523.78 1128.03 1525.24 1132.73L1515.5 1137.29C1514.19 1132.78 1511.79 1128.66 1508.53 1125.29C1504.44 1121.36 1501.66 1121.36 1500.09 1123.09C1495.17 1128.33 1518.27 1143.37 1506.43 1156.47C1501.56 1161.87 1493.59 1162.92 1484.89 1156.63Z"
        fill="#455A64" />
    <path d="M1345.93 1082.01C1345.93 1082.01 1370.93 1094.69 1346.93 1113.45L1310.25 1099.2L1345.93 1082.01Z"
        fill="#FAFAFA" />
    <path d="M1413.06 1044.28C1413.06 1044.28 1437.16 1069.75 1460.21 1043.24L1431.81 1033.75L1413.06 1044.28Z"
        fill="#FAFAFA" />
    <path d="M1518.22 1284.69C1518.22 1284.69 1550.66 1258.49 1569.57 1293.91L1533.36 1318.12L1518.22 1284.69Z"
        fill="#FAFAFA" />
    <path d="M1637.9 1208.35C1637.9 1208.35 1614.48 1223.02 1630.36 1253.25L1654.35 1237.22L1637.9 1208.35Z"
        fill="#FAFAFA" />
    <path
        d="M1551.08 1293.34C1551.01 1295.28 1550.38 1297.15 1549.26 1298.73C1548.14 1300.31 1546.58 1301.52 1544.77 1302.22C1542.96 1302.91 1540.99 1303.06 1539.1 1302.64C1537.21 1302.22 1535.48 1301.26 1534.14 1299.86C1532.79 1298.47 1531.89 1296.71 1531.54 1294.8C1531.19 1292.9 1531.41 1290.93 1532.17 1289.15C1532.93 1287.37 1534.2 1285.85 1535.82 1284.79C1537.44 1283.73 1539.34 1283.16 1541.28 1283.17C1542.59 1283.19 1543.88 1283.47 1545.09 1284C1546.29 1284.52 1547.38 1285.27 1548.29 1286.22C1549.2 1287.16 1549.92 1288.28 1550.39 1289.5C1550.87 1290.72 1551.1 1292.03 1551.08 1293.34Z"
        fill="#455A64" />
    <path
        d="M1649.38 1230.83C1649.3 1232.75 1648.67 1234.6 1647.55 1236.17C1646.43 1237.73 1644.88 1238.93 1643.08 1239.61C1641.28 1240.3 1639.33 1240.44 1637.45 1240.02C1635.58 1239.6 1633.86 1238.64 1632.53 1237.26C1631.2 1235.88 1630.3 1234.13 1629.95 1232.24C1629.6 1230.35 1629.81 1228.4 1630.57 1226.63C1631.32 1224.86 1632.57 1223.35 1634.17 1222.29C1635.78 1221.23 1637.66 1220.66 1639.58 1220.66C1640.89 1220.68 1642.18 1220.96 1643.39 1221.48C1644.59 1222.01 1645.68 1222.76 1646.59 1223.71C1647.5 1224.65 1648.22 1225.77 1648.69 1226.99C1649.17 1228.21 1649.4 1229.51 1649.38 1230.83Z"
        fill="#455A64" />
    <path
        d="M1446.91 1043.29C1446.91 1046.9 1441.67 1049.84 1435.64 1049.84C1429.61 1049.84 1424.43 1046.9 1424.43 1043.29C1424.43 1039.67 1429.67 1036.74 1435.69 1036.74C1441.72 1036.74 1446.91 1039.62 1446.91 1043.29Z"
        fill="#455A64" />
    <path
        d="M1351.12 1097.63C1351.63 1099.88 1351.43 1102.24 1350.54 1104.38C1349.65 1106.51 1348.12 1108.32 1346.16 1109.55C1344.2 1110.77 1341.91 1111.36 1339.6 1111.23C1337.29 1111.1 1335.08 1110.26 1333.27 1108.81C1331.46 1107.37 1330.15 1105.4 1329.51 1103.18C1328.87 1100.96 1328.93 1098.59 1329.7 1096.41C1330.46 1094.22 1331.88 1092.33 1333.77 1090.99C1335.65 1089.65 1337.91 1088.93 1340.22 1088.93C1342.81 1088.68 1345.4 1089.44 1347.43 1091.07C1349.47 1092.69 1350.79 1095.04 1351.12 1097.63Z"
        fill="#455A64" />
    <path
        d="M1441.46 1092.02C1441.46 1097.57 1434.54 1102.08 1426 1102.08C1417.46 1102.08 1410.59 1097.73 1410.59 1092.02C1410.59 1086.31 1417.51 1081.96 1426.05 1081.96C1434.59 1081.96 1441.46 1086.78 1441.46 1092.02Z"
        fill="#FAFAFA" />
    <path
        d="M1565.59 1226.79C1558.62 1229.99 1549.87 1225.59 1546.41 1216.99C1544.49 1213.34 1544.05 1209.1 1545.17 1205.13C1546.29 1201.16 1548.89 1197.77 1552.44 1195.67C1559.41 1192.47 1568.16 1196.87 1571.62 1205.52C1573.53 1209.16 1573.98 1213.4 1572.86 1217.36C1571.73 1221.32 1569.13 1224.7 1565.59 1226.79Z"
        fill="#FAFAFA" />
    <path
        d="M1348.13 1049.11L1408.65 1112.98C1408.65 1112.98 1432.86 1140.7 1449.16 1127.6C1465.45 1114.5 1442.56 1090.08 1437.74 1082.96C1432.91 1075.83 1373.6 1003.88 1373.6 1003.88L1348.13 1049.11Z"
        fill="#FFBE9D" />
    <path
        d="M1379.15 991.676C1378.91 995.458 1378.12 999.183 1376.79 1002.73C1374.3 1011.48 1370.78 1019.91 1366.31 1027.83C1361.76 1035.81 1355.93 1042.99 1349.08 1049.11C1346.38 1051.78 1343.22 1053.95 1339.75 1055.5C1342.26 1052.74 1344.94 1050.13 1347.77 1047.69C1354.02 1041.41 1359.46 1034.37 1363.96 1026.73C1374.38 1008.18 1378.42 991.362 1379.15 991.676Z"
        fill="#EB996E" />
    <path
        d="M816.278 1240.99C815.43 1242.01 814.482 1242.94 813.448 1243.77L805.012 1251.31L773.572 1278.61C746.901 1301.51 709.855 1333.01 668.774 1367.33C627.692 1401.65 589.493 1432.62 561.722 1454C547.888 1464.89 536.517 1473.44 528.553 1479.3L519.33 1485.85C518.306 1486.68 517.2 1487.4 516.029 1488C516.964 1487.08 517.962 1486.22 519.016 1485.44L527.924 1478.41C535.679 1472.34 546.84 1463.58 560.516 1452.53C587.921 1430.47 625.439 1399.55 666.73 1365.23C708.021 1330.91 745.015 1299.84 772.263 1277.15L804.279 1250.48L813.082 1243.35C814.074 1242.47 815.144 1241.68 816.278 1240.99Z"
        fill="#EB996E" />
</svg>