<svg width="2855" height="2266" viewBox="0 0 2855 2266" fill="none" xmlns="http://www.w3.org/2000/svg">
    <path
        d="M738.191 725.004L777.849 1401.28C778.522 1412.88 783.6 1423.79 792.046 1431.78C800.492 1439.76 811.669 1444.23 823.293 1444.25L2040.57 1447.96C2046.57 1447.98 2052.51 1446.82 2058.05 1444.54C2063.6 1442.27 2068.64 1438.92 2072.89 1434.7C2077.15 1430.47 2080.52 1425.45 2082.83 1419.92C2085.14 1414.38 2086.34 1408.45 2086.35 1402.46L2087.98 875.886C2088 869.865 2086.82 863.901 2084.52 858.336C2082.22 852.771 2078.85 847.716 2074.59 843.461C2070.33 839.206 2065.27 835.835 2059.7 833.543C2054.13 831.251 2048.17 830.082 2042.15 830.105L1293.52 832.632C1287.53 832.655 1281.59 831.496 1276.05 829.221C1270.51 826.946 1265.47 823.601 1261.22 819.376L1131.52 690.851C1122.99 682.412 1111.49 677.652 1099.5 677.594L783.916 676.639C777.682 676.628 771.512 677.893 765.785 680.354C760.058 682.815 754.895 686.421 750.613 690.951C746.33 695.481 743.019 700.838 740.883 706.694C738.747 712.55 737.831 718.781 738.191 725.004Z"
        fill="#4EAD60" />
    <path opacity="0.3"
        d="M738.191 725.004L777.849 1401.28C778.522 1412.88 783.6 1423.79 792.046 1431.78C800.492 1439.76 811.669 1444.23 823.293 1444.25L2040.57 1447.96C2046.57 1447.98 2052.51 1446.82 2058.05 1444.54C2063.6 1442.27 2068.64 1438.92 2072.89 1434.7C2077.15 1430.47 2080.52 1425.45 2082.83 1419.92C2085.14 1414.38 2086.34 1408.45 2086.35 1402.46L2087.98 875.886C2088 869.865 2086.82 863.901 2084.52 858.336C2082.22 852.771 2078.85 847.716 2074.59 843.461C2070.33 839.206 2065.27 835.835 2059.7 833.543C2054.13 831.251 2048.17 830.082 2042.15 830.105L1293.52 832.632C1287.53 832.655 1281.59 831.496 1276.05 829.221C1270.51 826.946 1265.47 823.601 1261.22 819.376L1131.52 690.851C1122.99 682.412 1111.49 677.652 1099.5 677.594L783.916 676.639C777.682 676.628 771.512 677.893 765.785 680.354C760.058 682.815 754.895 686.421 750.613 690.951C746.33 695.481 743.019 700.838 740.883 706.694C738.747 712.55 737.831 718.781 738.191 725.004Z"
        fill="black" />
    <path d="M1152.33 422.465L752.046 947.91L1172.12 1267.92L1572.41 742.48L1152.33 422.465Z" fill="white" />
    <path
        d="M1152.3 422.396L1150.45 424.981L1144.83 432.339C1139.89 438.912 1132.64 448.461 1123.26 460.988L1041.64 568.728L753.076 948.63L752.795 946.832L1172.97 1266.68L1170.89 1266.96L1571.36 741.686L1571.64 743.372L1267.23 510.701L1182.3 445.596L1159.83 428.407L1152.3 422.396L1159.94 428.014L1182.41 444.866L1267.34 509.297L1573.15 741.406L1574.11 742.136L1573.38 743.147L1173.31 1268.76L1172.41 1269.94L1171.23 1269.04L751.279 948.854L750.268 948.068L751.054 947L1041.19 567.212L1123.2 460.089L1144.89 432.002L1150.5 424.812L1152.3 422.396Z"
        fill="#263238" />
    <path d="M1164.43 461.386L792.263 949.922L1159.48 1229.67L1531.64 741.131L1164.43 461.386Z" fill="#263238" />
    <path d="M1159.49 1235.4L1061.19 890.884L1284.53 893.974L1262.8 764.101L1531.64 746.855L1159.49 1235.4Z"
        fill="#455A64" />
    <path
        d="M1125.22 799.544C1151.68 795.933 1170.21 771.55 1166.6 745.084C1162.99 718.618 1138.61 700.09 1112.14 703.701C1085.67 707.313 1067.15 731.695 1070.76 758.162C1074.37 784.628 1098.75 803.155 1125.22 799.544Z"
        fill="#455A64" />
    <path d="M1241.26 416.705L1210.99 1151.11L2129.61 1188.97L2159.87 454.564L1241.26 416.705Z" fill="white" />
    <path
        d="M2159.66 454.416H2155.28L2142.47 453.966L2092.65 452.056L1904.69 444.698L1241 418.015L1242.35 416.779C1233.42 635.35 1223.14 885.94 1212.29 1151.14L1210.89 1149.62L2129.72 1187.59L2128.48 1188.77C2137.86 967.448 2145.62 783.985 2150.95 655.854C2153.76 591.703 2155.95 541.372 2157.41 507.106C2158.2 489.973 2158.76 476.829 2159.15 467.785C2159.55 458.741 2159.83 454.303 2159.83 454.303C2159.83 454.303 2159.83 458.741 2159.44 467.56C2159.04 476.379 2158.59 489.468 2157.97 506.488C2156.63 540.754 2154.66 590.749 2152.36 655.011C2147.25 783.367 2139.89 967.111 2131.01 1188.66V1189.84H2129.72L1210.78 1152.48H1209.32V1151.02C1220.27 885.828 1230.66 635.238 1239.71 416.667V415.375H1241L1905.48 443.462L2093.09 451.551L2142.64 453.741L2155.33 454.303L2159.66 454.416Z"
        fill="#263238" />
    <path d="M1270.99 464.224L1244.53 1106.19L2098.6 1141.39L2125.05 499.423L1270.99 464.224Z" fill="#455A64" />
    <path d="M1244.43 1106.08L1559.11 719.33L1733.64 976.605L1864.47 848.304L2098.49 1141.25L1244.43 1106.08Z"
        fill="#263238" />
    <path
        d="M1822.75 693.256C1830.88 656.99 1808.07 620.998 1771.81 612.865C1735.54 604.732 1699.55 627.538 1691.42 663.804C1683.28 700.07 1706.09 736.062 1742.36 744.195C1778.62 752.328 1814.61 729.521 1822.75 693.256Z"
        fill="#263238" />
    <path d="M2204.15 770.111L959.795 941.44L1091.58 1852.8L2325.71 1678.94L2204.15 770.111Z" fill="#EBEBEB" />
    <path d="M2208.92 656.416L978.95 911.331L1171.96 1811.74L2391.54 1554.97L2208.92 656.416Z" fill="#E0E0E0" />
    <path d="M2100.28 555.359L915.418 972.279L1226.9 1838.87L2401.32 1421.5L2100.28 555.359Z" fill="white" />
    <path
        d="M2100.28 555.359C2103.54 564.684 2219.43 896.613 2402.44 1421.1L2402.83 1422.23L2401.71 1422.62L1227.69 1840.21L1226.28 1840.72L1225.83 1839.32L1223.53 1833.02C1112.7 1524.46 1007.6 1231.97 914.575 972.728L914.126 971.436L915.362 971.043L2100.62 555.359L915.867 973.515L916.654 971.829L1226 1832.01L1228.3 1838.36L1226.39 1837.46L2400.93 1420.37L2400.19 1421.89C2218.53 896.894 2103.54 564.684 2100.28 555.359Z"
        fill="#263238" />
    <path
        d="M2133.71 1386.56C2131.41 1387.4 2074.5 1239.61 2006.59 1056.48C1938.67 873.358 1885.37 724.217 1887.67 723.375C1889.97 722.532 1946.82 870.268 2014.79 1053.45C2082.76 1236.63 2135.96 1385.6 2133.71 1386.56Z"
        fill="#263238" />
    <path
        d="M2032.48 1432.79C2030.24 1433.63 1973.28 1285.84 1905.36 1102.77C1837.45 919.701 1784.2 770.448 1786.44 769.605C1788.69 768.763 1845.65 916.555 1913.62 1099.68C1981.59 1282.81 2034.79 1431.95 2032.48 1432.79Z"
        fill="#263238" />
    <path
        d="M1718.31 1564.4C1716.06 1565.25 1659.1 1417.45 1591.19 1234.33C1523.27 1051.2 1470.02 902.063 1472.27 901.22C1474.51 900.378 1531.47 1048.11 1599.39 1231.3C1667.3 1414.48 1720.55 1563.56 1718.31 1564.4Z"
        fill="#263238" />
    <path
        d="M1818.46 1524.07C1816.16 1524.91 1759.26 1377.12 1691.34 1194C1623.43 1010.87 1570.12 861.729 1572.42 860.886C1574.73 860.044 1631.57 1007.78 1699.54 1190.96C1767.51 1374.14 1820.77 1523.23 1818.46 1524.07Z"
        fill="#263238" />
    <path
        d="M1918.56 1483.74C1916.32 1484.58 1859.41 1336.79 1791.44 1153.72C1723.47 970.65 1670.28 821.397 1672.52 820.554C1674.77 819.712 1731.73 967.504 1799.7 1150.63C1867.67 1333.76 1920.87 1482.9 1918.56 1483.74Z"
        fill="#263238" />
    <path
        d="M1602.31 1597.77C1600.06 1598.61 1543.1 1450.82 1475.19 1267.69C1407.27 1084.57 1354.02 935.428 1356.27 934.586C1358.51 933.743 1415.47 1081.48 1483.44 1264.66C1551.41 1447.84 1604.61 1596.93 1602.31 1597.77Z"
        fill="#263238" />
    <path
        d="M1491.36 1638.38C1489.12 1639.23 1432.21 1491.43 1364.24 1308.36C1296.27 1125.3 1243.08 976.098 1245.32 975.537C1247.57 974.975 1304.53 1122.49 1372.5 1305.61C1440.47 1488.74 1493.67 1637.6 1491.36 1638.38Z"
        fill="#263238" />
    <path
        d="M1380.48 1679.11C1378.17 1679.95 1321.27 1532.16 1253.3 1349.09C1185.33 1166.02 1132.14 1016.77 1134.44 1015.93C1136.74 1015.08 1193.59 1162.88 1261.56 1346C1329.53 1529.13 1382.61 1678.27 1380.48 1679.11Z"
        fill="#263238" />
    <path
        d="M713.306 1095.19L812.34 1924.25C813.189 1931.37 816.61 1937.93 821.959 1942.7C827.308 1947.46 834.215 1950.11 841.381 1950.15L2137.53 1954.08C2144.92 1954.12 2152.06 1951.36 2157.51 1946.36C2162.95 1941.36 2166.31 1934.49 2166.91 1927.11L2234.71 1098.56C2235.03 1094.52 2234.52 1090.45 2233.2 1086.62C2231.88 1082.79 2229.79 1079.27 2227.04 1076.28C2224.3 1073.3 2220.97 1070.91 2217.26 1069.27C2213.56 1067.63 2209.55 1066.78 2205.5 1066.76L742.572 1062.32C738.412 1062.31 734.297 1063.18 730.498 1064.88C726.7 1066.57 723.305 1069.06 720.538 1072.16C717.771 1075.27 715.696 1078.93 714.449 1082.9C713.202 1086.87 712.813 1091.06 713.306 1095.19Z"
        fill="#4EAD60" />
    <path d="M2299.14 863.977L2255.44 895.265L2280.94 1020.53L2338.35 969.302L2299.14 863.977Z" fill="#BF7A62" />
    <path
        d="M2309.08 1806.12L2490.8 1717.81L2723.92 1745.9C2739.53 1757.66 2750.02 1774.98 2753.19 1794.26C2754.73 1800.5 2753.79 1807.09 2750.55 1812.63C2745.32 1819.94 2734.6 1820.83 2725.89 1818.7C2717.18 1816.57 2709.04 1812.02 2700.1 1810.95C2682.75 1808.93 2666.74 1819.99 2653.71 1831.62C2640.67 1843.25 2627.7 1856.5 2610.68 1860.44C2595.37 1862.95 2579.66 1860.01 2566.3 1852.12C2552.71 1845.05 2540.57 1835.27 2526.98 1827.69C2502.35 1812.81 2473.52 1806.4 2444.91 1809.43C2422.44 1812.41 2401.09 1822.3 2378.51 1825.89C2355.93 1829.49 2321.05 1825.5 2308.8 1806.23"
        fill="#455A64" />
    <path
        d="M2742.35 2166.69C2742.35 2166.69 2593.49 1659.17 2590.68 1642.93C2588.1 1628.27 2611.3 1272.69 2621.69 1180.46L2457.72 1181.81V1183.38L2379.8 1185.29L2414.63 2194.5L2515.46 2202.25L2514.79 1869.26C2578.38 2030.08 2652.13 2209.16 2652.13 2209.16L2742.35 2166.69Z"
        fill="#D89377" />
    <path
        d="M2448.34 1619.68C2448.34 1619.68 2448 1623.61 2447.66 1630.91C2447.08 1640.93 2447.23 1650.97 2448.11 1660.97C2449.35 1675.8 2451.81 1690.52 2455.47 1704.95C2460.3 1722.55 2466.23 1739.83 2473.22 1756.68C2487.04 1793.09 2499.4 1826.17 2508.16 1850.1C2512.32 1861.79 2515.8 1871.39 2518.38 1878.58C2519.76 1882.04 2520.88 1885.58 2521.75 1889.2C2519.99 1885.93 2518.47 1882.53 2517.2 1879.03C2514.4 1871.9 2510.58 1862.18 2505.97 1850.94C2496.64 1827.18 2483.95 1794.26 2470.13 1757.81C2466.7 1748.71 2463.33 1739.78 2460.13 1731.18C2457.12 1722.83 2454.57 1714.32 2452.49 1705.68C2448.95 1691.06 2446.7 1676.15 2445.75 1661.13C2445.11 1651.02 2445.3 1640.88 2446.31 1630.8C2446.71 1627.2 2447.16 1624.51 2447.55 1622.65C2447.63 1621.62 2447.9 1620.62 2448.34 1619.68Z"
        fill="#BF7A62" />
    <path
        d="M2515.01 1990.37C2515.01 1987.28 2517.32 1877.4 2517.32 1877.4C2517.32 1877.4 2480.8 1775.45 2479.85 1778.54C2478.89 1781.63 2515.01 1990.37 2515.01 1990.37Z"
        fill="#BF7A62" />
    <path
        d="M2408.96 2194.16V2182.93L2515.69 2185.06L2515.13 2222.48L2508.55 2222.81C2479.18 2223.88 2359.02 2226.35 2339.47 2220.06C2318.18 2212.87 2408.96 2194.16 2408.96 2194.16Z"
        fill="#4EAD60" />
    <g opacity="0.3">
        <path
            d="M2477.04 2220.85C2478.77 2211.89 2483.75 2203.88 2491.03 2198.38C2498.15 2192.91 2507.08 2190.32 2516.02 2191.13L2515.52 2220.85H2477.04Z"
            fill="white" />
    </g>
    <path opacity="0.3"
        d="M2364.58 2204.89C2364.58 2204.89 2332.67 2213.43 2336.49 2218.77C2340.31 2224.11 2461.87 2226.13 2515.52 2222.36V2220.01L2373.79 2218.77C2373.79 2218.77 2370.76 2205.23 2364.58 2204.89Z"
        fill="white" />
    <path
        d="M2517.32 2219.95C2516.7 2220.02 2516.08 2220.02 2515.46 2219.95H2510.24L2490.86 2220.45C2474.51 2220.73 2451.93 2220.9 2426.99 2220.45C2402.05 2220 2379.47 2219.16 2363.12 2218.32L2343.8 2217.2L2338.57 2216.8H2343.8L2363.18 2217.53C2379.52 2218.15 2402.05 2218.88 2426.99 2219.27C2451.93 2219.67 2474.51 2219.72 2490.86 2219.67H2510.24H2515.46L2517.32 2219.95Z"
        fill="#263238" />
    <path
        d="M2373.74 2220.4C2372.95 2217.18 2371.78 2214.07 2370.26 2211.13C2368.39 2208.38 2366.23 2205.86 2363.79 2203.6C2367.09 2204.85 2369.8 2207.3 2371.38 2210.45C2373.34 2213.38 2374.17 2216.91 2373.74 2220.4Z"
        fill="#263238" />
    <path
        d="M2405.42 2205.01C2405.08 2205.01 2403.62 2203.32 2402.1 2200.85C2401.02 2199.45 2400.27 2197.81 2399.91 2196.07C2400.25 2196.07 2401.71 2197.7 2403.23 2200.17C2404.32 2201.59 2405.07 2203.25 2405.42 2205.01Z"
        fill="#263238" />
    <path
        d="M2414.07 2200.63C2414.07 2200.63 2412.22 2199.73 2410.36 2198.04C2408.51 2196.36 2407.33 2194.78 2407.55 2194.5C2407.78 2194.22 2409.46 2195.4 2411.26 2197.09C2413.06 2198.77 2414.35 2200.12 2414.07 2200.63Z"
        fill="#263238" />
    <path
        d="M2419.74 2190.68C2417.93 2191.27 2416.02 2191.47 2414.13 2191.24C2411.09 2191.24 2408.51 2190.96 2408.51 2190.57C2410.31 2189.95 2412.23 2189.74 2414.13 2189.95C2416.03 2189.75 2417.95 2190 2419.74 2190.68Z"
        fill="#263238" />
    <path
        d="M2421.82 2183.6C2419.89 2184.59 2417.77 2185.16 2415.61 2185.29C2413.44 2185.42 2411.27 2185.09 2409.24 2184.33C2411.32 2184.02 2413.43 2183.9 2415.53 2184C2417.61 2183.69 2419.72 2183.56 2421.82 2183.6Z"
        fill="#263238" />
    <path
        d="M2401.94 2195.68C2399.69 2196.04 2397.39 2196.04 2395.14 2195.68C2392.66 2195.33 2390.21 2194.75 2387.84 2193.94C2386.41 2193.49 2385.04 2192.88 2383.74 2192.14C2382.94 2191.66 2382.34 2190.9 2382.05 2190.01C2381.97 2189.49 2382.03 2188.96 2382.23 2188.47C2382.43 2187.99 2382.75 2187.57 2383.17 2187.25C2385.81 2186.03 2388.8 2185.76 2391.61 2186.49C2394.43 2187.21 2396.91 2188.9 2398.62 2191.24C2399.63 2192.6 2400.35 2194.15 2400.76 2195.79C2400.76 2196.97 2400.76 2197.65 2400.76 2197.65C2400.1 2195.62 2399.09 2193.71 2397.78 2192.03C2396.3 2190.23 2394.36 2188.87 2392.16 2188.1C2390.84 2187.62 2389.44 2187.42 2388.04 2187.5C2386.65 2187.58 2385.28 2187.93 2384.02 2188.55C2382.89 2189.33 2383.29 2190.57 2384.52 2191.36C2385.72 2192.04 2386.98 2192.61 2388.29 2193.04C2390.57 2193.88 2392.92 2194.54 2395.31 2195.01C2399.35 2195.4 2401.94 2195.46 2401.94 2195.68Z"
        fill="#263238" />
    <path
        d="M2400.2 2195.96C2399.34 2194.53 2399.08 2192.81 2399.47 2191.19C2399.72 2189.41 2400.39 2187.71 2401.43 2186.24C2402.01 2185.25 2402.82 2184.43 2403.81 2183.84C2404.79 2183.25 2405.9 2182.92 2407.05 2182.87C2407.74 2183.03 2408.35 2183.46 2408.73 2184.06C2409.12 2184.65 2409.26 2185.38 2409.13 2186.07C2408.92 2187.16 2408.5 2188.19 2407.89 2189.11C2406.99 2190.61 2405.87 2191.98 2404.58 2193.15C2402.44 2195.23 2400.7 2196.02 2400.64 2195.85C2400.59 2195.68 2402.05 2194.67 2403.96 2192.53C2405.06 2191.29 2406.04 2189.93 2406.88 2188.49C2407.83 2187.03 2408.51 2184.45 2406.88 2184.11C2405.25 2183.77 2403.4 2185.63 2402.33 2186.97C2401.34 2188.26 2400.65 2189.76 2400.31 2191.36C2400.12 2192.88 2400.08 2194.43 2400.2 2195.96Z"
        fill="#263238" />
    <path
        d="M2515.46 2190.79C2515.46 2190.79 2512.43 2190.46 2507.6 2190.79C2501.33 2191.39 2495.36 2193.72 2490.35 2197.53C2485.31 2201.39 2481.42 2206.56 2479.12 2212.48C2477.43 2217.03 2477.21 2220.12 2476.98 2220.06C2476.86 2219.35 2476.86 2218.63 2476.98 2217.93C2477.18 2216.01 2477.59 2214.13 2478.22 2212.31C2480.28 2206.06 2484.2 2200.6 2489.45 2196.64C2494.65 2192.67 2500.91 2190.35 2507.43 2189.95C2509.31 2189.86 2511.19 2189.95 2513.05 2190.23C2513.88 2190.27 2514.7 2190.46 2515.46 2190.79Z"
        fill="#263238" />
    <path
        d="M2463.84 2210.23C2458.73 2211.32 2453.5 2211.76 2448.28 2211.52C2443.05 2211.69 2437.82 2211.18 2432.72 2210C2432.72 2209.61 2439.69 2210 2448.28 2210C2456.87 2210 2463.78 2209.84 2463.84 2210.23Z"
        fill="#263238" />
    <path
        d="M2484.68 2210.57C2484.68 2210.85 2484.06 2212.03 2483.33 2213.6C2482.6 2215.17 2482.21 2216.58 2481.82 2216.58C2481.42 2216.58 2481.31 2214.89 2482.15 2213.04C2483 2211.18 2484.46 2210.29 2484.68 2210.57Z"
        fill="#263238" />
    <path
        d="M2492.71 2200.91C2492.71 2201.19 2492.26 2202.25 2491.14 2203.38C2490.02 2204.5 2488.89 2205.12 2488.67 2204.89C2488.44 2204.67 2489.12 2203.55 2490.24 2202.42C2491.36 2201.3 2492.43 2200.68 2492.71 2200.91Z"
        fill="#263238" />
    <path
        d="M2504 2196.64C2504 2197.03 2502.54 2196.97 2500.97 2197.48C2499.4 2197.98 2498.27 2198.83 2497.99 2198.6C2497.71 2198.38 2498.61 2196.86 2500.58 2196.24C2502.54 2195.63 2504.17 2196.3 2504 2196.64Z"
        fill="#263238" />
    <path
        d="M2512.09 2194.5C2512.09 2194.84 2511.59 2195.4 2510.69 2195.68C2509.79 2195.96 2509 2196.02 2508.83 2195.68C2508.67 2195.34 2509.34 2194.84 2510.24 2194.5C2511.14 2194.16 2511.7 2194.5 2512.09 2194.5Z"
        fill="#263238" />
    <path
        d="M2652.13 2211.35L2647.3 2201.07L2743.92 2155.29L2760.21 2189L2754.59 2192.25C2728.75 2206.35 2622.31 2262.13 2602.03 2265.28C2579.11 2268.76 2652.13 2211.35 2652.13 2211.35Z"
        fill="#4EAD60" />
    <g opacity="0.3">
        <path
            d="M2725.16 2205.01C2722.7 2196.22 2723.58 2186.83 2727.63 2178.66C2731.6 2170.6 2738.43 2164.31 2746.79 2161.02L2759.59 2187.87L2725.16 2205.01Z"
            fill="white" />
    </g>
    <path opacity="0.3"
        d="M2617.14 2240.9C2617.14 2240.9 2592.48 2262.81 2598.26 2265.79C2604.05 2268.76 2713.75 2216.46 2760.15 2189.16L2758.97 2187.09L2631.52 2249.21C2631.52 2249.21 2622.87 2238.48 2617.14 2240.9Z"
        fill="white" />
    <path
        d="M2760.44 2186.3C2759.95 2186.69 2759.42 2187.03 2758.86 2187.31L2754.26 2189.84L2737.4 2198.94C2722.91 2206.47 2702.75 2216.69 2680.22 2227.42C2657.69 2238.15 2637.13 2247.47 2622.14 2253.99L2604.1 2261.91L2599.22 2263.88L2597.48 2264.49C2597.99 2264.16 2598.54 2263.88 2599.11 2263.65L2603.88 2261.46L2621.52 2253.48C2636.4 2246.74 2656.91 2237.31 2679.43 2226.58C2701.96 2215.85 2722.13 2205.74 2736.73 2198.49L2754.03 2189.78L2758.75 2187.48C2759.28 2187.05 2759.85 2186.66 2760.44 2186.3Z"
        fill="#263238" />
    <path
        d="M2632.25 2250.67C2630.16 2248.1 2627.74 2245.82 2625.06 2243.88C2622.16 2242.25 2619.09 2240.95 2615.9 2240C2619.41 2239.72 2622.9 2240.72 2625.73 2242.81C2628.84 2244.49 2631.17 2247.31 2632.25 2250.67Z"
        fill="#263238" />
    <path
        d="M2653.76 2222.59C2652.02 2222.21 2650.39 2221.44 2648.99 2220.34C2646.52 2218.82 2644.66 2217.31 2644.89 2217.03C2645.11 2216.75 2647.19 2217.7 2649.66 2219.22C2652.13 2220.73 2653.93 2222.59 2653.76 2222.59Z"
        fill="#263238" />
    <path
        d="M2659.55 2215C2659.55 2215.34 2657.47 2215 2655.11 2214.33C2652.75 2213.66 2650.9 2212.81 2651.01 2212.48C2651.12 2212.14 2653.09 2212.48 2655.5 2213.09C2657.92 2213.71 2659.66 2214.61 2659.55 2215Z"
        fill="#263238" />
    <path
        d="M2660.17 2203.54C2660.17 2203.88 2658.2 2205.23 2655.45 2206.58C2653.84 2207.57 2652.04 2208.22 2650.17 2208.49C2650.17 2208.15 2652.13 2206.8 2654.89 2205.45C2656.49 2204.46 2658.29 2203.81 2660.17 2203.54Z"
        fill="#263238" />
    <path
        d="M2658.82 2196.36C2658.82 2196.36 2657.13 2198.88 2653.99 2200.68C2652.19 2201.95 2650.06 2202.63 2647.86 2202.65C2649.63 2201.44 2651.51 2200.4 2653.48 2199.56C2656.35 2197.87 2658.54 2196.07 2658.82 2196.36Z"
        fill="#263238" />
    <path
        d="M2646.52 2215.96C2644.65 2217.3 2642.56 2218.29 2640.34 2218.88C2637.96 2219.66 2635.51 2220.23 2633.03 2220.57C2631.54 2220.77 2630.03 2220.77 2628.54 2220.57C2627.61 2220.51 2626.74 2220.08 2626.13 2219.39C2625.84 2218.95 2625.68 2218.45 2625.68 2217.93C2625.68 2217.41 2625.84 2216.9 2626.13 2216.47C2627.95 2214.2 2630.49 2212.63 2633.34 2212.02C2636.18 2211.4 2639.15 2211.78 2641.74 2213.1C2643.26 2213.87 2644.6 2214.96 2645.67 2216.3C2646.46 2217.2 2646.74 2217.81 2646.63 2217.87C2645.12 2216.26 2643.33 2214.92 2641.35 2213.94C2639.18 2212.98 2636.78 2212.67 2634.44 2213.04C2633.04 2213.2 2631.7 2213.63 2630.47 2214.32C2629.25 2215 2628.17 2215.92 2627.3 2217.03C2626.69 2218.26 2627.59 2219.22 2628.99 2219.33C2630.39 2219.47 2631.8 2219.47 2633.2 2219.33C2635.61 2219.05 2637.99 2218.6 2640.34 2217.98C2644.04 2216.97 2646.52 2215.79 2646.52 2215.96Z"
        fill="#263238" />
    <path
        d="M2645.05 2216.97C2645.05 2216.97 2643.31 2215.96 2642.3 2213.04C2641.71 2211.33 2641.55 2209.49 2641.85 2207.7C2641.91 2206.53 2642.27 2205.4 2642.9 2204.41C2643.53 2203.43 2644.41 2202.62 2645.45 2202.08C2646.13 2201.91 2646.86 2202.02 2647.47 2202.37C2648.08 2202.73 2648.52 2203.31 2648.71 2203.99C2649.07 2205.04 2649.16 2206.16 2648.99 2207.25C2648.84 2209.02 2648.46 2210.75 2647.86 2212.42C2647.46 2213.99 2646.64 2215.42 2645.5 2216.58C2645.5 2216.58 2646.23 2214.89 2646.96 2212.14C2647.42 2210.53 2647.7 2208.87 2647.81 2207.2C2647.81 2205.46 2647.47 2202.87 2645.79 2203.32C2644.1 2203.77 2643.37 2206.19 2642.98 2207.87C2642.63 2209.46 2642.63 2211.11 2642.98 2212.7C2643.51 2214.2 2644.2 2215.63 2645.05 2216.97Z"
        fill="#263238" />
    <path
        d="M2745.94 2160.8C2745.94 2160.8 2743.08 2161.86 2738.98 2164.45C2733.63 2167.8 2729.32 2172.56 2726.51 2178.21C2723.82 2183.92 2722.73 2190.25 2723.36 2196.52C2723.87 2201.3 2725.05 2204.16 2724.82 2204.22C2724.38 2203.65 2724.06 2203 2723.87 2202.31C2723.24 2200.48 2722.77 2198.6 2722.46 2196.69C2721.32 2189.23 2722.83 2181.6 2726.73 2175.14C2730.63 2168.67 2736.68 2163.78 2743.81 2161.3C2744.49 2161.03 2745.21 2160.86 2745.94 2160.8Z"
        fill="#263238" />
    <path
        d="M2708.31 2201.41C2704.23 2204.69 2699.73 2207.41 2694.94 2209.5C2690.36 2212.02 2685.47 2213.91 2680.39 2215.12C2680.39 2214.78 2686.68 2212.2 2694.38 2208.38C2702.07 2204.56 2708.31 2201.07 2708.31 2201.41Z"
        fill="#263238" />
    <path
        d="M2727.18 2192.42C2727.52 2192.42 2727.18 2194 2727.18 2195.74C2727.18 2197.48 2727.52 2198.94 2727.18 2199.05C2726.84 2199.16 2726 2197.76 2725.94 2195.74C2725.89 2193.72 2726.84 2192.25 2727.18 2192.42Z"
        fill="#263238" />
    <path
        d="M2730.05 2180.18C2730.38 2180.18 2730.05 2181.58 2730.05 2183.1C2730.05 2184.61 2728.81 2185.68 2728.47 2185.57C2728.14 2185.46 2728.47 2184.16 2728.81 2182.65C2729.15 2181.13 2729.71 2180.06 2730.05 2180.18Z"
        fill="#263238" />
    <path
        d="M2738.3 2171.3C2738.3 2171.7 2737.12 2172.26 2735.94 2173.44C2734.76 2174.62 2734.09 2175.85 2733.75 2175.74C2733.42 2175.63 2733.75 2173.94 2735.05 2172.54C2736.34 2171.13 2738.25 2170.97 2738.3 2171.3Z"
        fill="#263238" />
    <path
        d="M2744.59 2165.97C2744.59 2165.97 2744.59 2166.98 2743.92 2167.65C2743.25 2168.33 2742.52 2168.72 2742.29 2168.44C2742.07 2168.16 2742.29 2167.48 2742.97 2166.75C2743.64 2166.02 2744.37 2165.74 2744.59 2165.97Z"
        fill="#263238" />
    <path
        d="M2617.31 1151.87C2572.37 1074.35 2561.13 1083.39 2576.3 1038.23L2620.11 891.278L2601.58 799.153C2591.37 789.213 2579.18 781.543 2565.8 776.645C2552.42 771.746 2538.16 769.73 2523.94 770.729L2432.49 777.021C2432.49 777.021 2387.56 767.19 2321.16 831.565L2275.43 874.426L2333.24 984.132L2336.16 1033.9L2377.84 1170.01L2366.6 1230.06C2361.77 1275.73 2300.37 1799.49 2308.69 1807.8C2317 1816.12 2445.41 1752.36 2476.42 1778.54C2507.43 1804.71 2569.84 1820.78 2605.06 1809.49C2640.28 1798.2 2693.08 1728.15 2746.39 1775.39C2746.5 1775.39 2729.09 1310.67 2617.31 1151.87Z"
        fill="#263238" />
    <path
        d="M2566.97 777.076C2566.97 777.076 2662.47 802.41 2648.15 870.436C2641.24 904.141 2595.57 973.683 2595.57 973.683L2487.6 922.622L2566.97 777.076Z"
        fill="#263238" />
    <path
        d="M2372.67 1197.93C2391.5 1181.65 2415.76 1173.03 2440.64 1173.77C2453.26 1174.23 2465.55 1177.88 2476.37 1184.39C2488.91 1191.91 2498.75 1203.22 2504.45 1216.69C2507.46 1224 2508.81 1231.88 2508.38 1239.78C2507.78 1247.99 2505.39 1255.96 2501.36 1263.14C2493.67 1277.92 2481.53 1290.22 2473.28 1305.27C2465.02 1320.33 2464.51 1337.57 2465.69 1353.64C2466.87 1369.71 2469.23 1385.83 2465.69 1400.88C2464.18 1408.2 2461.41 1415.19 2457.49 1421.55C2453.89 1427.73 2448.67 1432.81 2442.38 1436.22C2436.41 1439.33 2429.61 1440.48 2422.95 1439.53C2416.95 1438.54 2411.22 1436.34 2406.09 1433.07C2397.59 1427.28 2389.81 1420.52 2382.89 1412.9C2377.4 1407.54 2371.62 1402.48 2365.59 1397.74C2361.79 1394.71 2357.77 1391.97 2353.57 1389.53C2350.71 1387.85 2349.08 1387.12 2349.13 1387.01C2349.19 1386.89 2349.58 1387.01 2350.37 1387.4C2351.16 1387.79 2352.39 1388.24 2353.85 1388.97C2358.19 1391.24 2362.34 1393.85 2366.27 1396.78C2372.45 1401.44 2378.37 1406.43 2384.02 1411.72C2390.96 1419.12 2398.73 1425.69 2407.16 1431.33C2412.1 1434.38 2417.6 1436.4 2423.34 1437.28C2429.52 1438.11 2435.8 1436.99 2441.31 1434.08C2447.18 1430.83 2452.04 1426.03 2455.36 1420.21C2459.07 1414.08 2461.7 1407.35 2463.11 1400.32C2466.54 1385.88 2464.06 1370.1 2463.11 1353.86C2462.35 1345.49 2462.35 1337.07 2463.11 1328.7C2464.05 1320 2466.68 1311.56 2470.86 1303.87C2479.23 1288.31 2491.31 1276.12 2498.95 1261.85C2502.84 1254.95 2505.16 1247.28 2505.74 1239.38C2506.17 1231.9 2504.92 1224.42 2502.09 1217.48C2496.73 1204.5 2487.39 1193.57 2475.41 1186.24C2464.99 1179.82 2453.1 1176.16 2440.86 1175.63C2423.04 1174.51 2405.27 1178.57 2389.69 1187.31C2385.42 1189.62 2381.28 1192.15 2377.28 1194.89L2374.13 1197.08C2373.12 1197.76 2372.73 1197.98 2372.67 1197.93Z"
        fill="#FAFAFA" />
    <path
        d="M2735.27 1633.5L2733.81 1633.89L2729.43 1634.62C2725.55 1635.24 2719.88 1636.14 2712.58 1637.09C2691.83 1640.24 2670.86 1641.66 2649.89 1641.36C2635.36 1641.13 2620.9 1639.25 2606.8 1635.74C2590.52 1631.71 2575.08 1624.85 2561.19 1615.47C2545.64 1605.13 2533.28 1590.65 2525.52 1573.67C2517.3 1555.24 2515.61 1534.55 2520.74 1515.03C2523.57 1505.19 2528.53 1496.09 2535.29 1488.4C2542.03 1481.33 2549.33 1474.83 2557.14 1468.97C2564.55 1463.42 2571.31 1457.07 2577.31 1450.03C2582.72 1443.1 2586.46 1435.01 2588.21 1426.39C2591.8 1409.53 2590.12 1392.68 2590.9 1377.07C2590.85 1362.38 2594.52 1347.93 2601.58 1335.05C2607.57 1324.56 2615.73 1315.46 2625.51 1308.37C2632.82 1302.97 2640.96 1298.8 2649.6 1296.01C2655.07 1294.23 2660.73 1293.1 2666.46 1292.64H2670.89H2672.41C2664.76 1293.22 2657.21 1294.75 2649.94 1297.19C2641.5 1300.11 2633.57 1304.36 2626.46 1309.77C2615.94 1317.54 2607.42 1327.71 2601.61 1339.43C2595.81 1351.16 2592.89 1364.1 2593.09 1377.18C2592.42 1392.63 2594.27 1409.48 2590.62 1427C2588.88 1436.03 2585.03 1444.52 2579.39 1451.78C2573.29 1459.03 2566.4 1465.57 2558.83 1471.27C2551.14 1477.04 2543.94 1483.45 2537.31 1490.42C2530.89 1497.79 2526.15 1506.48 2523.44 1515.87C2518.49 1534.74 2520.11 1554.73 2528.05 1572.55C2535.53 1589.12 2547.52 1603.25 2562.65 1613.33C2576.25 1622.59 2591.36 1629.39 2607.31 1633.44C2621.21 1637.06 2635.47 1639.11 2649.83 1639.56C2670.7 1640 2691.58 1638.9 2712.29 1636.25L2729.15 1634.34L2733.53 1633.83L2735.27 1633.5Z"
        fill="#FAFAFA" />
    <path
        d="M2467.49 1773.93C2468.09 1773.39 2468.75 1772.92 2469.46 1772.53C2471.49 1771.51 2473.38 1770.22 2475.07 1768.71C2477.04 1766.74 2476.25 1763.09 2475.07 1759.1C2473.4 1754.71 2471.33 1750.48 2468.9 1746.46C2463.78 1737.19 2457.66 1726.18 2450.36 1714.39C2442.49 1701.56 2433.06 1689.77 2422.27 1679.28C2411.52 1668.81 2398.62 1660.8 2384.47 1655.8C2372.94 1651.73 2360.6 1650.55 2348.52 1652.37C2340.38 1653.77 2332.68 1657.06 2326.05 1661.98C2321.38 1665.52 2319.19 1667.99 2318.97 1667.59C2319.37 1666.89 2319.86 1666.25 2320.43 1665.68C2321.96 1663.97 2323.61 1662.38 2325.37 1660.91C2331.93 1655.47 2339.76 1651.78 2348.12 1650.18C2360.56 1647.98 2373.36 1648.96 2385.31 1653.04C2399.91 1658.04 2413.23 1666.21 2424.29 1676.97C2435.27 1687.63 2444.81 1699.68 2452.66 1712.81C2460.02 1724.72 2465.81 1735.96 2470.75 1745.28C2473.03 1749.48 2474.91 1753.88 2476.37 1758.43C2476.97 1760.36 2477.35 1762.36 2477.49 1764.38C2477.56 1765.28 2477.44 1766.19 2477.14 1767.04C2476.84 1767.89 2476.37 1768.67 2475.75 1769.32C2473.97 1770.82 2471.96 1772.02 2469.79 1772.86C2468.33 1773.71 2467.55 1774.04 2467.49 1773.93Z"
        fill="#FAFAFA" />
    <path
        d="M2590.34 1113.5C2590.34 1113.5 2589.67 1114.85 2587.65 1116.42C2584.7 1118.6 2581.3 1120.1 2577.7 1120.8C2572.33 1121.85 2566.77 1121.38 2561.64 1119.45C2555.38 1116.98 2549.99 1112.72 2546.13 1107.21C2539.39 1097.2 2536.48 1085.09 2537.93 1073.11C2538.11 1068.22 2539.18 1063.41 2541.08 1058.9C2541.58 1058.9 2540.35 1064.52 2540.01 1073.22C2539.21 1084.61 2542.19 1095.95 2548.49 1105.47C2552.06 1110.44 2556.95 1114.33 2562.59 1116.7C2567.28 1118.58 2572.36 1119.22 2577.37 1118.55C2581.99 1117.76 2586.4 1116.04 2590.34 1113.5Z"
        fill="#FAFAFA" />
    <path
        d="M2598.49 951.944C2598.49 951.944 2597.76 951.944 2596.3 952.45C2594.17 952.642 2592.02 952.642 2589.89 952.45C2581.95 951.844 2574.35 948.978 2567.99 944.192C2563.55 940.899 2559.85 936.707 2557.14 931.89C2554.04 926.309 2552.31 920.071 2552.09 913.69C2551.73 906.627 2553.18 899.59 2556.3 893.243C2559.98 886.788 2564.56 880.887 2569.9 875.717C2572.31 873.088 2574.35 870.139 2575.96 866.954C2577.45 863.965 2578.02 860.603 2577.59 857.292C2575.86 850.872 2573.09 844.781 2569.39 839.26C2566.44 834.014 2565.11 828.008 2565.58 822.006C2566.05 816.004 2568.3 810.278 2572.03 805.556C2574.58 802.467 2577.73 799.936 2581.3 798.119C2584.86 796.302 2588.76 795.239 2592.76 794.995C2594.9 794.852 2597.05 794.984 2599.16 795.389C2599.91 795.459 2600.63 795.668 2601.3 796.007C2601.3 796.344 2598.26 795.501 2592.87 796.007C2589.07 796.46 2585.4 797.667 2582.07 799.558C2578.74 801.448 2575.83 803.984 2573.49 807.017C2570.11 811.446 2568.12 816.781 2567.78 822.342C2567.44 827.904 2568.77 833.441 2571.58 838.249C2575.54 843.995 2578.49 850.38 2580.29 857.123C2580.76 860.968 2580.12 864.869 2578.43 868.358C2576.72 871.794 2574.52 874.971 2571.92 877.795C2566.79 882.813 2562.33 888.478 2558.66 894.647C2555.78 900.571 2554.39 907.108 2554.62 913.69C2554.73 919.288 2556.09 924.79 2558.58 929.801C2561.08 934.813 2564.66 939.21 2569.05 942.675C2575.09 947.376 2582.26 950.399 2589.84 951.439C2595.4 952.113 2598.49 951.663 2598.49 951.944Z"
        fill="#FAFAFA" />
    <path
        d="M2340.71 1005.98C2343.71 1006.35 2346.73 1006.5 2349.75 1006.43C2357.95 1006.02 2365.75 1002.79 2371.83 997.275C2376.17 993.166 2379.33 987.959 2380.96 982.205C2382.59 976.45 2382.64 970.361 2381.1 964.582C2379.29 957.701 2375.36 951.566 2369.86 947.056C2363.49 942.244 2357.92 936.463 2353.35 929.923C2349.62 922.638 2348.3 914.357 2349.58 906.274C2350.43 898.579 2352.22 891.445 2353.4 884.648C2354.75 878.319 2355.15 871.825 2354.58 865.38C2354.05 859.823 2351.92 854.537 2348.46 850.157C2343.35 843.761 2336.04 839.497 2327.96 838.192C2324.95 837.855 2321.93 837.742 2318.91 837.855C2318.91 837.855 2319.64 837.574 2321.22 837.237C2323.49 836.957 2325.79 836.957 2328.07 837.237C2336.66 838.164 2344.56 842.394 2350.09 849.034C2353.92 853.639 2356.32 859.262 2357 865.212C2357.71 871.906 2357.38 878.669 2356.04 885.265C2354.92 892.231 2353.18 899.309 2352.45 906.724C2351.26 914.205 2352.46 921.87 2355.87 928.631C2360.35 934.876 2365.73 940.423 2371.83 945.09C2377.61 950.053 2381.71 956.686 2383.57 964.077C2385.16 970.297 2385.03 976.834 2383.18 982.982C2381.32 989.131 2377.83 994.656 2373.06 998.961C2366.57 1004.61 2358.25 1007.72 2349.64 1007.72C2347.33 1007.76 2345.03 1007.52 2342.79 1006.99C2341.44 1006.38 2340.65 1006.09 2340.71 1005.98Z"
        fill="#FAFAFA" />
    <path
        d="M2479.18 495.255C2488.76 493.345 2498.64 493.507 2508.16 495.731C2517.67 497.954 2526.61 502.187 2534.35 508.145C2542.1 514.104 2548.48 521.65 2553.07 530.278C2557.66 538.906 2560.35 548.416 2560.96 558.169C2561.64 568.898 2560.29 581.312 2567.87 588.952C2573.49 594.569 2581.47 595.468 2588.15 599.12C2594.4 602.732 2599.19 608.414 2601.69 615.184C2604.2 621.954 2604.25 629.386 2601.86 636.194C2599.27 642.879 2594.33 648.552 2591.8 655.293C2588.1 665.236 2585.01 676.639 2588.04 686.806C2603.66 740.171 2565.57 746.687 2545.68 750.282C2517.26 755.282 2488.44 746.238 2485.52 716.578C2484.57 706.973 2467.43 708.04 2457.89 709.276C2446.65 710.792 2437.83 720.51 2429.41 728.318C2416.64 741.314 2400.49 750.462 2382.78 754.72C2373.94 756.75 2364.73 756.572 2355.97 754.201C2347.21 751.83 2339.17 747.34 2332.56 741.126C2319.98 728.15 2316.89 705.849 2327.96 691.581C2321.2 688.503 2315.23 683.935 2310.49 678.221C2305.75 672.507 2302.36 665.794 2300.58 658.585C2298.81 651.377 2298.68 643.859 2300.22 636.596C2301.76 629.333 2304.92 622.513 2309.47 616.646C2316.38 607.714 2326.33 601.086 2331.33 590.918C2335.48 582.38 2339.98 562.831 2343.24 553.787C2347.84 541.036 2363.57 519.185 2375.76 513.23"
        fill="#455A64" />
    <path
        d="M2529.68 786.682L2424.18 788.198C2422.38 776.009 2418.84 728.655 2418.84 728.655C2418.84 728.655 2374.64 725.958 2369.97 682.48C2365.31 639.002 2363.46 538.226 2363.46 538.226C2387.21 525.266 2413.99 518.876 2441.04 519.716C2468.08 520.555 2494.41 528.593 2517.32 543.001L2524.23 547.327L2529.68 786.682Z"
        fill="#D89377" />
    <path
        d="M2415.31 654.113C2412.11 653.134 2408.76 652.735 2405.42 652.934C2403.85 652.934 2402.55 652.934 2402.39 651.866C2402.17 650.298 2402.4 648.701 2403.06 647.26L2406.65 634.621C2411.6 616.645 2414.86 601.872 2413.9 601.647C2412.95 601.422 2408.28 615.747 2403.34 633.722C2402.22 638.104 2401.09 642.317 2400.03 646.417C2399.29 648.565 2399.29 650.898 2400.03 653.046C2400.31 653.62 2400.72 654.121 2401.22 654.511C2401.73 654.9 2402.32 655.168 2402.95 655.293C2403.84 655.401 2404.75 655.401 2405.64 655.293C2408.91 655.408 2412.17 655.01 2415.31 654.113Z"
        fill="#263238" />
    <path
        d="M2418.68 728.038C2438.82 726.496 2458.06 719.008 2473.95 706.523C2473.95 706.523 2463.5 739.16 2419.63 739.329L2418.68 728.038Z"
        fill="#BF7A62" />
    <path
        d="M2448.11 608.613C2448.11 610.103 2447.52 611.531 2446.47 612.585C2445.41 613.638 2443.98 614.23 2442.49 614.23C2441.79 614.276 2441.08 614.179 2440.41 613.944C2439.74 613.71 2439.12 613.343 2438.6 612.866C2438.08 612.389 2437.65 611.812 2437.36 611.168C2437.06 610.524 2436.9 609.827 2436.88 609.119C2436.88 607.629 2437.47 606.2 2438.52 605.146C2439.57 604.093 2441 603.501 2442.49 603.501C2443.2 603.456 2443.91 603.553 2444.58 603.787C2445.25 604.022 2445.86 604.388 2446.39 604.865C2446.91 605.342 2447.33 605.92 2447.63 606.564C2447.93 607.208 2448.09 607.904 2448.11 608.613Z"
        fill="#263238" />
    <path
        d="M2457.15 602.657C2456.48 603.331 2452.38 600.185 2446.43 600.073C2440.47 599.961 2436.09 602.826 2435.19 602.095C2434.29 601.365 2435.64 600.466 2437.55 599.118C2440.16 597.399 2443.24 596.517 2446.37 596.59C2449.46 596.639 2452.46 597.683 2454.91 599.567C2456.93 601.028 2457.49 602.32 2457.15 602.657Z"
        fill="#263238" />
    <path
        d="M2387.27 608.444C2387.27 609.934 2386.68 611.363 2385.63 612.416C2384.58 613.47 2383.15 614.062 2381.66 614.062C2380.95 614.115 2380.25 614.025 2379.58 613.797C2378.91 613.569 2378.29 613.208 2377.77 612.736C2377.24 612.263 2376.82 611.689 2376.52 611.048C2376.22 610.407 2376.06 609.712 2376.04 609.006C2376.04 607.516 2376.63 606.087 2377.69 605.034C2378.74 603.981 2380.17 603.389 2381.66 603.389C2383.05 603.382 2384.4 603.896 2385.44 604.831C2386.48 605.766 2387.14 607.054 2387.27 608.444Z"
        fill="#263238" />
    <path
        d="M2395.14 603.556C2394.47 604.23 2390.36 601.084 2384.41 600.972C2378.46 600.86 2374.07 603.724 2373.18 602.994C2372.28 602.264 2373.62 601.365 2375.53 600.017C2378.16 598.317 2381.23 597.455 2384.35 597.545C2387.44 597.578 2390.43 598.602 2392.89 600.466C2394.91 601.927 2395.53 603.219 2395.14 603.556Z"
        fill="#263238" />
    <path
        d="M2425.3 669.392C2424.71 668.006 2424.38 666.518 2424.35 665.01C2424.36 664.248 2424.58 663.505 2425 662.867C2425.42 662.23 2426.01 661.726 2426.71 661.415C2427.72 661.078 2428.96 661.415 2429.85 660.685C2430.75 659.955 2431.09 658.101 2431.82 656.753C2432.36 655.894 2433.15 655.226 2434.09 654.843C2435.03 654.46 2436.06 654.381 2437.04 654.618C2438.99 655.177 2440.74 656.266 2442.1 657.764C2443.87 659.322 2444.99 661.486 2445.25 663.831C2445.18 664.956 2444.85 666.05 2444.28 667.025C2443.72 668 2442.93 668.83 2441.99 669.448C2440.04 670.698 2437.83 671.468 2435.53 671.695C2433.08 672.07 2430.59 672.164 2428.11 671.976C2427.4 671.96 2426.69 671.807 2426.03 671.526C2425.71 671.37 2425.44 671.121 2425.26 670.811C2425.08 670.5 2425 670.143 2425.02 669.785"
        fill="#BF7A62" />
    <path
        d="M2420.98 670.29C2425.87 669.7 2430.53 667.832 2434.47 664.874C2438.42 661.916 2441.51 657.971 2443.45 653.438"
        fill="#BF7A62" />
    <path
        d="M2443.62 653.438C2442.51 658.473 2439.64 662.944 2435.51 666.037C2431.39 669.129 2426.29 670.639 2421.15 670.29C2425.53 668.403 2429.77 666.206 2433.84 663.718C2440.02 659.112 2442.83 653.045 2443.62 653.438Z"
        fill="#263238" />
    <path d="M2373.62 587.491C2378.7 585.093 2384.43 584.441 2389.92 585.637L2373.62 587.491Z" fill="#BF7A62" />
    <path
        d="M2389.92 585.637C2389.47 587.266 2385.93 587.659 2381.94 588.109C2377.95 588.558 2374.41 588.895 2373.63 587.491C2372.84 586.087 2376.04 582.885 2381.32 582.323C2386.6 581.761 2390.36 584.121 2389.92 585.637Z"
        fill="#263238" />
    <path d="M2434.8 587.94C2442.36 585.404 2450.6 585.867 2457.83 589.232L2434.8 587.94Z" fill="#BF7A62" />
    <path
        d="M2457.83 589.176C2457.04 590.636 2452.21 589.513 2446.26 589.176C2440.3 588.839 2435.42 589.176 2435.02 587.827C2434.63 586.479 2439.52 582.884 2446.82 583.334C2454.12 583.783 2458.62 587.94 2457.83 589.176Z"
        fill="#263238" />
    <path
        d="M2458.95 494.412C2455.83 490.822 2452.01 487.909 2447.72 485.851C2443.43 483.793 2438.76 482.635 2434.01 482.447C2419.69 481.025 2405.24 483.391 2392.12 489.306C2379 495.22 2367.66 504.478 2359.24 516.151C2349.64 529.969 2344.81 549.237 2353.63 563.449C2356.65 568.223 2360.99 572.024 2366.12 574.398C2371.25 576.772 2376.96 577.619 2382.56 576.837C2388.16 576.055 2393.41 573.677 2397.69 569.988C2401.98 566.299 2405.11 561.455 2406.71 556.034C2406.8 559.299 2407.54 562.515 2408.88 565.492C2410.23 568.469 2412.15 571.149 2414.54 573.375C2416.94 575.6 2419.75 577.327 2422.81 578.455C2425.88 579.583 2429.14 580.089 2432.4 579.944C2435.67 579.798 2438.87 579.004 2441.82 577.608C2444.77 576.212 2447.42 574.241 2449.6 571.812C2451.79 569.382 2453.47 566.542 2454.54 563.457C2455.62 560.372 2456.06 557.104 2455.86 553.843C2458.55 562.799 2464.02 570.668 2471.48 576.312C2479.29 581.199 2491.59 580.02 2495.63 571.706C2500.58 577.324 2507.49 583.559 2514.9 581.705C2517.99 580.634 2520.64 578.583 2522.46 575.866C2524.27 573.149 2525.15 569.913 2524.96 566.651C2524.41 560.119 2522.21 553.834 2518.55 548.394C2504.17 523.341 2482.94 500.31 2455.02 492.726"
        fill="#455A64" />
    <path
        d="M2492.43 553.843C2498.93 565.414 2502.39 578.44 2502.5 591.709C2502.61 604.978 2499.36 618.059 2493.05 629.734C2488.35 636.687 2484.35 644.08 2481.09 651.81C2479.53 655.7 2479.18 659.97 2480.09 664.06C2481.01 668.15 2483.13 671.869 2486.2 674.729C2490.3 677.818 2496.59 679.391 2497.43 684.391C2497.62 686.955 2497.1 689.521 2495.91 691.806C2492.05 701.922 2491.57 713.022 2494.57 723.431C2496.59 730.284 2496.93 738.767 2513.27 745.901C2521.36 749.552 2525.8 755.731 2543.38 751.237C2574.16 743.317 2563.27 674.504 2560.23 642.878C2557.2 611.253 2542.6 554.798 2524.84 528.453"
        fill="#455A64" />
    <path
        d="M2422.22 769.604C2422.22 769.604 2390.31 888.748 2410.64 876.952C2430.98 865.156 2529.68 786.681 2529.68 786.681L2479.79 749.045L2422.22 769.604Z"
        fill="#D89377" />
    <path
        d="M2121.74 974.806C2118.2 963.122 2074.05 939.08 2080.74 932.62C2089.44 924.138 2125.68 959.808 2128.99 962.561C2132.3 965.313 2136.29 960.595 2133.2 958.235C2128.71 954.865 2082.65 918.184 2091.3 909.814C2096.02 905.151 2103.43 914.588 2103.43 914.588C2103.43 914.588 2143.88 952.168 2147.75 948.292C2151.63 944.417 2128.65 921.273 2120.34 914.139C2112.03 907.005 2112.08 900.208 2118.09 899.085C2122.25 898.298 2148.14 919.588 2156.18 927.171C2164.21 934.755 2185.95 954.752 2183.2 935.822C2183.2 935.541 2183.2 935.26 2183.2 934.923C2179.94 916.386 2183.59 901.219 2187.63 897.287C2188.6 896.54 2189.75 896.08 2190.97 895.957C2192.18 895.834 2193.41 896.055 2194.5 896.593C2195.59 897.132 2196.52 897.967 2197.16 899.003C2197.8 900.039 2198.14 901.235 2198.14 902.455C2198.33 903.362 2198.33 904.3 2198.14 905.207C2198.14 905.601 2198.14 906.162 2198.14 906.612C2197.87 913.06 2198.29 919.518 2199.38 925.879C2200.19 931.607 2201.98 937.153 2204.66 942.282C2207.8 947.899 2210.72 953.18 2213.25 957.28C2242.8 973.683 2327.73 1016.94 2412.89 1023.73C2428.23 1024.97 2496.2 917.734 2496.2 917.734L2597.31 965.482C2573.75 1009.79 2546.84 1052.23 2516.81 1092.43C2430.98 1207.7 2164.55 1014.86 2164.55 1014.86L2162.08 1013.62C2141.86 1003.63 2122.2 992.527 2103.21 980.368C2080.29 964.19 2081.64 962.055 2083.94 959.64C2090.06 953.067 2125.28 986.434 2121.74 974.806Z"
        fill="#D89377" />
    <path
        d="M588.376 2209.5L587.87 2163.44L501.476 2163.89V2231.3L507.093 2231.63C530.91 2232.81 628.371 2236.02 644.269 2231.13C661.851 2225.62 588.376 2209.5 588.376 2209.5Z"
        fill="#455A64" />
    <path
        d="M500.352 2229.33H501.812H506.081L521.81 2229.95C535.067 2230.34 553.379 2230.68 573.602 2230.62C593.824 2230.57 612.193 2230.06 625.45 2229.55L641.122 2228.82L645.391 2228.54H646.852C646.367 2228.48 645.876 2228.48 645.391 2228.54H641.122L625.394 2228.88C612.137 2229.22 593.824 2229.61 573.602 2229.67C553.379 2229.72 535.067 2229.67 521.81 2229.33L506.081 2229.05H500.464L500.352 2229.33Z"
        fill="#263238" />
    <path
        d="M616.688 2231.18C617.344 2228.57 618.305 2226.05 619.552 2223.66C621.191 2221.45 623.075 2219.43 625.17 2217.65C622.444 2218.64 620.209 2220.66 618.935 2223.26C617.21 2225.52 616.407 2228.35 616.688 2231.18Z"
        fill="#263238" />
    <path
        d="M591.128 2218.38C591.409 2218.38 592.589 2217.03 593.824 2215.06C594.73 2213.93 595.365 2212.6 595.678 2211.19C595.678 2211.19 594.218 2212.48 592.982 2214.5C591.746 2216.52 590.903 2218.21 591.128 2218.38Z"
        fill="#263238" />
    <path
        d="M584.106 2214.72C584.106 2214.72 585.679 2213.99 587.14 2212.65C588.6 2211.3 589.668 2210.06 589.499 2209.84C589.33 2209.61 587.926 2210.51 586.466 2211.86C585.005 2213.21 583.938 2214.5 584.106 2214.72Z"
        fill="#263238" />
    <path
        d="M579.669 2206.58C581.113 2207.07 582.642 2207.26 584.163 2207.14C585.698 2207.31 587.251 2207.13 588.713 2206.64C587.259 2206.1 585.703 2205.91 584.163 2206.07C582.646 2205.91 581.112 2206.09 579.669 2206.58Z"
        fill="#263238" />
    <path
        d="M578.152 2200.85C579.637 2201.82 581.381 2202.31 583.152 2202.25C584.922 2202.53 586.733 2202.29 588.376 2201.58C586.692 2201.26 584.975 2201.15 583.264 2201.24C581.578 2200.94 579.865 2200.81 578.152 2200.85Z"
        fill="#263238" />
    <path
        d="M594.049 2210.79C595.902 2211.18 597.813 2211.18 599.666 2210.79C601.689 2210.56 603.683 2210.13 605.621 2209.5C606.792 2209.16 607.922 2208.69 608.991 2208.1C609.626 2207.69 610.101 2207.07 610.339 2206.35C610.425 2205.94 610.392 2205.51 610.243 2205.11C610.094 2204.71 609.835 2204.36 609.497 2204.11C607.369 2203.09 604.958 2202.84 602.668 2203.4C600.377 2203.95 598.346 2205.27 596.914 2207.14C596.061 2208.26 595.449 2209.54 595.116 2210.91C594.982 2211.38 594.982 2211.89 595.116 2212.37C595.631 2210.65 596.47 2209.05 597.588 2207.65C598.829 2206.18 600.468 2205.11 602.306 2204.56C603.381 2204.17 604.522 2204.01 605.661 2204.08C606.8 2204.15 607.913 2204.44 608.935 2204.95C609.834 2205.62 609.497 2206.64 608.485 2207.2C607.521 2207.78 606.482 2208.24 605.396 2208.55C603.577 2209.23 601.696 2209.74 599.779 2210.06C596.183 2210.62 594.049 2210.62 594.049 2210.79Z"
        fill="#263238" />
    <path
        d="M595.454 2211.35C596.152 2210.21 596.374 2208.84 596.072 2207.53C595.926 2206.08 595.403 2204.68 594.555 2203.49C594.085 2202.67 593.416 2201.99 592.611 2201.5C591.806 2201.01 590.891 2200.73 589.949 2200.68C589.392 2200.8 588.902 2201.13 588.579 2201.6C588.256 2202.07 588.123 2202.65 588.207 2203.21C588.343 2204.09 588.669 2204.94 589.162 2205.68C589.902 2206.91 590.788 2208.04 591.803 2209.05C592.67 2210.05 593.769 2210.82 595.004 2211.3C595.004 2211.3 593.881 2210.29 592.364 2208.55C591.455 2207.53 590.663 2206.42 590.005 2205.23C589.275 2204.05 588.713 2201.97 590.005 2201.69C591.297 2201.41 592.814 2202.93 593.656 2204.05C594.447 2205.12 594.985 2206.34 595.229 2207.65C595.438 2208.87 595.513 2210.11 595.454 2211.35Z"
        fill="#263238" />
    <path
        d="M501.98 2205.74C501.98 2205.74 504.452 2205.74 508.384 2205.74C513.434 2206.31 518.219 2208.3 522.193 2211.47C526.166 2214.64 529.168 2218.86 530.854 2223.66C532.202 2227.36 532.314 2229.84 532.539 2229.78C532.629 2229.2 532.629 2228.61 532.539 2228.04C532.412 2226.47 532.091 2224.92 531.584 2223.43C530.016 2218.36 526.963 2213.88 522.821 2210.57C518.627 2207.31 513.568 2205.36 508.272 2204.95C506.704 2204.77 505.121 2204.77 503.553 2204.95C502.993 2205.13 502.463 2205.4 501.98 2205.74Z"
        fill="#263238" />
    <path
        d="M510.801 2169.73C510.216 2175.63 509.991 2181.56 510.126 2187.48C509.856 2193.4 509.988 2199.33 510.52 2205.23C511.065 2199.33 511.272 2193.41 511.138 2187.48C511.374 2181.56 511.261 2175.64 510.801 2169.73Z"
        fill="#263238" />
    <path
        d="M543.718 2222.03C547.85 2222.92 552.074 2223.31 556.301 2223.21C560.542 2223.41 564.792 2223.05 568.94 2222.14C568.94 2221.8 563.322 2222.14 556.301 2222.14C549.279 2222.14 543.718 2221.69 543.718 2222.03Z"
        fill="#263238" />
    <path
        d="M526.754 2222.03C526.754 2222.03 527.259 2223.26 527.821 2224.56C528.383 2225.85 528.72 2226.97 529.001 2226.97C529.282 2226.97 529.45 2225.57 529.001 2224.11C528.551 2222.65 526.979 2221.86 526.754 2222.03Z"
        fill="#263238" />
    <path
        d="M520.35 2214.16C520.35 2214.16 520.743 2215.23 521.642 2216.13C522.54 2217.03 523.383 2217.59 523.608 2217.42C523.832 2217.25 523.271 2216.3 522.372 2215.4C521.473 2214.5 520.574 2213.94 520.35 2214.16Z"
        fill="#263238" />
    <path
        d="M511.25 2210.57C511.25 2210.85 512.429 2210.85 513.721 2211.3C515.013 2211.75 515.912 2212.37 516.137 2212.2C516.361 2212.03 515.631 2210.79 514.058 2210.29C512.486 2209.78 511.137 2210.29 511.25 2210.57Z"
        fill="#263238" />
    <path
        d="M504.733 2208.88C504.733 2209.16 505.127 2209.61 505.857 2209.89C506.587 2210.17 507.205 2209.89 507.317 2209.89C507.43 2209.89 506.924 2209.16 506.194 2208.88C505.464 2208.6 504.846 2208.6 504.733 2208.88Z"
        fill="#263238" />
    <path
        d="M85.6232 2143.05L110.059 2103.73L37.0332 2057.61L0.745117 2114.62L5.07045 2117.77C24.5065 2131.59 104.835 2186.81 120.844 2191.24C138.819 2196.19 85.6232 2143.05 85.6232 2143.05Z"
        fill="#455A64" />
    <path
        d="M0.745117 2112.26L1.92475 2113.22L5.40752 2115.69L18.2713 2124.68C29.5059 2132.15 44.5043 2142.32 61.581 2153.16C78.6577 2164 94.3301 2173.49 105.789 2180.18L119.383 2188.04L123.147 2190.12C123.99 2190.57 124.439 2190.79 124.495 2190.74L123.259 2189.9L119.608 2187.7L106.183 2179.56C94.948 2172.71 79.2194 2163.1 62.1427 2152.26C45.066 2141.42 29.7306 2131.42 18.7206 2124.17L5.63222 2115.47L2.03713 2113.16L0.745117 2112.26Z"
        fill="#263238" />
    <path
        d="M97.8125 2176.53C99.7909 2174.71 101.956 2173.11 104.272 2171.75C106.76 2170.71 109.362 2169.98 112.024 2169.56C109.232 2168.95 106.312 2169.39 103.823 2170.8C101.161 2171.87 99.0108 2173.92 97.8125 2176.53Z"
        fill="#263238" />
    <path
        d="M83.2079 2151.98C83.2079 2152.26 85.1739 2151.64 87.2523 2150.63C89.3308 2149.62 91.016 2148.61 90.9036 2148.33C89.4534 2148.47 88.0523 2148.93 86.803 2149.68C85.0054 2150.69 83.0955 2151.7 83.2079 2151.98Z"
        fill="#263238" />
    <path
        d="M79.3877 2145.13C79.3877 2145.41 81.0729 2145.13 83.039 2145.13C85.0051 2145.13 86.5779 2144.28 86.5217 2144C86.4655 2143.72 84.8365 2144 82.8705 2144C80.9044 2144 79.3877 2144.84 79.3877 2145.13Z"
        fill="#263238" />
    <path
        d="M79.8936 2135.86C79.8936 2135.86 81.2979 2137.37 83.3763 2138.78C85.4547 2140.18 87.3085 2141.03 87.477 2140.74C87.6455 2140.46 86.0727 2139.23 83.9942 2137.88C82.7857 2136.92 81.3881 2136.23 79.8936 2135.86Z"
        fill="#263238" />
    <path
        d="M81.6914 2130.18C81.6914 2130.18 82.8148 2132.37 85.1741 2134.12C86.4909 2135.3 88.1354 2136.07 89.8927 2136.31C89.8927 2136.03 88.039 2134.96 85.792 2133.27C84.5057 2132.14 83.1349 2131.11 81.6914 2130.18Z"
        fill="#263238" />
    <path
        d="M89.7238 2147.15C91.0791 2148.42 92.6604 2149.43 94.3862 2150.13C96.1916 2150.97 98.0722 2151.65 100.004 2152.15C101.173 2152.51 102.379 2152.73 103.599 2152.82C104.359 2152.85 105.1 2152.59 105.677 2152.09C105.963 2151.79 106.157 2151.41 106.236 2151.01C106.316 2150.6 106.278 2150.18 106.127 2149.79C104.904 2147.78 103.02 2146.25 100.797 2145.47C98.5733 2144.69 96.1486 2144.71 93.9368 2145.52C92.6215 2146 91.4178 2146.75 90.3979 2147.71C89.7238 2148.38 89.443 2148.83 89.4992 2148.89C90.887 2147.74 92.465 2146.85 94.1615 2146.25C95.9927 2145.69 97.9478 2145.69 99.7789 2146.25C100.935 2146.48 102.03 2146.95 102.997 2147.63C103.963 2148.31 104.78 2149.18 105.396 2150.18C105.789 2151.19 104.947 2151.87 103.767 2151.87C102.646 2151.79 101.536 2151.6 100.453 2151.31C98.5382 2150.85 96.6604 2150.25 94.8356 2149.51C91.5776 2148.16 89.78 2147.04 89.7238 2147.15Z"
        fill="#263238" />
    <path
        d="M90.6226 2148.16C90.6226 2148.16 92.0831 2147.49 93.2066 2145.24C93.8613 2143.93 94.1708 2142.48 94.1054 2141.03C94.1411 2140.08 93.9385 2139.14 93.5164 2138.3C93.0942 2137.46 92.466 2136.73 91.6899 2136.19C91.1532 2135.99 90.5583 2136.01 90.0331 2136.24C89.5079 2136.47 89.0943 2136.9 88.8813 2137.43C88.5104 2138.24 88.3371 2139.12 88.3757 2140.01C88.3174 2141.45 88.4497 2142.88 88.7689 2144.28C88.9779 2145.59 89.4982 2146.82 90.2856 2147.88C90.2856 2147.88 89.8362 2146.42 89.4992 2144.11C89.3503 2142.77 89.3503 2141.41 89.4992 2140.07C89.4992 2138.67 90.1732 2136.59 91.4652 2137.15C92.7572 2137.71 93.1504 2139.68 93.319 2141.08C93.3653 2142.4 93.1554 2143.72 92.7011 2144.96C92.1022 2146.08 91.4068 2147.15 90.6226 2148.16Z"
        fill="#263238" />
    <path
        d="M14.957 2093.39C14.957 2093.39 17.1478 2094.51 20.1812 2096.99C24.1628 2100.2 27.1763 2104.46 28.8881 2109.29C30.5384 2114.12 30.8107 2119.31 29.6745 2124.29C28.7757 2128.16 27.5961 2130.3 27.7646 2130.41C28.1261 2129.96 28.4283 2129.47 28.6634 2128.95C29.3995 2127.54 29.9833 2126.05 30.4047 2124.51C31.7665 2119.39 31.5907 2113.98 29.8992 2108.95C28.1171 2103.95 24.9157 2099.58 20.6867 2096.37C19.4052 2095.43 18.0312 2094.62 16.5861 2093.95C16.0788 2093.67 15.5279 2093.48 14.957 2093.39Z"
        fill="#263238" />
    <path
        d="M41.7519 2067.72C38.0673 2072.36 34.6717 2077.21 31.5845 2082.27C28.1918 2087.12 25.1146 2092.19 22.3721 2097.43C26.0341 2092.77 29.4107 2087.9 32.4833 2082.83C35.8337 2077.96 38.9275 2072.91 41.7519 2067.72Z"
        fill="#263238" />
    <path
        d="M41.3027 2129.45C44.2447 2132.5 47.5901 2135.13 51.2454 2137.26C54.7091 2139.72 58.4878 2141.71 62.4801 2143.16C62.4801 2142.88 57.6492 2140.18 51.8071 2136.36C45.9651 2132.54 41.4713 2129.23 41.3027 2129.45Z"
        fill="#263238" />
    <path
        d="M26.9782 2120.41C26.9782 2120.41 26.9782 2121.64 26.5288 2123.05C26.0794 2124.45 25.967 2125.58 26.5288 2125.75C27.0905 2125.91 27.6523 2124.79 27.877 2123.22C28.1017 2121.64 27.259 2120.3 26.9782 2120.41Z"
        fill="#263238" />
    <path
        d="M25.8545 2110.24C25.8545 2110.24 25.8545 2111.31 25.8545 2112.6C25.8545 2113.89 26.5286 2114.79 26.8094 2114.74C27.0903 2114.68 27.1465 2113.61 26.8094 2112.38C26.4724 2111.14 26.1354 2110.24 25.8545 2110.24Z"
        fill="#263238" />
    <path
        d="M20.0693 2102.32C20.0693 2102.6 20.9681 2103.22 21.8107 2104.29C22.6533 2105.36 23.0465 2106.37 23.3274 2106.37C23.6082 2106.37 23.6644 2104.91 22.5971 2103.61C21.5298 2102.32 20.1817 2102.04 20.0693 2102.32Z"
        fill="#263238" />
    <path
        d="M15.5186 2097.43C15.5186 2097.43 15.5186 2098.22 15.9118 2098.84C16.305 2099.46 16.9229 2099.79 17.1476 2099.63C17.3723 2099.46 17.1476 2098.84 16.7544 2098.22C16.3612 2097.6 15.7432 2097.21 15.5186 2097.43Z"
        fill="#263238" />
    <path
        d="M420.08 1249.05C420.08 1249.05 493.106 1735.79 482.658 1759.27C472.209 1782.75 129.944 2158.95 129.944 2158.95L3.94727 2075.42C3.94727 2075.42 302.678 1699.05 300.431 1690.23C298.184 1681.41 187.241 1209.89 187.241 1209.89L420.08 1249.05Z"
        fill="#4EAD60" />
    <path
        d="M145.616 1203.27L141.178 1221.3C128.197 1274.54 136.245 1330.73 163.648 1378.19L362.165 1722.65C376.274 1747.03 386.543 1773.44 392.611 1800.95L482.488 2198.66H620.844C620.844 2206.92 585.061 1871 567.086 1759.44C553.604 1675.18 440.976 1414.14 386.432 1290.78L420.136 1249.22L361.378 1239.55L145.616 1203.27Z"
        fill="#4EAD60" />
    <path
        d="M390.589 1289.72C391.825 1291.46 392.844 1293.35 393.622 1295.33C395.42 1298.93 397.891 1304.21 400.869 1310.78C406.823 1323.87 414.631 1342.18 422.608 1362.63C430.584 1383.08 437.157 1401.95 441.651 1415.55C443.841 1422.4 445.583 1427.96 446.706 1431.84C447.425 1433.81 447.915 1435.87 448.167 1437.96C447.079 1436.21 446.229 1434.32 445.639 1432.34C444.01 1427.96 441.988 1422.62 439.685 1416.33C434.741 1402.85 427.832 1384.26 419.855 1363.81C411.879 1343.36 404.408 1324.99 398.959 1311.68C396.487 1305.5 394.353 1300.45 392.555 1295.9C391.604 1293.94 390.942 1291.86 390.589 1289.72Z"
        fill="#263238" />
    <path
        d="M406.879 1867.01C406.461 1865.75 406.16 1864.45 405.981 1863.14C405.475 1860.27 404.801 1856.56 404.015 1851.9C403.565 1849.43 403.116 1846.73 402.61 1843.81C402.105 1840.89 401.262 1837.69 400.476 1834.26C398.959 1827.47 397.386 1819.66 394.858 1811.18C393.679 1806.91 392.499 1802.47 391.207 1797.86L386.657 1783.54C383.736 1773.65 379.635 1763.37 375.422 1752.42C366.884 1730.74 356.492 1707.48 344.414 1683.32C323.251 1642.56 299.944 1602.94 274.591 1564.63C264.985 1550.14 257.177 1538.29 251.504 1529.8C248.92 1525.87 246.897 1522.72 245.268 1520.31C244.498 1519.23 243.822 1518.08 243.246 1516.88C244.198 1517.82 245.046 1518.85 245.774 1519.97L252.459 1529.13C258.076 1537.16 266.446 1548.85 276.332 1563.51C302.216 1601.56 325.813 1641.12 346.998 1681.98C359.132 1706.08 369.468 1729.61 377.95 1751.41C381.826 1762.64 385.871 1772.81 388.735 1782.81L393.117 1797.19C394.297 1801.91 395.476 1806.34 396.6 1810.67C398.959 1819.21 400.363 1827.07 401.768 1833.93C402.442 1837.37 403.06 1840.57 403.621 1843.53C404.071 1846.51 404.408 1849.15 404.801 1851.68C405.363 1856.34 405.868 1860.1 406.262 1862.91C406.615 1864.25 406.822 1865.63 406.879 1867.01Z"
        fill="#263238" />
    <path
        d="M148.481 2138.83C146.542 2138.41 144.658 2137.77 142.864 2136.92C137.735 2134.91 132.727 2132.61 127.866 2130.02C111.885 2121.3 96.5985 2111.36 82.1403 2100.3C65.2883 2087.6 49.7844 2076.03 38.2127 2068.39C26.6409 2060.75 19.1699 2056.48 19.3946 2056.04C21.3597 2056.63 23.2458 2057.46 25.0119 2058.51C28.5509 2060.19 33.4379 2063 39.3923 2066.65C51.3573 2073.9 66.9735 2085.25 83.9379 2097.94C98.2883 2108.92 113.296 2119.01 128.877 2128.16C140.729 2135.02 148.65 2138.33 148.481 2138.83Z"
        fill="#263238" />
    <path
        d="M620.339 2177.65C618.472 2177.87 616.587 2177.87 614.721 2177.65H599.049L547.538 2177.26L495.97 2177.54H480.298C478.419 2177.63 476.535 2177.52 474.681 2177.2C476.504 2176.66 478.395 2176.37 480.298 2176.36C484.005 2176.08 489.342 2175.69 495.97 2175.4C509.115 2174.73 527.428 2174.17 547.594 2174.22C567.76 2174.28 586.016 2174.79 599.217 2175.52C605.79 2175.85 611.126 2176.19 614.834 2176.53C616.712 2176.64 618.565 2177.02 620.339 2177.65Z"
        fill="#263238" />
    <path
        d="M236.673 706.412C224.508 708.061 212.127 706.108 201.06 700.795C195.58 698.117 190.939 693.989 187.642 688.859C184.344 683.729 182.515 677.793 182.354 671.697C182.354 664.563 185.668 657.541 184.488 650.519C183.309 643.498 178.085 637.88 174.714 631.589C170.709 623.556 169.573 614.396 171.494 605.628C173.415 596.861 178.278 589.014 185.275 583.392C192.634 577.775 202.127 574.854 208.193 567.944C215.496 559.799 216.676 548.003 221.113 538.004C224.409 530.802 229.42 524.517 235.707 519.699C241.994 514.881 249.365 511.677 257.177 510.367C265.827 509.018 274.815 509.973 283.073 507.221C289.893 504.274 296.326 500.5 302.228 495.986C321.771 483.353 345.492 478.895 368.288 483.572C378.276 485.336 387.553 489.916 395.026 496.773C403.059 504.749 413.395 513.625 416.316 524.298C419.743 537.218 415.53 553.395 412.103 566.259C408.677 579.123 398.285 590.919 385.028 592.492"
        fill="#263238" />
    <path
        d="M233.921 805.782L339.415 807.242C341.212 795.109 345.032 747.698 345.032 747.698C345.032 747.698 389.241 745.058 393.847 701.524C398.453 657.989 400.363 557.326 400.363 557.326C376.609 544.338 349.816 537.933 322.756 538.772C295.696 539.612 269.351 547.666 246.448 562.101L239.538 566.483L233.921 805.782Z"
        fill="#FFBE9D" />
    <path
        d="M348.29 673.157C351.522 672.251 354.88 671.872 358.233 672.034C359.806 672.034 361.041 671.753 361.266 670.91C361.428 669.356 361.176 667.786 360.536 666.36L356.941 653.721C353.451 642.975 351.023 631.912 349.694 620.691C354.269 631.026 357.807 641.789 360.255 652.823C361.435 657.204 362.502 661.361 363.569 665.518C364.342 667.64 364.342 669.967 363.569 672.09C363.286 672.673 362.868 673.181 362.351 673.572C361.833 673.962 361.231 674.225 360.592 674.337C359.698 674.472 358.789 674.472 357.896 674.337C354.65 674.503 351.4 674.103 348.29 673.157Z"
        fill="#263238" />
    <path
        d="M344.92 747.081C324.773 745.579 305.529 738.109 289.646 725.623C289.646 725.623 300.15 758.204 343.965 758.372L344.92 747.081Z"
        fill="#EB996E" />
    <path
        d="M239.875 612.264C238.976 611.87 210.047 607.152 211.788 641.586C213.53 676.021 247.627 662.988 247.683 661.977C247.739 660.966 239.875 612.264 239.875 612.264Z"
        fill="#FFBE9D" />
    <path
        d="M236.673 650.406C236.673 650.406 236.055 650.855 235.1 651.36C233.698 652.035 232.094 652.155 230.607 651.698C228.323 650.386 226.425 648.496 225.104 646.218C223.783 643.94 223.084 641.355 223.079 638.721C222.854 635.759 223.296 632.784 224.371 630.015C224.649 628.935 225.182 627.938 225.924 627.107C226.667 626.277 227.599 625.636 228.641 625.24C229.324 625.032 230.059 625.064 230.722 625.329C231.386 625.595 231.94 626.078 232.292 626.7C232.797 627.655 232.292 628.329 232.797 628.386C233.303 628.442 233.471 627.768 233.134 626.363C232.903 625.522 232.387 624.788 231.674 624.285C231.204 623.937 230.666 623.692 230.095 623.566C229.524 623.44 228.932 623.436 228.36 623.555C226.954 623.884 225.66 624.576 224.605 625.562C223.55 626.547 222.772 627.792 222.349 629.172C221.015 632.228 220.456 635.566 220.72 638.89C220.679 641.962 221.555 644.976 223.236 647.548C224.917 650.12 227.327 652.131 230.157 653.327C231.12 653.585 232.131 653.613 233.107 653.408C234.083 653.203 234.997 652.771 235.774 652.147C236.673 651.248 236.673 650.462 236.673 650.406Z"
        fill="#EB996E" />
    <path
        d="M309.194 611.422C308.688 610.804 309.531 609.175 311.778 607.434C314.767 605.314 318.288 604.069 321.945 603.838C325.602 603.552 329.265 604.311 332.506 606.029C334.977 607.434 335.988 608.95 335.595 609.568C334.752 611.029 329.191 609.119 322.338 609.568C315.485 610.018 310.205 612.714 309.194 611.422Z"
        fill="#263238" />
    <path
        d="M370.254 611.759C369.917 610.243 374.636 607.996 380.815 608.052C386.994 608.108 391.713 610.299 391.432 611.872C391.151 613.444 386.432 613.894 380.815 613.894C375.198 613.894 370.535 613.388 370.254 611.759Z"
        fill="#263238" />
    <path
        d="M228.922 577.044C230.607 587.605 232.255 598.184 233.865 608.782C234.146 613.829 235.883 618.687 238.865 622.769C244.482 629.004 254.706 628.387 261.896 624.286C272.4 618.163 278.186 606.423 282.624 595.076C287.061 583.729 290.994 571.764 299.476 563.113C305.574 569.5 313.534 573.797 322.22 575.39C330.905 576.984 339.872 575.794 347.841 571.988C354.863 568.506 360.705 563.001 367.446 558.956C370.666 556.678 374.367 555.169 378.262 554.546C382.158 553.922 386.144 554.201 389.915 555.361C393.903 557.046 397.498 560.304 401.768 560.08C403.405 559.941 404.979 559.382 406.337 558.457C407.695 557.532 408.791 556.272 409.52 554.799C410.92 551.805 411.408 548.464 410.924 545.194C409.52 533.06 399.689 523.398 388.455 518.006C372.782 510.31 354.75 509.243 337.224 509.186C320.606 508.695 303.993 510.338 287.792 514.074C271.523 517.903 256.726 526.395 245.212 538.509C239.54 544.616 235.321 551.926 232.869 559.892C230.418 567.858 229.799 576.276 231.056 584.515"
        fill="#263238" />
    <path
        d="M366.266 542.217C368.564 553.397 374.488 563.507 383.118 570.977C387.008 574.855 392.184 577.173 397.667 577.493C402.07 576.969 406.126 574.84 409.058 571.513C411.991 568.187 413.595 563.896 413.564 559.462C413.17 550.523 409.324 542.085 402.835 535.925C397.293 529.363 389.417 525.214 380.871 524.353C376.633 524.15 372.475 525.553 369.226 528.281C365.978 531.009 363.877 534.862 363.345 539.071"
        fill="#263238" />
    <path
        d="M315.316 627.713C315.316 629.202 315.908 630.631 316.962 631.685C318.015 632.738 319.444 633.33 320.934 633.33C321.641 633.376 322.35 633.278 323.019 633.044C323.688 632.81 324.303 632.443 324.827 631.966C325.351 631.489 325.774 630.911 326.07 630.267C326.366 629.624 326.53 628.927 326.551 628.218C326.551 626.728 325.959 625.3 324.906 624.246C323.852 623.193 322.424 622.601 320.934 622.601C320.225 622.547 319.512 622.639 318.84 622.87C318.167 623.102 317.549 623.468 317.024 623.946C316.498 624.425 316.075 625.006 315.781 625.653C315.488 626.301 315.33 627.002 315.316 627.713Z"
        fill="#263238" />
    <path
        d="M306.442 621.645C307.172 622.375 311.272 619.173 317.227 619.061C323.181 618.949 327.563 621.87 328.181 621.083C328.799 620.297 327.787 619.51 325.821 618.162C323.244 616.448 320.203 615.566 317.109 615.637C314.014 615.707 311.016 616.726 308.52 618.555C306.722 620.072 306.104 621.645 306.442 621.645Z"
        fill="#263238" />
    <path
        d="M376.321 627.543C376.321 629.033 376.913 630.462 377.967 631.516C379.02 632.569 380.449 633.161 381.939 633.161C382.648 633.214 383.36 633.123 384.033 632.891C384.705 632.66 385.323 632.294 385.849 631.815C386.375 631.337 386.797 630.756 387.091 630.108C387.384 629.461 387.543 628.76 387.556 628.049C387.556 626.559 386.964 625.13 385.911 624.077C384.857 623.024 383.428 622.432 381.939 622.432C380.532 622.426 379.175 622.948 378.135 623.894C377.095 624.841 376.448 626.143 376.321 627.543Z"
        fill="#263238" />
    <path
        d="M368.457 622.6C369.131 623.33 373.288 620.128 379.242 620.016C385.197 619.903 389.578 622.824 390.477 622.094C391.376 621.364 390.084 620.465 388.118 619.117C385.532 617.39 382.475 616.507 379.368 616.587C376.26 616.668 373.253 617.708 370.76 619.566C368.738 620.971 368.12 622.319 368.457 622.6Z"
        fill="#263238" />
    <path
        d="M346.886 690.795C346.886 691.189 345.425 691.863 342.729 691.694C339.219 691.435 335.933 689.872 333.517 687.313C331.074 684.763 329.654 681.404 329.528 677.876C329.528 675.235 330.259 673.719 330.596 673.775C330.933 673.831 330.596 680.235 335.595 685.291C340.595 690.346 346.942 690.009 346.886 690.795Z"
        fill="#263238" />
    <path
        d="M366.772 915.826L454.458 886.504C454.458 886.504 515.463 1030.93 531.191 1032.55C618.204 1040.48 711.34 1011.66 743.976 1000.26C747.291 996.492 751.11 992.054 755.211 986.549C758.805 981.842 761.578 976.563 763.412 970.933C765.924 964.002 767.492 956.766 768.075 949.418C767.892 947.988 768.164 946.537 768.854 945.271C769.543 944.005 770.614 942.988 771.915 942.366C773.215 941.744 774.679 941.548 776.097 941.805C777.515 942.063 778.816 942.761 779.815 943.801C783.579 948.688 784.534 967.338 775.939 987.391C767.345 1007.45 797.734 991.492 808.913 985.875C820.091 980.257 855.537 964.529 859.975 966.607C866.491 969.641 864.468 977.168 853.178 982.504C841.887 987.841 809.081 1006.32 812.339 1012.05C815.598 1017.78 872.108 988.403 872.108 988.403C872.108 988.403 883.343 980.145 887.162 986.661C894.353 998.458 831.888 1025.25 825.933 1027.67C821.72 1029.35 825.035 1035.76 829.416 1033.68C833.798 1031.6 885.14 1003.06 892.555 1015.03C898.173 1024.19 841.437 1037.5 834.135 1049.35C826.832 1061.2 876.153 1034.86 881.264 1043.73C883.118 1047.1 884.073 1049.86 853.515 1060.59C831.15 1067.61 808.423 1073.42 785.432 1078C785.432 1078 470.861 1218.77 414.688 1082.94C356.997 945.205 366.772 915.826 366.772 915.826Z"
        fill="#EB996E" />
    <path
        d="M483.837 934.082C448.729 851.9 402.779 819.713 378.512 807.804C370.01 803.677 360.763 801.308 351.324 800.838L348.403 786.683L232.124 776.234L229.259 794.21L212.407 793.255C212.407 793.255 112.193 803.31 111.969 919.42C111.969 973.74 141.235 1026.6 151.571 1052.5C158.031 1106.65 134.719 1204.89 135.449 1228.82L420.417 1249.05L432.101 1071.03L429.461 1054.18L523.271 1025.42L483.837 934.082Z"
        fill="#EBEBEB" />
    <path
        d="M1114.78 541.093C1073.64 490.149 1018.33 452.543 955.833 433.028C893.333 413.512 826.451 412.963 763.639 431.449C700.827 449.936 644.905 486.628 602.941 536.889C560.977 587.15 534.855 648.723 527.877 713.826C522.246 766.754 529.467 820.259 548.927 869.8C568.388 919.341 599.513 963.456 639.662 998.401L349.863 1338.53L391.432 1373.98L683.534 1030.98C725.476 1056.88 772.701 1073.03 821.72 1078.22C833.624 1079.5 845.587 1080.14 857.559 1080.13C919.982 1079.93 981.077 1062.09 1033.81 1028.69C1086.54 995.285 1128.77 947.667 1155.63 891.318C1182.49 834.969 1192.89 772.18 1185.63 710.18C1178.38 648.18 1153.76 589.49 1114.61 540.868L1114.78 541.093ZM1131.97 778.369C1125.16 841.945 1096.53 901.196 1050.93 946.025C1005.34 990.854 945.619 1018.49 881.937 1024.22C818.255 1029.95 754.556 1013.43 701.693 977.458C648.83 941.49 610.073 888.306 592.026 826.967C573.979 765.627 577.759 699.928 602.72 641.063C627.682 582.198 672.282 533.808 728.921 504.14C785.561 474.471 850.734 465.359 913.339 478.355C975.943 491.352 1032.1 525.653 1072.25 575.415C1095.13 603.616 1112.19 636.075 1122.44 670.912C1132.69 705.749 1135.93 742.272 1131.97 778.369Z"
        fill="#263238" />
    <path
        d="M1091.47 517.781C1050.35 466.811 995.035 429.181 932.528 409.649C870.021 390.117 803.125 389.561 740.301 408.051C677.478 426.54 621.549 463.246 579.588 513.525C537.626 563.803 511.518 625.396 504.565 690.514C498.925 743.443 506.141 796.951 525.602 846.493C545.063 896.036 576.194 940.15 616.351 975.089L323.013 1317.75L367.446 1353.3L660.391 1007.44C702.344 1033.32 749.563 1049.46 798.577 1054.69C810.483 1055.94 822.445 1056.58 834.416 1056.6C896.839 1056.39 957.934 1038.56 1010.67 1005.15C1063.4 971.748 1105.63 924.13 1132.49 867.781C1159.35 811.432 1169.75 748.643 1162.49 686.644C1155.23 624.644 1130.61 565.954 1091.47 517.331V517.781ZM1108.65 755.057C1101.86 818.664 1073.22 877.947 1027.61 922.803C982.003 967.659 922.253 995.313 858.542 1001.05C794.831 1006.79 731.101 990.262 678.211 954.28C625.322 918.298 586.545 865.089 568.49 803.721C550.435 742.353 554.217 676.622 579.193 617.731C604.169 558.839 648.793 510.43 705.462 480.752C762.13 451.074 827.335 441.965 889.967 454.975C952.599 467.986 1008.78 502.311 1048.94 552.103C1071.81 580.309 1088.86 612.768 1099.11 647.604C1109.36 682.439 1112.6 718.961 1108.65 755.057Z"
        fill="#455A64" />
    <path
        d="M683.534 905.041C682.703 904.334 681.967 903.522 681.343 902.626C679.995 900.941 677.917 898.525 675.726 895.211C668.896 885.954 662.72 876.231 657.245 866.113C638.942 832.682 627.824 795.797 624.603 757.82C621.382 719.843 626.129 681.612 638.539 645.576C642.21 634.7 646.64 624.094 651.796 613.838C653.537 610.131 655.166 607.434 656.234 605.581C656.667 604.578 657.254 603.649 657.975 602.828C657.652 603.873 657.238 604.888 656.739 605.862C655.897 607.828 654.436 610.58 652.807 614.288C648.091 624.701 643.965 635.373 640.449 646.25C628.696 682.149 624.29 720.047 627.494 757.685C630.698 795.323 641.446 831.931 659.098 865.327C664.365 875.452 670.217 885.261 676.625 894.705C678.815 898.132 680.725 900.323 681.905 902.401C682.535 903.224 683.081 904.109 683.534 905.041Z"
        fill="#263238" />
    <path
        d="M697.296 565.078C697.802 565.752 694.431 568.898 691.061 573.336C687.691 577.773 685.444 581.762 684.657 581.481C683.871 581.2 684.994 576.313 688.702 571.538C692.409 566.763 696.903 564.404 697.296 565.078Z"
        fill="#263238" />
    <path
        d="M406.093 872.01C406.996 874.528 407.673 877.123 408.115 879.762C409.238 884.761 410.699 892.064 412.44 901.164C415.811 919.252 419.911 944.417 423.675 972.335C427.439 1000.25 429.292 1025.64 430.36 1044.01C430.921 1053.23 431.258 1060.86 431.371 1065.81C431.637 1068.48 431.637 1071.17 431.371 1073.84C430.797 1071.24 430.459 1068.59 430.36 1065.92C429.854 1060.3 429.18 1052.94 428.394 1044.18C426.765 1025.87 424.293 1000.53 420.866 972.673C417.44 944.811 413.62 919.701 410.755 901.501C409.407 892.85 408.284 885.604 407.385 879.93C406.672 877.344 406.239 874.689 406.093 872.01Z"
        fill="#263238" />
    <path
        d="M561.075 1147.93C561.075 1147.93 246.504 1288.99 190.331 1153.16C132.697 1014.8 142.471 985.424 142.471 985.424L230.157 956.102C230.157 956.102 291.218 1100.52 306.89 1102.15C393.959 1110.13 487.095 1081.26 519.732 1069.85C523.046 1066.15 526.81 1061.65 530.966 1056.2C535.123 1050.75 538.381 1044.97 542.201 1040.08C550.515 1029.69 557.087 1027.95 560.738 1023.85C569.389 1014.02 577.59 1021.21 573.546 1026.49C569.501 1031.77 560.457 1037.16 551.863 1057.27C543.268 1077.38 573.883 1067.44 586.016 1064.29C599.386 1060.75 624.495 1050.98 624.495 1050.98C625.113 1056.88 618.428 1068.73 607.138 1074.07C601.02 1077.04 594.737 1079.67 588.319 1081.93C588.319 1081.93 611.519 1079.07 612.137 1084.4C612.755 1089.74 605.284 1128.84 580.568 1140.58L561.075 1147.93Z"
        fill="#FFBE9D" />
    <path
        d="M209.542 830.273L266.053 1000.87L142.471 1049.74C142.471 1049.74 77.984 882.178 159.66 841.171L209.542 830.273Z"
        fill="#EBEBEB" />
    <path
        d="M274.254 994.245C274.254 994.245 273.579 993.796 272.568 992.672C271.168 990.914 269.927 989.034 268.861 987.055C265.422 979.757 262.439 972.253 259.929 964.585C253.02 945.486 243.639 918.973 233.472 889.706L219.26 848.363C214.878 835.667 211.452 823.871 204.992 816.287C202.585 813.208 199.52 810.707 196.021 808.967C192.521 807.227 188.677 806.293 184.769 806.232C181.884 806.421 179.052 807.105 176.399 808.255C176.399 808.255 176.961 807.637 178.309 806.906C180.294 805.864 182.476 805.252 184.713 805.109C188.871 804.922 193.014 805.714 196.81 807.421C200.605 809.129 203.947 811.704 206.565 814.939C213.642 822.86 217.294 834.937 221.788 847.464C226.281 859.99 231.112 874.09 236.224 888.751C246.448 918.018 255.492 944.925 261.895 963.911C265.153 973.573 267.513 981.494 269.872 986.381C272.231 991.268 274.478 994.076 274.254 994.245Z"
        fill="#263238" />
    <path
        d="M271.614 997.445C270.193 998.618 268.626 999.6 266.951 1000.37C263.862 1002.11 259.312 1004.47 253.638 1007.28C242.403 1012.89 226.394 1020.2 208.699 1027.44C191.005 1034.69 174.209 1040.47 162.132 1044.29C156.121 1046.2 150.897 1047.66 147.751 1048.56C145.942 1049.21 144.052 1049.61 142.134 1049.74C148.325 1046.86 154.706 1044.4 161.233 1042.38C173.142 1038.06 189.319 1031.99 207.351 1024.8C225.383 1017.61 241.055 1010.59 252.739 1005.42C258.86 1002.38 265.163 999.712 271.614 997.445Z"
        fill="#263238" />
    <path
        d="M162.693 1043.45C157.587 1035.8 154.178 1027.14 152.694 1018.06C155.647 1021.63 157.81 1025.79 159.042 1030.25C161.212 1034.33 162.459 1038.84 162.693 1043.45Z"
        fill="#263238" />
    <path
        d="M188.813 1033.4C188.083 1033.79 184.713 1028.85 182.241 1022.16C180.289 1018.11 179.51 1013.6 179.994 1009.13C182.291 1012.87 183.978 1016.94 184.994 1021.21C186.865 1025.06 188.152 1029.17 188.813 1033.4Z"
        fill="#263238" />
    <path
        d="M216.171 1021.54C212.76 1018.38 210.324 1014.31 209.149 1009.8C207.099 1005.6 206.281 1000.91 206.79 996.266C209.063 1000.17 210.784 1004.36 211.902 1008.74C213.9 1012.79 215.336 1017.1 216.171 1021.54Z"
        fill="#263238" />
    <path
        d="M245.437 1009.75C242.729 1005.81 240.821 1001.39 239.82 996.717C237.954 992.328 236.98 987.611 236.955 982.842C239.724 986.721 241.639 991.144 242.572 995.818C244.491 1000.21 245.467 1004.96 245.437 1009.75Z"
        fill="#263238" />
    <path
        d="M525.518 1023.62C510.006 1030.18 494.119 1035.81 477.939 1040.48C462.058 1046.04 445.872 1050.69 429.461 1054.41C444.982 1047.87 460.868 1042.25 477.04 1037.55C492.915 1031.97 509.101 1027.32 525.518 1023.62Z"
        fill="#263238" />
    <path
        d="M450.133 1043.45C449.347 1043.79 446.875 1039.63 444.516 1034.24C442.156 1028.85 440.977 1024.18 441.707 1023.85C442.437 1023.51 444.909 1027.67 447.324 1033.12C449.74 1038.56 450.976 1042.95 450.133 1043.45Z"
        fill="#263238" />
    <path
        d="M474.4 1038C473.67 1038 471.029 1033.4 469.232 1026.77C467.688 1022.88 467.26 1018.64 467.996 1014.52C468.839 1014.52 470.299 1019.64 472.04 1025.76C473.614 1029.65 474.415 1033.81 474.4 1038Z"
        fill="#263238" />
    <path
        d="M500.689 1029.69C497.177 1022.18 495.501 1013.93 495.802 1005.65C497.967 1009.22 499.293 1013.23 499.678 1017.39C500.958 1021.35 501.304 1025.56 500.689 1029.69Z"
        fill="#263238" />
    <path
        d="M243.527 792.637C242.684 792.637 242.291 789.491 242.515 785.671C242.74 781.851 243.695 778.874 244.482 778.93C245.268 778.987 245.717 782.132 245.436 785.896C245.156 789.66 244.313 792.693 243.527 792.637Z"
        fill="#263238" />
    <path
        d="M269.142 794.154C268.3 794.154 267.57 791.12 267.401 787.357C267.233 783.593 267.794 780.447 268.581 780.447C269.367 780.447 270.154 783.424 270.322 787.244C270.491 791.064 269.929 794.097 269.142 794.154Z"
        fill="#263238" />
    <path
        d="M288.915 797.581C288.129 797.581 287.511 794.379 287.511 790.447C287.511 786.515 288.241 783.369 289.027 783.369C289.814 783.369 290.488 786.571 290.432 790.447C290.376 794.323 289.758 797.581 288.915 797.581Z"
        fill="#263238" />
    <path
        d="M315.654 800.502C314.924 800.502 313.295 797.075 313.182 792.244C313.07 787.414 314.418 783.706 315.148 783.875C315.879 784.043 315.935 787.694 316.103 792.132C316.272 796.57 316.497 800.277 315.654 800.502Z"
        fill="#263238" />
    <path
        d="M337.786 800.501C336.943 800.501 335.876 796.962 335.314 792.356C334.752 787.75 334.977 783.93 335.763 783.874C336.55 783.818 337.673 787.413 338.235 792.019C338.797 796.625 338.516 800.389 337.786 800.501Z"
        fill="#263238" />
</svg>