<svg width="18824" height="18235" viewBox="0 0 18824 18235" fill="none" xmlns="http://www.w3.org/2000/svg">
    <path
        d="M2944.69 2104.57C2945.63 1877.79 2894.17 1653.86 2794.33 1450.24C2694.49 1246.61 2548.96 1068.81 2369.09 930.686C2189.22 792.563 1979.88 697.856 1757.39 653.952C1534.9 610.048 1305.27 618.134 1086.42 677.578C867.564 737.023 665.4 846.219 495.693 996.651C325.986 1147.08 193.323 1334.68 108.05 1544.82C22.7764 1754.96 -12.8016 1981.96 4.09019 2208.11C20.982 2434.27 89.8871 2653.46 205.432 2848.6L209.863 2853.84C266.259 2949.31 336.755 3014.97 408.459 3117.29L1263.27 4249.25C1288.01 4282.11 1320.04 4308.77 1356.85 4327.14C1393.65 4345.5 1434.23 4355.06 1475.36 4355.06C1516.49 4355.06 1557.06 4345.5 1593.87 4327.14C1630.67 4308.77 1662.71 4282.11 1687.45 4249.25L2525.34 3135.82C2601.64 3045.82 2672.91 2951.69 2738.84 2853.84L2742.06 2849.81C2875.15 2624.04 2945.13 2366.65 2944.69 2104.57ZM1472.34 2745.88C1344.14 2745.88 1218.83 2707.87 1112.24 2636.65C1005.65 2565.42 922.576 2464.2 873.519 2345.76C824.461 2227.33 811.626 2097 836.635 1971.27C861.644 1845.54 923.375 1730.05 1014.02 1639.41C1104.67 1548.76 1220.16 1487.03 1345.89 1462.02C1471.62 1437.01 1601.94 1449.85 1720.38 1498.91C1838.81 1547.96 1940.04 1631.04 2011.26 1737.63C2082.48 1844.22 2120.49 1969.53 2120.49 2097.72C2120.55 2182.86 2103.82 2267.16 2071.26 2345.82C2038.71 2424.49 1990.97 2495.96 1930.77 2556.16C1870.57 2616.35 1799.1 2664.1 1720.44 2696.65C1641.78 2729.2 1557.47 2745.93 1472.34 2745.88Z"
        fill="#F5F5F5" />
    <path
        d="M18823.9 11033.7C18824 10933.9 18801.1 10835.5 18757 10746C18712.9 10656.5 18648.7 10578.3 18569.5 10517.7C18490.3 10457 18398.2 10415.4 18300.2 10396.1C18202.3 10376.9 18101.3 10380.4 18005 10406.6C17908.7 10432.7 17819.7 10480.7 17745 10546.8C17670.2 10612.9 17611.7 10695.4 17574.1 10787.8C17536.4 10880.2 17520.5 10980 17527.7 11079.5C17534.8 11179.1 17564.9 11275.6 17615.4 11361.6V11364.1C17640.4 11404.3 17671.8 11436.2 17703.2 11480.1L18079.9 11979.2C18090.8 11993.7 18104.9 12005.5 18121.2 12013.6C18137.4 12021.7 18155.4 12025.9 18173.5 12025.9C18191.7 12025.9 18209.6 12021.7 18225.9 12013.6C18242.1 12005.5 18256.3 11993.7 18267.2 11979.2L18637.4 11488.5C18671.1 11448.7 18702.6 11407 18731.7 11363.7V11361.6C18791.4 11262.6 18823.2 11149.3 18823.9 11033.7ZM18174.9 11315.7C18118.5 11315.7 18063.2 11299 18016.3 11267.6C17969.3 11236.2 17932.7 11191.6 17911.1 11139.4C17889.5 11087.2 17883.8 11029.8 17894.8 10974.4C17905.8 10919 17933 10868.1 17973 10828.2C18012.9 10788.2 18063.8 10761 18119.2 10750C18174.6 10739 18232 10744.6 18284.2 10766.2C18336.4 10787.9 18381 10824.5 18412.4 10871.4C18443.8 10918.4 18460.5 10973.6 18460.5 11030.1C18460.6 11067.7 18453.3 11104.9 18438.9 11139.6C18424.6 11174.3 18403.6 11205.9 18377.1 11232.5C18350.5 11259.1 18319 11280.2 18284.4 11294.6C18249.7 11309 18212.5 11316.5 18174.9 11316.5V11315.7Z"
        fill="#F5F5F5" />
    <path
        d="M16586.2 16152.6C17220.8 15517.9 17220.8 14489 16586.2 13854.4C15951.6 13219.8 14922.7 13219.8 14288.1 13854.4C13653.5 14489 13653.5 15517.9 14288.1 16152.6C14922.7 16787.2 15951.6 16787.2 16586.2 16152.6Z"
        fill="#F5F5F5" />
    <path
        d="M15437.3 16356.4C15169.7 16356.4 14908.2 16277.2 14685.7 16128.6C14463.2 15980 14289.7 15768.7 14187.3 15521.6C14084.8 15274.4 14058 15002.4 14110.1 14740C14162.3 14477.6 14291.1 14236.5 14480.2 14047.3C14669.4 13858.1 14910.4 13729.2 15172.8 13677C15435.3 13624.7 15707.3 13651.5 15954.5 13753.9C16201.7 13856.2 16412.9 14029.6 16561.6 14252.1C16710.3 14474.5 16789.6 14736.1 16789.6 15003.6C16789.3 15362.2 16646.7 15706.1 16393.2 15959.7C16139.7 16213.3 15795.9 16355.9 15437.3 16356.4ZM15437.3 13882.6C15215.6 13882.6 14998.8 13948.3 14814.5 14071.5C14630.1 14194.7 14486.4 14369.8 14401.6 14574.6C14316.7 14779.5 14294.5 15004.9 14337.8 15222.4C14381 15439.8 14487.8 15639.6 14644.6 15796.4C14801.4 15953.2 15001.1 16059.9 15218.6 16103.2C15436.1 16146.4 15661.5 16124.2 15866.3 16039.4C16071.2 15954.5 16246.3 15810.8 16369.4 15626.5C16492.6 15442.1 16558.4 15225.4 16558.4 15003.6C16558.1 14706.4 16439.8 14421.4 16229.7 14211.3C16019.5 14001.1 15734.5 13882.9 15437.3 13882.6Z"
        fill="white" />
    <path
        d="M15428 15466.1C15329.5 15466.1 15233.1 15436.9 15151.1 15382.1C15069.2 15327.3 15005.3 15249.5 14967.6 15158.4C14929.9 15067.3 14920.1 14967.1 14939.3 14870.4C14958.6 14773.8 15006.1 14685 15075.8 14615.3C15145.6 14545.6 15234.4 14498.2 15331.1 14479C15427.8 14459.8 15528 14469.8 15619 14507.5C15710 14545.3 15787.8 14609.2 15842.6 14691.2C15897.3 14773.2 15926.4 14869.6 15926.3 14968.2C15926.2 15100.3 15873.7 15226.9 15780.2 15320.3C15686.8 15413.6 15560.1 15466.1 15428 15466.1ZM15428 14700.7C15375.3 14700.7 15323.7 14716.4 15279.9 14745.7C15236 14775 15201.8 14816.6 15181.7 14865.3C15161.5 14914.1 15156.2 14967.7 15166.5 15019.4C15176.8 15071.1 15202.2 15118.7 15239.5 15156C15276.8 15193.2 15324.3 15218.6 15376 15228.9C15427.7 15239.2 15481.4 15233.9 15530.1 15213.8C15578.8 15193.6 15620.5 15159.4 15649.8 15115.5C15679.1 15071.7 15694.7 15020.1 15694.7 14967.4C15694.4 14896.8 15666.2 14829.3 15616.2 14779.5C15566.2 14729.6 15498.6 14701.6 15428 14701.5V14700.7Z"
        fill="white" />
    <path
        d="M15428 14968.2H14798.4L14908.4 15162.4L13426.4 15841.5L13476.3 15924.9L14963.2 15253.4L15065.1 15446.4L15428 14968.2Z"
        fill="#E0E0E0" />
    <path
        d="M13426.4 15841.5L13410.7 15826.2C13372.5 15789 13325.1 15762.6 13273.4 15749.7C13221.6 15736.8 13167.4 15737.9 13116.2 15752.9L12525.2 15924.9L12854.3 16069.5L12722.2 16421.2L13276.9 16225.4C13337.8 16203.6 13390 16162.9 13425.9 16109.1C13461.8 16055.4 13479.5 15991.5 13476.3 15926.9L13426.4 15841.5Z"
        fill="#E0E0E0" />
    <path
        d="M6255.16 16182.3L6267.24 16178.3L6302.29 16168.2L6436.83 16127.9L6940.77 15986.6L6935.94 15995C6910.16 15908.4 6881.16 15811.7 6850.54 15707.8V15703.4L6854.57 15699.7C6994.14 15582.8 7112.91 15443 7205.84 15286.4C7257.61 15198.2 7297.18 15103.3 7323.46 15004.4C7351.04 14899.3 7357.48 14789.8 7342.4 14682.2C7305.84 14448.3 7188.72 14234.6 7011.27 14077.9C6819.44 13910.4 6579.96 13807.2 6326.46 13782.7C6136.15 13766.5 5945.16 13804.8 5775.79 13893C5612.55 13972.5 5471.53 14091.1 5365.3 14238.3C5267.44 14376.9 5206.7 14538.4 5188.86 14707.2C5186.44 14747.4 5180.4 14787.7 5181.21 14828C5182.01 14868.3 5183.22 14908.6 5184.43 14945.6C5190.83 15021.3 5204.31 15096.1 5224.71 15169.2C5244.73 15237.8 5271.73 15304.3 5305.28 15367.4C5338.13 15426.2 5377.01 15481.4 5421.29 15532.2C5502.09 15622.7 5597.38 15699.2 5703.28 15758.5C5857.79 15846.2 6027.12 15904.6 6202.79 15931H6205.61V15933.4L6245.89 16116.3C6249.92 16136.4 6253.14 16152.1 6255.16 16163.4C6257.17 16174.7 6258.38 16179.5 6258.38 16179.9C6256.46 16175.3 6255.11 16170.4 6254.35 16165.4L6243.07 16119.5L6199.57 15935L6203.19 15938.2C6025.58 15914.1 5854.08 15856.9 5697.64 15769.4C5590.28 15710 5493.61 15633.1 5411.63 15541.8C5365.62 15490.5 5325.12 15434.4 5290.78 15374.6C5255.72 15310.6 5227.37 15243.1 5206.18 15173.2C5185.98 15099 5172.5 15023.1 5165.9 14946.4L5162.27 14825.6C5162.27 14785.3 5167.51 14745 5169.93 14704.7C5187.51 14532.5 5249.1 14367.7 5348.79 14226.2C5456.76 14075.9 5600.27 13954.6 5766.52 13873.3C5939.96 13782.9 6135.63 13743.9 6330.49 13760.9C6589.02 13785.4 6833.27 13890.7 7028.59 14061.8C7120.65 14142.8 7197.23 14239.9 7254.58 14348.2C7269.88 14374.1 7283.34 14401 7294.86 14428.8C7307.32 14454.8 7317.82 14481.8 7326.28 14509.4C7334.74 14537.6 7344.01 14565 7351.66 14592.8C7359.32 14620.5 7361.73 14649.6 7366.97 14677.7C7381.95 14788 7374.97 14900.1 7346.43 15007.7C7319.35 15108.1 7278.69 15204.3 7225.58 15293.7C7130.82 15451.6 7010.01 15592.3 6868.27 15709.8L6871.09 15701.7L6954.47 15989L6956.49 15995.4L6950.04 15997.4L6440.46 16132.8L6306.32 16167.8L6272.48 16176.3L6255.16 16182.3Z"
        fill="#E0E0E0" />
    <path
        d="M7006.44 16182.7C6892.04 16225.6 6775.13 16261.6 6656.38 16290.3C6539.52 16326.1 6420.6 16354.7 6300.27 16376.1C6414.8 16333.6 6531.68 16297.9 6650.33 16268.9C6767.22 16233.2 6886.13 16204.4 7006.44 16182.7Z"
        fill="#E0E0E0" />
    <path
        d="M6848.93 16512.2C6812.95 16537.7 6771.6 16554.5 6728.08 16561.4C6686.12 16574.9 6641.63 16578.8 6597.96 16572.7C6638.34 16557.4 6680.19 16546.3 6722.84 16539.6C6763.86 16526.4 6806.1 16517.2 6848.93 16512.2Z"
        fill="#E0E0E0" />
    <path
        d="M6398.97 16144.9C6397.11 16141.3 6395.75 16137.5 6394.94 16133.6C6392.52 16124.7 6389.7 16113.4 6385.67 16099.3C6377.62 16067.4 6366.34 16023.5 6351.84 15967.6C6322.83 15851.2 6281.74 15685.6 6230.99 15481.4C6205.61 15378.7 6178.21 15266.3 6150.42 15145.8C6144.49 15116.1 6132.56 15087.9 6115.37 15062.9C6108.11 15050.6 6096.65 15041.3 6083.11 15036.8C6069.56 15032.3 6054.84 15032.8 6041.65 15038.3C6029.15 15046.7 6019.07 15058.2 6012.42 15071.7C6005.77 15085.2 6002.8 15100.2 6003.79 15115.2C6004.75 15147.5 6017.51 15178.3 6039.64 15201.8C6063.45 15226.4 6092.84 15244.8 6125.32 15255.6C6157.8 15266.3 6192.4 15269 6226.15 15263.5C6261.55 15258.1 6295.05 15244 6323.61 15222.4C6352.17 15200.8 6374.89 15172.4 6389.7 15139.8C6422.61 15071.9 6430.87 14994.7 6413.07 14921.5C6406.2 14884.4 6388.71 14850.1 6362.71 14822.8C6350.3 14810.4 6334.18 14802.4 6316.8 14800C6299.43 14797.6 6281.74 14800.9 6266.43 14809.5C6253.25 14821.3 6244.33 14837.1 6241.06 14854.5C6237.78 14871.9 6240.33 14889.9 6248.31 14905.8C6265.98 14938.6 6291.78 14966.3 6323.23 14986.3C6382.61 15033.5 6454.1 15063 6529.48 15071.3C6565.41 15074.5 6601.59 15069.1 6635.03 15055.6C6666.58 15041 6694.2 15019 6715.59 14991.6C6737.15 14964.9 6750.08 14932.3 6752.65 14898.1C6753.99 14881.7 6751.96 14865.2 6746.7 14849.6C6741.43 14834 6733.04 14819.7 6722.04 14807.5C6712.6 14795.7 6700.04 14786.8 6685.79 14781.8C6671.55 14776.8 6656.19 14775.9 6641.47 14779.3C6627.08 14784.5 6614.09 14793 6603.47 14804C6592.86 14815 6584.91 14828.3 6580.24 14842.9C6560.5 14902.1 6577.82 14968.2 6585.07 15029C6604.41 15149.9 6625.36 15265.1 6646.71 15368.6C6686.99 15574.9 6722.04 15742 6745.8 15859.3C6757.08 15916.1 6766.35 15960.8 6772.79 15992.6C6775.21 16007.1 6777.63 16018.4 6779.24 16027.6C6779.64 16031.7 6779.64 16035.7 6779.24 16039.7C6777.59 16036 6776.37 16032.1 6775.61 16028C6773.2 16019.2 6770.38 16007.9 6766.75 15993.8C6759.1 15962 6749.03 15917.7 6735.73 15861.3C6709.55 15746.1 6672.09 15579.3 6629.79 15371.8C6608.84 15268.3 6585.88 15154.7 6565.34 15031.8C6560.9 15000.8 6555.67 14969.8 6552.44 14937.2C6547.74 14903.4 6550.49 14869 6560.5 14836.5C6566.2 14819 6575.8 14803.1 6588.57 14789.9C6601.34 14776.7 6616.96 14766.6 6634.22 14760.3C6652.87 14755.6 6672.5 14756.2 6690.82 14762.1C6709.14 14768 6725.41 14779 6737.75 14793.8C6750.43 14808 6760.14 14824.7 6766.3 14842.7C6772.46 14860.8 6774.94 14879.9 6773.6 14898.9C6771.33 14937.4 6757.26 14974.2 6733.32 15004.4C6709.34 15035.1 6678.23 15059.5 6642.68 15075.3C6606.06 15090.2 6566.46 15096.3 6527.07 15093.1C6447.67 15084.3 6372.32 15053.4 6309.54 15004C6275.01 14981.3 6247.2 14949.7 6228.97 14912.6C6217.38 14892.7 6213.63 14869.2 6218.45 14846.6C6223.27 14824.1 6236.31 14804.2 6255.03 14790.7C6273.75 14777.3 6296.8 14771.3 6319.69 14774C6342.58 14776.6 6363.66 14787.7 6378.82 14805C6407.72 14835.4 6427.29 14873.5 6435.22 14914.6C6454.15 14992.9 6445.17 15075.4 6409.84 15147.9C6393.29 15183.4 6368.24 15214.3 6336.9 15237.8C6305.56 15261.4 6268.91 15276.8 6230.18 15282.8C6193.01 15288.8 6154.93 15285.6 6119.27 15273.5C6083.61 15261.5 6051.43 15240.9 6025.54 15213.5C6000.14 15186.2 5985.78 15150.5 5985.26 15113.2C5984.19 15094.6 5988.2 15076 5996.86 15059.5C6005.51 15043 6018.49 15029.1 6034.4 15019.4C6043.02 15015.2 6052.37 15012.8 6061.92 15012.4C6071.46 15011.9 6081 15013.3 6089.99 15016.5C6106.33 15023.4 6120.32 15034.9 6130.28 15049.6C6148.64 15076.9 6161.63 15107.6 6168.55 15139.8C6197.15 15260.6 6223.73 15373.4 6249.11 15476.6L6361.91 15963.6C6374.39 16020 6384.46 16064.3 6391.72 16096.5C6394.54 16110.6 6396.95 16121.9 6398.97 16131.2C6399.82 16135.7 6399.82 16140.3 6398.97 16144.9Z"
        fill="#E0E0E0" />
    <path
        d="M6978.64 16333.4C6887.03 16370.2 6792.77 16399.9 6696.66 16422.4C6602 16451.9 6505.34 16474.5 6407.43 16490.1C6499.03 16453.3 6593.3 16423.6 6689.41 16401.1C6784.08 16371.6 6880.74 16349 6978.64 16333.4Z"
        fill="#E0E0E0" />
    <path
        d="M17928.8 18193.7C17928.8 18199.3 14084.6 18204.1 9343.26 18204.1C4601.93 18204.1 756.908 18199.3 756.908 18193.7C756.908 18188 4600.32 18183.2 9343.26 18183.2C14086.2 18183.2 17928.8 18187.6 17928.8 18193.7Z"
        fill="#263238" />
    <path d="M17219.4 1989.36H1474.75V2998.05H17219.4V1989.36Z" fill="#E0E0E0" />
    <path d="M17217 3924.57H1472.34V12754.6H17217V3924.57Z" fill="white" />
    <path d="M1474.75 2990.4H3636.75L3850.65 2366.82H7355.29L7569.19 2990.4H17219.4V3945.92H1474.75V2990.4Z"
        fill="#EBEBEB" />
    <path
        d="M1994.41 2391.79C1994.41 2415.22 1987.46 2438.11 1974.45 2457.59C1961.43 2477.07 1942.94 2492.25 1921.3 2501.21C1899.66 2510.17 1875.84 2512.52 1852.87 2507.95C1829.9 2503.38 1808.79 2492.1 1792.23 2475.54C1775.67 2458.97 1764.39 2437.87 1759.82 2414.9C1755.25 2391.92 1757.59 2368.11 1766.56 2346.47C1775.52 2324.83 1790.7 2306.33 1810.18 2293.32C1829.65 2280.31 1852.55 2273.36 1875.97 2273.36C1891.54 2273.31 1906.97 2276.33 1921.36 2282.27C1935.75 2288.2 1948.83 2296.92 1959.84 2307.93C1970.85 2318.94 1979.57 2332.01 1985.5 2346.41C1991.43 2360.8 1994.46 2376.22 1994.41 2391.79Z"
        fill="#263238" />
    <path
        d="M2360.58 2391.79C2360.58 2415.22 2353.63 2438.11 2340.62 2457.59C2327.61 2477.07 2309.11 2492.25 2287.47 2501.21C2265.83 2510.17 2242.02 2512.52 2219.04 2507.95C2196.07 2503.38 2174.97 2492.1 2158.4 2475.54C2141.84 2458.97 2130.56 2437.87 2125.99 2414.9C2121.42 2391.92 2123.77 2368.11 2132.73 2346.47C2141.69 2324.83 2156.87 2306.33 2176.35 2293.32C2195.83 2280.31 2218.72 2273.36 2242.15 2273.36C2257.72 2273.31 2273.14 2276.33 2287.53 2282.27C2301.93 2288.2 2315 2296.92 2326.01 2307.93C2337.02 2318.94 2345.74 2332.01 2351.67 2346.41C2357.61 2360.8 2360.63 2376.22 2360.58 2391.79Z"
        fill="#263238" />
    <path
        d="M2726.75 2391.79C2726.75 2415.22 2719.81 2438.11 2706.79 2457.59C2693.78 2477.07 2675.28 2492.25 2653.64 2501.21C2632 2510.17 2608.19 2512.52 2585.22 2507.95C2562.24 2503.38 2541.14 2492.1 2524.58 2475.54C2508.01 2458.97 2496.73 2437.87 2492.16 2414.9C2487.6 2391.92 2489.94 2368.11 2498.9 2346.47C2507.87 2324.83 2523.05 2306.33 2542.52 2293.32C2562 2280.31 2584.9 2273.36 2608.32 2273.36C2623.89 2273.31 2639.31 2276.33 2653.71 2282.27C2668.1 2288.2 2681.18 2296.92 2692.18 2307.93C2703.19 2318.94 2711.91 2332.01 2717.85 2346.41C2723.78 2360.8 2726.81 2376.22 2726.75 2391.79Z"
        fill="#263238" />
    <path
        d="M15479.2 3755.78H4677.26C4597.78 3755.78 4521.55 3724.2 4465.34 3668C4409.13 3611.79 4377.56 3535.56 4377.56 3456.07C4377.56 3376.58 4409.13 3300.35 4465.34 3244.15C4521.55 3187.94 4597.78 3156.37 4677.26 3156.37H15479.2C15558.7 3156.37 15634.9 3187.94 15691.1 3244.15C15747.3 3300.35 15778.9 3376.58 15778.9 3456.07C15778.9 3535.56 15747.3 3611.79 15691.1 3668C15634.9 3724.2 15558.7 3755.78 15479.2 3755.78Z"
        fill="#FAFAFA" />
    <path
        d="M4935.88 3495.95V3597.47H4884.72V3504.01C4884.72 3475.41 4871.43 3463.73 4848.87 3463.73C4826.31 3463.73 4806.17 3479.03 4806.17 3511.26V3599.08H4755.01V3353.35H4806.17V3438.75C4821.56 3424.75 4841.77 3417.24 4862.57 3417.8C4872.79 3417.12 4883.05 3418.71 4892.58 3422.47C4902.12 3426.23 4910.7 3432.05 4917.72 3439.53C4924.73 3447.01 4930 3455.94 4933.14 3465.7C4936.28 3475.46 4937.22 3485.79 4935.88 3495.95Z"
        fill="#E0E0E0" />
    <path
        d="M5096.21 3588.6C5084.2 3596.28 5070.18 3600.21 5055.93 3599.88C5047.18 3601.08 5038.27 3600.29 5029.88 3597.55C5021.48 3594.81 5013.82 3590.21 5007.46 3584.08C5001.1 3577.95 4996.21 3570.47 4993.17 3562.18C4990.12 3553.89 4988.99 3545.02 4989.86 3536.24V3463.73H4962.47V3423.44H4989.86V3380.34H5041.02V3423.44H5084.93V3463.73H5041.02V3536.24C5040.58 3539.3 5040.85 3542.43 5041.79 3545.38C5042.73 3548.33 5044.32 3551.03 5046.45 3553.27C5048.58 3555.52 5051.19 3557.26 5054.09 3558.35C5056.99 3559.45 5060.09 3559.87 5063.18 3559.6C5070.6 3559.69 5077.84 3557.28 5083.72 3552.75L5096.21 3588.6Z"
        fill="#E0E0E0" />
    <path
        d="M5233.98 3588.6C5221.93 3596.2 5207.93 3600.12 5193.69 3599.88C5184.95 3601.08 5176.04 3600.29 5167.65 3597.55C5159.25 3594.81 5151.59 3590.21 5145.23 3584.08C5138.87 3577.95 5133.98 3570.47 5130.93 3562.18C5127.89 3553.89 5126.76 3545.02 5127.63 3536.24V3463.73H5100.24V3423.44H5127.63V3380.34H5178.79V3423.44H5223.1V3463.73H5178.79V3536.24C5178.43 3539.29 5178.74 3542.38 5179.71 3545.3C5180.68 3548.21 5182.28 3550.88 5184.39 3553.11C5186.51 3555.34 5189.09 3557.08 5191.95 3558.2C5194.81 3559.32 5197.88 3559.8 5200.95 3559.6C5208.49 3559.69 5215.86 3557.28 5221.89 3552.75L5233.98 3588.6Z"
        fill="#E0E0E0" />
    <path
        d="M5457.15 3508.84C5457.88 3520.75 5456.12 3532.68 5451.99 3543.87C5447.85 3555.06 5441.43 3565.26 5433.12 3573.83C5424.82 3582.4 5414.83 3589.14 5403.77 3593.62C5392.72 3598.11 5380.85 3600.24 5368.93 3599.88C5359.05 3600.35 5349.19 3598.68 5340.01 3595C5330.84 3591.31 5322.56 3585.7 5315.75 3578.53V3659.1H5264.59V3417.4H5314.54V3437.94C5321.51 3430.21 5330.11 3424.13 5339.73 3420.16C5349.35 3416.18 5359.74 3414.42 5370.14 3414.98C5382.22 3414.76 5394.21 3417.09 5405.32 3421.82C5416.44 3426.55 5426.43 3433.58 5434.65 3442.44C5442.86 3451.3 5449.11 3461.79 5452.99 3473.24C5456.87 3484.68 5458.28 3496.81 5457.15 3508.84ZM5405.18 3508.84C5404.4 3500.13 5401.11 3491.84 5395.7 3484.97C5390.29 3478.1 5383 3472.94 5374.72 3470.14C5366.44 3467.33 5357.52 3466.99 5349.05 3469.16C5340.58 3471.33 5332.92 3475.92 5327.01 3482.36C5321.1 3488.8 5317.18 3496.82 5315.74 3505.45C5314.3 3514.07 5315.4 3522.93 5318.9 3530.94C5322.41 3538.95 5328.16 3545.77 5335.47 3550.58C5342.77 3555.38 5351.32 3557.95 5360.06 3557.99C5366.36 3558.08 5372.61 3556.83 5378.39 3554.34C5384.18 3551.84 5389.37 3548.16 5393.63 3543.52C5397.89 3538.88 5401.12 3533.39 5403.11 3527.41C5405.1 3521.44 5405.81 3515.11 5405.18 3508.84Z"
        fill="#E0E0E0" />
    <path
        d="M5478.9 3449.63C5479.78 3441.75 5483.54 3434.48 5489.45 3429.2C5495.35 3423.92 5503 3421 5510.92 3421C5518.85 3421 5526.49 3423.92 5532.4 3429.2C5538.31 3434.48 5542.06 3441.75 5542.95 3449.63C5543.46 3454.13 5543 3458.7 5541.63 3463.02C5540.25 3467.34 5537.97 3471.32 5534.95 3474.7C5531.93 3478.08 5528.22 3480.79 5524.08 3482.64C5519.94 3484.49 5515.46 3485.45 5510.92 3485.45C5506.39 3485.45 5501.9 3484.49 5497.76 3482.64C5493.62 3480.79 5489.92 3478.08 5486.9 3474.7C5483.88 3471.32 5481.6 3467.34 5480.22 3463.02C5478.84 3458.7 5478.39 3454.13 5478.9 3449.63ZM5478.9 3567.66C5479.78 3559.78 5483.54 3552.51 5489.45 3547.23C5495.35 3541.95 5503 3539.03 5510.92 3539.03C5518.85 3539.03 5526.49 3541.95 5532.4 3547.23C5538.31 3552.51 5542.06 3559.78 5542.95 3567.66C5543.46 3572.16 5543 3576.73 5541.63 3581.05C5540.25 3585.37 5537.97 3589.35 5534.95 3592.73C5531.93 3596.11 5528.22 3598.82 5524.08 3600.67C5519.94 3602.52 5515.46 3603.48 5510.92 3603.48C5506.39 3603.48 5501.9 3602.52 5497.76 3600.67C5493.62 3598.82 5489.92 3596.11 5486.9 3592.73C5483.88 3589.35 5481.6 3585.37 5480.22 3581.05C5478.84 3576.73 5478.39 3572.16 5478.9 3567.66Z"
        fill="#E0E0E0" />
    <path d="M5669.04 3320.32H5714.96L5606.19 3630.1H5560.67L5669.04 3320.32Z" fill="#E0E0E0" />
    <path d="M5774.17 3320.32H5819.69L5711.33 3630.1H5665.41L5774.17 3320.32Z" fill="#E0E0E0" />
    <path
        d="M15469.5 5512.53H6058.17C5917.25 5512.53 5782.1 5456.55 5682.46 5356.9C5582.82 5257.26 5526.84 5122.11 5526.84 4981.19C5526.94 4840.31 5582.96 4705.22 5682.58 4605.6C5782.2 4505.98 5917.28 4449.96 6058.17 4449.86H15469.5C15610.4 4449.96 15745.5 4505.98 15845.1 4605.6C15944.7 4705.22 16000.8 4840.31 16000.9 4981.19C16000.9 5122.11 15944.9 5257.26 15845.2 5356.9C15745.6 5456.55 15610.4 5512.53 15469.5 5512.53Z"
        fill="#FAFAFA" />
    <path
        d="M15469.5 5512.53C15544.6 5510.91 15618.6 5494.2 15687.1 5463.38C15754.4 5432.37 15814.6 5387.72 15863.9 5332.25C15913.1 5276.77 15950.3 5211.69 15973.1 5141.12C15992.2 5078.14 15999.5 5012.19 15994.8 4946.55C15989.8 4873.07 15969.5 4801.44 15935.2 4736.27C15896.8 4664.87 15842.7 4603.16 15776.9 4555.8C15705 4504.01 15621.1 4471.3 15533.2 4460.74C15486.4 4456.73 15439.5 4455.39 15392.6 4456.71H15246H13892.8L6058.98 4459.53C5964.91 4459.8 5872.65 4485.4 5791.9 4533.65C5712.56 4581.02 5647.24 4648.65 5602.66 4729.59C5558.08 4810.54 5535.84 4901.89 5538.22 4994.27C5540.6 5086.65 5567.51 5176.73 5616.2 5255.28C5664.88 5333.82 5733.59 5398 5815.26 5441.23C5895.94 5483.04 5985.86 5503.82 6076.7 5501.65H8702.36L12224.3 5504.07L14601 5507.29H15245.6H15413.5C15451.4 5507.29 15470.7 5507.29 15470.7 5507.29H15413.5H15245.6H14601L12224.3 5510.92L8702.36 5512.93H6622.14H6076.7C5982.46 5515.36 5889.16 5493.73 5805.6 5450.09C5698.63 5393.52 5613.67 5302.78 5564.27 5192.32C5514.87 5081.86 5503.87 4958.04 5533.02 4840.59C5562.17 4723.15 5629.8 4618.85 5725.12 4544.31C5820.44 4469.77 5937.97 4429.29 6058.98 4429.31L13894.9 4442.61H15248H15394.6C15442 4441.45 15489.5 4442.93 15536.8 4447.04C15626.3 4458.17 15711.6 4491.85 15784.5 4544.93C15848.5 4590.77 15901.5 4650.26 15939.7 4719.09C15977.9 4787.92 16000.3 4864.38 16005.3 4942.92C16009.5 5009.59 16001.6 5076.48 15981.9 5140.31C15963.7 5196.03 15936.4 5248.41 15901.4 5295.4C15846.7 5369.47 15773.9 5428.17 15689.9 5465.8C15638.7 5488.31 15584.3 5502.84 15528.7 5508.9C15488.9 5512.53 15469.5 5512.53 15469.5 5512.53Z"
        fill="#263238" />
    <path
        d="M6274.09 5094.39L6293.83 5050.08C6318.75 5067.16 6348.21 5076.42 6378.42 5076.66C6413.47 5076.66 6427.57 5064.98 6427.57 5049.27C6427.57 5001.34 6278.92 5034.37 6278.92 4939.3C6278.92 4895.79 6313.97 4858.73 6386.88 4858.73C6417.91 4858.14 6448.53 4865.93 6475.5 4881.29L6457.38 4926.41C6435.91 4913.62 6411.47 4906.67 6386.48 4906.27C6351.43 4906.27 6337.74 4919.56 6337.74 4935.67C6337.74 4982.81 6486.38 4950.18 6486.38 5044.04C6486.38 5086.74 6450.93 5124.6 6378.02 5124.6C6341.09 5125.45 6304.8 5114.9 6274.09 5094.39Z"
        fill="#E0E0E0" />
    <path
        d="M6714.38 5037.59H6565.74C6568.69 5049.98 6576.03 5060.88 6586.4 5068.29C6596.76 5075.69 6609.46 5079.1 6622.14 5077.87C6631.21 5078.16 6640.25 5076.59 6648.7 5073.26C6657.15 5069.94 6664.83 5064.93 6671.28 5058.54L6701.49 5091.57C6686.13 5106.35 6666.95 5116.54 6646.1 5121C6625.26 5125.45 6603.58 5124 6583.52 5116.79C6563.46 5109.59 6545.81 5096.92 6532.56 5080.22C6519.31 5063.53 6510.99 5043.46 6508.54 5022.28C6508.36 5008.65 6510.97 4995.11 6516.22 4982.53C6521.46 4969.94 6529.23 4958.55 6539.04 4949.08C6548.86 4939.61 6560.5 4932.25 6573.27 4927.45C6586.04 4922.65 6599.65 4920.51 6613.27 4921.17C6626.86 4920.48 6640.44 4922.64 6653.14 4927.52C6665.83 4932.39 6677.37 4939.86 6687.01 4949.46C6696.65 4959.06 6704.17 4970.57 6709.09 4983.25C6714.01 4995.93 6716.23 5009.5 6715.59 5023.09C6715.59 5026.71 6714.79 5032.76 6714.38 5037.59ZM6564.93 5004.16H6661.61C6659.54 4992.85 6653.57 4982.62 6644.74 4975.26C6635.9 4967.9 6624.77 4963.87 6613.27 4963.87C6601.78 4963.87 6590.64 4967.9 6581.81 4975.26C6572.98 4982.62 6567.01 4992.85 6564.93 5004.16Z"
        fill="#E0E0E0" />
    <path
        d="M6921.84 5007.38V5119.77H6868.67V5095.2C6862.03 5104.71 6852.96 5112.28 6842.4 5117.09C6831.84 5121.91 6820.19 5123.81 6808.65 5122.59C6762.72 5122.59 6735.33 5096.81 6735.33 5062.97C6735.33 5029.13 6759.9 5004.16 6819.52 5004.16H6865.04C6865.04 4979.99 6850.14 4963.87 6819.52 4963.87C6799.26 4963.7 6779.49 4970.05 6763.13 4982L6742.58 4941.72C6767.81 4925.61 6797.25 4917.34 6827.18 4917.95C6885.59 4920.37 6921.84 4948.16 6921.84 5007.38ZM6865.04 5057.73V5037.59H6824.76C6798.17 5037.59 6789.71 5047.26 6789.71 5060.55C6789.71 5073.85 6801.8 5084.32 6821.54 5084.32C6830.69 5085.22 6839.89 5083.12 6847.75 5078.32C6855.6 5073.52 6861.67 5066.29 6865.04 5057.73Z"
        fill="#E0E0E0" />
    <path
        d="M7095.46 4920.36V4972.73H7082.57C7075.42 4972.14 7068.23 4973.15 7061.52 4975.69C7054.81 4978.22 7048.75 4982.22 7043.77 4987.38C7038.8 4992.55 7035.03 4998.76 7032.76 5005.56C7030.48 5012.37 7029.75 5019.59 7030.61 5026.71V5119.77H6973.4V4923.18H7027.79V4948.97C7035.99 4939.17 7046.41 4931.47 7058.17 4926.5C7069.94 4921.53 7082.72 4919.43 7095.46 4920.36Z"
        fill="#E0E0E0" />
    <path
        d="M7113.19 5021.48C7113.2 5007.47 7116.11 4993.62 7121.73 4980.8C7127.35 4967.97 7135.57 4956.45 7145.86 4946.96C7156.15 4937.46 7168.29 4930.19 7181.53 4925.62C7194.76 4921.04 7208.8 4919.25 7222.76 4920.37C7240.72 4918.92 7258.69 4922.92 7274.35 4931.83C7290.01 4940.73 7302.63 4954.14 7310.57 4970.32L7266.26 4994.08C7262.2 4985.93 7255.93 4979.08 7248.17 4974.31C7240.41 4969.54 7231.46 4967.04 7222.35 4967.09C7207.93 4967.09 7194.1 4972.82 7183.9 4983.02C7173.7 4993.22 7167.97 5007.05 7167.97 5021.48C7167.97 5035.9 7173.7 5049.73 7183.9 5059.93C7194.1 5070.13 7207.93 5075.86 7222.35 5075.86C7231.48 5076.01 7240.47 5073.55 7248.24 5068.77C7256.02 5063.99 7262.27 5057.08 7266.26 5048.87L7310.57 5073.04C7302.49 5089.06 7289.83 5102.33 7274.19 5111.15C7258.56 5119.97 7240.66 5123.95 7222.76 5122.59C7208.8 5123.7 7194.76 5121.91 7181.53 5117.33C7168.29 5112.76 7156.15 5105.49 7145.86 5096C7135.57 5086.5 7127.35 5074.98 7121.73 5062.15C7116.11 5049.33 7113.2 5035.48 7113.19 5021.48Z"
        fill="#E0E0E0" />
    <path
        d="M7543.01 5007.38V5119.77H7485.81V5015.84C7485.81 4984.01 7471.3 4969.51 7445.52 4969.51C7419.74 4969.51 7398.39 4986.43 7398.39 5022.69V5119.77H7341.19V4848.66H7398.39V4943.73C7406.73 4935.89 7416.54 4929.78 7427.26 4925.77C7437.98 4921.76 7449.39 4919.92 7460.83 4920.37C7472.27 4919.48 7483.76 4921.17 7494.47 4925.3C7505.17 4929.43 7514.82 4935.91 7522.7 4944.25C7530.58 4952.59 7536.49 4962.59 7540 4973.51C7543.52 4984.44 7544.54 4996.01 7543.01 5007.38Z"
        fill="#E0E0E0" />
    <path
        d="M7684 5086.74C7684 5077.33 7687.73 5068.32 7694.38 5061.67C7701.03 5055.02 7710.05 5051.29 7719.45 5051.29C7728.85 5051.29 7737.87 5055.02 7744.52 5061.67C7751.16 5068.32 7754.9 5077.33 7754.9 5086.74C7754.9 5096.14 7751.16 5105.15 7744.52 5111.8C7737.87 5118.45 7728.85 5122.19 7719.45 5122.19C7710.05 5122.19 7701.03 5118.45 7694.38 5111.8C7687.73 5105.15 7684 5096.14 7684 5086.74Z"
        fill="#E0E0E0" />
    <path
        d="M7779.87 5086.74C7779.95 5079.74 7782.1 5072.93 7786.04 5067.15C7789.99 5061.38 7795.55 5056.9 7802.03 5054.27C7808.52 5051.65 7815.63 5051.01 7822.48 5052.42C7829.33 5053.83 7835.61 5057.24 7840.53 5062.21C7845.44 5067.19 7848.78 5073.5 7850.12 5080.37C7851.45 5087.23 7850.73 5094.34 7848.03 5100.8C7845.34 5107.25 7840.79 5112.76 7834.97 5116.64C7829.15 5120.52 7822.32 5122.59 7815.32 5122.59C7810.62 5122.64 7805.95 5121.75 7801.6 5119.96C7797.24 5118.18 7793.3 5115.53 7789.99 5112.19C7786.68 5108.84 7784.08 5104.86 7782.34 5100.49C7780.6 5096.12 7779.76 5091.44 7779.87 5086.74Z"
        fill="#E0E0E0" />
    <path
        d="M7875.34 5086.74C7875.34 5077.33 7879.08 5068.32 7885.73 5061.67C7892.38 5055.02 7901.39 5051.29 7910.79 5051.29C7920.2 5051.29 7929.21 5055.02 7935.86 5061.67C7942.51 5068.32 7946.24 5077.33 7946.24 5086.74C7946.24 5091.39 7945.33 5096 7943.54 5100.3C7941.76 5104.6 7939.15 5108.51 7935.86 5111.8C7932.57 5115.09 7928.66 5117.71 7924.36 5119.49C7920.06 5121.27 7915.45 5122.19 7910.79 5122.19C7906.14 5122.19 7901.53 5121.27 7897.23 5119.49C7892.93 5117.71 7889.02 5115.09 7885.73 5111.8C7882.44 5108.51 7879.82 5104.6 7878.04 5100.3C7876.26 5096 7875.34 5091.39 7875.34 5086.74Z"
        fill="#E0E0E0" />
    <path
        d="M4431.13 6436.62C4431.13 6442.66 4053.28 6447.1 3587.61 6447.1C3121.93 6447.1 2744.08 6442.66 2744.08 6436.62C2744.08 6430.58 3121.53 6426.15 3587.61 6426.15C4053.68 6426.15 4431.13 6431.79 4431.13 6436.62Z"
        fill="black" />
    <path d="M4497.2 6919.62H2744.08V8672.74H4497.2V6919.62Z" fill="#4EAD60" />
    <path
        d="M15149.7 7332.93C15149.7 7338.57 12974.4 7343.4 10289.9 7343.4C7605.45 7343.4 5429.75 7338.57 5429.75 7332.93C5429.75 7327.29 7605.04 7322.45 10289.9 7322.45C12974.8 7322.45 15149.7 7326.88 15149.7 7332.93Z"
        fill="black" />
    <path
        d="M8088.44 7992.76C8088.44 7998.81 7514.81 8003.24 6807.84 8003.24C6100.87 8003.24 5526.84 7998.81 5526.84 7992.76C5526.84 7986.72 6100.07 7982.29 6807.84 7982.29C7515.62 7982.29 8088.44 7987.12 8088.44 7992.76Z"
        fill="black" />
    <path
        d="M13596.4 8605.07C13596.4 8610.71 11789.7 8615.54 9561.6 8615.54C7333.54 8615.54 5526.84 8610.71 5526.84 8605.07C5526.84 8599.43 7333.13 8594.19 9561.6 8594.19C11790.1 8594.19 13596.4 8599.02 13596.4 8605.07Z"
        fill="#E0E0E0" />
    <path
        d="M4431.13 9578.71C4431.13 9584.35 4053.28 9589.19 3587.61 9589.19C3121.93 9589.19 2744.08 9584.35 2744.08 9578.71C2744.08 9573.07 3121.53 9568.24 3587.61 9568.24C4053.68 9568.24 4431.13 9571.86 4431.13 9578.71Z"
        fill="black" />
    <path d="M4497.2 10059.7H2744.08V11812.8H4497.2V10059.7Z" fill="#4EAD60" />
    <path
        d="M15727.3 10472.6C15727.3 10478.6 13421.9 10483.1 10578.7 10483.1C7735.56 10483.1 5429.75 10478.6 5429.75 10472.6C5429.75 10466.6 7734.76 10462.1 10578.7 10462.1C13422.7 10462.1 15727.3 10467 15727.3 10472.6Z"
        fill="black" />
    <path
        d="M8088.44 11132.8C8088.44 11138.5 7514.81 11143.3 6807.84 11143.3C6100.87 11143.3 5526.84 11138.5 5526.84 11132.8C5526.84 11127.2 6100.07 11122.4 6807.84 11122.4C7515.62 11122.4 8088.44 11127.2 8088.44 11132.8Z"
        fill="black" />
    <path
        d="M15001.4 11744.7C15001.4 11750.8 12880.5 11755.2 10264.5 11755.2C7648.55 11755.2 5526.84 11750.8 5526.84 11744.7C5526.84 11738.7 7647.74 11734.3 10264.5 11734.3C12881.3 11734.3 15001.4 11739.1 15001.4 11744.7Z"
        fill="#E0E0E0" />
    <path
        d="M17219.4 12776C17219.4 12706.7 17216.2 8554.31 17211 1989.36L17219.4 1997.82H1475.96L1486.44 1987.35C1486.44 5837.61 1486.44 9495.73 1486.44 12774L1476.77 12764.3L17221.4 12774L1476.77 12783.2H1467.1V12774C1467.1 9495.73 1467.1 5837.61 1467.1 1987.35V1976.88H1478.78H17222.2H17230.7V1985.33C17223.1 8554.31 17219.4 12706.7 17219.4 12776Z"
        fill="#263238" />
    <path
        d="M6929.9 2770.85C6929.9 2776.9 6373.99 2781.33 5688.37 2781.33C5002.75 2781.33 4446.85 2776.9 4446.85 2770.85C4446.85 2764.81 5002.75 2760.38 5688.37 2760.38C6373.99 2760.38 6929.9 2765.21 6929.9 2770.85Z"
        fill="black" />
    <path d="M4690.16 4753.59H2485.06V5417.86H4690.16V4753.59Z" fill="#455A64" />
    <path
        d="M8594.8 6493.42C8594.8 6499.47 7909.99 6503.9 7064.04 6503.9C6218.09 6503.9 5533.28 6499.47 5533.28 6493.42C5533.28 6487.38 6218.09 6482.95 7064.04 6482.95C7909.99 6482.95 8594.8 6487.78 8594.8 6493.42Z"
        fill="#4EAD60" />
    <path
        d="M8594.8 9578.71C8594.8 9584.35 7909.99 9589.19 7064.04 9589.19C6218.09 9589.19 5533.28 9584.35 5533.28 9578.71C5533.28 9573.07 6218.09 9568.24 7064.04 9568.24C7909.99 9568.24 8594.8 9571.86 8594.8 9578.71Z"
        fill="#4EAD60" />
    <path
        d="M15266.9 5158.04C15216.2 5158.12 15166.6 5143.15 15124.4 5115.03C15082.2 5086.91 15049.3 5046.9 15029.9 5000.07C15010.4 4953.23 15005.3 4901.69 15015.2 4851.95C15025.1 4802.22 15049.5 4756.53 15085.3 4720.67C15121.2 4684.82 15166.9 4660.41 15216.6 4650.54C15266.3 4640.67 15317.9 4645.77 15364.7 4665.21C15411.6 4684.66 15451.6 4717.56 15479.7 4759.75C15507.8 4801.94 15522.8 4851.53 15522.7 4902.24C15522.6 4970.05 15495.6 5035.05 15447.7 5083C15399.7 5130.95 15334.7 5157.93 15266.9 5158.04ZM15266.9 4686.32C15224.2 4686.24 15182.4 4698.84 15146.8 4722.51C15111.3 4746.19 15083.5 4779.88 15067.1 4819.33C15050.7 4858.78 15046.4 4902.2 15054.7 4944.11C15063 4986.02 15083.5 5024.54 15113.7 5054.77C15143.9 5085.01 15182.3 5105.61 15224.2 5113.98C15266.1 5122.34 15309.6 5118.09 15349 5101.76C15388.5 5085.43 15422.3 5057.75 15446 5022.24C15469.7 4986.72 15482.4 4944.96 15482.4 4902.24C15482.4 4845.04 15459.7 4790.18 15419.3 4749.7C15378.9 4709.22 15324.1 4686.43 15266.9 4686.32Z"
        fill="#4EAD60" />
    <path
        d="M15581.5 5271.63C15576.1 5271.62 15570.9 5269.45 15567 5265.59L15400.2 5100.03C15398.4 5098.15 15396.9 5095.92 15395.9 5093.47C15394.8 5091.01 15394.3 5088.38 15394.3 5085.73C15394.3 5083.07 15394.8 5080.44 15395.9 5077.99C15396.9 5075.53 15398.4 5073.31 15400.2 5071.43C15402.1 5069.55 15404.3 5068.06 15406.8 5067.04C15409.3 5066.03 15411.9 5065.5 15414.5 5065.5C15417.2 5065.5 15419.8 5066.03 15422.3 5067.04C15424.7 5068.06 15427 5069.55 15428.8 5071.43L15595.6 5236.99C15598.3 5239.86 15600.1 5243.44 15600.9 5247.32C15601.6 5251.19 15601.2 5255.2 15599.7 5258.85C15598.2 5262.5 15595.7 5265.65 15592.5 5267.92C15589.3 5270.19 15585.5 5271.48 15581.5 5271.63Z"
        fill="#4EAD60" />
    <path
        d="M11352.2 7947.65C11352.2 7953.28 10692.7 7958.12 9879.03 7958.12C9065.31 7958.12 8405.47 7953.28 8405.47 7947.65C8405.47 7942.01 9065.31 7937.17 9879.03 7937.17C10692.7 7937.17 11352.2 7941.6 11352.2 7947.65Z"
        fill="black" />
    <path
        d="M13256.4 7902.12C13256.4 7908.17 12911.1 7912.6 12485.8 7912.6C12060.4 7912.6 11714.7 7908.17 11714.7 7902.12C11714.7 7896.08 12060 7891.65 12485.8 7891.65C12911.5 7891.65 13256.4 7896.48 13256.4 7902.12Z"
        fill="black" />
    <path
        d="M11338.1 11132.8C11338.1 11138.5 10678.6 11143.3 9864.93 11143.3C9051.21 11143.3 8391.77 11138.5 8391.77 11132.8C8391.77 11127.2 9051.21 11122.4 9864.93 11122.4C10678.6 11122.4 11338.1 11127.2 11338.1 11132.8Z"
        fill="black" />
    <path
        d="M3430.1 11961.9C3103 12131 2852.44 12422.7 2672.37 12743.8C2492.31 13064.8 2375.89 13416.5 2261.08 13768.2L2160.37 15571.6C2540.65 14924.7 2845.19 14164.1 2928.17 13418.1L2675.19 13395.5C2844.78 13369.8 2987.39 13246.9 3078.02 13101.1C3168.66 12955.2 3214.99 12787.3 3260.51 12621.7L2951.94 12667.6C3196.15 12502.6 3367.39 12249.8 3430.1 11961.9Z"
        fill="#455A64" />
    <g opacity="0.3">
        <path
            d="M3430.1 11961.9C3103 12131.1 2852.44 12422.7 2672.37 12743.8C2492.31 13064.8 2375.89 13416.5 2261.08 13768.2L2160.37 15571.6C2540.65 14924.7 2845.19 14164.1 2928.17 13418.1L2675.19 13395.5C2844.78 13369.8 2987.39 13246.9 3078.02 13101.1C3168.66 12955.2 3214.99 12787.3 3260.51 12621.7L2951.94 12667.6C3196.15 12502.6 3367.39 12249.8 3430.1 11961.9Z"
            fill="black" />
    </g>
    <path
        d="M2103.98 15991.8C2103.98 15991.8 1278.57 15004 1288.24 14061H1621.38C1621.38 14061 1258.84 13822.5 1287.84 13689.2C1316.84 13555.9 1328.12 13051.1 1328.12 13051.1L1633.07 13127.3C1633.07 13127.3 1404.26 13012.8 1375.66 12832C1347.06 12651.1 1442.53 11812.4 1442.53 11812.4C1442.53 11812.4 1813.94 12203.2 1928.34 12603.2C2042.75 13003.2 2340.84 13470.1 2253.02 14689.4C2165.21 15908.8 2103.98 15991.8 2103.98 15991.8Z"
        fill="#455A64" />
    <path
        d="M2522.52 16085.2C2522.52 16085.2 3416.8 15489.5 3615.4 14729.3L3347.11 14654.4C3347.11 14654.4 3690.73 14542.4 3696.77 14428.8C3702.81 14315.2 3805.54 13907.1 3805.54 13907.1L3543.7 13901.9C3543.7 13901.9 3752.77 13861.6 3815.2 13720.6C3877.64 13579.6 3984.8 12886.8 3984.8 12886.8C3984.8 12886.8 3600.5 13119.2 3420.83 13416.1C3241.17 13713 2897.15 14022.3 2701.78 15022.2C2506.4 16022 2522.52 16085.2 2522.52 16085.2Z"
        fill="#455A64" />
    <path
        d="M1666.1 12674.1C1667.52 12677.3 1668.6 12680.7 1669.32 12684.1L1676.57 12714.4C1683.02 12743 1691.88 12782 1703.56 12831.6C1726.52 12933.5 1757.14 13081.3 1791.78 13264.6C1862.28 13630.8 1945.66 14140 2011.33 14705.5C2076.99 15271.1 2111.63 15785.9 2126.54 16159C2134.19 16345.5 2138.22 16496.1 2139.02 16602.1C2139.02 16653.2 2139.02 16693.1 2139.02 16722.9C2139.02 16735.8 2139.02 16745.9 2139.02 16754.3C2139.62 16757.8 2139.62 16761.4 2139.02 16764.8C2138.47 16761.4 2138.47 16757.8 2139.02 16754.3C2139.02 16746.3 2139.02 16735.8 2139.02 16723.3C2139.02 16693.9 2136.61 16654 2134.59 16602.5C2131.37 16498.1 2124.92 16347.5 2115.26 16161.4C2096.73 15788.8 2059.26 15275.2 1994.41 14711.2C1929.55 14147.2 1848.18 13637.2 1781.31 13270.3C1748.28 13087 1720.08 12938.7 1700.74 12836.4C1691.07 12786.5 1683.42 12747 1677.78 12718.8C1675.77 12705.9 1673.75 12695.8 1672.54 12687.8C1669.41 12683.7 1667.21 12679.1 1666.1 12674.1Z"
        fill="#263238" />
    <path
        d="M1989.57 16596.8C1989.57 16596.8 1234.26 15742 999.412 15221.6L1176.66 15146.2C1048.16 15167.2 916.832 15112 817.333 15028.2C721.749 14939.7 639.52 14837.8 573.217 14725.7L806.456 14685.4C592.276 14624.5 409.698 14483.6 296.471 14291.8C572.008 14337 820.152 14488 1026 14676.9C1189.35 14833.6 1337.7 15005.1 1469.11 15189.3C1534.84 15277.9 1592.28 15372.3 1640.72 15471.3C1766.81 15734 1989.98 16282.2 1989.57 16596.8Z"
        fill="#455A64" />
    <path
        d="M3627.08 13387.1C3626.47 13390.2 3625.38 13393.2 3623.86 13395.9L3612.58 13420.9L3567.06 13516.4C3526.78 13597 3469.98 13717.8 3400.69 13867.3C3262.12 14164.1 3078.43 14579.1 2898.76 15045.5C2719.1 15512 2576.5 15941.8 2477.4 16254C2428.66 16410.7 2390.39 16536 2364.61 16625.8L2333.59 16727.8L2325.13 16753.9C2325.13 16759.6 2321.91 16762.8 2321.51 16762.4C2321.1 16762 2321.51 16759.2 2321.51 16753.1L2327.95 16726.6L2354.54 16624.2C2377.9 16535.6 2414.16 16407.9 2461.29 16250.8C2555.15 15936.2 2696.54 15505.2 2877.01 15037.9C3057.48 14570.6 3243.18 14156.5 3385.38 13860.8C3456.28 13713 3515.5 13594.1 3557.8 13512.8L3606.94 13418.9L3620.23 13395.1C3622.2 13392.2 3624.49 13389.5 3627.08 13387.1Z"
        fill="#263238" />
    <path
        d="M2053.62 16964.2C2047.76 16944.2 2043.72 16923.7 2041.54 16903C2035.5 16862.7 2025.42 16806.7 2011.33 16736.6C1974.28 16554.4 1922.97 16375.4 1857.85 16201.3C1791.7 16027.3 1711.82 15859 1618.97 15697.7C1583.12 15636.1 1553.31 15586.5 1531.55 15553.1C1519.69 15536 1509.31 15518 1500.54 15499.1C1514.61 15514.3 1527.28 15530.8 1538.4 15548.3C1562.17 15580.9 1594.39 15628.8 1631.86 15690.5C1728.98 15850.3 1811.23 16018.7 1877.59 16193.6C1943.43 16368.8 1993.05 16549.6 2025.83 16733.8C2037.91 16804.7 2045.97 16861.9 2049.59 16902.2C2052.66 16922.7 2054.01 16943.5 2053.62 16964.2Z"
        fill="#263238" />
    <path d="M3050.23 16762.4H1397.01V17099.6H3050.23V16762.4Z" fill="#4EAD60" />
    <path d="M1554.51 17100L1733.37 18234H2732.39L2899.17 17100H1554.51Z" fill="#4EAD60" />
    <path
        d="M2948.71 17100C2948.71 17105.6 2636.12 17110.5 2250.2 17110.5C1864.29 17110.5 1552.1 17105.6 1552.1 17100C1552.1 17094.3 1864.69 17089.5 2250.2 17089.5C2635.71 17089.5 2948.71 17093.9 2948.71 17100Z"
        fill="#263238" />
    <path
        d="M10148.5 17397.3V18233.5L11835.6 18225.5C11823.5 18055.9 10897.4 17717.5 10897.4 17717.5L10915.9 17395.3L10148.5 17397.3Z"
        fill="#455A64" />
    <g opacity="0.6">
        <path
            d="M10422 17641.8C10405.6 17647.8 10391.9 17659.6 10383.5 17674.9C10375 17690.2 10372.4 17708.1 10376.1 17725.2C10380 17742 10390.3 17756.6 10404.8 17765.9C10419.4 17775.2 10437 17778.3 10453.9 17774.7C10471.3 17768.2 10485.8 17755.6 10494.6 17739.2C10503.5 17722.9 10506.2 17703.9 10502.2 17685.7C10499.2 17677.4 10494.6 17669.7 10488.7 17663.1C10482.7 17656.6 10475.5 17651.3 10467.5 17647.5C10459.5 17643.8 10450.8 17641.7 10442 17641.3C10433.1 17640.9 10424.3 17642.3 10416 17645.4"
            fill="white" />
    </g>
    <path d="M10148.5 18233.5V18100.2L11759.8 18119.1C11759.8 18119.1 11843.6 18169.5 11836 18225.5L10148.5 18233.5Z"
        fill="#263238" />
    <path
        d="M10898.2 17733.6C10898.2 17742.5 10857.9 17746.9 10817.6 17773.9C10777.3 17800.9 10756.8 17839.2 10749.1 17836C10741.5 17832.7 10753.2 17782 10801.9 17748.5C10850.7 17715.1 10899.8 17725.6 10898.2 17733.6Z"
        fill="#263238" />
    <path
        d="M11119.3 17811C11119.3 17819.4 11085.9 17834.7 11058.5 17871.8C11031.1 17908.9 11023.9 17947.9 11015.8 17947.5C11007.8 17947.1 11001.7 17898.4 11036.4 17852.9C11071 17807.4 11118.9 17802.9 11119.3 17811Z"
        fill="#263238" />
    <path
        d="M11218.8 18024.1C11211.2 18026.1 11199.1 17983.8 11218.8 17935C11238.6 17886.3 11277.3 17867.8 11280.9 17875C11284.5 17882.3 11261.1 17908.1 11245 17947.5C11228.9 17987 11226.9 18023.3 11218.8 18024.1Z"
        fill="#263238" />
    <path
        d="M10881.7 17495.6C10878.5 17503.6 10841.4 17492.3 10794.3 17495.6C10747.1 17498.8 10713.7 17515.7 10708.1 17508C10702.4 17500.4 10737.9 17467.8 10792.2 17465.3C10846.6 17462.9 10885.7 17488.7 10881.7 17495.6Z"
        fill="#263238" />
    <path
        d="M10891.3 17771.1C10895.9 17754.4 10897.1 17737.1 10895 17719.9C10891.3 17673 10875.9 17627.7 10850.3 17588.2C10832.7 17561.1 10810.3 17537.5 10784.2 17518.5C10776.5 17511.9 10767.2 17507.5 10757.2 17505.7C10747.2 17504 10736.9 17504.9 10727.4 17508.5C10717.5 17514 10709.2 17521.9 10703.4 17531.6C10697.5 17541.3 10694.3 17552.3 10694 17563.6C10696.6 17607.3 10712 17649.1 10738.4 17684C10764.8 17718.8 10800.9 17745.1 10842.2 17759.4C10882.6 17772.2 10925.9 17772.6 10966.6 17760.6C11007.2 17748.5 11043.3 17724.5 11070.2 17691.7C11083.4 17676.6 11093.6 17659.1 11100.4 17640.2C11103.8 17629.3 11103.8 17617.6 11100.4 17606.7C11098.5 17601.3 11095.5 17596.3 11091.6 17592.2C11087.6 17588 11082.8 17584.7 11077.5 17582.6C11060 17577.4 11041.2 17579.3 11025.1 17587.8C11011.1 17594.2 10997.7 17601.6 10984.8 17610C10946.9 17635.4 10914.2 17667.8 10888.5 17705.4C10878 17718.8 10870.1 17733.9 10865.2 17750.2C10900.1 17701.1 10943.6 17658.8 10993.7 17625.3C11016.2 17612.4 11046 17593.9 11069.8 17602.3C11080.3 17606.3 11084.3 17618.8 11079.5 17633.3C11073.3 17649.1 11064.3 17663.6 11052.9 17676C11028.5 17705 10996.1 17726.1 10959.7 17736.6C10923.4 17747.2 10884.7 17746.7 10848.6 17735.2C10812.6 17722.5 10780.9 17699.7 10757.3 17669.6C10733.6 17639.5 10719.1 17603.3 10715.3 17565.3C10715 17558 10716.7 17550.8 10720.2 17544.4C10723.7 17538 10728.8 17532.7 10735 17529C10741.5 17526.9 10748.3 17526.5 10754.9 17527.8C10761.5 17529.1 10767.7 17532 10772.9 17536.2C10797.3 17553.2 10818.4 17574.3 10835.4 17598.7C10860.7 17634.7 10877.7 17676 10884.9 17719.5C10890.1 17753 10889.3 17771.1 10891.3 17771.1Z"
        fill="#263238" />
    <path
        d="M9532.59 17518.1L9561.19 17733.6L9542.26 18219L8909.82 18234.3L8887.26 17733.6L8958.96 17435.9L9532.59 17518.1Z"
        fill="#455A64" />
    <path
        d="M9229.66 18182.4C9225.64 18182.4 9234.9 18034.1 9249.81 17850.9C9264.71 17667.6 9280.42 17518.5 9284.05 17518.1C9287.67 17517.7 9278.81 17666.8 9263.9 17850.1C9249 18033.3 9233.29 18182.4 9229.66 18182.4Z"
        fill="#263238" />
    <path d="M9544.68 18138.1L8905.79 18145.7V18234.4L9545.08 18234L9544.68 18138.1Z" fill="#263238" />
    <path
        d="M8907.4 17858.9C8907.4 17858.9 8911.83 17848.8 8923.51 17833.5C8940.26 17811.6 8959.15 17791.3 8979.91 17773.1C9010.41 17745.5 9044.73 17722.4 9081.82 17704.6C9146.69 17672.9 9220.04 17662.9 9291.05 17676C9362.06 17689.1 9426.97 17724.7 9476.2 17777.5C9494.8 17798.2 9510.39 17821.4 9522.52 17846.4C9527.66 17855.2 9531.08 17864.9 9532.59 17875C9512.94 17843.9 9490.85 17814.4 9466.53 17786.8C9403.27 17724.5 9318.07 17689.5 9229.26 17689.3C9140.24 17692 9054.87 17725.3 8987.56 17783.6C8935.6 17826.7 8909.82 17861.3 8907.4 17858.9Z"
        fill="#263238" />
    <path
        d="M9226.84 3968.88L9222.01 6154.64L10160.2 6199.36L10187.6 5667.62C10187.6 5667.62 10520.7 5733.68 10606.5 5425.92C10661.7 5228.13 10646.8 3700.19 10646.8 3700.19L9226.84 3968.88Z"
        fill="#B78876" />
    <path
        d="M10769.3 3853.67C10621.4 3895.97 10589.2 4135.65 10589.2 4135.65L10357.6 4647.65C10239.6 4555.4 10080.8 4560.64 10051 4768.5C10029.3 4918.35 10215.8 4948.56 10215.8 4948.56C10107 5133.46 10033.7 5282.91 9875.4 5458.55C9705.41 5649.89 9608.73 5668.83 9423.43 5671.24H9218.79C9218.79 5671.24 9118.48 5346.16 8933.18 4533.65C8727.74 3632.11 9793.63 3748.13 9991.42 3518.11C10313.3 3143.88 11236.2 3720.33 10769.3 3853.67Z"
        fill="#263238" />
    <path
        d="M11029.5 3657.09C11021.4 3609.01 10996.3 3565.42 10958.9 3534.18C10921.4 3502.94 10874 3486.1 10825.3 3486.69C10840.5 3461 10846.2 3430.75 10841.4 3401.28C10836.5 3371.8 10821.4 3344.99 10798.7 3325.56C10775.1 3307.05 10747.8 3293.87 10718.7 3286.92C10689.6 3279.96 10659.3 3279.4 10629.9 3285.27C10571.1 3297.16 10514.4 3317.52 10461.5 3345.7C10441.7 3287.27 10403.6 3236.82 10352.8 3201.89C10298 3169.83 10235.2 3154.3 10171.9 3157.17C9883.86 3157.17 9732.4 3354.16 9577.71 3555.17C9555.15 3592.62 9522.85 3623.25 9484.25 3643.79C9456.17 3652.05 9426.86 3655.32 9397.64 3653.46C9287.6 3656.95 9180.42 3689.4 9086.92 3747.53C8993.42 3805.67 8916.91 3887.44 8865.1 3984.59C8764.39 4179.16 8689.06 4629.12 8950.1 4911.1L9107.2 5261.97L10611 4070.39C10621.8 4076.03 10716.1 4121.95 10788.6 4084.09C10968.7 3989.02 10893 3831.11 10893 3831.11C10907.5 3821.04 11044.8 3753.77 11029.5 3657.09Z"
        fill="#263238" />
    <path
        d="M9637.73 4829.73C9650.29 4884.58 9648.49 4941.74 9632.5 4995.69C9624.03 5051.39 9601.11 5103.89 9566.03 5147.97C9559.58 5144.74 9589.79 5077.87 9609.13 4990.46C9628.47 4903.04 9630.88 4829.73 9637.73 4829.73Z"
        fill="#455A64" />
    <path
        d="M9751.33 4722.17C9759.2 4775.94 9756.18 4830.73 9742.47 4883.31C9736.47 4936.9 9719.61 4988.71 9692.92 5035.58C9696.88 4982.66 9705.64 4930.21 9719.1 4878.88C9724.87 4825.74 9735.66 4773.27 9751.33 4722.17Z"
        fill="#455A64" />
    <path
        d="M10076 4361.24C10078.4 4364.46 10051.8 4383.79 10018 4423.27C9974.88 4475.56 9940.71 4534.64 9916.89 4598.1C9893.78 4662.28 9875.07 4727.96 9860.9 4794.68C9856.93 4822.5 9849.06 4849.62 9837.54 4875.25C9835.84 4846.47 9838.14 4817.59 9844.38 4789.45C9853.93 4720.7 9870.81 4653.18 9894.74 4588.03C9919.26 4521.95 9957.1 4461.62 10005.9 4410.78C10025 4388.94 10049 4371.96 10076 4361.24Z"
        fill="#455A64" />
    <path
        d="M10207.3 4115.91C10210.2 4115.91 10219.8 4136.86 10225.9 4174.72C10232.7 4224.62 10229.8 4275.36 10217.4 4324.17C10205.6 4373.08 10184.1 4419.11 10154.2 4459.53C10131.2 4490.54 10113.9 4505.45 10110.3 4503.43C10106.6 4501.42 10167.9 4428.1 10194.4 4318.53C10221 4208.96 10200.1 4116.72 10207.3 4115.91Z"
        fill="#455A64" />
    <path
        d="M9087.87 4661.75C9084.64 4667.79 9056.04 4657.72 9023.82 4639.59C8991.59 4621.46 8967.82 4602.53 8971.05 4596.49C8974.27 4590.45 9002.87 4600.92 9035.1 4619.05C9067.32 4637.17 9091.09 4656.11 9087.87 4661.75Z"
        fill="#455A64" />
    <path
        d="M9541.05 4428.51C9544.72 4462.44 9535.2 4496.47 9514.47 4523.58C9485.46 4571.51 9446.39 4596.49 9442.36 4591.65C9438.33 4586.82 9467.74 4555.4 9493.92 4511.09C9520.11 4466.78 9534.2 4426.9 9541.05 4428.51Z"
        fill="#455A64" />
    <path
        d="M9680.43 4353.58C9679.95 4394.86 9665.78 4434.82 9640.15 4467.18C9602.68 4524.38 9555.55 4555 9551.93 4547.75C9548.3 4540.5 9585.36 4507.46 9620.41 4452.28C9638.49 4418.24 9658.53 4385.29 9680.43 4353.58Z"
        fill="#455A64" />
    <path
        d="M10373.3 3437.54C10373.3 3437.54 10355.6 3424.25 10321.7 3404.91C10273.3 3379.23 10219.5 3365.42 10164.6 3364.63C10083.4 3362.48 10003.2 3383.88 9933.81 3426.26C9850.47 3481.01 9782.85 3556.54 9737.63 3645.4C9703.01 3710.44 9675.97 3779.24 9657.07 3850.45L9653.04 3864.14L9640.55 3857.29C9575.95 3823.49 9504.38 3805.15 9431.48 3803.72C9373.62 3802.4 9315.97 3811.12 9261.08 3829.5C9212.24 3847.62 9165.51 3870.98 9121.7 3899.19C9130.74 3888.41 9141.33 3879.04 9153.12 3871.39C9184.79 3848.33 9219.49 3829.76 9256.25 3816.21C9312.2 3794.9 9371.61 3784.11 9431.48 3784.38C9507.95 3784.19 9583.37 3802.28 9651.43 3837.15L9634.91 3844.4C9653.53 3771.43 9680.56 3700.86 9715.48 3634.13C9762.63 3541.62 9833.71 3463.45 9921.32 3407.73C9994.2 3364.31 10078.3 3343.43 10163 3347.71C10220.1 3350.16 10275.6 3367.22 10324.2 3397.26C10337.1 3405.46 10349.1 3415.05 10360 3425.86C10370.1 3433.11 10373.7 3437.14 10373.3 3437.54Z"
        fill="#455A64" />
    <path
        d="M10866.8 3556.78C10864.8 3556.78 10892.6 3549.53 10920.3 3580.95C10928.4 3590.33 10934.4 3601.22 10938.2 3612.99C10941.9 3624.75 10943.2 3637.14 10942.1 3649.43C10939.7 3665.82 10933.4 3681.41 10923.9 3694.97C10914.4 3708.53 10901.9 3719.7 10887.3 3727.58C10852.7 3747.2 10811.9 3752.83 10773.3 3743.29C10730.9 3732.12 10691 3712.68 10656.1 3686.09C10619.4 3656.84 10580.9 3629.93 10540.9 3605.52C10497.5 3582.08 10450.8 3565.63 10402.3 3556.78C10308.2 3539.83 10211.3 3546.47 10120.3 3576.12C10045.6 3600.73 9975.13 3636.59 9911.25 3682.46C9801.68 3761.02 9747.7 3827.08 9744.08 3823.46C9754.91 3806.75 9767.47 3791.22 9781.54 3777.13C9818.43 3737.39 9858.88 3701.12 9902.39 3668.77C9966.62 3619.78 10038.3 3581.42 10114.7 3555.17C10209.3 3523.1 10310.5 3515.61 10408.8 3533.42C10459.7 3542.78 10508.7 3560.19 10554.2 3584.98C10594.7 3609.28 10633.6 3636.2 10670.6 3665.55C10703 3691.03 10740.1 3709.92 10779.8 3721.14C10813.8 3730.48 10850 3726.59 10881.3 3710.26C10893.9 3703.81 10904.9 3694.59 10913.5 3683.3C10922.1 3672 10928 3658.91 10930.8 3645C10933.7 3623.45 10928.1 3601.63 10915.1 3584.17C10902.8 3569.6 10885.6 3559.89 10866.8 3556.78Z"
        fill="#455A64" />
    <path
        d="M15237.5 5234.57C15202 5203.15 14724.3 5403.36 14724.3 5403.36C14724.3 5403.36 14367.8 5685.34 14221.1 5848.49L14130.5 5923.82L12774.6 6978.03L11106.9 6284.35L10744.3 7214.49C10744.3 7214.49 12616.7 7960.13 12901.9 7832.44C13211.7 7693.86 14365.8 6485.77 14368.6 6481.74L14535.4 6320.61C14535.4 6320.61 14623.6 6320.61 14690.4 6314.97C14757.3 6309.33 14953.1 6180.83 14953.1 6180.83C14971.7 6145.07 14984.5 6106.59 14991 6066.82C14995.1 6050.99 14993.7 6034.23 14987.1 6019.26C14980.6 6004.28 14969.1 5991.95 14954.7 5984.24C14961.5 5953.28 14962.6 5921.34 14957.9 5889.98C14950.3 5836.81 14877.4 5775.17 14877.4 5775.17C14900.1 5752.02 14915.6 5722.78 14922.1 5690.98C14938.2 5629.35 14858.8 5570.13 14858.8 5570.13C14858.8 5570.13 15136.4 5381.61 15203.7 5348.17C15270.9 5314.74 15272.9 5266 15237.5 5234.57Z"
        fill="#B78876" />
    <path
        d="M11352.2 14762.7C11357.8 14701.5 11360.6 14654.4 11360.6 14625L11549.2 11618.7C11549.2 11618.7 11390.9 10740.5 11315.9 10507.6L10642.8 10247L9745.69 10596.3C9740.05 10524.2 9736.43 10479.4 9736.43 10479.4L8416.35 10936.3C8416.35 10936.3 8382.11 11837.4 8416.35 12111.7C8427.63 12199.9 8461.87 12427.5 8503.76 12695.8C8503.76 12695.8 8546.46 13278.7 8555.32 13311.3C8587.15 13430.2 8595.61 13721.4 8595.61 14013.1C8595.61 14383.7 8615.75 14824.8 8639.11 15034.3C8662.48 15243.7 8673.35 17549.5 8673.35 17549.5H9648.21L9773.49 13877.3C9794.43 13483.8 9825.85 12881.9 9846 12446.5L10074.8 13802.4C10074.8 13851.9 10214.2 14627.4 10214.2 14627.4C10182 14871.4 10162.1 15116.9 10154.6 15363C10138.5 16047.8 10058.3 17549.5 10058.3 17549.5H11012.2C11012.2 17549.5 11299 15379.1 11354.6 14762.7H11352.2Z"
        fill="#263238" />
    <path
        d="M11518.1 11438.6C11486.8 11426.8 11457.2 11410.9 11429.9 11391.5C11362.3 11348 11299.1 11298 11241.4 11242C11183.7 11186.1 11131.6 11124.7 11085.9 11058.7C11065.3 11032.4 11048.6 11003.2 11036.4 10972.1C11058.5 10996.6 11078.9 11022.6 11097.6 11049.9C11146.2 11112.7 11199.1 11172 11255.9 11227.5C11312.8 11282.4 11373.5 11333.1 11437.6 11379.4C11465.8 11397.2 11492.7 11416.9 11518.1 11438.6Z"
        fill="#455A64" />
    <path
        d="M9814.98 11984.8C9807.33 11975.9 9801.08 11965.8 9796.45 11955C9781.47 11926.8 9768.03 11897.7 9756.16 11868C9715.36 11770.2 9685.51 11668.2 9667.14 11563.9C9649.21 11459.5 9642.73 11353.4 9647.8 11247.6C9650.22 11207.4 9653.44 11174.7 9657.07 11152.2C9657.77 11140.3 9660.36 11128.6 9664.72 11117.5C9667.94 11117.5 9664.72 11167.9 9662.71 11248C9661.5 11352.7 9669.86 11457.2 9687.68 11560.2C9705.48 11663.3 9732.44 11764.5 9768.25 11862.8C9796.85 11938.1 9817.8 11983.2 9814.98 11984.8Z"
        fill="#455A64" />
    <path
        d="M9956.77 13116.8C9950.82 13099.8 9946.64 13082.2 9944.29 13064.4C9937.3 13026.3 9928.44 12978.3 9917.7 12920.6C9896.75 12794.5 9868.55 12628.5 9837.13 12444.9C9783.15 12107.7 9746.5 11878.1 9729.58 11771.3C9751.47 11834.4 9766.86 11899.6 9775.5 11965.9C9798.86 12086.7 9827.87 12255.5 9858.48 12441.2C9889.1 12626.9 9914.48 12796.1 9932.2 12918.2C9939.86 12976.2 9946.7 13024.5 9951.94 13063.2C9955.54 13080.8 9957.16 13098.8 9956.77 13116.8Z"
        fill="#455A64" />
    <path
        d="M7656.2 8102.33C7656.2 8102.33 7527.7 9008.3 7503.53 9325.73C7489.03 9517.08 7683.19 9768.85 7831.43 9789.39C7979.68 9809.94 8479.19 9837.73 8479.19 9837.73L8519.47 9269.34L8506.58 9156.14L8351.49 9127.14L8398.22 8225.6L7656.2 8102.33Z"
        fill="#B78876" />
    <path
        d="M8378.88 8256.21C8382.88 8272.29 8384.9 8288.79 8384.93 8305.36C8387.34 8337.18 8388.95 8383.11 8390.16 8440.31C8392.98 8553.91 8390.16 8711.41 8380.49 8883.42C8370.83 9055.43 8356.73 9213.74 8345.85 9326.54C8339.81 9382.93 8334.97 9428.86 8330.95 9460.28C8330.04 9476.8 8327.2 9493.16 8322.49 9509.02C8320.65 9492.55 8320.65 9475.94 8322.49 9459.47C8324.5 9423.22 8327.32 9378.9 8330.54 9324.93C8338.2 9206.9 8347.86 9052.61 8358.74 8881.81C8369.62 8711.01 8373.65 8552.29 8374.85 8438.7C8374.85 8385.52 8374.85 8340.4 8374.85 8304.15C8374.52 8288.07 8375.87 8272.01 8378.88 8256.21Z"
        fill="#AA6550" />
    <g opacity="0.3">
        <path
            d="M8428.03 10952.8C8681.81 11047 8959.77 11054.7 9229.26 11031.3C9498.75 11008 9765.43 10953.6 10034.9 10928.2C10443.3 10890 10855.2 10917.2 11255.1 11008.8C11283 11017.2 11312.3 11020 11341.3 11016.8C11355.7 11015 11369.2 11008.9 11380.1 10999.2C11390.9 10989.6 11398.6 10976.9 11402.1 10962.8C11409.4 10917.7 11359.8 10886.3 11317.9 10869C10856.9 10678.3 10361.2 10585.6 9862.38 10596.7C9363.57 10607.8 8872.51 10722.4 8420.38 10933.4"
            fill="black" />
    </g>
    <path
        d="M12313.7 6696.05L10882.9 5983.84C10657.3 5957.37 10430 5947.4 10202.9 5954.03H9255.85C9255.85 5954.03 8108.58 6292.41 7918.85 6604.6L7426.99 8078.97L8399.43 8225.6L8520.28 9285.04C8520.28 9285.04 8399.43 10511.7 8399.43 10689.7C8396.79 10772.2 8401.78 10854.7 8414.33 10936.3C8414.33 10936.3 10360 10640.6 10839 10796.5C11317.9 10952.4 11447.3 10936.3 11447.3 10936.3C11447.3 10936.3 11407 10427.1 11371.9 10130.6L11261.5 8652.2L11181 7524.27L12081.3 7799.8L12313.7 6696.05Z"
        fill="#4EAD60" />
    <path
        d="M8390.57 8237.28C8386.94 8237.28 8377.27 8176.45 8355.92 8078.16C8327.48 7950.31 8289.79 7824.7 8243.13 7702.32C8195.48 7579.01 8139.77 7458.98 8076.36 7342.99L8017.54 7237.45C8009.22 7224.95 8002.58 7211.41 7997.8 7197.17C8008.32 7207.99 8017.52 7220.03 8025.2 7233.02C8041.71 7256.79 8065.48 7291.84 8090.05 7336.15C8158.06 7450.67 8216.28 7570.74 8264.08 7695.07C8311.2 7818.33 8347.07 7945.61 8371.23 8075.34C8380.09 8124.89 8385.73 8165.17 8388.55 8193.37C8391.03 8207.87 8391.71 8222.62 8390.57 8237.28Z"
        fill="#263238" />
    <path
        d="M10225.5 8655.82C10224.7 8662.63 10222.9 8669.28 10220.2 8675.56L10202.1 8729.95C10194 8753.71 10184 8782.31 10170.7 8815.35C10157.4 8848.38 10143.3 8886.24 10124.8 8926.53C10089.7 9007.09 10044.2 9104.58 9986.99 9208.51C9929.78 9312.44 9862.11 9422.82 9785.57 9534.8C9709.03 9646.79 9624.44 9747.9 9548.3 9837.33C9472.17 9926.76 9396.03 10002.1 9330.77 10063.3C9298.95 10094.7 9267.93 10120.9 9241.75 10143.9C9215.56 10166.8 9191.8 10187.4 9172.46 10203.1L9127.34 10238.5C9122.27 10243 9116.73 10246.9 9110.83 10250.2C9110.83 10250.2 9115.26 10244.6 9124.93 10235.3L9167.22 10195C9185.75 10178.9 9207.51 10158.4 9234.09 10133.8C9260.68 10109.2 9289.68 10082.7 9320.7 10050.8C9384.35 9988.79 9456.86 9911.45 9533.8 9822.83C9610.74 9734.2 9690.5 9631.89 9768.65 9521.11C9846.8 9410.33 9913.67 9299.55 9970.07 9198.84C10026.5 9098.13 10074.4 9001.45 10111.1 8920.48C10130.4 8880.2 10145.3 8842.74 10159.4 8810.51C10173.5 8778.28 10185.2 8750.09 10194.4 8726.72C10203.7 8703.36 10210.2 8686.44 10216.2 8673.55C10218.5 8667.28 10221.7 8661.32 10225.5 8655.82Z"
        fill="#263238" />
    <path
        d="M10886.5 6081.33C10848.9 6135.15 10823.2 6196.41 10811.2 6260.99C10799.1 6330.97 10799.1 6402.5 10811.2 6472.48C10826.8 6558.61 10847 6643.87 10871.6 6727.87C10921.2 6908.34 10973.1 7069.07 11013 7185.09C11031.9 7239.87 11047.6 7285.79 11060.5 7322.45C11067.2 7338.99 11072.3 7356.12 11075.8 7373.61C11066.4 7358.33 11058.6 7342.13 11052.5 7325.27C11039.2 7293.85 11020.3 7247.93 10998.5 7190.32C10955 7075.52 10900.2 6914.38 10850.7 6733.51C10826.6 6649.15 10807.3 6563.47 10793.1 6476.91C10781.2 6404.91 10782.3 6331.39 10796.3 6259.78C10806.2 6211.45 10825 6165.41 10851.9 6124.03C10860.7 6107.8 10872.5 6093.33 10886.5 6081.33Z"
        fill="#263238" />
    <path
        d="M8186.73 7633.44C8165.51 7656.36 8139.33 7674.14 8110.19 7685.4C8041.74 7716.82 7965.58 7727.49 7891.13 7716.11C7816.68 7704.73 7747.19 7671.79 7691.25 7621.35C7666.87 7602.05 7647.29 7577.37 7634.05 7549.24C7636.87 7546.83 7657.82 7575.43 7700.92 7610.07C7756.99 7655.4 7824.11 7685 7895.4 7695.83C7966.68 7706.66 8039.56 7698.34 8106.57 7671.71C8156.12 7651.56 8184.72 7630.62 8186.73 7633.44Z"
        fill="white" />
    <path
        d="M10928.8 6968.36C10926 6979.07 10922.1 6989.47 10917.1 6999.38C10908.3 7019.52 10894.6 7048.52 10874.8 7084.78C10818.1 7187.6 10746.4 7281.41 10662.1 7363.14C10536.1 7485.45 10378.9 7570.86 10207.7 7610.07C10106.8 7633.2 10002.5 7637.71 9899.97 7623.37C9790.25 7605.91 9684.68 7568.35 9588.59 7512.59C9390.8 7402.21 9223.62 7262.43 9040.74 7195.56C8878.97 7135.76 8702.94 7126.07 8535.58 7167.76C8422.64 7194.87 8316.05 7243.71 8221.78 7311.57C8155.71 7360.32 8124.7 7394.56 8123.08 7392.14C8151.29 7359.86 8182.74 7330.56 8216.94 7304.73C8333.89 7216.1 8471.07 7158.02 8616.1 7135.72C8761.12 7113.43 8909.42 7127.62 9047.58 7177.03C9234.9 7244.7 9403.28 7384.89 9598.66 7493.65C9692.43 7548.9 9795.5 7586.57 9902.79 7604.84C10003 7618.93 10104.9 7614.84 10203.7 7592.75C10371.9 7555.07 10526.7 7472.51 10651.7 7353.87C10736.3 7274.18 10809 7182.74 10867.6 7082.36C10888.1 7046.91 10903.4 7018.31 10913.1 6998.98C10917.5 6988.38 10922.8 6978.14 10928.8 6968.36Z"
        fill="white" />
    <path
        d="M11824.7 6451.53C11832.7 6466.33 11838.9 6482.01 11843.2 6498.26C11856.5 6541.84 11864.4 6586.89 11866.6 6632.4C11874.4 6784.98 11826.1 6935.14 11730.8 7054.57C11675.5 7115.84 11615.4 7172.68 11551.2 7224.56C11500.8 7266.86 11459.6 7319.11 11430.3 7378.04C11410.5 7417.73 11401.2 7461.84 11403.3 7506.14C11405.8 7537.56 11412.6 7554.48 11410.6 7554.88C11408.6 7555.29 11407.8 7551.26 11404.6 7543.2C11400 7531.54 11396.9 7519.36 11395.3 7506.95C11389.8 7460.85 11397.2 7414.13 11416.6 7372C11445 7310.28 11486.2 7255.34 11537.5 7210.87C11600 7158.75 11658.8 7102.35 11713.5 7042.08C11805.5 6926.09 11854.1 6781.61 11850.9 6633.61C11847.8 6572.24 11839 6511.28 11824.7 6451.53Z"
        fill="white" />
    <path
        d="M9497.55 9847.8C9484.86 9854.59 9471.31 9859.6 9457.26 9862.71C9418.43 9873.82 9378.85 9882.17 9338.83 9887.68C9278.51 9897.69 9216.72 9894.11 9157.96 9877.21C9123.11 9866.13 9090.89 9848.03 9063.29 9824.03C9035.55 9797.69 9009.71 9769.42 8985.95 9739.44C8962.65 9710.9 8935.54 9685.69 8905.38 9664.51C8876.69 9645.8 8845.68 9630.91 8813.14 9620.2C8757.38 9602.38 8698.44 9596.74 8640.32 9603.69C8600.92 9608.02 8562.53 9618.92 8526.72 9635.91C8513.8 9643.14 8500.33 9649.33 8486.44 9654.44C8496.99 9643.87 8509.24 9635.15 8522.69 9628.66C8558.34 9608.06 8597.57 9594.39 8638.31 9588.38C8698.63 9578.71 8760.36 9582.98 8818.78 9600.87C8853.4 9611.49 8886.36 9626.95 8916.66 9646.79C8948.85 9668.46 8977.63 9694.8 9002.06 9724.94C9025.19 9754.09 9050.22 9781.68 9076.99 9807.52C9102.54 9829.97 9132.24 9847.21 9164.41 9858.28C9220.55 9874.88 9279.53 9879.68 9337.62 9872.37C9435.51 9860.69 9496.74 9844.18 9497.55 9847.8Z"
        fill="white" />
    <path
        d="M11350.2 9762C11346.3 9766.14 11342 9769.8 11337.3 9772.87C11324.4 9782.53 11310.9 9791.41 11297 9799.46C11247 9830.01 11192.6 9852.95 11135.9 9867.54C11050.5 9889.48 10961.7 9894.68 10874.4 9882.85C10766.7 9868.27 10664.5 9826.7 10577.1 9762C10494.2 9694.98 10414.8 9623.58 10339.5 9548.09C10277.8 9488.16 10206.4 9439.13 10128.4 9403.07C10076 9378.8 10019 9366.16 9961.21 9366.01C9920.92 9366.01 9897.56 9372.86 9897.16 9370.45C9902.29 9368.04 9907.7 9366.28 9913.27 9365.21C9928.81 9361.02 9944.74 9358.45 9960.8 9357.55C10020.3 9354.87 10079.7 9365.75 10134.4 9389.38C10215 9424.37 10288.8 9473.33 10352.4 9533.99C10426.1 9599.25 10499.4 9678.61 10589.6 9745.08C10674.2 9807.25 10772.9 9847.4 10876.8 9861.9C10961.9 9874.21 11048.4 9870.8 11132.2 9851.83C11188.3 9838.49 11242.5 9818.05 11293.4 9791C11311.7 9780.18 11330.7 9770.49 11350.2 9762Z"
        fill="white" />
    <path
        d="M14774.2 4022.05C14481.7 3882.1 14226.3 3675.01 14028.9 3417.67C13831.5 3160.32 13697.7 2859.99 13638.3 2541.13C13579 2222.28 13595.8 1893.91 13687.4 1582.78C13779 1271.66 13942.8 986.565 14165.4 750.727C14388.1 514.889 14663.3 334.975 14968.6 225.638C15274 116.3 15600.8 80.6325 15922.6 121.539C16244.3 162.445 16551.8 278.768 16820.1 461.035C17088.4 643.302 17309.8 886.357 17466.4 1170.41C17677.2 1552.4 17761.2 1991.49 17706.3 2424.33C17651.4 2857.17 17460.4 3261.38 17160.9 3578.64C16861.4 3895.9 16468.8 4109.81 16039.9 4189.51C15610.9 4269.21 15167.7 4210.57 14774.2 4022.05ZM16491.1 431.21C16077.9 233.954 15607.8 190.82 15165.5 309.583C14723.3 428.347 14338.1 701.194 14079.2 1078.93C13820.4 1456.67 13705.1 1914.45 13754 2369.73C13802.9 2825 14012.9 3247.83 14346 3561.97C14679.1 3876.11 15113.6 4060.9 15570.9 4083.02C16028.3 4105.13 16478.5 3963.12 16840.4 3682.59C17202.3 3402.06 17452.1 3001.46 17544.7 2553.03C17637.3 2104.59 17566.7 1637.82 17345.5 1236.87C17151.8 885.686 16853.1 603.954 16491.1 431.21Z"
        fill="#263238" />
    <path
        d="M18249.9 6275.49C18192 6311.04 18122.5 6322.23 18056.4 6306.6C17990.3 6290.97 17933.2 6249.8 17897.4 6192.1L16550.7 4009.16C16544.6 3999.28 16542.6 3987.36 16545.3 3976.03C16547.9 3964.7 16554.9 3954.88 16564.8 3948.74L16852 3771.49C16861.8 3765.51 16873.5 3763.56 16884.7 3766.03C16895.9 3768.51 16905.7 3775.23 16912.1 3784.78L18328.4 5912.94C18347.9 5941.64 18361.3 5974 18367.9 6008.05C18374.5 6042.11 18374.2 6077.14 18366.8 6111.04C18359.5 6144.94 18345.3 6177 18325.2 6205.26C18305.1 6233.53 18279.5 6257.42 18249.9 6275.49Z"
        fill="#263238" />
    <path
        d="M14823.8 3918.12C14531 3778.24 14275.5 3571.18 14077.9 3313.8C13880.3 3056.42 13746.4 2756.01 13686.9 2437.04C13627.5 2118.07 13644.2 1789.57 13735.8 1478.31C13827.4 1167.04 13991.2 881.813 14213.9 645.865C14436.7 409.917 14712 229.924 15017.4 120.551C15322.9 11.1776 15649.9 -24.4816 15971.8 16.4788C16293.6 57.4391 16601.3 173.86 16869.6 356.256C17137.9 538.652 17359.4 781.863 17515.9 1066.07C17726.6 1448.09 17810.5 1887.14 17755.6 2319.93C17700.6 2752.71 17509.7 3156.87 17210.2 3474.12C16910.7 3791.37 16518.3 4005.32 16089.4 4085.12C15660.5 4164.91 15217.3 4106.44 14823.8 3918.12ZM16540.7 327.28C16127.4 130.024 15657.3 86.8896 15215.1 205.653C14772.9 324.417 14387.6 597.264 14128.8 975.002C13870 1352.74 13754.6 1810.52 13803.5 2265.79C13852.4 2721.07 14062.4 3143.9 14395.6 3458.04C14728.7 3772.18 15163.1 3956.97 15620.5 3979.09C16077.8 4001.2 16528.1 3859.19 16890 3578.66C17251.9 3298.13 17501.6 2897.53 17594.3 2449.1C17686.9 2000.66 17616.2 1533.89 17395.1 1132.94C17201.4 781.756 16902.6 500.024 16540.7 327.28Z"
        fill="#455A64" />
    <path
        d="M16577.2 3865.12L16938.2 3642.41L18370.3 5963.81C18398.3 6009.28 18407.1 6064.02 18394.8 6116C18382.5 6167.98 18350.1 6212.94 18304.6 6240.98L18283.7 6253.88C18238.2 6281.93 18183.5 6290.77 18131.5 6278.45C18079.5 6266.13 18034.5 6233.67 18006.5 6188.21L16574.5 3866.81L16577.2 3865.12Z"
        fill="#455A64" />
    <path
        d="M14174.4 1571.22C14176.3 1549.72 14180.1 1528.42 14185.7 1507.58C14190.5 1482.76 14196.8 1458.28 14204.6 1434.26C14213.7 1401.91 14224.5 1370.05 14236.9 1338.79L14257.4 1284.41C14265.1 1265.47 14275.1 1246.94 14284.4 1226.8C14302.5 1186.52 14327.1 1146.24 14351.7 1103.94C14408.8 1013.22 14475 928.465 14549.1 850.961C14624.5 774.981 14707.4 706.701 14796.4 647.128C14835.5 621.621 14875.8 598.093 14917.2 576.633C14936.6 566.562 14955.1 556.088 14973.6 547.629L15027.6 524.667C15058.4 511.438 15089.9 499.874 15121.9 490.024C15145.7 481.447 15170.1 474.449 15194.8 469.077C15215.5 463.19 15236.7 458.748 15258 455.783C15238.2 464.17 15217.7 471.038 15196.8 476.328C15172.6 483 15148.8 491.07 15125.5 500.497C15094.1 511.211 15063.3 523.582 15033.3 537.558L14980.5 561.325C14962 569.784 14943.8 580.661 14924.9 590.732C14884.6 610.47 14847.6 636.252 14806.1 662.033C14719.2 721.236 14638.3 788.688 14564.4 863.449C14491.2 939.874 14425.5 1023.1 14368.2 1112C14343.6 1152.28 14318.6 1192.56 14300.1 1232.85C14290.8 1252.18 14280.4 1270.31 14272.3 1288.84L14249.8 1342.42C14234.4 1375.85 14225.2 1408.08 14215.1 1435.87C14206.5 1459.46 14199.2 1483.54 14193.4 1507.98C14188.7 1529.53 14182.4 1550.68 14174.4 1571.22Z"
        fill="#E0E0E0" />
</svg>