<svg width="70" height="70" viewBox="0 0 70 70" fill="none" xmlns="http://www.w3.org/2000/svg">
    <circle cx="35" cy="35" r="29" stroke="#70B65C" stroke-width="2" />
    <path fill-rule="evenodd" clip-rule="evenodd"
        d="M3.48761 19.7511C1.25306 24.3603 0 29.5338 0 35C0 54.33 15.67 70 35 70C40.4662 70 45.6397 68.7469 50.2489 66.5124L49.1229 65.3864C44.8313 67.3844 40.0459 68.5 35 68.5C16.4985 68.5 1.5 53.5015 1.5 35C1.5 29.9541 2.61561 25.1687 4.61363 20.8771L3.48761 19.7511ZM65.3863 49.1229C67.3844 44.8313 68.5 40.0459 68.5 35C68.5 16.4985 53.5015 1.5 35 1.5C29.9541 1.5 25.1687 2.61562 20.8771 4.61365L19.7511 3.48763C24.3603 1.25307 29.5338 0 35 0C54.33 0 70 15.67 70 35C70 40.4662 68.7469 45.6397 66.5124 50.2489L65.3863 49.1229Z"
        fill="#70B65C" />
    <path
        d="M30.12 49.48C27.88 49.48 25.8267 48.9867 23.96 48C22.12 46.9867 20.64 45.48 19.52 43.48C18.4 41.48 17.84 39.0267 17.84 36.12C17.84 33.96 18.16 32.04 18.8 30.36C19.4667 28.6533 20.3733 27.2133 21.52 26.04C22.6667 24.8667 23.9733 23.9733 25.44 23.36C26.9333 22.7467 28.5067 22.44 30.16 22.44C31.84 22.44 33.3467 22.7733 34.68 23.44C36.0133 24.1067 37.12 24.9067 38 25.84L34.88 29.4C34.24 28.7867 33.5467 28.3333 32.8 28.04C32.0533 27.72 31.2133 27.56 30.28 27.56C29.1333 27.56 28.0667 27.9067 27.08 28.6C26.12 29.2667 25.3467 30.2267 24.76 31.48C24.1733 32.7333 23.88 34.2133 23.88 35.92C23.88 37.7067 24.16 39.24 24.72 40.52C25.28 41.7733 26.0533 42.7333 27.04 43.4C28.0533 44.0667 29.2133 44.4 30.52 44.4C31.5333 44.4 32.44 44.1867 33.24 43.76C34.04 43.3333 34.7467 42.8267 35.36 42.24L38.32 45.72C37.2 46.9733 35.96 47.92 34.6 48.56C33.24 49.1733 31.7467 49.48 30.12 49.48ZM33.8813 49V20.96H39.6813V36.96H39.8413L46.0013 29.16H52.4413L45.5613 37.4L52.9613 49H46.6013L42.1213 41.28L39.6813 44.04V49H33.8813Z"
        fill="#70B65C" />
</svg>