<svg width="680" height="117" viewBox="0 0 680 117" fill="none" xmlns="http://www.w3.org/2000/svg">
    <path
        d="M38.016 93.072C30.9333 93.072 24.4907 91.408 18.688 88.08C12.9707 84.752 8.40533 79.888 4.992 73.488C1.664 67.0027 0 59.152 0 49.936C0 43.1093 0.981333 37.008 2.944 31.632C4.90667 26.1707 7.63733 21.5627 11.136 17.808C14.72 14.0533 18.816 11.1947 23.424 9.23199C28.032 7.26932 32.9813 6.28799 38.272 6.28799C43.5627 6.28799 48.256 7.35465 52.352 9.48798C56.448 11.536 59.8187 14.0107 62.464 16.912L54.528 26C52.3947 23.7813 50.0053 22.1173 47.36 21.008C44.8 19.8133 41.8987 19.216 38.656 19.216C34.2187 19.216 30.208 20.4533 26.624 22.928C23.1253 25.4027 20.352 28.9013 18.304 33.424C16.256 37.9467 15.232 43.3227 15.232 49.552C15.232 55.952 16.2133 61.456 18.176 66.064C20.1387 70.5867 22.912 74.0853 26.496 76.56C30.08 78.9493 34.2613 80.144 39.04 80.144C42.624 80.144 45.824 79.4187 48.64 77.968C51.456 76.5173 54.016 74.5973 56.32 72.208L63.872 81.04C60.4587 84.9653 56.6187 87.952 52.352 90C48.0853 92.048 43.3067 93.072 38.016 93.072Z"
        fill="#081324" />
    <path
        d="M159.872 91.536V28.688H174.592V91.536H159.872ZM167.168 17.68C164.608 17.68 162.475 16.912 160.768 15.376C159.147 13.84 158.336 11.792 158.336 9.23199C158.336 6.67198 159.147 4.66665 160.768 3.21598C162.475 1.67999 164.608 0.911987 167.168 0.911987C169.813 0.911987 171.947 1.67999 173.568 3.21598C175.189 4.66665 176 6.67198 176 9.23199C176 11.792 175.189 13.84 173.568 15.376C171.947 16.912 169.813 17.68 167.168 17.68Z"
        fill="#081324" />
    <path
        d="M199.772 91.536V28.688H211.932L212.956 37.136H213.468C216.284 34.4053 219.356 32.0587 222.684 30.096C226.012 28.1333 229.809 27.152 234.076 27.152C240.817 27.152 245.724 29.328 248.796 33.68C251.868 38.032 253.404 44.176 253.404 52.112V91.536H238.684V54.032C238.684 48.8267 237.916 45.1573 236.38 43.024C234.844 40.8907 232.327 39.824 228.828 39.824C226.097 39.824 223.665 40.5067 221.532 41.872C219.484 43.152 217.137 45.072 214.492 47.632V91.536H199.772Z"
        fill="#081324" />
    <path
        d="M277.797 91.536V1.16798H292.389V57.488H292.773L315.813 28.688H332.069L310.693 54.416L334.245 91.536H318.245L302.117 64.272L292.389 75.408V91.536H277.797Z"
        fill="#081324" />
    <path
        d="M375.08 93.072C369.192 93.072 363.859 91.792 359.08 89.232C354.387 86.5867 350.675 82.832 347.944 77.968C345.213 73.0187 343.848 67.0453 343.848 60.048C343.848 53.2213 345.256 47.376 348.072 42.512C350.888 37.5627 354.515 33.7653 358.952 31.12C363.389 28.4747 368.083 27.152 373.032 27.152C378.749 27.152 383.528 28.432 387.368 30.992C391.208 33.552 394.067 37.0933 395.944 41.616C397.907 46.0533 398.888 51.1733 398.888 56.976C398.888 58.3413 398.803 59.664 398.632 60.944C398.547 62.224 398.376 63.4613 398.12 64.656H354.856V53.392H385.832C385.832 48.8693 384.808 45.328 382.76 42.768C380.712 40.1227 377.555 38.8 373.288 38.8C370.899 38.8 368.552 39.44 366.248 40.72C364.029 42 362.152 44.176 360.616 47.248C359.165 50.32 358.44 54.5867 358.44 60.048C358.44 64.9973 359.293 69.0507 361 72.208C362.707 75.28 364.968 77.584 367.784 79.12C370.6 80.5707 373.629 81.296 376.872 81.296C379.603 81.296 382.163 80.912 384.552 80.144C387.027 79.376 389.331 78.3093 391.464 76.944L396.584 86.416C393.683 88.464 390.355 90.0853 386.6 91.28C382.931 92.4747 379.091 93.072 375.08 93.072Z"
        fill="#081324" />
    <path
        d="M446.355 93.072C440.467 93.072 435.134 91.792 430.355 89.232C425.662 86.5867 421.95 82.832 419.219 77.968C416.488 73.0187 415.123 67.0453 415.123 60.048C415.123 53.2213 416.531 47.376 419.347 42.512C422.163 37.5627 425.79 33.7653 430.227 31.12C434.664 28.4747 439.358 27.152 444.307 27.152C450.024 27.152 454.803 28.432 458.643 30.992C462.483 33.552 465.342 37.0933 467.219 41.616C469.182 46.0533 470.163 51.1733 470.163 56.976C470.163 58.3413 470.078 59.664 469.907 60.944C469.822 62.224 469.651 63.4613 469.395 64.656H426.131V53.392H457.107C457.107 48.8693 456.083 45.328 454.035 42.768C451.987 40.1227 448.83 38.8 444.563 38.8C442.174 38.8 439.827 39.44 437.523 40.72C435.304 42 433.427 44.176 431.891 47.248C430.44 50.32 429.715 54.5867 429.715 60.048C429.715 64.9973 430.568 69.0507 432.275 72.208C433.982 75.28 436.243 77.584 439.059 79.12C441.875 80.5707 444.904 81.296 448.147 81.296C450.878 81.296 453.438 80.912 455.827 80.144C458.302 79.376 460.606 78.3093 462.739 76.944L467.859 86.416C464.958 88.464 461.63 90.0853 457.875 91.28C454.206 92.4747 450.366 93.072 446.355 93.072Z"
        fill="#081324" />
    <path
        d="M490.622 116.368V28.688H502.782L503.806 35.344H504.318C506.963 33.04 509.907 31.12 513.15 29.584C516.393 27.9627 519.763 27.152 523.262 27.152C528.467 27.152 532.905 28.4747 536.574 31.12C540.243 33.7653 543.059 37.4773 545.022 42.256C546.985 47.0347 547.966 52.6667 547.966 59.152C547.966 66.32 546.686 72.4213 544.126 77.456C541.566 82.4907 538.238 86.3733 534.142 89.104C530.131 91.7493 525.779 93.072 521.086 93.072C518.355 93.072 515.625 92.4747 512.894 91.28C510.163 90.0853 507.518 88.3787 504.958 86.16L505.342 96.656V116.368H490.622ZM518.014 80.912C520.83 80.912 523.347 80.1013 525.566 78.48C527.785 76.8587 529.534 74.4693 530.814 71.312C532.094 68.0693 532.734 64.0587 532.734 59.28C532.734 55.0987 532.265 51.5147 531.326 48.528C530.387 45.5413 528.894 43.28 526.846 41.744C524.883 40.1227 522.323 39.312 519.166 39.312C516.862 39.312 514.601 39.9093 512.382 41.104C510.163 42.2133 507.817 43.9627 505.342 46.352V75.664C507.646 77.5413 509.865 78.9067 511.998 79.76C514.217 80.528 516.222 80.912 518.014 80.912Z"
        fill="#081324" />
    <path
        d="M596.28 93.072C590.392 93.072 585.059 91.792 580.28 89.232C575.587 86.5867 571.875 82.832 569.144 77.968C566.413 73.0187 565.048 67.0453 565.048 60.048C565.048 53.2213 566.456 47.376 569.272 42.512C572.088 37.5627 575.715 33.7653 580.152 31.12C584.589 28.4747 589.283 27.152 594.232 27.152C599.949 27.152 604.728 28.432 608.568 30.992C612.408 33.552 615.267 37.0933 617.144 41.616C619.107 46.0533 620.088 51.1733 620.088 56.976C620.088 58.3413 620.003 59.664 619.832 60.944C619.747 62.224 619.576 63.4613 619.32 64.656H576.056V53.392H607.032C607.032 48.8693 606.008 45.328 603.96 42.768C601.912 40.1227 598.755 38.8 594.488 38.8C592.099 38.8 589.752 39.44 587.448 40.72C585.229 42 583.352 44.176 581.816 47.248C580.365 50.32 579.64 54.5867 579.64 60.048C579.64 64.9973 580.493 69.0507 582.2 72.208C583.907 75.28 586.168 77.584 588.984 79.12C591.8 80.5707 594.829 81.296 598.072 81.296C600.803 81.296 603.363 80.912 605.752 80.144C608.227 79.376 610.531 78.3093 612.664 76.944L617.784 86.416C614.883 88.464 611.555 90.0853 607.8 91.28C604.131 92.4747 600.291 93.072 596.28 93.072Z"
        fill="#081324" />
    <path
        d="M640.547 91.536V28.688H652.707L653.731 39.824H654.243C656.462 35.728 659.107 32.6133 662.179 30.48C665.336 28.2613 668.622 27.152 672.035 27.152C673.656 27.152 675.022 27.2373 676.131 27.408C677.24 27.5787 678.264 27.92 679.203 28.432L676.259 40.976C675.235 40.72 674.296 40.5493 673.443 40.464C672.59 40.2933 671.48 40.208 670.115 40.208C667.64 40.208 665.038 41.1893 662.307 43.152C659.576 45.0293 657.23 48.3573 655.267 53.136V91.536H640.547Z"
        fill="#081324" />
    <path
        d="M73.728 58.536C73.728 53.0698 74.9811 47.8963 77.2156 43.2871L78.3417 44.4131C76.3436 48.7047 75.228 53.4901 75.228 58.536C75.228 77.0375 90.2265 92.036 108.728 92.036C113.774 92.036 118.559 90.9204 122.851 88.9224L123.977 90.0484C119.368 92.2829 114.194 93.536 108.728 93.536C89.3981 93.536 73.728 77.866 73.728 58.536Z"
        fill="#081324" />
    <path
        d="M142.228 58.536C142.228 63.582 141.112 68.3673 139.114 72.6589L140.24 73.785C142.475 69.1757 143.728 64.0022 143.728 58.536C143.728 39.206 128.058 23.536 108.728 23.536C103.262 23.536 98.0883 24.7891 93.4791 27.0236L94.6051 28.1497C98.8967 26.1516 103.682 25.036 108.728 25.036C127.23 25.036 142.228 40.0345 142.228 58.536Z"
        fill="#081324" />
    <path
        d="M105.936 43.7837C107.555 42.0475 109.79 41.036 112.16 41.036C114.531 41.036 116.766 42.0475 118.384 43.7837C119.998 45.5141 120.877 47.8258 120.877 50.2027C120.877 51.5834 119.757 52.7027 118.377 52.7027C116.996 52.7027 115.877 51.5834 115.877 50.2027C115.877 49.0434 115.446 47.9637 114.728 47.1935C114.015 46.4293 113.087 46.036 112.16 46.036C111.234 46.036 110.306 46.4293 109.593 47.1935C108.875 47.9637 108.444 49.0434 108.444 50.2027V57.7027H112.16C113.541 57.7027 114.66 58.822 114.66 60.2027C114.66 61.5834 113.541 62.7027 112.16 62.7027H108.444V66.8693C108.444 68.3218 108.116 69.75 107.493 71.036H118.377C119.757 71.036 120.877 72.1553 120.877 73.536C120.877 74.9167 119.757 76.036 118.377 76.036H99.728C98.3473 76.036 97.228 74.9167 97.228 73.536C97.228 72.1553 98.3473 71.036 99.728 71.036C100.655 71.036 101.583 70.6427 102.295 69.8785C103.013 69.1083 103.444 68.0287 103.444 66.8693V62.7027H99.728C98.3473 62.7027 97.228 61.5834 97.228 60.2027C97.228 58.822 98.3473 57.7027 99.728 57.7027H103.444V50.2027C103.444 47.8258 104.323 45.5141 105.936 43.7837Z"
        fill="#081324" />
    <path fill-rule="evenodd" clip-rule="evenodd"
        d="M108.728 88.536C125.297 88.536 138.728 75.1046 138.728 58.536C138.728 41.9675 125.297 28.536 108.728 28.536C92.1595 28.536 78.728 41.9675 78.728 58.536C78.728 75.1046 92.1595 88.536 108.728 88.536ZM108.728 87.036C124.468 87.036 137.228 74.2761 137.228 58.536C137.228 42.7959 124.468 30.036 108.728 30.036C92.9879 30.036 80.228 42.7959 80.228 58.536C80.228 74.2761 92.9879 87.036 108.728 87.036Z"
        fill="#081324" />
</svg>