<svg width="680" height="116" viewBox="0 0 680 116" fill="none" xmlns="http://www.w3.org/2000/svg">
    <path
        d="M38.016 92.5279C30.9333 92.5279 24.4907 90.8639 18.688 87.5359C12.9707 84.2079 8.40533 79.3439 4.992 72.9439C1.664 66.4586 0 58.6079 0 49.3919C0 42.5653 0.981333 36.4639 2.944 31.0879C4.90667 25.6266 7.63733 21.0186 11.136 17.2639C14.72 13.5093 18.816 10.6506 23.424 8.68792C28.032 6.72525 32.9813 5.74392 38.272 5.74392C43.5627 5.74392 48.256 6.81059 52.352 8.94392C56.448 10.9919 59.8187 13.4666 62.464 16.3679L54.528 25.4559C52.3947 23.2372 50.0053 21.5732 47.36 20.4639C44.8 19.2693 41.8987 18.6719 38.656 18.6719C34.2187 18.6719 30.208 19.9093 26.624 22.3839C23.1253 24.8586 20.352 28.3573 18.304 32.8799C16.256 37.4026 15.232 42.7786 15.232 49.0079C15.232 55.4079 16.2133 60.9119 18.176 65.5199C20.1387 70.0426 22.912 73.5413 26.496 76.0159C30.08 78.4053 34.2613 79.5999 39.04 79.5999C42.624 79.5999 45.824 78.8746 48.64 77.4239C51.456 75.9733 54.016 74.0533 56.32 71.6639L63.872 80.4959C60.4587 84.4212 56.6187 87.4079 52.352 89.4559C48.0853 91.5039 43.3067 92.5279 38.016 92.5279Z"
        fill="white" />
    <path
        d="M159.872 90.9919V28.1439H174.592V90.9919H159.872ZM167.168 17.1359C164.608 17.1359 162.475 16.3679 160.768 14.8319C159.147 13.2959 158.336 11.2479 158.336 8.68792C158.336 6.12792 159.147 4.12258 160.768 2.67191C162.475 1.13592 164.608 0.36792 167.168 0.36792C169.813 0.36792 171.947 1.13592 173.568 2.67191C175.189 4.12258 176 6.12792 176 8.68792C176 11.2479 175.189 13.2959 173.568 14.8319C171.947 16.3679 169.813 17.1359 167.168 17.1359Z"
        fill="white" />
    <path
        d="M199.772 90.9919V28.1439H211.932L212.956 36.5919H213.468C216.284 33.8613 219.356 31.5146 222.684 29.5519C226.012 27.5893 229.809 26.6079 234.076 26.6079C240.817 26.6079 245.724 28.7839 248.796 33.1359C251.868 37.4879 253.404 43.6319 253.404 51.5679V90.9919H238.684V53.4879C238.684 48.2826 237.916 44.6133 236.38 42.4799C234.844 40.3466 232.327 39.2799 228.828 39.2799C226.097 39.2799 223.665 39.9626 221.532 41.3279C219.484 42.6079 217.137 44.5279 214.492 47.0879V90.9919H199.772Z"
        fill="white" />
    <path
        d="M277.797 90.9919V0.623917H292.389V56.9439H292.773L315.813 28.1439H332.069L310.693 53.8719L334.245 90.9919H318.245L302.117 63.7279L292.389 74.8639V90.9919H277.797Z"
        fill="white" />
    <path
        d="M375.08 92.5279C369.192 92.5279 363.859 91.2479 359.08 88.6879C354.387 86.0426 350.675 82.2879 347.944 77.4239C345.213 72.4746 343.848 66.5013 343.848 59.5039C343.848 52.6773 345.256 46.8319 348.072 41.9679C350.888 37.0186 354.515 33.2213 358.952 30.5759C363.389 27.9306 368.083 26.6079 373.032 26.6079C378.749 26.6079 383.528 27.8879 387.368 30.4479C391.208 33.0079 394.067 36.5493 395.944 41.0719C397.907 45.5093 398.888 50.6292 398.888 56.4319C398.888 57.7973 398.803 59.1199 398.632 60.3999C398.547 61.6799 398.376 62.9173 398.12 64.1119H354.856V52.8479H385.832C385.832 48.3253 384.808 44.7839 382.76 42.2239C380.712 39.5786 377.555 38.2559 373.288 38.2559C370.899 38.2559 368.552 38.8959 366.248 40.1759C364.029 41.4559 362.152 43.6319 360.616 46.7039C359.165 49.7759 358.44 54.0426 358.44 59.5039C358.44 64.4533 359.293 68.5066 361 71.6639C362.707 74.7359 364.968 77.0399 367.784 78.5759C370.6 80.0266 373.629 80.7519 376.872 80.7519C379.603 80.7519 382.163 80.3679 384.552 79.5999C387.027 78.8319 389.331 77.7653 391.464 76.3999L396.584 85.8719C393.683 87.9199 390.355 89.5413 386.6 90.7359C382.931 91.9306 379.091 92.5279 375.08 92.5279Z"
        fill="white" />
    <path
        d="M446.355 92.5279C440.467 92.5279 435.134 91.2479 430.355 88.6879C425.662 86.0426 421.95 82.2879 419.219 77.4239C416.488 72.4746 415.123 66.5013 415.123 59.5039C415.123 52.6773 416.531 46.8319 419.347 41.9679C422.163 37.0186 425.79 33.2213 430.227 30.5759C434.664 27.9306 439.358 26.6079 444.307 26.6079C450.024 26.6079 454.803 27.8879 458.643 30.4479C462.483 33.0079 465.342 36.5493 467.219 41.0719C469.182 45.5093 470.163 50.6292 470.163 56.4319C470.163 57.7973 470.078 59.1199 469.907 60.3999C469.822 61.6799 469.651 62.9173 469.395 64.1119H426.131V52.8479H457.107C457.107 48.3253 456.083 44.7839 454.035 42.2239C451.987 39.5786 448.83 38.2559 444.563 38.2559C442.174 38.2559 439.827 38.8959 437.523 40.1759C435.304 41.4559 433.427 43.6319 431.891 46.7039C430.44 49.7759 429.715 54.0426 429.715 59.5039C429.715 64.4533 430.568 68.5066 432.275 71.6639C433.982 74.7359 436.243 77.0399 439.059 78.5759C441.875 80.0266 444.904 80.7519 448.147 80.7519C450.878 80.7519 453.438 80.3679 455.827 79.5999C458.302 78.8319 460.606 77.7653 462.739 76.3999L467.859 85.8719C464.958 87.9199 461.63 89.5413 457.875 90.7359C454.206 91.9306 450.366 92.5279 446.355 92.5279Z"
        fill="white" />
    <path
        d="M490.622 115.824V28.1439H502.782L503.806 34.7999H504.318C506.963 32.4959 509.907 30.5759 513.15 29.0399C516.393 27.4186 519.763 26.6079 523.262 26.6079C528.467 26.6079 532.905 27.9306 536.574 30.5759C540.243 33.2213 543.059 36.9333 545.022 41.7119C546.985 46.4906 547.966 52.1226 547.966 58.6079C547.966 65.7759 546.686 71.8773 544.126 76.9119C541.566 81.9466 538.238 85.8293 534.142 88.5599C530.131 91.2053 525.779 92.5279 521.086 92.5279C518.355 92.5279 515.625 91.9306 512.894 90.7359C510.163 89.5413 507.518 87.8346 504.958 85.6159L505.342 96.1119V115.824H490.622ZM518.014 80.3679C520.83 80.3679 523.347 79.5573 525.566 77.9359C527.785 76.3146 529.534 73.9253 530.814 70.7679C532.094 67.5253 532.734 63.5146 532.734 58.7359C532.734 54.5546 532.265 50.9706 531.326 47.9839C530.387 44.9972 528.894 42.7359 526.846 41.1999C524.883 39.5786 522.323 38.7679 519.166 38.7679C516.862 38.7679 514.601 39.3652 512.382 40.5599C510.163 41.6693 507.817 43.4186 505.342 45.8079V75.1199C507.646 76.9973 509.865 78.3626 511.998 79.2159C514.217 79.9839 516.222 80.3679 518.014 80.3679Z"
        fill="white" />
    <path
        d="M596.28 92.5279C590.392 92.5279 585.059 91.2479 580.28 88.6879C575.587 86.0426 571.875 82.2879 569.144 77.4239C566.413 72.4746 565.048 66.5013 565.048 59.5039C565.048 52.6773 566.456 46.8319 569.272 41.9679C572.088 37.0186 575.715 33.2213 580.152 30.5759C584.589 27.9306 589.283 26.6079 594.232 26.6079C599.949 26.6079 604.728 27.8879 608.568 30.4479C612.408 33.0079 615.267 36.5493 617.144 41.0719C619.107 45.5093 620.088 50.6292 620.088 56.4319C620.088 57.7973 620.003 59.1199 619.832 60.3999C619.747 61.6799 619.576 62.9173 619.32 64.1119H576.056V52.8479H607.032C607.032 48.3253 606.008 44.7839 603.96 42.2239C601.912 39.5786 598.755 38.2559 594.488 38.2559C592.099 38.2559 589.752 38.8959 587.448 40.1759C585.229 41.4559 583.352 43.6319 581.816 46.7039C580.365 49.7759 579.64 54.0426 579.64 59.5039C579.64 64.4533 580.493 68.5066 582.2 71.6639C583.907 74.7359 586.168 77.0399 588.984 78.5759C591.8 80.0266 594.829 80.7519 598.072 80.7519C600.803 80.7519 603.363 80.3679 605.752 79.5999C608.227 78.8319 610.531 77.7653 612.664 76.3999L617.784 85.8719C614.883 87.9199 611.555 89.5413 607.8 90.7359C604.131 91.9306 600.291 92.5279 596.28 92.5279Z"
        fill="white" />
    <path
        d="M640.547 90.9919V28.1439H652.707L653.731 39.2799H654.243C656.462 35.1839 659.107 32.0693 662.179 29.9359C665.336 27.7173 668.622 26.6079 672.035 26.6079C673.656 26.6079 675.022 26.6933 676.131 26.8639C677.24 27.0346 678.264 27.3759 679.203 27.8879L676.259 40.4319C675.235 40.1759 674.296 40.0052 673.443 39.9199C672.59 39.7493 671.48 39.6639 670.115 39.6639C667.64 39.6639 665.038 40.6453 662.307 42.6079C659.576 44.4853 657.23 47.8133 655.267 52.5919V90.9919H640.547Z"
        fill="white" />
    <path
        d="M73.728 57.9919C73.728 52.5258 74.9811 47.3523 77.2156 42.743L78.3417 43.8691C76.3436 48.1607 75.228 52.946 75.228 57.9919C75.228 76.4935 90.2265 91.4919 108.728 91.4919C113.774 91.4919 118.559 90.3763 122.851 88.3783L123.977 89.5043C119.368 91.7389 114.194 92.9919 108.728 92.9919C89.3981 92.9919 73.728 77.3219 73.728 57.9919Z"
        fill="white" />
    <path
        d="M142.228 57.9919C142.228 63.0379 141.112 67.8233 139.114 72.1149L140.24 73.2409C142.475 68.6316 143.728 63.4581 143.728 57.9919C143.728 38.662 128.058 22.9919 108.728 22.9919C103.262 22.9919 98.0883 24.245 93.4791 26.4796L94.6051 27.6056C98.8967 25.6076 103.682 24.4919 108.728 24.4919C127.23 24.4919 142.228 39.4904 142.228 57.9919Z"
        fill="white" />
    <path
        d="M105.936 43.2396C107.555 41.5034 109.79 40.4919 112.16 40.4919C114.531 40.4919 116.766 41.5034 118.384 43.2396C119.998 44.97 120.877 47.2817 120.877 49.6586C120.877 51.0393 119.757 52.1586 118.377 52.1586C116.996 52.1586 115.877 51.0393 115.877 49.6586C115.877 48.4993 115.446 47.4196 114.728 46.6495C114.015 45.8852 113.087 45.4919 112.16 45.4919C111.234 45.4919 110.306 45.8852 109.593 46.6495C108.875 47.4196 108.444 48.4993 108.444 49.6586V57.1586H112.16C113.541 57.1586 114.66 58.2779 114.66 59.6586C114.66 61.0393 113.541 62.1586 112.16 62.1586H108.444V66.3253C108.444 67.7778 108.116 69.2059 107.493 70.4919H118.377C119.757 70.4919 120.877 71.6112 120.877 72.9919C120.877 74.3727 119.757 75.4919 118.377 75.4919H99.728C98.3473 75.4919 97.228 74.3727 97.228 72.9919C97.228 71.6112 98.3473 70.4919 99.728 70.4919C100.655 70.4919 101.583 70.0986 102.295 69.3344C103.013 68.5643 103.444 67.4846 103.444 66.3253V62.1586H99.728C98.3473 62.1586 97.228 61.0393 97.228 59.6586C97.228 58.2779 98.3473 57.1586 99.728 57.1586H103.444V49.6586C103.444 47.2817 104.323 44.97 105.936 43.2396Z"
        fill="white" />
    <path fill-rule="evenodd" clip-rule="evenodd"
        d="M108.728 87.9919C125.297 87.9919 138.728 74.5605 138.728 57.9919C138.728 41.4234 125.297 27.9919 108.728 27.9919C92.1595 27.9919 78.728 41.4234 78.728 57.9919C78.728 74.5605 92.1595 87.9919 108.728 87.9919ZM108.728 86.4919C124.468 86.4919 137.228 73.7321 137.228 57.9919C137.228 42.2518 124.468 29.4919 108.728 29.4919C92.9879 29.4919 80.228 42.2518 80.228 57.9919C80.228 73.7321 92.9879 86.4919 108.728 86.4919Z"
        fill="white" />
</svg>