<svg width="63" height="60" viewBox="0 0 63 60" fill="none" xmlns="http://www.w3.org/2000/svg">
    <path d="M31.762 19.5234H35.6136V17.8958H31.762V19.5234Z" stroke="#EBEBEB" stroke-width="0.75"
        stroke-miterlimit="10" />
    <path d="M33.9103 17.4707H37.762V15.843H33.9103V17.4707Z" stroke="#EBEBEB" stroke-width="0.75"
        stroke-miterlimit="10" />
    <path d="M36.05 19.5234H39.9017V17.8958H36.05V19.5234Z" stroke="#EBEBEB" stroke-width="0.75"
        stroke-miterlimit="10" />
    <path d="M3.56085 39.7241H7.41254V38.0965H3.56085V39.7241Z" stroke="#EBEBEB" stroke-width="0.75"
        stroke-miterlimit="10" />
    <path d="M1.41101 37.6719H5.2627V36.0442H1.41101V37.6719Z" stroke="#EBEBEB" stroke-width="0.75"
        stroke-miterlimit="10" />
    <path d="M56.1113 39.7241H59.963V38.0965H56.1113V39.7241Z" stroke="#EBEBEB" stroke-width="0.75"
        stroke-miterlimit="10" />
    <path d="M25.772 54.3427V36.0646L29.6601 30.7569V20.8179" stroke="#EBEBEB" stroke-miterlimit="10" />
    <path
        d="M29.3154 20.479C29.3154 20.5475 29.3357 20.6145 29.3738 20.6715C29.4119 20.7284 29.4661 20.7728 29.5294 20.799C29.5928 20.8251 29.6624 20.8319 29.7296 20.8184C29.7968 20.8049 29.8585 20.7718 29.9069 20.7233C29.9552 20.6747 29.9881 20.6129 30.0013 20.5456C30.0145 20.4784 30.0074 20.4087 29.981 20.3455C29.9545 20.2823 29.91 20.2283 29.8528 20.1904C29.7957 20.1526 29.7286 20.1325 29.6601 20.1328C29.6147 20.1328 29.5698 20.1418 29.5278 20.1592C29.4859 20.1766 29.4479 20.2021 29.4158 20.2343C29.3838 20.2665 29.3584 20.3046 29.3412 20.3466C29.324 20.3886 29.3152 20.4336 29.3154 20.479Z"
        stroke="#EBEBEB" stroke-miterlimit="10" />
    <path d="M26.7742 54.3425V36.7059L30.6623 31.3982V24.4541" stroke="#EBEBEB" stroke-miterlimit="10" />
    <path
        d="M30.3161 24.1138C30.3158 24.1823 30.3359 24.2494 30.3737 24.3065C30.4116 24.3636 30.4656 24.4082 30.5288 24.4346C30.592 24.4611 30.6617 24.4681 30.7289 24.4549C30.7962 24.4417 30.858 24.4089 30.9066 24.3605C30.9551 24.3122 30.9882 24.2505 31.0017 24.1833C31.0152 24.1161 31.0084 24.0464 30.9823 23.9831C30.9561 23.9197 30.9117 23.8656 30.8548 23.8275C30.7978 23.7894 30.7308 23.769 30.6623 23.769C30.5707 23.769 30.4829 23.8053 30.418 23.8699C30.3531 23.9345 30.3165 24.0222 30.3161 24.1138Z"
        stroke="#EBEBEB" stroke-miterlimit="10" />
    <path d="M24.8077 54.3426V30.1372" stroke="#EBEBEB" stroke-miterlimit="10" />
    <path
        d="M24.4615 29.791C24.4612 29.8596 24.4813 29.9266 24.5191 29.9837C24.557 30.0409 24.611 30.0855 24.6742 30.1119C24.7374 30.1383 24.8071 30.1454 24.8743 30.1322C24.9416 30.119 25.0034 30.0861 25.0519 30.0378C25.1005 29.9894 25.1336 29.9277 25.1471 29.8605C25.1606 29.7934 25.1538 29.7237 25.1276 29.6603C25.1015 29.597 25.0571 29.5428 25.0002 29.5047C24.9432 29.4666 24.8762 29.4463 24.8077 29.4463C24.7161 29.4463 24.6283 29.4826 24.5634 29.5472C24.4985 29.6118 24.4619 29.6995 24.4615 29.791Z"
        stroke="#EBEBEB" stroke-miterlimit="10" />
    <path d="M23.8782 54.3426V42.0399L21.2396 37.0624V28.1357" stroke="#EBEBEB" stroke-miterlimit="10" />
    <path
        d="M20.8934 27.791C20.8934 27.8595 20.9137 27.9264 20.9518 27.9833C20.9898 28.0403 21.0439 28.0846 21.1071 28.1108C21.1704 28.1371 21.24 28.1439 21.3072 28.1305C21.3743 28.1172 21.436 28.0842 21.4844 28.0358C21.5328 27.9874 21.5658 27.9257 21.5792 27.8586C21.5925 27.7914 21.5857 27.7218 21.5595 27.6585C21.5333 27.5953 21.4889 27.5412 21.432 27.5032C21.375 27.4651 21.3081 27.4448 21.2396 27.4448C21.1941 27.4446 21.149 27.4535 21.1069 27.4708C21.0648 27.4881 21.0266 27.5136 20.9944 27.5458C20.9622 27.578 20.9367 27.6162 20.9194 27.6583C20.9021 27.7004 20.8932 27.7455 20.8934 27.791Z"
        stroke="#EBEBEB" stroke-miterlimit="10" />
    <path d="M22.9546 54.3427V42.5724L19.8433 37.0683V31.1904" stroke="#EBEBEB" stroke-miterlimit="10" />
    <path
        d="M19.4971 30.8457C19.4968 30.9142 19.5168 30.9813 19.5547 31.0384C19.5926 31.0956 19.6465 31.1402 19.7098 31.1666C19.773 31.193 19.8427 31.2001 19.9099 31.1869C19.9772 31.1737 20.039 31.1408 20.0875 31.0925C20.1361 31.0441 20.1692 30.9824 20.1827 30.9152C20.1962 30.848 20.1894 30.7784 20.1632 30.715C20.1371 30.6517 20.0927 30.5975 20.0357 30.5594C19.9788 30.5213 19.9118 30.501 19.8433 30.501C19.7518 30.5014 19.6642 30.5378 19.5994 30.6023C19.5346 30.6668 19.4978 30.7543 19.4971 30.8457Z"
        stroke="#EBEBEB" stroke-miterlimit="10" />
    <path
        d="M22.1313 59.9953C30.6795 59.9953 37.6093 58.8889 37.6093 57.524C37.6093 56.1592 30.6795 55.0527 22.1313 55.0527C13.583 55.0527 6.65326 56.1592 6.65326 57.524C6.65326 58.8889 13.583 59.9953 22.1313 59.9953Z"
        fill="#EBEBEB" />
    <path d="M43.7462 18.6885H34.2886V54.35H43.7462V18.6885Z" fill="#37474F" />
    <path d="M61.1515 18.6885H43.7462V54.35H61.1515V18.6885Z" fill="#455A64" />
    <path d="M60.0649 49.7246H45.0524V53.1923H60.0649V49.7246Z" fill="#37474F" />
    <path d="M54.2292 50.2979H45.6837V50.5902H54.2292V50.2979Z" fill="#455A64" />
    <path d="M54.2292 50.8052H45.6837V51.0975H54.2292V50.8052Z" fill="#455A64" />
    <path d="M54.2292 51.313H45.6837V51.6054H54.2292V51.313Z" fill="#455A64" />
    <path d="M54.2292 51.8193H45.6837V52.1117H54.2292V51.8193Z" fill="#455A64" />
    <path d="M54.2292 52.3267H45.6837V52.619H54.2292V52.3267Z" fill="#455A64" />
    <path
        d="M55.787 50.5888C55.787 50.6463 55.77 50.7025 55.738 50.7504C55.706 50.7982 55.6606 50.8355 55.6074 50.8575C55.5543 50.8795 55.4958 50.8853 55.4394 50.8741C55.3829 50.8629 55.3311 50.8352 55.2904 50.7945C55.2497 50.7538 55.222 50.7019 55.2108 50.6455C55.1996 50.5891 55.2053 50.5306 55.2273 50.4774C55.2494 50.4243 55.2867 50.3788 55.3345 50.3469C55.3823 50.3149 55.4386 50.2979 55.4961 50.2979C55.5733 50.2979 55.6473 50.3285 55.7018 50.3831C55.7564 50.4376 55.787 50.5116 55.787 50.5888Z"
        fill="#2F9E44" />
    <path
        d="M56.7441 50.5888C56.7441 50.6463 56.7271 50.7025 56.6951 50.7504C56.6631 50.7982 56.6177 50.8355 56.5645 50.8575C56.5114 50.8795 56.4529 50.8853 56.3965 50.8741C56.34 50.8629 56.2882 50.8352 56.2475 50.7945C56.2068 50.7538 56.1791 50.7019 56.1679 50.6455C56.1567 50.5891 56.1624 50.5306 56.1844 50.4774C56.2065 50.4243 56.2437 50.3788 56.2916 50.3469C56.3394 50.3149 56.3957 50.2979 56.4532 50.2979C56.5304 50.2979 56.6044 50.3285 56.6589 50.3831C56.7135 50.4376 56.7441 50.5116 56.7441 50.5888Z"
        fill="#2F9E44" />
    <path
        d="M57.7012 50.5888C57.7012 50.6463 57.6841 50.7025 57.6522 50.7504C57.6202 50.7982 57.5748 50.8355 57.5216 50.8575C57.4685 50.8795 57.41 50.8853 57.3535 50.8741C57.2971 50.8629 57.2453 50.8352 57.2046 50.7945C57.1639 50.7538 57.1362 50.7019 57.125 50.6455C57.1138 50.5891 57.1195 50.5306 57.1415 50.4774C57.1635 50.4243 57.2008 50.3788 57.2487 50.3469C57.2965 50.3149 57.3528 50.2979 57.4103 50.2979C57.4874 50.2979 57.5614 50.3285 57.616 50.3831C57.6706 50.4376 57.7012 50.5116 57.7012 50.5888Z"
        fill="#2F9E44" />
    <path
        d="M58.6569 50.5888C58.6569 50.6463 58.6398 50.7025 58.6079 50.7504C58.5759 50.7982 58.5305 50.8355 58.4773 50.8575C58.4242 50.8795 58.3657 50.8853 58.3092 50.8741C58.2528 50.8629 58.201 50.8352 58.1603 50.7945C58.1196 50.7538 58.0919 50.7019 58.0807 50.6455C58.0694 50.5891 58.0752 50.5306 58.0972 50.4774C58.1192 50.4243 58.1565 50.3788 58.2044 50.3469C58.2522 50.3149 58.3084 50.2979 58.366 50.2979C58.4431 50.2979 58.5171 50.3285 58.5717 50.3831C58.6263 50.4376 58.6569 50.5116 58.6569 50.5888Z"
        fill="#2F9E44" />
    <path
        d="M59.614 50.5888C59.614 50.6463 59.5969 50.7025 59.565 50.7504C59.533 50.7982 59.4876 50.8355 59.4344 50.8575C59.3812 50.8795 59.3228 50.8853 59.2663 50.8741C59.2099 50.8629 59.1581 50.8352 59.1174 50.7945C59.0767 50.7538 59.049 50.7019 59.0378 50.6455C59.0265 50.5891 59.0323 50.5306 59.0543 50.4774C59.0763 50.4243 59.1136 50.3788 59.1615 50.3469C59.2093 50.3149 59.2655 50.2979 59.3231 50.2979C59.4002 50.2979 59.4742 50.3285 59.5288 50.3831C59.5833 50.4376 59.614 50.5116 59.614 50.5888Z"
        fill="#2F9E44" />
    <path
        d="M55.787 51.4584C55.787 51.5159 55.77 51.5722 55.738 51.62C55.706 51.6679 55.6606 51.7051 55.6074 51.7272C55.5543 51.7492 55.4958 51.7549 55.4394 51.7437C55.3829 51.7325 55.3311 51.7048 55.2904 51.6641C55.2497 51.6234 55.222 51.5716 55.2108 51.5152C55.1996 51.4587 55.2053 51.4002 55.2273 51.3471C55.2494 51.2939 55.2867 51.2485 55.3345 51.2165C55.3823 51.1845 55.4386 51.1675 55.4961 51.1675C55.5733 51.1675 55.6473 51.1981 55.7018 51.2527C55.7564 51.3072 55.787 51.3812 55.787 51.4584Z"
        fill="#2F9E44" />
    <path
        d="M56.7441 51.4584C56.7441 51.5159 56.7271 51.5722 56.6951 51.62C56.6631 51.6679 56.6177 51.7051 56.5645 51.7272C56.5114 51.7492 56.4529 51.7549 56.3965 51.7437C56.34 51.7325 56.2882 51.7048 56.2475 51.6641C56.2068 51.6234 56.1791 51.5716 56.1679 51.5152C56.1567 51.4587 56.1624 51.4002 56.1844 51.3471C56.2065 51.2939 56.2437 51.2485 56.2916 51.2165C56.3394 51.1845 56.3957 51.1675 56.4532 51.1675C56.5304 51.1675 56.6044 51.1981 56.6589 51.2527C56.7135 51.3072 56.7441 51.3812 56.7441 51.4584Z"
        fill="#2F9E44" />
    <path
        d="M57.7012 51.4584C57.7012 51.5159 57.6841 51.5722 57.6522 51.62C57.6202 51.6679 57.5748 51.7051 57.5216 51.7272C57.4685 51.7492 57.41 51.7549 57.3535 51.7437C57.2971 51.7325 57.2453 51.7048 57.2046 51.6641C57.1639 51.6234 57.1362 51.5716 57.125 51.5152C57.1138 51.4587 57.1195 51.4002 57.1415 51.3471C57.1635 51.2939 57.2008 51.2485 57.2487 51.2165C57.2965 51.1845 57.3528 51.1675 57.4103 51.1675C57.4874 51.1675 57.5614 51.1981 57.616 51.2527C57.6706 51.3072 57.7012 51.3812 57.7012 51.4584Z"
        fill="#2F9E44" />
    <path
        d="M58.6569 51.4584C58.6569 51.5159 58.6398 51.5722 58.6079 51.62C58.5759 51.6679 58.5305 51.7051 58.4773 51.7272C58.4242 51.7492 58.3657 51.7549 58.3092 51.7437C58.2528 51.7325 58.201 51.7048 58.1603 51.6641C58.1196 51.6234 58.0919 51.5716 58.0807 51.5152C58.0694 51.4587 58.0752 51.4002 58.0972 51.3471C58.1192 51.2939 58.1565 51.2485 58.2044 51.2165C58.2522 51.1845 58.3084 51.1675 58.366 51.1675C58.4431 51.1675 58.5171 51.1981 58.5717 51.2527C58.6263 51.3072 58.6569 51.3812 58.6569 51.4584Z"
        fill="#2F9E44" />
    <path
        d="M59.614 51.4584C59.614 51.5159 59.5969 51.5722 59.565 51.62C59.533 51.6679 59.4876 51.7051 59.4344 51.7272C59.3812 51.7492 59.3228 51.7549 59.2663 51.7437C59.2099 51.7325 59.1581 51.7048 59.1174 51.6641C59.0767 51.6234 59.049 51.5716 59.0378 51.5152C59.0265 51.4587 59.0323 51.4002 59.0543 51.3471C59.0763 51.2939 59.1136 51.2485 59.1615 51.2165C59.2093 51.1845 59.2655 51.1675 59.3231 51.1675C59.4002 51.1675 59.4742 51.1981 59.5288 51.2527C59.5833 51.3072 59.614 51.3812 59.614 51.4584Z"
        fill="#2F9E44" />
    <path
        d="M55.4976 52.6204C55.6582 52.6204 55.7885 52.4902 55.7885 52.3295C55.7885 52.1688 55.6582 52.0386 55.4976 52.0386C55.3369 52.0386 55.2067 52.1688 55.2067 52.3295C55.2067 52.4902 55.3369 52.6204 55.4976 52.6204Z"
        fill="#2F9E44" />
    <path
        d="M56.7441 52.3295C56.7441 52.387 56.7271 52.4433 56.6951 52.4911C56.6631 52.5389 56.6177 52.5762 56.5645 52.5983C56.5114 52.6203 56.4529 52.626 56.3965 52.6148C56.34 52.6036 56.2882 52.5759 56.2475 52.5352C56.2068 52.4945 56.1791 52.4427 56.1679 52.3862C56.1567 52.3298 56.1624 52.2713 56.1844 52.2182C56.2065 52.165 56.2437 52.1196 56.2916 52.0876C56.3394 52.0556 56.3957 52.0386 56.4532 52.0386C56.5304 52.0386 56.6044 52.0692 56.6589 52.1238C56.7135 52.1783 56.7441 52.2523 56.7441 52.3295Z"
        fill="#2F9E44" />
    <path
        d="M57.4103 52.6204C57.571 52.6204 57.7012 52.4902 57.7012 52.3295C57.7012 52.1688 57.571 52.0386 57.4103 52.0386C57.2496 52.0386 57.1194 52.1688 57.1194 52.3295C57.1194 52.4902 57.2496 52.6204 57.4103 52.6204Z"
        fill="#2F9E44" />
    <path
        d="M58.6569 52.3295C58.6569 52.387 58.6398 52.4433 58.6079 52.4911C58.5759 52.5389 58.5305 52.5762 58.4773 52.5983C58.4242 52.6203 58.3657 52.626 58.3092 52.6148C58.2528 52.6036 58.201 52.5759 58.1603 52.5352C58.1196 52.4945 58.0919 52.4427 58.0807 52.3862C58.0694 52.3298 58.0752 52.2713 58.0972 52.2182C58.1192 52.165 58.1565 52.1196 58.2044 52.0876C58.2522 52.0556 58.3084 52.0386 58.366 52.0386C58.4431 52.0386 58.5171 52.0692 58.5717 52.1238C58.6263 52.1783 58.6569 52.2523 58.6569 52.3295Z"
        fill="#2F9E44" />
    <path
        d="M59.614 52.3295C59.614 52.387 59.5969 52.4433 59.565 52.4911C59.533 52.5389 59.4876 52.5762 59.4344 52.5983C59.3812 52.6203 59.3228 52.626 59.2663 52.6148C59.2099 52.6036 59.1581 52.5759 59.1174 52.5352C59.0767 52.4945 59.049 52.4427 59.0378 52.3862C59.0265 52.3298 59.0323 52.2713 59.0543 52.2182C59.0763 52.165 59.1136 52.1196 59.1615 52.0876C59.2093 52.0556 59.2655 52.0386 59.3231 52.0386C59.4002 52.0386 59.4742 52.0692 59.5288 52.1238C59.5833 52.1783 59.614 52.2523 59.614 52.3295Z"
        fill="#2F9E44" />
    <path d="M54.8241 50.2979H54.6569V52.6193H54.8241V50.2979Z" fill="#263238" />
    <path d="M60.0649 45.5469H45.0524V49.0146H60.0649V45.5469Z" fill="#37474F" />
    <path d="M54.2292 46.1187H45.6837V46.411H54.2292V46.1187Z" fill="#455A64" />
    <path d="M54.2292 46.6265H45.6837V46.9188H54.2292V46.6265Z" fill="#455A64" />
    <path d="M54.2292 47.1338H45.6837V47.4262H54.2292V47.1338Z" fill="#455A64" />
    <path d="M54.2292 47.6416H45.6837V47.934H54.2292V47.6416Z" fill="#455A64" />
    <path d="M54.2292 48.1479H45.6837V48.4403H54.2292V48.1479Z" fill="#455A64" />
    <path
        d="M55.787 46.4096C55.787 46.4671 55.77 46.5233 55.738 46.5712C55.706 46.619 55.6606 46.6563 55.6074 46.6783C55.5543 46.7004 55.4958 46.7061 55.4394 46.6949C55.3829 46.6837 55.3311 46.656 55.2904 46.6153C55.2497 46.5746 55.222 46.5227 55.2108 46.4663C55.1996 46.4099 55.2053 46.3514 55.2273 46.2982C55.2494 46.2451 55.2867 46.1996 55.3345 46.1677C55.3823 46.1357 55.4386 46.1187 55.4961 46.1187C55.5733 46.1187 55.6473 46.1493 55.7018 46.2039C55.7564 46.2584 55.787 46.3324 55.787 46.4096Z"
        fill="#2F9E44" />
    <path
        d="M56.7441 46.4096C56.7441 46.4671 56.7271 46.5233 56.6951 46.5712C56.6631 46.619 56.6177 46.6563 56.5645 46.6783C56.5114 46.7004 56.4529 46.7061 56.3965 46.6949C56.34 46.6837 56.2882 46.656 56.2475 46.6153C56.2068 46.5746 56.1791 46.5227 56.1679 46.4663C56.1567 46.4099 56.1624 46.3514 56.1844 46.2982C56.2065 46.2451 56.2437 46.1996 56.2916 46.1677C56.3394 46.1357 56.3957 46.1187 56.4532 46.1187C56.5304 46.1187 56.6044 46.1493 56.6589 46.2039C56.7135 46.2584 56.7441 46.3324 56.7441 46.4096Z"
        fill="#2F9E44" />
    <path
        d="M57.7012 46.4096C57.7012 46.4671 57.6841 46.5233 57.6522 46.5712C57.6202 46.619 57.5748 46.6563 57.5216 46.6783C57.4685 46.7004 57.41 46.7061 57.3535 46.6949C57.2971 46.6837 57.2453 46.656 57.2046 46.6153C57.1639 46.5746 57.1362 46.5227 57.125 46.4663C57.1138 46.4099 57.1195 46.3514 57.1415 46.2982C57.1635 46.2451 57.2008 46.1996 57.2487 46.1677C57.2965 46.1357 57.3528 46.1187 57.4103 46.1187C57.4874 46.1187 57.5614 46.1493 57.616 46.2039C57.6706 46.2584 57.7012 46.3324 57.7012 46.4096Z"
        fill="#2F9E44" />
    <path
        d="M58.6569 46.4096C58.6569 46.4671 58.6398 46.5233 58.6079 46.5712C58.5759 46.619 58.5305 46.6563 58.4773 46.6783C58.4242 46.7004 58.3657 46.7061 58.3092 46.6949C58.2528 46.6837 58.201 46.656 58.1603 46.6153C58.1196 46.5746 58.0919 46.5227 58.0807 46.4663C58.0694 46.4099 58.0752 46.3514 58.0972 46.2982C58.1192 46.2451 58.1565 46.1996 58.2044 46.1677C58.2522 46.1357 58.3084 46.1187 58.366 46.1187C58.4431 46.1187 58.5171 46.1493 58.5717 46.2039C58.6263 46.2584 58.6569 46.3324 58.6569 46.4096Z"
        fill="#2F9E44" />
    <path
        d="M59.614 46.4096C59.614 46.4671 59.5969 46.5233 59.565 46.5712C59.533 46.619 59.4876 46.6563 59.4344 46.6783C59.3812 46.7004 59.3228 46.7061 59.2663 46.6949C59.2099 46.6837 59.1581 46.656 59.1174 46.6153C59.0767 46.5746 59.049 46.5227 59.0378 46.4663C59.0265 46.4099 59.0323 46.3514 59.0543 46.2982C59.0763 46.2451 59.1136 46.1996 59.1615 46.1677C59.2093 46.1357 59.2655 46.1187 59.3231 46.1187C59.4002 46.1187 59.4742 46.1493 59.5288 46.2039C59.5833 46.2584 59.614 46.3324 59.614 46.4096Z"
        fill="#2F9E44" />
    <path
        d="M55.787 47.2821C55.787 47.3397 55.77 47.3959 55.738 47.4437C55.706 47.4916 55.6606 47.5289 55.6074 47.5509C55.5543 47.5729 55.4958 47.5787 55.4394 47.5674C55.3829 47.5562 55.3311 47.5285 55.2904 47.4878C55.2497 47.4471 55.222 47.3953 55.2108 47.3389C55.1996 47.2824 55.2053 47.224 55.2273 47.1708C55.2494 47.1176 55.2867 47.0722 55.3345 47.0402C55.3823 47.0083 55.4386 46.9912 55.4961 46.9912C55.5733 46.9912 55.6473 47.0219 55.7018 47.0764C55.7564 47.131 55.787 47.205 55.787 47.2821Z"
        fill="#2F9E44" />
    <path
        d="M56.7441 47.2821C56.7441 47.3397 56.7271 47.3959 56.6951 47.4437C56.6631 47.4916 56.6177 47.5289 56.5645 47.5509C56.5114 47.5729 56.4529 47.5787 56.3965 47.5674C56.34 47.5562 56.2882 47.5285 56.2475 47.4878C56.2068 47.4471 56.1791 47.3953 56.1679 47.3389C56.1567 47.2824 56.1624 47.224 56.1844 47.1708C56.2065 47.1176 56.2437 47.0722 56.2916 47.0402C56.3394 47.0083 56.3957 46.9912 56.4532 46.9912C56.5304 46.9912 56.6044 47.0219 56.6589 47.0764C56.7135 47.131 56.7441 47.205 56.7441 47.2821Z"
        fill="#2F9E44" />
    <path
        d="M57.7012 47.2821C57.7012 47.3397 57.6841 47.3959 57.6522 47.4437C57.6202 47.4916 57.5748 47.5289 57.5216 47.5509C57.4685 47.5729 57.41 47.5787 57.3535 47.5674C57.2971 47.5562 57.2453 47.5285 57.2046 47.4878C57.1639 47.4471 57.1362 47.3953 57.125 47.3389C57.1138 47.2824 57.1195 47.224 57.1415 47.1708C57.1635 47.1176 57.2008 47.0722 57.2487 47.0402C57.2965 47.0083 57.3528 46.9912 57.4103 46.9912C57.4874 46.9912 57.5614 47.0219 57.616 47.0764C57.6706 47.131 57.7012 47.205 57.7012 47.2821Z"
        fill="#2F9E44" />
    <path
        d="M58.6569 47.2821C58.6569 47.3397 58.6398 47.3959 58.6079 47.4437C58.5759 47.4916 58.5305 47.5289 58.4773 47.5509C58.4242 47.5729 58.3657 47.5787 58.3092 47.5674C58.2528 47.5562 58.201 47.5285 58.1603 47.4878C58.1196 47.4471 58.0919 47.3953 58.0807 47.3389C58.0694 47.2824 58.0752 47.224 58.0972 47.1708C58.1192 47.1176 58.1565 47.0722 58.2044 47.0402C58.2522 47.0083 58.3084 46.9912 58.366 46.9912C58.4431 46.9912 58.5171 47.0219 58.5717 47.0764C58.6263 47.131 58.6569 47.205 58.6569 47.2821Z"
        fill="#2F9E44" />
    <path
        d="M59.614 47.2821C59.614 47.3397 59.5969 47.3959 59.565 47.4437C59.533 47.4916 59.4876 47.5289 59.4344 47.5509C59.3812 47.5729 59.3228 47.5787 59.2663 47.5674C59.2099 47.5562 59.1581 47.5285 59.1174 47.4878C59.0767 47.4471 59.049 47.3953 59.0378 47.3389C59.0265 47.2824 59.0323 47.224 59.0543 47.1708C59.0763 47.1176 59.1136 47.0722 59.1615 47.0402C59.2093 47.0083 59.2655 46.9912 59.3231 46.9912C59.4002 46.9912 59.4742 47.0219 59.5288 47.0764C59.5833 47.131 59.614 47.205 59.614 47.2821Z"
        fill="#2F9E44" />
    <path
        d="M55.787 48.1552C55.787 48.2127 55.77 48.269 55.738 48.3168C55.706 48.3646 55.6606 48.4019 55.6074 48.4239C55.5543 48.446 55.4958 48.4517 55.4394 48.4405C55.3829 48.4293 55.3311 48.4016 55.2904 48.3609C55.2497 48.3202 55.222 48.2684 55.2108 48.2119C55.1996 48.1555 55.2053 48.097 55.2273 48.0438C55.2494 47.9907 55.2867 47.9453 55.3345 47.9133C55.3823 47.8813 55.4386 47.8643 55.4961 47.8643C55.5733 47.8643 55.6473 47.8949 55.7018 47.9495C55.7564 48.004 55.787 48.078 55.787 48.1552Z"
        fill="#2F9E44" />
    <path
        d="M56.7441 48.1552C56.7441 48.2127 56.7271 48.269 56.6951 48.3168C56.6631 48.3646 56.6177 48.4019 56.5645 48.4239C56.5114 48.446 56.4529 48.4517 56.3965 48.4405C56.34 48.4293 56.2882 48.4016 56.2475 48.3609C56.2068 48.3202 56.1791 48.2684 56.1679 48.2119C56.1567 48.1555 56.1624 48.097 56.1844 48.0438C56.2065 47.9907 56.2437 47.9453 56.2916 47.9133C56.3394 47.8813 56.3957 47.8643 56.4532 47.8643C56.5304 47.8643 56.6044 47.8949 56.6589 47.9495C56.7135 48.004 56.7441 48.078 56.7441 48.1552Z"
        fill="#2F9E44" />
    <path
        d="M57.7012 48.1552C57.7012 48.2127 57.6841 48.269 57.6522 48.3168C57.6202 48.3646 57.5748 48.4019 57.5216 48.4239C57.4685 48.446 57.41 48.4517 57.3535 48.4405C57.2971 48.4293 57.2453 48.4016 57.2046 48.3609C57.1639 48.3202 57.1362 48.2684 57.125 48.2119C57.1138 48.1555 57.1195 48.097 57.1415 48.0438C57.1635 47.9907 57.2008 47.9453 57.2487 47.9133C57.2965 47.8813 57.3528 47.8643 57.4103 47.8643C57.4874 47.8643 57.5614 47.8949 57.616 47.9495C57.6706 48.004 57.7012 48.078 57.7012 48.1552Z"
        fill="#2F9E44" />
    <path
        d="M58.6569 48.1552C58.6569 48.2127 58.6398 48.269 58.6079 48.3168C58.5759 48.3646 58.5305 48.4019 58.4773 48.4239C58.4242 48.446 58.3657 48.4517 58.3092 48.4405C58.2528 48.4293 58.201 48.4016 58.1603 48.3609C58.1196 48.3202 58.0919 48.2684 58.0807 48.2119C58.0694 48.1555 58.0752 48.097 58.0972 48.0438C58.1192 47.9907 58.1565 47.9453 58.2044 47.9133C58.2522 47.8813 58.3084 47.8643 58.366 47.8643C58.4431 47.8643 58.5171 47.8949 58.5717 47.9495C58.6263 48.004 58.6569 48.078 58.6569 48.1552Z"
        fill="#2F9E44" />
    <path
        d="M59.614 48.1552C59.614 48.2127 59.5969 48.269 59.565 48.3168C59.533 48.3646 59.4876 48.4019 59.4344 48.4239C59.3812 48.446 59.3228 48.4517 59.2663 48.4405C59.2099 48.4293 59.1581 48.4016 59.1174 48.3609C59.0767 48.3202 59.049 48.2684 59.0378 48.2119C59.0265 48.1555 59.0323 48.097 59.0543 48.0438C59.0763 47.9907 59.1136 47.9453 59.1615 47.9133C59.2093 47.8813 59.2655 47.8643 59.3231 47.8643C59.4002 47.8643 59.4742 47.8949 59.5288 47.9495C59.5833 48.004 59.614 48.078 59.614 48.1552Z"
        fill="#2F9E44" />
    <path d="M54.8241 46.1187H54.6569V48.4401H54.8241V46.1187Z" fill="#263238" />
    <path d="M60.0649 41.3682H45.0524V44.8358H60.0649V41.3682Z" fill="#37474F" />
    <path d="M54.2292 41.9414H45.6837V42.2338H54.2292V41.9414Z" fill="#455A64" />
    <path d="M54.2292 42.4473H45.6837V42.7396H54.2292V42.4473Z" fill="#455A64" />
    <path d="M54.2292 42.9551H45.6837V43.2474H54.2292V42.9551Z" fill="#455A64" />
    <path d="M54.2292 43.4629H45.6837V43.7553H54.2292V43.4629Z" fill="#455A64" />
    <path d="M54.2292 43.9702H45.6837V44.2626H54.2292V43.9702Z" fill="#455A64" />
    <path
        d="M55.4976 42.5218C55.6582 42.5218 55.7885 42.3915 55.7885 42.2309C55.7885 42.0702 55.6582 41.9399 55.4976 41.9399C55.3369 41.9399 55.2067 42.0702 55.2067 42.2309C55.2067 42.3915 55.3369 42.5218 55.4976 42.5218Z"
        fill="#2F9E44" />
    <path
        d="M56.7441 42.2309C56.7441 42.2884 56.7271 42.3446 56.6951 42.3925C56.6631 42.4403 56.6177 42.4776 56.5645 42.4996C56.5114 42.5216 56.4529 42.5274 56.3965 42.5162C56.34 42.505 56.2882 42.4772 56.2475 42.4366C56.2068 42.3959 56.1791 42.344 56.1679 42.2876C56.1567 42.2312 56.1624 42.1727 56.1844 42.1195C56.2065 42.0664 56.2437 42.0209 56.2916 41.989C56.3394 41.957 56.3957 41.9399 56.4532 41.9399C56.5304 41.9399 56.6044 41.9706 56.6589 42.0251C56.7135 42.0797 56.7441 42.1537 56.7441 42.2309Z"
        fill="#2F9E44" />
    <path
        d="M57.4103 42.5218C57.571 42.5218 57.7012 42.3915 57.7012 42.2309C57.7012 42.0702 57.571 41.9399 57.4103 41.9399C57.2496 41.9399 57.1194 42.0702 57.1194 42.2309C57.1194 42.3915 57.2496 42.5218 57.4103 42.5218Z"
        fill="#2F9E44" />
    <path
        d="M58.6569 42.2309C58.6569 42.2884 58.6398 42.3446 58.6079 42.3925C58.5759 42.4403 58.5305 42.4776 58.4773 42.4996C58.4242 42.5216 58.3657 42.5274 58.3092 42.5162C58.2528 42.505 58.201 42.4772 58.1603 42.4366C58.1196 42.3959 58.0919 42.344 58.0807 42.2876C58.0694 42.2312 58.0752 42.1727 58.0972 42.1195C58.1192 42.0664 58.1565 42.0209 58.2044 41.989C58.2522 41.957 58.3084 41.9399 58.366 41.9399C58.4431 41.9399 58.5171 41.9706 58.5717 42.0251C58.6263 42.0797 58.6569 42.1537 58.6569 42.2309Z"
        fill="#2F9E44" />
    <path
        d="M59.614 42.2309C59.614 42.2884 59.5969 42.3446 59.565 42.3925C59.533 42.4403 59.4876 42.4776 59.4344 42.4996C59.3812 42.5216 59.3228 42.5274 59.2663 42.5162C59.2099 42.505 59.1581 42.4772 59.1174 42.4366C59.0767 42.3959 59.049 42.344 59.0378 42.2876C59.0265 42.2312 59.0323 42.1727 59.0543 42.1195C59.0763 42.0664 59.1136 42.0209 59.1615 41.989C59.2093 41.957 59.2655 41.9399 59.3231 41.9399C59.4002 41.9399 59.4742 41.9706 59.5288 42.0251C59.5833 42.0797 59.614 42.1537 59.614 42.2309Z"
        fill="#2F9E44" />
    <path
        d="M55.787 43.1019C55.787 43.1595 55.77 43.2157 55.738 43.2636C55.706 43.3114 55.6606 43.3487 55.6074 43.3707C55.5543 43.3927 55.4958 43.3985 55.4394 43.3873C55.3829 43.376 55.3311 43.3483 55.2904 43.3077C55.2497 43.267 55.222 43.2151 55.2108 43.1587C55.1996 43.1023 55.2053 43.0438 55.2273 42.9906C55.2494 42.9375 55.2867 42.892 55.3345 42.8601C55.3823 42.8281 55.4386 42.811 55.4961 42.811C55.5733 42.811 55.6473 42.8417 55.7018 42.8962C55.7564 42.9508 55.787 43.0248 55.787 43.1019Z"
        fill="#2F9E44" />
    <path
        d="M56.7441 43.1019C56.7441 43.1595 56.7271 43.2157 56.6951 43.2636C56.6631 43.3114 56.6177 43.3487 56.5645 43.3707C56.5114 43.3927 56.4529 43.3985 56.3965 43.3873C56.34 43.376 56.2882 43.3483 56.2475 43.3077C56.2068 43.267 56.1791 43.2151 56.1679 43.1587C56.1567 43.1023 56.1624 43.0438 56.1844 42.9906C56.2065 42.9375 56.2437 42.892 56.2916 42.8601C56.3394 42.8281 56.3957 42.811 56.4532 42.811C56.5304 42.811 56.6044 42.8417 56.6589 42.8962C56.7135 42.9508 56.7441 43.0248 56.7441 43.1019Z"
        fill="#2F9E44" />
    <path
        d="M57.7012 43.1019C57.7012 43.1595 57.6841 43.2157 57.6522 43.2636C57.6202 43.3114 57.5748 43.3487 57.5216 43.3707C57.4685 43.3927 57.41 43.3985 57.3535 43.3873C57.2971 43.376 57.2453 43.3483 57.2046 43.3077C57.1639 43.267 57.1362 43.2151 57.125 43.1587C57.1138 43.1023 57.1195 43.0438 57.1415 42.9906C57.1635 42.9375 57.2008 42.892 57.2487 42.8601C57.2965 42.8281 57.3528 42.811 57.4103 42.811C57.4874 42.811 57.5614 42.8417 57.616 42.8962C57.6706 42.9508 57.7012 43.0248 57.7012 43.1019Z"
        fill="#2F9E44" />
    <path
        d="M58.6569 43.1019C58.6569 43.1595 58.6398 43.2157 58.6079 43.2636C58.5759 43.3114 58.5305 43.3487 58.4773 43.3707C58.4242 43.3927 58.3657 43.3985 58.3092 43.3873C58.2528 43.376 58.201 43.3483 58.1603 43.3077C58.1196 43.267 58.0919 43.2151 58.0807 43.1587C58.0694 43.1023 58.0752 43.0438 58.0972 42.9906C58.1192 42.9375 58.1565 42.892 58.2044 42.8601C58.2522 42.8281 58.3084 42.811 58.366 42.811C58.4431 42.811 58.5171 42.8417 58.5717 42.8962C58.6263 42.9508 58.6569 43.0248 58.6569 43.1019Z"
        fill="#2F9E44" />
    <path
        d="M59.614 43.1019C59.614 43.1595 59.5969 43.2157 59.565 43.2636C59.533 43.3114 59.4876 43.3487 59.4344 43.3707C59.3812 43.3927 59.3228 43.3985 59.2663 43.3873C59.2099 43.376 59.1581 43.3483 59.1174 43.3077C59.0767 43.267 59.049 43.2151 59.0378 43.1587C59.0265 43.1023 59.0323 43.0438 59.0543 42.9906C59.0763 42.9375 59.1136 42.892 59.1615 42.8601C59.2093 42.8281 59.2655 42.811 59.3231 42.811C59.4002 42.811 59.4742 42.8417 59.5288 42.8962C59.5833 42.9508 59.614 43.0248 59.614 43.1019Z"
        fill="#2F9E44" />
    <path
        d="M55.787 43.9716C55.787 44.0291 55.77 44.0854 55.738 44.1332C55.706 44.181 55.6606 44.2183 55.6074 44.2403C55.5543 44.2624 55.4958 44.2681 55.4394 44.2569C55.3829 44.2457 55.3311 44.218 55.2904 44.1773C55.2497 44.1366 55.222 44.0848 55.2108 44.0283C55.1996 43.9719 55.2053 43.9134 55.2273 43.8603C55.2494 43.8071 55.2867 43.7617 55.3345 43.7297C55.3823 43.6977 55.4386 43.6807 55.4961 43.6807C55.5733 43.6807 55.6473 43.7113 55.7018 43.7659C55.7564 43.8204 55.787 43.8944 55.787 43.9716Z"
        fill="#2F9E44" />
    <path
        d="M56.7441 43.9716C56.7441 44.0291 56.7271 44.0854 56.6951 44.1332C56.6631 44.181 56.6177 44.2183 56.5645 44.2403C56.5114 44.2624 56.4529 44.2681 56.3965 44.2569C56.34 44.2457 56.2882 44.218 56.2475 44.1773C56.2068 44.1366 56.1791 44.0848 56.1679 44.0283C56.1567 43.9719 56.1624 43.9134 56.1844 43.8603C56.2065 43.8071 56.2437 43.7617 56.2916 43.7297C56.3394 43.6977 56.3957 43.6807 56.4532 43.6807C56.5304 43.6807 56.6044 43.7113 56.6589 43.7659C56.7135 43.8204 56.7441 43.8944 56.7441 43.9716Z"
        fill="#2F9E44" />
    <path
        d="M57.7012 43.9716C57.7012 44.0291 57.6841 44.0854 57.6522 44.1332C57.6202 44.181 57.5748 44.2183 57.5216 44.2403C57.4685 44.2624 57.41 44.2681 57.3535 44.2569C57.2971 44.2457 57.2453 44.218 57.2046 44.1773C57.1639 44.1366 57.1362 44.0848 57.125 44.0283C57.1138 43.9719 57.1195 43.9134 57.1415 43.8603C57.1635 43.8071 57.2008 43.7617 57.2487 43.7297C57.2965 43.6977 57.3528 43.6807 57.4103 43.6807C57.4874 43.6807 57.5614 43.7113 57.616 43.7659C57.6706 43.8204 57.7012 43.8944 57.7012 43.9716Z"
        fill="#2F9E44" />
    <path
        d="M58.6569 43.9716C58.6569 44.0291 58.6398 44.0854 58.6079 44.1332C58.5759 44.181 58.5305 44.2183 58.4773 44.2403C58.4242 44.2624 58.3657 44.2681 58.3092 44.2569C58.2528 44.2457 58.201 44.218 58.1603 44.1773C58.1196 44.1366 58.0919 44.0848 58.0807 44.0283C58.0694 43.9719 58.0752 43.9134 58.0972 43.8603C58.1192 43.8071 58.1565 43.7617 58.2044 43.7297C58.2522 43.6977 58.3084 43.6807 58.366 43.6807C58.4431 43.6807 58.5171 43.7113 58.5717 43.7659C58.6263 43.8204 58.6569 43.8944 58.6569 43.9716Z"
        fill="#2F9E44" />
    <path
        d="M59.614 43.9716C59.614 44.0291 59.5969 44.0854 59.565 44.1332C59.533 44.181 59.4876 44.2183 59.4344 44.2403C59.3812 44.2624 59.3228 44.2681 59.2663 44.2569C59.2099 44.2457 59.1581 44.218 59.1174 44.1773C59.0767 44.1366 59.049 44.0848 59.0378 44.0283C59.0265 43.9719 59.0323 43.9134 59.0543 43.8603C59.0763 43.8071 59.1136 43.7617 59.1615 43.7297C59.2093 43.6977 59.2655 43.6807 59.3231 43.6807C59.4002 43.6807 59.4742 43.7113 59.5288 43.7659C59.5833 43.8204 59.614 43.8944 59.614 43.9716Z"
        fill="#2F9E44" />
    <path d="M54.8241 41.9414H54.6569V44.2629H54.8241V41.9414Z" fill="#263238" />
    <path d="M60.0649 37.189H45.0524V40.6566H60.0649V37.189Z" fill="#37474F" />
    <path d="M54.2292 37.7622H45.6837V38.0546H54.2292V37.7622Z" fill="#455A64" />
    <path d="M54.2292 38.2686H45.6837V38.5609H54.2292V38.2686Z" fill="#455A64" />
    <path d="M54.2292 38.7759H45.6837V39.0682H54.2292V38.7759Z" fill="#455A64" />
    <path d="M54.2292 39.2837H45.6837V39.5761H54.2292V39.2837Z" fill="#455A64" />
    <path d="M54.2292 39.7915H45.6837V40.0839H54.2292V39.7915Z" fill="#455A64" />
    <path
        d="M55.787 38.0517C55.787 38.1092 55.77 38.1654 55.738 38.2133C55.706 38.2611 55.6606 38.2984 55.6074 38.3204C55.5543 38.3424 55.4958 38.3482 55.4394 38.337C55.3829 38.3257 55.3311 38.298 55.2904 38.2574C55.2497 38.2167 55.222 38.1648 55.2108 38.1084C55.1996 38.052 55.2053 37.9935 55.2273 37.9403C55.2494 37.8872 55.2867 37.8417 55.3345 37.8098C55.3823 37.7778 55.4386 37.7607 55.4961 37.7607C55.5733 37.7607 55.6473 37.7914 55.7018 37.8459C55.7564 37.9005 55.787 37.9745 55.787 38.0517Z"
        fill="#2F9E44" />
    <path
        d="M56.7441 38.0517C56.7441 38.1092 56.7271 38.1654 56.6951 38.2133C56.6631 38.2611 56.6177 38.2984 56.5645 38.3204C56.5114 38.3424 56.4529 38.3482 56.3965 38.337C56.34 38.3257 56.2882 38.298 56.2475 38.2574C56.2068 38.2167 56.1791 38.1648 56.1679 38.1084C56.1567 38.052 56.1624 37.9935 56.1844 37.9403C56.2065 37.8872 56.2437 37.8417 56.2916 37.8098C56.3394 37.7778 56.3957 37.7607 56.4532 37.7607C56.5304 37.7607 56.6044 37.7914 56.6589 37.8459C56.7135 37.9005 56.7441 37.9745 56.7441 38.0517Z"
        fill="#2F9E44" />
    <path
        d="M57.7012 38.0517C57.7012 38.1092 57.6841 38.1654 57.6522 38.2133C57.6202 38.2611 57.5748 38.2984 57.5216 38.3204C57.4685 38.3424 57.41 38.3482 57.3535 38.337C57.2971 38.3257 57.2453 38.298 57.2046 38.2574C57.1639 38.2167 57.1362 38.1648 57.125 38.1084C57.1138 38.052 57.1195 37.9935 57.1415 37.9403C57.1635 37.8872 57.2008 37.8417 57.2487 37.8098C57.2965 37.7778 57.3528 37.7607 57.4103 37.7607C57.4874 37.7607 57.5614 37.7914 57.616 37.8459C57.6706 37.9005 57.7012 37.9745 57.7012 38.0517Z"
        fill="#2F9E44" />
    <path
        d="M58.6569 38.0517C58.6569 38.1092 58.6398 38.1654 58.6079 38.2133C58.5759 38.2611 58.5305 38.2984 58.4773 38.3204C58.4242 38.3424 58.3657 38.3482 58.3092 38.337C58.2528 38.3257 58.201 38.298 58.1603 38.2574C58.1196 38.2167 58.0919 38.1648 58.0807 38.1084C58.0694 38.052 58.0752 37.9935 58.0972 37.9403C58.1192 37.8872 58.1565 37.8417 58.2044 37.8098C58.2522 37.7778 58.3084 37.7607 58.366 37.7607C58.4431 37.7607 58.5171 37.7914 58.5717 37.8459C58.6263 37.9005 58.6569 37.9745 58.6569 38.0517Z"
        fill="#2F9E44" />
    <path
        d="M59.614 38.0517C59.614 38.1092 59.5969 38.1654 59.565 38.2133C59.533 38.2611 59.4876 38.2984 59.4344 38.3204C59.3812 38.3424 59.3228 38.3482 59.2663 38.337C59.2099 38.3257 59.1581 38.298 59.1174 38.2574C59.0767 38.2167 59.049 38.1648 59.0378 38.1084C59.0265 38.052 59.0323 37.9935 59.0543 37.9403C59.0763 37.8872 59.1136 37.8417 59.1615 37.8098C59.2093 37.7778 59.2655 37.7607 59.3231 37.7607C59.4002 37.7607 59.4742 37.7914 59.5288 37.8459C59.5833 37.9005 59.614 37.9745 59.614 38.0517Z"
        fill="#2F9E44" />
    <path
        d="M55.4976 39.2137C55.6582 39.2137 55.7885 39.0834 55.7885 38.9227C55.7885 38.7621 55.6582 38.6318 55.4976 38.6318C55.3369 38.6318 55.2067 38.7621 55.2067 38.9227C55.2067 39.0834 55.3369 39.2137 55.4976 39.2137Z"
        fill="#2F9E44" />
    <path
        d="M56.7441 38.9227C56.7441 38.9803 56.7271 39.0365 56.6951 39.0844C56.6631 39.1322 56.6177 39.1695 56.5645 39.1915C56.5114 39.2135 56.4529 39.2193 56.3965 39.2081C56.34 39.1968 56.2882 39.1691 56.2475 39.1285C56.2068 39.0878 56.1791 39.0359 56.1679 38.9795C56.1567 38.9231 56.1624 38.8646 56.1844 38.8114C56.2065 38.7583 56.2437 38.7128 56.2916 38.6809C56.3394 38.6489 56.3957 38.6318 56.4532 38.6318C56.5304 38.6318 56.6044 38.6625 56.6589 38.717C56.7135 38.7716 56.7441 38.8456 56.7441 38.9227Z"
        fill="#2F9E44" />
    <path
        d="M57.4103 39.2137C57.571 39.2137 57.7012 39.0834 57.7012 38.9227C57.7012 38.7621 57.571 38.6318 57.4103 38.6318C57.2496 38.6318 57.1194 38.7621 57.1194 38.9227C57.1194 39.0834 57.2496 39.2137 57.4103 39.2137Z"
        fill="#2F9E44" />
    <path
        d="M58.6569 38.9227C58.6569 38.9803 58.6398 39.0365 58.6079 39.0844C58.5759 39.1322 58.5305 39.1695 58.4773 39.1915C58.4242 39.2135 58.3657 39.2193 58.3092 39.2081C58.2528 39.1968 58.201 39.1691 58.1603 39.1285C58.1196 39.0878 58.0919 39.0359 58.0807 38.9795C58.0694 38.9231 58.0752 38.8646 58.0972 38.8114C58.1192 38.7583 58.1565 38.7128 58.2044 38.6809C58.2522 38.6489 58.3084 38.6318 58.366 38.6318C58.4431 38.6318 58.5171 38.6625 58.5717 38.717C58.6263 38.7716 58.6569 38.8456 58.6569 38.9227Z"
        fill="#2F9E44" />
    <path
        d="M59.614 38.9227C59.614 38.9803 59.5969 39.0365 59.565 39.0844C59.533 39.1322 59.4876 39.1695 59.4344 39.1915C59.3812 39.2135 59.3228 39.2193 59.2663 39.2081C59.2099 39.1968 59.1581 39.1691 59.1174 39.1285C59.0767 39.0878 59.049 39.0359 59.0378 38.9795C59.0265 38.9231 59.0323 38.8646 59.0543 38.8114C59.0763 38.7583 59.1136 38.7128 59.1615 38.6809C59.2093 38.6489 59.2655 38.6318 59.3231 38.6318C59.4002 38.6318 59.4742 38.6625 59.5288 38.717C59.5833 38.7716 59.614 38.8456 59.614 38.9227Z"
        fill="#2F9E44" />
    <path
        d="M55.4976 40.0838C55.6582 40.0838 55.7885 39.9535 55.7885 39.7929C55.7885 39.6322 55.6582 39.502 55.4976 39.502C55.3369 39.502 55.2067 39.6322 55.2067 39.7929C55.2067 39.9535 55.3369 40.0838 55.4976 40.0838Z"
        fill="#2F9E44" />
    <path
        d="M56.7441 39.7929C56.7441 39.8504 56.7271 39.9066 56.6951 39.9545C56.6631 40.0023 56.6177 40.0396 56.5645 40.0616C56.5114 40.0837 56.4529 40.0894 56.3965 40.0782C56.34 40.067 56.2882 40.0393 56.2475 39.9986C56.2068 39.9579 56.1791 39.906 56.1679 39.8496C56.1567 39.7932 56.1624 39.7347 56.1844 39.6815C56.2065 39.6284 56.2437 39.5829 56.2916 39.551C56.3394 39.519 56.3957 39.502 56.4532 39.502C56.5304 39.502 56.6044 39.5326 56.6589 39.5872C56.7135 39.6417 56.7441 39.7157 56.7441 39.7929Z"
        fill="#2F9E44" />
    <path
        d="M57.4103 40.0838C57.571 40.0838 57.7012 39.9535 57.7012 39.7929C57.7012 39.6322 57.571 39.502 57.4103 39.502C57.2496 39.502 57.1194 39.6322 57.1194 39.7929C57.1194 39.9535 57.2496 40.0838 57.4103 40.0838Z"
        fill="#2F9E44" />
    <path
        d="M58.6569 39.7929C58.6569 39.8504 58.6398 39.9066 58.6079 39.9545C58.5759 40.0023 58.5305 40.0396 58.4773 40.0616C58.4242 40.0837 58.3657 40.0894 58.3092 40.0782C58.2528 40.067 58.201 40.0393 58.1603 39.9986C58.1196 39.9579 58.0919 39.906 58.0807 39.8496C58.0694 39.7932 58.0752 39.7347 58.0972 39.6815C58.1192 39.6284 58.1565 39.5829 58.2044 39.551C58.2522 39.519 58.3084 39.502 58.366 39.502C58.4431 39.502 58.5171 39.5326 58.5717 39.5872C58.6263 39.6417 58.6569 39.7157 58.6569 39.7929Z"
        fill="#2F9E44" />
    <path
        d="M59.614 39.7929C59.614 39.8504 59.5969 39.9066 59.565 39.9545C59.533 40.0023 59.4876 40.0396 59.4344 40.0616C59.3812 40.0837 59.3228 40.0894 59.2663 40.0782C59.2099 40.067 59.1581 40.0393 59.1174 39.9986C59.0767 39.9579 59.049 39.906 59.0378 39.8496C59.0265 39.7932 59.0323 39.7347 59.0543 39.6815C59.0763 39.6284 59.1136 39.5829 59.1615 39.551C59.2093 39.519 59.2655 39.502 59.3231 39.502C59.4002 39.502 59.4742 39.5326 59.5288 39.5872C59.5833 39.6417 59.614 39.7157 59.614 39.7929Z"
        fill="#2F9E44" />
    <path d="M54.8241 37.7622H54.6569V40.0837H54.8241V37.7622Z" fill="#263238" />
    <path d="M60.0649 33.0103H45.0524V36.4779H60.0649V33.0103Z" fill="#37474F" />
    <path d="M54.2292 33.5835H45.6837V33.8759H54.2292V33.5835Z" fill="#455A64" />
    <path d="M54.2292 34.0908H45.6837V34.3832H54.2292V34.0908Z" fill="#455A64" />
    <path d="M54.2292 34.5972H45.6837V34.8895H54.2292V34.5972Z" fill="#455A64" />
    <path d="M54.2292 35.1045H45.6837V35.3969H54.2292V35.1045Z" fill="#455A64" />
    <path d="M54.2292 35.6123H45.6837V35.9047H54.2292V35.6123Z" fill="#455A64" />
    <path
        d="M55.4976 34.1653C55.6582 34.1653 55.7885 34.0351 55.7885 33.8744C55.7885 33.7137 55.6582 33.5835 55.4976 33.5835C55.3369 33.5835 55.2067 33.7137 55.2067 33.8744C55.2067 34.0351 55.3369 34.1653 55.4976 34.1653Z"
        fill="#2F9E44" />
    <path
        d="M56.7441 33.8744C56.7441 33.9319 56.7271 33.9882 56.6951 34.036C56.6631 34.0839 56.6177 34.1212 56.5645 34.1432C56.5114 34.1652 56.4529 34.171 56.3965 34.1597C56.34 34.1485 56.2882 34.1208 56.2475 34.0801C56.2068 34.0394 56.1791 33.9876 56.1679 33.9312C56.1567 33.8747 56.1624 33.8162 56.1844 33.7631C56.2065 33.7099 56.2437 33.6645 56.2916 33.6325C56.3394 33.6006 56.3957 33.5835 56.4532 33.5835C56.5304 33.5835 56.6044 33.6141 56.6589 33.6687C56.7135 33.7233 56.7441 33.7973 56.7441 33.8744Z"
        fill="#2F9E44" />
    <path
        d="M57.4103 34.1653C57.571 34.1653 57.7012 34.0351 57.7012 33.8744C57.7012 33.7137 57.571 33.5835 57.4103 33.5835C57.2496 33.5835 57.1194 33.7137 57.1194 33.8744C57.1194 34.0351 57.2496 34.1653 57.4103 34.1653Z"
        fill="#2F9E44" />
    <path
        d="M58.6569 33.8744C58.6569 33.9319 58.6398 33.9882 58.6079 34.036C58.5759 34.0839 58.5305 34.1212 58.4773 34.1432C58.4242 34.1652 58.3657 34.171 58.3092 34.1597C58.2528 34.1485 58.201 34.1208 58.1603 34.0801C58.1196 34.0394 58.0919 33.9876 58.0807 33.9312C58.0694 33.8747 58.0752 33.8162 58.0972 33.7631C58.1192 33.7099 58.1565 33.6645 58.2044 33.6325C58.2522 33.6006 58.3084 33.5835 58.366 33.5835C58.4431 33.5835 58.5171 33.6141 58.5717 33.6687C58.6263 33.7233 58.6569 33.7973 58.6569 33.8744Z"
        fill="#2F9E44" />
    <path
        d="M59.614 33.8744C59.614 33.9319 59.5969 33.9882 59.565 34.036C59.533 34.0839 59.4876 34.1212 59.4344 34.1432C59.3812 34.1652 59.3228 34.171 59.2663 34.1597C59.2099 34.1485 59.1581 34.1208 59.1174 34.0801C59.0767 34.0394 59.049 33.9876 59.0378 33.9312C59.0265 33.8747 59.0323 33.8162 59.0543 33.7631C59.0763 33.7099 59.1136 33.6645 59.1615 33.6325C59.2093 33.6006 59.2655 33.5835 59.3231 33.5835C59.4002 33.5835 59.4742 33.6141 59.5288 33.6687C59.5833 33.7233 59.614 33.7973 59.614 33.8744Z"
        fill="#2F9E44" />
    <path
        d="M55.4976 35.035C55.6582 35.035 55.7885 34.9047 55.7885 34.744C55.7885 34.5834 55.6582 34.4531 55.4976 34.4531C55.3369 34.4531 55.2067 34.5834 55.2067 34.744C55.2067 34.9047 55.3369 35.035 55.4976 35.035Z"
        fill="#2F9E44" />
    <path
        d="M56.7441 34.744C56.7441 34.8016 56.7271 34.8578 56.6951 34.9057C56.6631 34.9535 56.6177 34.9908 56.5645 35.0128C56.5114 35.0348 56.4529 35.0406 56.3965 35.0294C56.34 35.0181 56.2882 34.9904 56.2475 34.9497C56.2068 34.9091 56.1791 34.8572 56.1679 34.8008C56.1567 34.7444 56.1624 34.6859 56.1844 34.6327C56.2065 34.5796 56.2437 34.5341 56.2916 34.5022C56.3394 34.4702 56.3957 34.4531 56.4532 34.4531C56.5304 34.4531 56.6044 34.4838 56.6589 34.5383C56.7135 34.5929 56.7441 34.6669 56.7441 34.744Z"
        fill="#2F9E44" />
    <path
        d="M57.4103 35.035C57.571 35.035 57.7012 34.9047 57.7012 34.744C57.7012 34.5834 57.571 34.4531 57.4103 34.4531C57.2496 34.4531 57.1194 34.5834 57.1194 34.744C57.1194 34.9047 57.2496 35.035 57.4103 35.035Z"
        fill="#2F9E44" />
    <path
        d="M58.6569 34.744C58.6569 34.8016 58.6398 34.8578 58.6079 34.9057C58.5759 34.9535 58.5305 34.9908 58.4773 35.0128C58.4242 35.0348 58.3657 35.0406 58.3092 35.0294C58.2528 35.0181 58.201 34.9904 58.1603 34.9497C58.1196 34.9091 58.0919 34.8572 58.0807 34.8008C58.0694 34.7444 58.0752 34.6859 58.0972 34.6327C58.1192 34.5796 58.1565 34.5341 58.2044 34.5022C58.2522 34.4702 58.3084 34.4531 58.366 34.4531C58.4431 34.4531 58.5171 34.4838 58.5717 34.5383C58.6263 34.5929 58.6569 34.6669 58.6569 34.744Z"
        fill="#2F9E44" />
    <path
        d="M59.614 34.744C59.614 34.8016 59.5969 34.8578 59.565 34.9057C59.533 34.9535 59.4876 34.9908 59.4344 35.0128C59.3812 35.0348 59.3228 35.0406 59.2663 35.0294C59.2099 35.0181 59.1581 34.9904 59.1174 34.9497C59.0767 34.9091 59.049 34.8572 59.0378 34.8008C59.0265 34.7444 59.0323 34.6859 59.0543 34.6327C59.0763 34.5796 59.1136 34.5341 59.1615 34.5022C59.2093 34.4702 59.2655 34.4531 59.3231 34.4531C59.4002 34.4531 59.4742 34.4838 59.5288 34.5383C59.5833 34.5929 59.614 34.6669 59.614 34.744Z"
        fill="#2F9E44" />
    <path
        d="M55.787 35.6151C55.787 35.6727 55.77 35.7289 55.738 35.7768C55.706 35.8246 55.6606 35.8619 55.6074 35.8839C55.5543 35.9059 55.4958 35.9117 55.4394 35.9005C55.3829 35.8892 55.3311 35.8615 55.2904 35.8208C55.2497 35.7802 55.222 35.7283 55.2108 35.6719C55.1996 35.6155 55.2053 35.557 55.2273 35.5038C55.2494 35.4506 55.2867 35.4052 55.3345 35.3732C55.3823 35.3413 55.4386 35.3242 55.4961 35.3242C55.5733 35.3242 55.6473 35.3549 55.7018 35.4094C55.7564 35.464 55.787 35.538 55.787 35.6151Z"
        fill="#2F9E44" />
    <path
        d="M56.7441 35.6151C56.7441 35.6727 56.7271 35.7289 56.6951 35.7768C56.6631 35.8246 56.6177 35.8619 56.5645 35.8839C56.5114 35.9059 56.4529 35.9117 56.3965 35.9005C56.34 35.8892 56.2882 35.8615 56.2475 35.8208C56.2068 35.7802 56.1791 35.7283 56.1679 35.6719C56.1567 35.6155 56.1624 35.557 56.1844 35.5038C56.2065 35.4506 56.2437 35.4052 56.2916 35.3732C56.3394 35.3413 56.3957 35.3242 56.4532 35.3242C56.5304 35.3242 56.6044 35.3549 56.6589 35.4094C56.7135 35.464 56.7441 35.538 56.7441 35.6151Z"
        fill="#2F9E44" />
    <path
        d="M57.7012 35.6151C57.7012 35.6727 57.6841 35.7289 57.6522 35.7768C57.6202 35.8246 57.5748 35.8619 57.5216 35.8839C57.4685 35.9059 57.41 35.9117 57.3535 35.9005C57.2971 35.8892 57.2453 35.8615 57.2046 35.8208C57.1639 35.7802 57.1362 35.7283 57.125 35.6719C57.1138 35.6155 57.1195 35.557 57.1415 35.5038C57.1635 35.4506 57.2008 35.4052 57.2487 35.3732C57.2965 35.3413 57.3528 35.3242 57.4103 35.3242C57.4874 35.3242 57.5614 35.3549 57.616 35.4094C57.6706 35.464 57.7012 35.538 57.7012 35.6151Z"
        fill="#2F9E44" />
    <path
        d="M58.6569 35.6151C58.6569 35.6727 58.6398 35.7289 58.6079 35.7768C58.5759 35.8246 58.5305 35.8619 58.4773 35.8839C58.4242 35.9059 58.3657 35.9117 58.3092 35.9005C58.2528 35.8892 58.201 35.8615 58.1603 35.8208C58.1196 35.7802 58.0919 35.7283 58.0807 35.6719C58.0694 35.6155 58.0752 35.557 58.0972 35.5038C58.1192 35.4506 58.1565 35.4052 58.2044 35.3732C58.2522 35.3413 58.3084 35.3242 58.366 35.3242C58.4431 35.3242 58.5171 35.3549 58.5717 35.4094C58.6263 35.464 58.6569 35.538 58.6569 35.6151Z"
        fill="#2F9E44" />
    <path
        d="M59.614 35.6151C59.614 35.6727 59.5969 35.7289 59.565 35.7768C59.533 35.8246 59.4876 35.8619 59.4344 35.8839C59.3812 35.9059 59.3228 35.9117 59.2663 35.9005C59.2099 35.8892 59.1581 35.8615 59.1174 35.8208C59.0767 35.7802 59.049 35.7283 59.0378 35.6719C59.0265 35.6155 59.0323 35.557 59.0543 35.5038C59.0763 35.4506 59.1136 35.4052 59.1615 35.3732C59.2093 35.3413 59.2655 35.3242 59.3231 35.3242C59.4002 35.3242 59.4742 35.3549 59.5288 35.4094C59.5833 35.464 59.614 35.538 59.614 35.6151Z"
        fill="#2F9E44" />
    <path d="M54.8241 33.5835H54.6569V35.905H54.8241V33.5835Z" fill="#263238" />
    <path d="M60.0649 28.8311H45.0524V32.2987H60.0649V28.8311Z" fill="#37474F" />
    <path d="M54.2292 29.4043H45.6837V29.6967H54.2292V29.4043Z" fill="#455A64" />
    <path d="M54.2292 29.9121H45.6837V30.2045H54.2292V29.9121Z" fill="#455A64" />
    <path d="M54.2292 30.4194H45.6837V30.7118H54.2292V30.4194Z" fill="#455A64" />
    <path d="M54.2292 30.9258H45.6837V31.2182H54.2292V30.9258Z" fill="#455A64" />
    <path d="M54.2292 31.4336H45.6837V31.726H54.2292V31.4336Z" fill="#455A64" />
    <path
        d="M55.787 29.6952C55.787 29.7527 55.77 29.809 55.738 29.8568C55.706 29.9047 55.6606 29.942 55.6074 29.964C55.5543 29.986 55.4958 29.9918 55.4394 29.9805C55.3829 29.9693 55.3311 29.9416 55.2904 29.9009C55.2497 29.8602 55.222 29.8084 55.2108 29.752C55.1996 29.6955 55.2053 29.637 55.2273 29.5839C55.2494 29.5307 55.2867 29.4853 55.3345 29.4533C55.3823 29.4214 55.4386 29.4043 55.4961 29.4043C55.5733 29.4043 55.6473 29.4349 55.7018 29.4895C55.7564 29.5441 55.787 29.6181 55.787 29.6952Z"
        fill="#2F9E44" />
    <path
        d="M56.7441 29.6952C56.7441 29.7527 56.7271 29.809 56.6951 29.8568C56.6631 29.9047 56.6177 29.942 56.5645 29.964C56.5114 29.986 56.4529 29.9918 56.3965 29.9805C56.34 29.9693 56.2882 29.9416 56.2475 29.9009C56.2068 29.8602 56.1791 29.8084 56.1679 29.752C56.1567 29.6955 56.1624 29.637 56.1844 29.5839C56.2065 29.5307 56.2437 29.4853 56.2916 29.4533C56.3394 29.4214 56.3957 29.4043 56.4532 29.4043C56.5304 29.4043 56.6044 29.4349 56.6589 29.4895C56.7135 29.5441 56.7441 29.6181 56.7441 29.6952Z"
        fill="#2F9E44" />
    <path
        d="M57.7012 29.6952C57.7012 29.7527 57.6841 29.809 57.6522 29.8568C57.6202 29.9047 57.5748 29.942 57.5216 29.964C57.4685 29.986 57.41 29.9918 57.3535 29.9805C57.2971 29.9693 57.2453 29.9416 57.2046 29.9009C57.1639 29.8602 57.1362 29.8084 57.125 29.752C57.1138 29.6955 57.1195 29.637 57.1415 29.5839C57.1635 29.5307 57.2008 29.4853 57.2487 29.4533C57.2965 29.4214 57.3528 29.4043 57.4103 29.4043C57.4874 29.4043 57.5614 29.4349 57.616 29.4895C57.6706 29.5441 57.7012 29.6181 57.7012 29.6952Z"
        fill="#2F9E44" />
    <path
        d="M58.6569 29.6952C58.6569 29.7527 58.6398 29.809 58.6079 29.8568C58.5759 29.9047 58.5305 29.942 58.4773 29.964C58.4242 29.986 58.3657 29.9918 58.3092 29.9805C58.2528 29.9693 58.201 29.9416 58.1603 29.9009C58.1196 29.8602 58.0919 29.8084 58.0807 29.752C58.0694 29.6955 58.0752 29.637 58.0972 29.5839C58.1192 29.5307 58.1565 29.4853 58.2044 29.4533C58.2522 29.4214 58.3084 29.4043 58.366 29.4043C58.4431 29.4043 58.5171 29.4349 58.5717 29.4895C58.6263 29.5441 58.6569 29.6181 58.6569 29.6952Z"
        fill="#2F9E44" />
    <path
        d="M59.614 29.6952C59.614 29.7527 59.5969 29.809 59.565 29.8568C59.533 29.9047 59.4876 29.942 59.4344 29.964C59.3812 29.986 59.3228 29.9918 59.2663 29.9805C59.2099 29.9693 59.1581 29.9416 59.1174 29.9009C59.0767 29.8602 59.049 29.8084 59.0378 29.752C59.0265 29.6955 59.0323 29.637 59.0543 29.5839C59.0763 29.5307 59.1136 29.4853 59.1615 29.4533C59.2093 29.4214 59.2655 29.4043 59.3231 29.4043C59.4002 29.4043 59.4742 29.4349 59.5288 29.4895C59.5833 29.5441 59.614 29.6181 59.614 29.6952Z"
        fill="#2F9E44" />
    <path
        d="M55.787 30.5648C55.787 30.6224 55.77 30.6786 55.738 30.7265C55.706 30.7743 55.6606 30.8116 55.6074 30.8336C55.5543 30.8556 55.4958 30.8614 55.4394 30.8502C55.3829 30.8389 55.3311 30.8112 55.2904 30.7705C55.2497 30.7299 55.222 30.678 55.2108 30.6216C55.1996 30.5652 55.2053 30.5067 55.2273 30.4535C55.2494 30.4004 55.2867 30.3549 55.3345 30.323C55.3823 30.291 55.4386 30.2739 55.4961 30.2739C55.5733 30.2739 55.6473 30.3046 55.7018 30.3591C55.7564 30.4137 55.787 30.4877 55.787 30.5648Z"
        fill="#2F9E44" />
    <path
        d="M56.7441 30.5648C56.7441 30.6224 56.7271 30.6786 56.6951 30.7265C56.6631 30.7743 56.6177 30.8116 56.5645 30.8336C56.5114 30.8556 56.4529 30.8614 56.3965 30.8502C56.34 30.8389 56.2882 30.8112 56.2475 30.7705C56.2068 30.7299 56.1791 30.678 56.1679 30.6216C56.1567 30.5652 56.1624 30.5067 56.1844 30.4535C56.2065 30.4004 56.2437 30.3549 56.2916 30.323C56.3394 30.291 56.3957 30.2739 56.4532 30.2739C56.5304 30.2739 56.6044 30.3046 56.6589 30.3591C56.7135 30.4137 56.7441 30.4877 56.7441 30.5648Z"
        fill="#2F9E44" />
    <path
        d="M57.7012 30.5648C57.7012 30.6224 57.6841 30.6786 57.6522 30.7265C57.6202 30.7743 57.5748 30.8116 57.5216 30.8336C57.4685 30.8556 57.41 30.8614 57.3535 30.8502C57.2971 30.8389 57.2453 30.8112 57.2046 30.7705C57.1639 30.7299 57.1362 30.678 57.125 30.6216C57.1138 30.5652 57.1195 30.5067 57.1415 30.4535C57.1635 30.4004 57.2008 30.3549 57.2487 30.323C57.2965 30.291 57.3528 30.2739 57.4103 30.2739C57.4874 30.2739 57.5614 30.3046 57.616 30.3591C57.6706 30.4137 57.7012 30.4877 57.7012 30.5648Z"
        fill="#2F9E44" />
    <path
        d="M58.6569 30.5648C58.6569 30.6224 58.6398 30.6786 58.6079 30.7265C58.5759 30.7743 58.5305 30.8116 58.4773 30.8336C58.4242 30.8556 58.3657 30.8614 58.3092 30.8502C58.2528 30.8389 58.201 30.8112 58.1603 30.7705C58.1196 30.7299 58.0919 30.678 58.0807 30.6216C58.0694 30.5652 58.0752 30.5067 58.0972 30.4535C58.1192 30.4004 58.1565 30.3549 58.2044 30.323C58.2522 30.291 58.3084 30.2739 58.366 30.2739C58.4431 30.2739 58.5171 30.3046 58.5717 30.3591C58.6263 30.4137 58.6569 30.4877 58.6569 30.5648Z"
        fill="#2F9E44" />
    <path
        d="M59.614 30.5648C59.614 30.6224 59.5969 30.6786 59.565 30.7265C59.533 30.7743 59.4876 30.8116 59.4344 30.8336C59.3812 30.8556 59.3228 30.8614 59.2663 30.8502C59.2099 30.8389 59.1581 30.8112 59.1174 30.7705C59.0767 30.7299 59.049 30.678 59.0378 30.6216C59.0265 30.5652 59.0323 30.5067 59.0543 30.4535C59.0763 30.4004 59.1136 30.3549 59.1615 30.323C59.2093 30.291 59.2655 30.2739 59.3231 30.2739C59.4002 30.2739 59.4742 30.3046 59.5288 30.3591C59.5833 30.4137 59.614 30.4877 59.614 30.5648Z"
        fill="#2F9E44" />
    <path
        d="M55.787 31.4364C55.787 31.494 55.77 31.5502 55.738 31.598C55.706 31.6459 55.6606 31.6832 55.6074 31.7052C55.5543 31.7272 55.4958 31.733 55.4394 31.7217C55.3829 31.7105 55.3311 31.6828 55.2904 31.6421C55.2497 31.6014 55.222 31.5496 55.2108 31.4932C55.1996 31.4367 55.2053 31.3783 55.2273 31.3251C55.2494 31.2719 55.2867 31.2265 55.3345 31.1945C55.3823 31.1626 55.4386 31.1455 55.4961 31.1455C55.5733 31.1455 55.6473 31.1762 55.7018 31.2307C55.7564 31.2853 55.787 31.3593 55.787 31.4364Z"
        fill="#2F9E44" />
    <path
        d="M56.7441 31.4364C56.7441 31.494 56.7271 31.5502 56.6951 31.598C56.6631 31.6459 56.6177 31.6832 56.5645 31.7052C56.5114 31.7272 56.4529 31.733 56.3965 31.7217C56.34 31.7105 56.2882 31.6828 56.2475 31.6421C56.2068 31.6014 56.1791 31.5496 56.1679 31.4932C56.1567 31.4367 56.1624 31.3783 56.1844 31.3251C56.2065 31.2719 56.2437 31.2265 56.2916 31.1945C56.3394 31.1626 56.3957 31.1455 56.4532 31.1455C56.5304 31.1455 56.6044 31.1762 56.6589 31.2307C56.7135 31.2853 56.7441 31.3593 56.7441 31.4364Z"
        fill="#2F9E44" />
    <path
        d="M57.7012 31.4364C57.7012 31.494 57.6841 31.5502 57.6522 31.598C57.6202 31.6459 57.5748 31.6832 57.5216 31.7052C57.4685 31.7272 57.41 31.733 57.3535 31.7217C57.2971 31.7105 57.2453 31.6828 57.2046 31.6421C57.1639 31.6014 57.1362 31.5496 57.125 31.4932C57.1138 31.4367 57.1195 31.3783 57.1415 31.3251C57.1635 31.2719 57.2008 31.2265 57.2487 31.1945C57.2965 31.1626 57.3528 31.1455 57.4103 31.1455C57.4874 31.1455 57.5614 31.1762 57.616 31.2307C57.6706 31.2853 57.7012 31.3593 57.7012 31.4364Z"
        fill="#2F9E44" />
    <path
        d="M58.6569 31.4364C58.6569 31.494 58.6398 31.5502 58.6079 31.598C58.5759 31.6459 58.5305 31.6832 58.4773 31.7052C58.4242 31.7272 58.3657 31.733 58.3092 31.7217C58.2528 31.7105 58.201 31.6828 58.1603 31.6421C58.1196 31.6014 58.0919 31.5496 58.0807 31.4932C58.0694 31.4367 58.0752 31.3783 58.0972 31.3251C58.1192 31.2719 58.1565 31.2265 58.2044 31.1945C58.2522 31.1626 58.3084 31.1455 58.366 31.1455C58.4431 31.1455 58.5171 31.1762 58.5717 31.2307C58.6263 31.2853 58.6569 31.3593 58.6569 31.4364Z"
        fill="#2F9E44" />
    <path
        d="M59.614 31.4364C59.614 31.494 59.5969 31.5502 59.565 31.598C59.533 31.6459 59.4876 31.6832 59.4344 31.7052C59.3812 31.7272 59.3228 31.733 59.2663 31.7217C59.2099 31.7105 59.1581 31.6828 59.1174 31.6421C59.0767 31.6014 59.049 31.5496 59.0378 31.4932C59.0265 31.4367 59.0323 31.3783 59.0543 31.3251C59.0763 31.2719 59.1136 31.2265 59.1615 31.1945C59.2093 31.1626 59.2655 31.1455 59.3231 31.1455C59.4002 31.1455 59.4742 31.1762 59.5288 31.2307C59.5833 31.2853 59.614 31.3593 59.614 31.4364Z"
        fill="#2F9E44" />
    <path d="M54.8241 29.4043H54.6569V31.7258H54.8241V29.4043Z" fill="#263238" />
    <path d="M60.0649 24.6538H45.0524V28.1215H60.0649V24.6538Z" fill="#37474F" />
    <path d="M54.2292 25.2251H45.6837V25.5175H54.2292V25.2251Z" fill="#455A64" />
    <path d="M54.2292 25.7329H45.6837V26.0253H54.2292V25.7329Z" fill="#455A64" />
    <path d="M54.2292 26.2407H45.6837V26.5331H54.2292V26.2407Z" fill="#455A64" />
    <path d="M54.2292 26.748H45.6837V27.0404H54.2292V26.748Z" fill="#455A64" />
    <path d="M54.2292 27.2544H45.6837V27.5468H54.2292V27.2544Z" fill="#455A64" />
    <path
        d="M55.787 25.516C55.787 25.5735 55.77 25.6298 55.738 25.6776C55.706 25.7255 55.6606 25.7628 55.6074 25.7848C55.5543 25.8068 55.4958 25.8126 55.4394 25.8013C55.3829 25.7901 55.3311 25.7624 55.2904 25.7217C55.2497 25.681 55.222 25.6292 55.2108 25.5728C55.1996 25.5163 55.2053 25.4578 55.2273 25.4047C55.2494 25.3515 55.2867 25.3061 55.3345 25.2741C55.3823 25.2422 55.4386 25.2251 55.4961 25.2251C55.5733 25.2251 55.6473 25.2557 55.7018 25.3103C55.7564 25.3649 55.787 25.4389 55.787 25.516Z"
        fill="#2F9E44" />
    <path
        d="M56.7441 25.516C56.7441 25.5735 56.7271 25.6298 56.6951 25.6776C56.6631 25.7255 56.6177 25.7628 56.5645 25.7848C56.5114 25.8068 56.4529 25.8126 56.3965 25.8013C56.34 25.7901 56.2882 25.7624 56.2475 25.7217C56.2068 25.681 56.1791 25.6292 56.1679 25.5728C56.1567 25.5163 56.1624 25.4578 56.1844 25.4047C56.2065 25.3515 56.2437 25.3061 56.2916 25.2741C56.3394 25.2422 56.3957 25.2251 56.4532 25.2251C56.5304 25.2251 56.6044 25.2557 56.6589 25.3103C56.7135 25.3649 56.7441 25.4389 56.7441 25.516Z"
        fill="#2F9E44" />
    <path
        d="M57.7012 25.516C57.7012 25.5735 57.6841 25.6298 57.6522 25.6776C57.6202 25.7255 57.5748 25.7628 57.5216 25.7848C57.4685 25.8068 57.41 25.8126 57.3535 25.8013C57.2971 25.7901 57.2453 25.7624 57.2046 25.7217C57.1639 25.681 57.1362 25.6292 57.125 25.5728C57.1138 25.5163 57.1195 25.4578 57.1415 25.4047C57.1635 25.3515 57.2008 25.3061 57.2487 25.2741C57.2965 25.2422 57.3528 25.2251 57.4103 25.2251C57.4874 25.2251 57.5614 25.2557 57.616 25.3103C57.6706 25.3649 57.7012 25.4389 57.7012 25.516Z"
        fill="#2F9E44" />
    <path
        d="M58.6569 25.516C58.6569 25.5735 58.6398 25.6298 58.6079 25.6776C58.5759 25.7255 58.5305 25.7628 58.4773 25.7848C58.4242 25.8068 58.3657 25.8126 58.3092 25.8013C58.2528 25.7901 58.201 25.7624 58.1603 25.7217C58.1196 25.681 58.0919 25.6292 58.0807 25.5728C58.0694 25.5163 58.0752 25.4578 58.0972 25.4047C58.1192 25.3515 58.1565 25.3061 58.2044 25.2741C58.2522 25.2422 58.3084 25.2251 58.366 25.2251C58.4431 25.2251 58.5171 25.2557 58.5717 25.3103C58.6263 25.3649 58.6569 25.4389 58.6569 25.516Z"
        fill="#2F9E44" />
    <path
        d="M59.614 25.516C59.614 25.5735 59.5969 25.6298 59.565 25.6776C59.533 25.7255 59.4876 25.7628 59.4344 25.7848C59.3812 25.8068 59.3228 25.8126 59.2663 25.8013C59.2099 25.7901 59.1581 25.7624 59.1174 25.7217C59.0767 25.681 59.049 25.6292 59.0378 25.5728C59.0265 25.5163 59.0323 25.4578 59.0543 25.4047C59.0763 25.3515 59.1136 25.3061 59.1615 25.2741C59.2093 25.2422 59.2655 25.2251 59.3231 25.2251C59.4002 25.2251 59.4742 25.2557 59.5288 25.3103C59.5833 25.3649 59.614 25.4389 59.614 25.516Z"
        fill="#2F9E44" />
    <path
        d="M55.787 26.3876C55.787 26.4451 55.77 26.5014 55.738 26.5492C55.706 26.5971 55.6606 26.6343 55.6074 26.6564C55.5543 26.6784 55.4958 26.6841 55.4394 26.6729C55.3829 26.6617 55.3311 26.634 55.2904 26.5933C55.2497 26.5526 55.222 26.5008 55.2108 26.4443C55.1996 26.3879 55.2053 26.3294 55.2273 26.2763C55.2494 26.2231 55.2867 26.1777 55.3345 26.1457C55.3823 26.1137 55.4386 26.0967 55.4961 26.0967C55.5733 26.0967 55.6473 26.1273 55.7018 26.1819C55.7564 26.2364 55.787 26.3104 55.787 26.3876Z"
        fill="#2F9E44" />
    <path
        d="M56.7441 26.3876C56.7441 26.4451 56.7271 26.5014 56.6951 26.5492C56.6631 26.5971 56.6177 26.6343 56.5645 26.6564C56.5114 26.6784 56.4529 26.6841 56.3965 26.6729C56.34 26.6617 56.2882 26.634 56.2475 26.5933C56.2068 26.5526 56.1791 26.5008 56.1679 26.4443C56.1567 26.3879 56.1624 26.3294 56.1844 26.2763C56.2065 26.2231 56.2437 26.1777 56.2916 26.1457C56.3394 26.1137 56.3957 26.0967 56.4532 26.0967C56.5304 26.0967 56.6044 26.1273 56.6589 26.1819C56.7135 26.2364 56.7441 26.3104 56.7441 26.3876Z"
        fill="#2F9E44" />
    <path
        d="M57.7012 26.3876C57.7012 26.4451 57.6841 26.5014 57.6522 26.5492C57.6202 26.5971 57.5748 26.6343 57.5216 26.6564C57.4685 26.6784 57.41 26.6841 57.3535 26.6729C57.2971 26.6617 57.2453 26.634 57.2046 26.5933C57.1639 26.5526 57.1362 26.5008 57.125 26.4443C57.1138 26.3879 57.1195 26.3294 57.1415 26.2763C57.1635 26.2231 57.2008 26.1777 57.2487 26.1457C57.2965 26.1137 57.3528 26.0967 57.4103 26.0967C57.4874 26.0967 57.5614 26.1273 57.616 26.1819C57.6706 26.2364 57.7012 26.3104 57.7012 26.3876Z"
        fill="#2F9E44" />
    <path
        d="M58.6569 26.3876C58.6569 26.4451 58.6398 26.5014 58.6079 26.5492C58.5759 26.5971 58.5305 26.6343 58.4773 26.6564C58.4242 26.6784 58.3657 26.6841 58.3092 26.6729C58.2528 26.6617 58.201 26.634 58.1603 26.5933C58.1196 26.5526 58.0919 26.5008 58.0807 26.4443C58.0694 26.3879 58.0752 26.3294 58.0972 26.2763C58.1192 26.2231 58.1565 26.1777 58.2044 26.1457C58.2522 26.1137 58.3084 26.0967 58.366 26.0967C58.4431 26.0967 58.5171 26.1273 58.5717 26.1819C58.6263 26.2364 58.6569 26.3104 58.6569 26.3876Z"
        fill="#2F9E44" />
    <path
        d="M59.614 26.3876C59.614 26.4451 59.5969 26.5014 59.565 26.5492C59.533 26.5971 59.4876 26.6343 59.4344 26.6564C59.3812 26.6784 59.3228 26.6841 59.2663 26.6729C59.2099 26.6617 59.1581 26.634 59.1174 26.5933C59.0767 26.5526 59.049 26.5008 59.0378 26.4443C59.0265 26.3879 59.0323 26.3294 59.0543 26.2763C59.0763 26.2231 59.1136 26.1777 59.1615 26.1457C59.2093 26.1137 59.2655 26.0967 59.3231 26.0967C59.4002 26.0967 59.4742 26.1273 59.5288 26.1819C59.5833 26.2364 59.614 26.3104 59.614 26.3876Z"
        fill="#2F9E44" />
    <path
        d="M55.787 27.2572C55.787 27.3148 55.77 27.371 55.738 27.4188C55.706 27.4667 55.6606 27.504 55.6074 27.526C55.5543 27.548 55.4958 27.5538 55.4394 27.5425C55.3829 27.5313 55.3311 27.5036 55.2904 27.4629C55.2497 27.4222 55.222 27.3704 55.2108 27.314C55.1996 27.2575 55.2053 27.1991 55.2273 27.1459C55.2494 27.0927 55.2867 27.0473 55.3345 27.0153C55.3823 26.9834 55.4386 26.9663 55.4961 26.9663C55.5733 26.9663 55.6473 26.997 55.7018 27.0515C55.7564 27.1061 55.787 27.1801 55.787 27.2572Z"
        fill="#2F9E44" />
    <path
        d="M56.7441 27.2572C56.7441 27.3148 56.7271 27.371 56.6951 27.4188C56.6631 27.4667 56.6177 27.504 56.5645 27.526C56.5114 27.548 56.4529 27.5538 56.3965 27.5425C56.34 27.5313 56.2882 27.5036 56.2475 27.4629C56.2068 27.4222 56.1791 27.3704 56.1679 27.314C56.1567 27.2575 56.1624 27.1991 56.1844 27.1459C56.2065 27.0927 56.2437 27.0473 56.2916 27.0153C56.3394 26.9834 56.3957 26.9663 56.4532 26.9663C56.5304 26.9663 56.6044 26.997 56.6589 27.0515C56.7135 27.1061 56.7441 27.1801 56.7441 27.2572Z"
        fill="#2F9E44" />
    <path
        d="M57.7012 27.2572C57.7012 27.3148 57.6841 27.371 57.6522 27.4188C57.6202 27.4667 57.5748 27.504 57.5216 27.526C57.4685 27.548 57.41 27.5538 57.3535 27.5425C57.2971 27.5313 57.2453 27.5036 57.2046 27.4629C57.1639 27.4222 57.1362 27.3704 57.125 27.314C57.1138 27.2575 57.1195 27.1991 57.1415 27.1459C57.1635 27.0927 57.2008 27.0473 57.2487 27.0153C57.2965 26.9834 57.3528 26.9663 57.4103 26.9663C57.4874 26.9663 57.5614 26.997 57.616 27.0515C57.6706 27.1061 57.7012 27.1801 57.7012 27.2572Z"
        fill="#2F9E44" />
    <path
        d="M58.6569 27.2572C58.6569 27.3148 58.6398 27.371 58.6079 27.4188C58.5759 27.4667 58.5305 27.504 58.4773 27.526C58.4242 27.548 58.3657 27.5538 58.3092 27.5425C58.2528 27.5313 58.201 27.5036 58.1603 27.4629C58.1196 27.4222 58.0919 27.3704 58.0807 27.314C58.0694 27.2575 58.0752 27.1991 58.0972 27.1459C58.1192 27.0927 58.1565 27.0473 58.2044 27.0153C58.2522 26.9834 58.3084 26.9663 58.366 26.9663C58.4431 26.9663 58.5171 26.997 58.5717 27.0515C58.6263 27.1061 58.6569 27.1801 58.6569 27.2572Z"
        fill="#2F9E44" />
    <path
        d="M59.614 27.2572C59.614 27.3148 59.5969 27.371 59.565 27.4188C59.533 27.4667 59.4876 27.504 59.4344 27.526C59.3812 27.548 59.3228 27.5538 59.2663 27.5425C59.2099 27.5313 59.1581 27.5036 59.1174 27.4629C59.0767 27.4222 59.049 27.3704 59.0378 27.314C59.0265 27.2575 59.0323 27.1991 59.0543 27.1459C59.0763 27.0927 59.1136 27.0473 59.1615 27.0153C59.2093 26.9834 59.2655 26.9663 59.3231 26.9663C59.4002 26.9663 59.4742 26.997 59.5288 27.0515C59.5833 27.1061 59.614 27.1801 59.614 27.2572Z"
        fill="#2F9E44" />
    <path d="M54.8241 25.2251H54.6569V27.5466H54.8241V25.2251Z" fill="#263238" />
    <path d="M60.0649 20.4746H45.0524V23.9423H60.0649V20.4746Z" fill="#37474F" />
    <path d="M54.2292 21.0479H45.6837V21.3402H54.2292V21.0479Z" fill="#455A64" />
    <path d="M54.2292 21.5542H45.6837V21.8466H54.2292V21.5542Z" fill="#455A64" />
    <path d="M54.2292 22.0615H45.6837V22.3539H54.2292V22.0615Z" fill="#455A64" />
    <path d="M54.2292 22.5693H45.6837V22.8617H54.2292V22.5693Z" fill="#455A64" />
    <path d="M54.2292 23.0771H45.6837V23.3695H54.2292V23.0771Z" fill="#455A64" />
    <path
        d="M55.787 21.3373C55.787 21.3948 55.77 21.4511 55.738 21.4989C55.706 21.5468 55.6606 21.584 55.6074 21.6061C55.5543 21.6281 55.4958 21.6338 55.4394 21.6226C55.3829 21.6114 55.3311 21.5837 55.2904 21.543C55.2497 21.5023 55.222 21.4505 55.2108 21.3941C55.1996 21.3376 55.2053 21.2791 55.2273 21.226C55.2494 21.1728 55.2867 21.1274 55.3345 21.0954C55.3823 21.0634 55.4386 21.0464 55.4961 21.0464C55.5733 21.0464 55.6473 21.077 55.7018 21.1316C55.7564 21.1861 55.787 21.2601 55.787 21.3373Z"
        fill="#2F9E44" />
    <path
        d="M56.7441 21.3373C56.7441 21.3948 56.7271 21.4511 56.6951 21.4989C56.6631 21.5468 56.6177 21.584 56.5645 21.6061C56.5114 21.6281 56.4529 21.6338 56.3965 21.6226C56.34 21.6114 56.2882 21.5837 56.2475 21.543C56.2068 21.5023 56.1791 21.4505 56.1679 21.3941C56.1567 21.3376 56.1624 21.2791 56.1844 21.226C56.2065 21.1728 56.2437 21.1274 56.2916 21.0954C56.3394 21.0634 56.3957 21.0464 56.4532 21.0464C56.5304 21.0464 56.6044 21.077 56.6589 21.1316C56.7135 21.1861 56.7441 21.2601 56.7441 21.3373Z"
        fill="#2F9E44" />
    <path
        d="M57.7012 21.3373C57.7012 21.3948 57.6841 21.4511 57.6522 21.4989C57.6202 21.5468 57.5748 21.584 57.5216 21.6061C57.4685 21.6281 57.41 21.6338 57.3535 21.6226C57.2971 21.6114 57.2453 21.5837 57.2046 21.543C57.1639 21.5023 57.1362 21.4505 57.125 21.3941C57.1138 21.3376 57.1195 21.2791 57.1415 21.226C57.1635 21.1728 57.2008 21.1274 57.2487 21.0954C57.2965 21.0634 57.3528 21.0464 57.4103 21.0464C57.4874 21.0464 57.5614 21.077 57.616 21.1316C57.6706 21.1861 57.7012 21.2601 57.7012 21.3373Z"
        fill="#2F9E44" />
    <path
        d="M58.6569 21.3373C58.6569 21.3948 58.6398 21.4511 58.6079 21.4989C58.5759 21.5468 58.5305 21.584 58.4773 21.6061C58.4242 21.6281 58.3657 21.6338 58.3092 21.6226C58.2528 21.6114 58.201 21.5837 58.1603 21.543C58.1196 21.5023 58.0919 21.4505 58.0807 21.3941C58.0694 21.3376 58.0752 21.2791 58.0972 21.226C58.1192 21.1728 58.1565 21.1274 58.2044 21.0954C58.2522 21.0634 58.3084 21.0464 58.366 21.0464C58.4431 21.0464 58.5171 21.077 58.5717 21.1316C58.6263 21.1861 58.6569 21.2601 58.6569 21.3373Z"
        fill="#2F9E44" />
    <path
        d="M59.614 21.3373C59.614 21.3948 59.5969 21.4511 59.565 21.4989C59.533 21.5468 59.4876 21.584 59.4344 21.6061C59.3812 21.6281 59.3228 21.6338 59.2663 21.6226C59.2099 21.6114 59.1581 21.5837 59.1174 21.543C59.0767 21.5023 59.049 21.4505 59.0378 21.3941C59.0265 21.3376 59.0323 21.2791 59.0543 21.226C59.0763 21.1728 59.1136 21.1274 59.1615 21.0954C59.2093 21.0634 59.2655 21.0464 59.3231 21.0464C59.4002 21.0464 59.4742 21.077 59.5288 21.1316C59.5833 21.1861 59.614 21.2601 59.614 21.3373Z"
        fill="#2F9E44" />
    <path
        d="M55.4976 22.4993C55.6582 22.4993 55.7885 22.3691 55.7885 22.2084C55.7885 22.0477 55.6582 21.9175 55.4976 21.9175C55.3369 21.9175 55.2067 22.0477 55.2067 22.2084C55.2067 22.3691 55.3369 22.4993 55.4976 22.4993Z"
        fill="#2F9E44" />
    <path
        d="M56.7441 22.2084C56.7441 22.2659 56.7271 22.3222 56.6951 22.37C56.6631 22.4179 56.6177 22.4551 56.5645 22.4772C56.5114 22.4992 56.4529 22.5049 56.3965 22.4937C56.34 22.4825 56.2882 22.4548 56.2475 22.4141C56.2068 22.3734 56.1791 22.3216 56.1679 22.2651C56.1567 22.2087 56.1624 22.1502 56.1844 22.0971C56.2065 22.0439 56.2437 21.9985 56.2916 21.9665C56.3394 21.9345 56.3957 21.9175 56.4532 21.9175C56.5304 21.9175 56.6044 21.9481 56.6589 22.0027C56.7135 22.0572 56.7441 22.1312 56.7441 22.2084Z"
        fill="#2F9E44" />
    <path
        d="M57.4103 22.4993C57.571 22.4993 57.7012 22.3691 57.7012 22.2084C57.7012 22.0477 57.571 21.9175 57.4103 21.9175C57.2496 21.9175 57.1194 22.0477 57.1194 22.2084C57.1194 22.3691 57.2496 22.4993 57.4103 22.4993Z"
        fill="#2F9E44" />
    <path
        d="M58.6569 22.2084C58.6569 22.2659 58.6398 22.3222 58.6079 22.37C58.5759 22.4179 58.5305 22.4551 58.4773 22.4772C58.4242 22.4992 58.3657 22.5049 58.3092 22.4937C58.2528 22.4825 58.201 22.4548 58.1603 22.4141C58.1196 22.3734 58.0919 22.3216 58.0807 22.2651C58.0694 22.2087 58.0752 22.1502 58.0972 22.0971C58.1192 22.0439 58.1565 21.9985 58.2044 21.9665C58.2522 21.9345 58.3084 21.9175 58.366 21.9175C58.4431 21.9175 58.5171 21.9481 58.5717 22.0027C58.6263 22.0572 58.6569 22.1312 58.6569 22.2084Z"
        fill="#2F9E44" />
    <path
        d="M59.614 22.2084C59.614 22.2659 59.5969 22.3222 59.565 22.37C59.533 22.4179 59.4876 22.4551 59.4344 22.4772C59.3812 22.4992 59.3228 22.5049 59.2663 22.4937C59.2099 22.4825 59.1581 22.4548 59.1174 22.4141C59.0767 22.3734 59.049 22.3216 59.0378 22.2651C59.0265 22.2087 59.0323 22.1502 59.0543 22.0971C59.0763 22.0439 59.1136 21.9985 59.1615 21.9665C59.2093 21.9345 59.2655 21.9175 59.3231 21.9175C59.4002 21.9175 59.4742 21.9481 59.5288 22.0027C59.5833 22.0572 59.614 22.1312 59.614 22.2084Z"
        fill="#2F9E44" />
    <path
        d="M55.787 23.0785C55.787 23.136 55.77 23.1923 55.738 23.2401C55.706 23.288 55.6606 23.3253 55.6074 23.3473C55.5543 23.3693 55.4958 23.3751 55.4394 23.3638C55.3829 23.3526 55.3311 23.3249 55.2904 23.2842C55.2497 23.2435 55.222 23.1917 55.2108 23.1353C55.1996 23.0788 55.2053 23.0203 55.2273 22.9672C55.2494 22.914 55.2867 22.8686 55.3345 22.8366C55.3823 22.8047 55.4386 22.7876 55.4961 22.7876C55.5733 22.7876 55.6473 22.8182 55.7018 22.8728C55.7564 22.9274 55.787 23.0014 55.787 23.0785Z"
        fill="#2F9E44" />
    <path
        d="M56.7441 23.0785C56.7441 23.136 56.7271 23.1923 56.6951 23.2401C56.6631 23.288 56.6177 23.3253 56.5645 23.3473C56.5114 23.3693 56.4529 23.3751 56.3965 23.3638C56.34 23.3526 56.2882 23.3249 56.2475 23.2842C56.2068 23.2435 56.1791 23.1917 56.1679 23.1353C56.1567 23.0788 56.1624 23.0203 56.1844 22.9672C56.2065 22.914 56.2437 22.8686 56.2916 22.8366C56.3394 22.8047 56.3957 22.7876 56.4532 22.7876C56.5304 22.7876 56.6044 22.8182 56.6589 22.8728C56.7135 22.9274 56.7441 23.0014 56.7441 23.0785Z"
        fill="#2F9E44" />
    <path
        d="M57.7012 23.0785C57.7012 23.136 57.6841 23.1923 57.6522 23.2401C57.6202 23.288 57.5748 23.3253 57.5216 23.3473C57.4685 23.3693 57.41 23.3751 57.3535 23.3638C57.2971 23.3526 57.2453 23.3249 57.2046 23.2842C57.1639 23.2435 57.1362 23.1917 57.125 23.1353C57.1138 23.0788 57.1195 23.0203 57.1415 22.9672C57.1635 22.914 57.2008 22.8686 57.2487 22.8366C57.2965 22.8047 57.3528 22.7876 57.4103 22.7876C57.4874 22.7876 57.5614 22.8182 57.616 22.8728C57.6706 22.9274 57.7012 23.0014 57.7012 23.0785Z"
        fill="#2F9E44" />
    <path
        d="M58.6569 23.0785C58.6569 23.136 58.6398 23.1923 58.6079 23.2401C58.5759 23.288 58.5305 23.3253 58.4773 23.3473C58.4242 23.3693 58.3657 23.3751 58.3092 23.3638C58.2528 23.3526 58.201 23.3249 58.1603 23.2842C58.1196 23.2435 58.0919 23.1917 58.0807 23.1353C58.0694 23.0788 58.0752 23.0203 58.0972 22.9672C58.1192 22.914 58.1565 22.8686 58.2044 22.8366C58.2522 22.8047 58.3084 22.7876 58.366 22.7876C58.4431 22.7876 58.5171 22.8182 58.5717 22.8728C58.6263 22.9274 58.6569 23.0014 58.6569 23.0785Z"
        fill="#2F9E44" />
    <path
        d="M59.614 23.0785C59.614 23.136 59.5969 23.1923 59.565 23.2401C59.533 23.288 59.4876 23.3253 59.4344 23.3473C59.3812 23.3693 59.3228 23.3751 59.2663 23.3638C59.2099 23.3526 59.1581 23.3249 59.1174 23.2842C59.0767 23.2435 59.049 23.1917 59.0378 23.1353C59.0265 23.0788 59.0323 23.0203 59.0543 22.9672C59.0763 22.914 59.1136 22.8686 59.1615 22.8366C59.2093 22.8047 59.2655 22.7876 59.3231 22.7876C59.4002 22.7876 59.4742 22.8182 59.5288 22.8728C59.5833 22.9274 59.614 23.0014 59.614 23.0785Z"
        fill="#2F9E44" />
    <path d="M54.8241 21.0479H54.6569V23.3693H54.8241V21.0479Z" fill="#263238" />
    <path d="M57.6154 17.5889H37.826V18.6885H57.6154V17.5889Z" fill="#37474F" />
    <path d="M38.0239 48.8926H35.8144V51.1021H38.0239V48.8926Z" fill="#263238" />
    <path d="M5.58274 44.481H1.71942V48.3443H5.58274V44.481Z" fill="#37474F" />
    <path
        d="M3.6511 47.7015C4.36366 47.7015 4.9413 47.1238 4.9413 46.4113C4.9413 45.6987 4.36366 45.1211 3.6511 45.1211C2.93854 45.1211 2.3609 45.6987 2.3609 46.4113C2.3609 47.1238 2.93854 47.7015 3.6511 47.7015Z"
        fill="#455A64" />
    <path d="M3.41542 45.8906H3.12451V46.9554H3.41542V45.8906Z" fill="#263238" />
    <path d="M4.2242 45.8906H3.93329V46.9554H4.2242V45.8906Z" fill="#263238" />
    <path
        d="M0.757935 54.3501L8.50931 54.3152L16.2607 54.3021L31.762 54.2773L47.2633 54.3021L55.0146 54.3152L62.766 54.3501L55.0146 54.3864L47.2633 54.3995L31.762 54.4228L16.2607 54.3981L8.50931 54.385L0.757935 54.3501Z"
        fill="#263238" />
    <path
        d="M14.0279 50.7034C14.1734 51.0118 13.6148 53.2213 13.4461 53.6751C13.2774 54.1289 12.6621 56.6613 12.3654 56.7704C12.0686 56.8795 10.6301 56.8489 10.4264 56.7704C10.2228 56.6919 10.4264 56.2598 10.6606 56.1086C10.8948 55.9573 11.1755 55.726 11.1755 55.726C11.1755 55.726 10.7552 51.8147 10.8337 51.3769C10.9123 50.9391 13.6497 49.8758 14.0279 50.7034Z"
        fill="#2F9E44" />
    <path opacity="0.1"
        d="M14.0279 50.7034C14.1734 51.0118 13.6148 53.2213 13.4461 53.6751C13.2774 54.1289 12.6621 56.6613 12.3654 56.7704C12.0686 56.8795 10.6301 56.8489 10.4264 56.7704C10.2228 56.6919 10.4264 56.2598 10.6606 56.1086C10.8948 55.9573 11.1755 55.726 11.1755 55.726C11.1755 55.726 10.7552 51.8147 10.8337 51.3769C10.9123 50.9391 13.6497 49.8758 14.0279 50.7034Z"
        fill="black" />
    <path opacity="0.1"
        d="M11.0199 56.5999C11.0358 56.5219 11.068 56.448 11.1144 56.3832C11.1609 56.3198 11.2162 56.2635 11.2788 56.2159C11.3396 56.1679 11.41 56.1337 11.4853 56.1156C11.4876 56.1146 11.4902 56.1145 11.4925 56.1153C11.4949 56.116 11.4969 56.1177 11.4981 56.1198C11.4994 56.1219 11.4998 56.1245 11.4993 56.1269C11.4988 56.1293 11.4975 56.1315 11.4955 56.133C11.4693 56.1563 11.4402 56.1767 11.4155 56.2014C11.3908 56.2261 11.3632 56.2523 11.3399 56.2785C11.2921 56.3296 11.2506 56.3863 11.2162 56.4472C11.1799 56.5068 11.1464 56.5679 11.1144 56.6319C11.0824 56.6959 11.0664 56.7643 11.0417 56.8312C11.0417 56.8351 11.0402 56.8388 11.0374 56.8415C11.0347 56.8442 11.031 56.8458 11.0272 56.8458C11.0233 56.8458 11.0196 56.8442 11.0169 56.8415C11.0141 56.8388 11.0126 56.8351 11.0126 56.8312C10.9981 56.7545 11.0006 56.6756 11.0199 56.5999Z"
        fill="black" />
    <path opacity="0.1"
        d="M10.5995 56.3704C10.6796 56.2324 10.8028 56.1246 10.9501 56.0635C10.9603 56.0635 10.9705 56.0708 10.9617 56.078C10.8505 56.1657 10.7559 56.2726 10.6825 56.3937C10.6457 56.4555 10.6219 56.524 10.6124 56.5953C10.6029 56.6665 10.6079 56.739 10.6272 56.8082C10.6272 56.8082 10.6272 56.8169 10.617 56.8082C10.5746 56.7437 10.5505 56.6689 10.5475 56.5917C10.5444 56.5146 10.5624 56.4381 10.5995 56.3704Z"
        fill="black" />
    <path opacity="0.1"
        d="M10.953 53.5369L12.9298 55.4075C13.1479 54.6904 13.3516 53.9108 13.4403 53.6795C13.6149 53.2257 14.1676 51.0162 14.0221 50.7078C13.6425 49.8802 10.8977 50.9434 10.8221 51.3813C10.7915 51.5835 10.8643 52.558 10.953 53.5369Z"
        fill="black" />
    <path
        d="M21.4942 52.9145C21.5742 52.9901 22.3524 52.2541 22.4717 51.9094C22.5909 51.5647 22.0935 50.5916 22.1808 50.4258C22.268 50.2599 22.6971 50.1276 22.9168 50.3821C23.1364 50.6367 23.6993 52.0316 23.583 52.628C23.4666 53.2243 22.2695 54.5553 22.1429 54.5553C22.0164 54.5553 21.4942 52.9145 21.4942 52.9145Z"
        fill="#2F9E44" />
    <path opacity="0.1"
        d="M21.4942 52.9142C21.4942 52.9142 22.0193 54.5433 22.1429 54.5506C22.2346 54.5506 22.9008 53.8437 23.2993 53.2284L22.2098 52.3105C21.9349 52.6349 21.5495 52.9666 21.4942 52.9142Z"
        fill="black" />
    <path
        d="M17.0985 46.1855H10.6403C10.6403 46.1855 10.1602 50.4387 10.2126 51.0016C10.265 51.5645 13.1028 55.7348 13.9828 56.2729C14.8629 56.8111 19.9218 56.8373 21.1524 56.5639C22.1095 56.353 22.908 55.1311 22.5109 53.2504C22.3379 52.4271 20.0949 50.4663 19.7822 50.0911C19.4695 49.7158 17.0985 46.1855 17.0985 46.1855Z"
        fill="#C7C7C7" />
    <path
        d="M10.2126 51.0016C10.265 51.5645 13.1029 55.7347 13.9843 56.2729C14.8658 56.8111 19.9218 56.8373 21.1539 56.5638C22.1095 56.3529 22.9095 55.1311 22.511 53.2489C22.3379 52.4271 20.0964 50.4663 19.7837 50.091C19.5917 49.8612 18.6287 48.4474 17.9102 47.3855C17.4549 46.7135 17.0985 46.1826 17.0985 46.1826H10.6403C10.6403 46.1826 10.5195 47.2503 10.4061 48.3863C10.2926 49.5223 10.1865 50.7209 10.2126 51.0016Z"
        fill="#2F9E44" />
    <path opacity="0.1"
        d="M10.4061 48.3892C13.8767 49.4598 16.9632 47.9368 17.9102 47.3885C17.4549 46.7165 17.0985 46.1855 17.0985 46.1855H10.6403C10.6403 46.1855 10.5253 47.2532 10.4061 48.3892Z"
        fill="black" />
    <path
        d="M21.276 53.048C21.276 53.048 19.4985 51.9323 18.252 52.1331C17.0054 52.3338 16.5647 54.8967 17.1625 56.3353C17.1625 56.3353 16.025 56.6727 16.025 57.2226C16.025 57.5353 16.6752 57.6357 17.612 57.6124C18.5487 57.5891 20.4134 57.5717 20.4542 57.336C20.4628 57.1419 20.4207 56.9489 20.332 56.776C20.332 56.776 22.0149 56.5869 22.3451 55.4669C22.6753 54.3469 21.5567 53.2356 21.276 53.048Z"
        fill="#2F9E44" />
    <path opacity="0.1"
        d="M18.8484 56.4618C19.3247 56.6568 19.8309 56.769 20.3451 56.7935C20.3553 56.7935 20.3582 56.8109 20.3451 56.8124C19.8208 56.8641 19.2938 56.7453 18.8425 56.4735C18.8367 56.4705 18.8411 56.4575 18.8484 56.4618Z"
        fill="black" />
    <path opacity="0.1"
        d="M16.7567 57.62C16.8185 57.4107 16.9566 57.2322 17.1436 57.1196C17.245 57.0495 17.3556 56.9937 17.4723 56.9538C17.6061 56.9087 17.7429 56.884 17.8781 56.8418C17.8883 56.8418 17.8971 56.8549 17.8781 56.8593C17.7625 56.9011 17.6506 56.9527 17.5436 57.0134C17.435 57.0695 17.3296 57.1317 17.228 57.1996C17.0604 57.3212 16.9131 57.4685 16.7916 57.636C16.7872 57.6549 16.7509 57.6447 16.7567 57.62Z"
        fill="black" />
    <path opacity="0.1"
        d="M16.9865 56.7368C16.9888 56.7368 16.9911 56.7377 16.9927 56.7394C16.9943 56.741 16.9952 56.7432 16.9952 56.7455C16.9952 56.7479 16.9943 56.7501 16.9927 56.7517C16.9911 56.7534 16.9888 56.7543 16.9865 56.7543C16.6423 56.898 16.3678 57.1704 16.2214 57.5136C16.2214 57.5281 16.1894 57.5281 16.1923 57.5136C16.2207 57.3147 16.3139 57.1308 16.4575 56.9903C16.6011 56.8499 16.7871 56.7608 16.9865 56.7368Z"
        fill="black" />
    <path opacity="0.1"
        d="M16.4323 56.657C16.4323 56.657 16.4323 56.6657 16.4323 56.6643C16.6538 56.5333 16.8883 56.4255 17.132 56.3428C17.161 56.3937 17.1916 56.4447 17.225 56.4883C17.225 56.4985 17.2469 56.4883 17.241 56.4796C17.0286 56.0307 16.9222 55.539 16.9298 55.0425C16.9307 54.7795 16.9463 54.5168 16.9763 54.2555C17.0373 53.7974 17.1802 53.354 17.3981 52.9464C17.5208 52.6905 17.7102 52.4724 17.9465 52.3151C18.2015 52.191 18.4862 52.1406 18.7683 52.1697C19.0596 52.1892 19.3475 52.2424 19.6265 52.3282C19.91 52.4067 20.1879 52.5039 20.4585 52.6191C19.9398 52.3245 19.3687 52.1333 18.7771 52.0562C18.4706 52.0135 18.1583 52.0642 17.8811 52.2017C17.6202 52.3674 17.4091 52.6006 17.2701 52.8766C16.995 53.4124 16.8425 54.0026 16.8236 54.6046C16.8236 54.673 16.8236 54.7428 16.8236 54.8112C16.8236 54.9028 16.8236 54.993 16.8236 55.0846C16.8258 55.5167 16.931 55.9421 17.1305 56.3254C16.8699 56.3638 16.6268 56.4793 16.4323 56.657Z"
        fill="black" />
    <path
        d="M16.1152 51.2519C16.2607 51.5588 15.7021 53.7683 15.5334 54.2221C15.3647 54.6759 14.7436 57.2083 14.4526 57.3189C14.1617 57.4294 12.7174 57.3974 12.5137 57.3189C12.3101 57.2403 12.5137 56.8083 12.7479 56.657C12.9821 56.5058 13.2614 56.2745 13.2614 56.2745C13.2614 56.2745 12.8424 52.3632 12.9195 51.9254C12.9966 51.4875 15.737 50.4228 16.1152 51.2519Z"
        fill="#2F9E44" />
    <path opacity="0.1"
        d="M15.1465 55.4498C15.2789 55.0513 15.452 54.6644 15.5829 54.2673C15.5829 54.2513 15.6134 54.2585 15.6076 54.2745C15.5058 54.5945 15.4287 54.9233 15.3327 55.2462C15.3472 55.2244 15.3603 55.2011 15.3734 55.1793C15.4689 55.0569 15.5458 54.9211 15.6018 54.7764C15.6027 54.7729 15.605 54.7699 15.6082 54.7682C15.6113 54.7664 15.615 54.7659 15.6185 54.7669C15.622 54.7679 15.6249 54.7702 15.6267 54.7733C15.6285 54.7764 15.6289 54.7802 15.628 54.7836C15.6069 54.8517 15.5781 54.9171 15.5421 54.9785C15.5043 55.0498 15.465 55.124 15.4258 55.1924C15.3865 55.2607 15.3225 55.3756 15.2658 55.4644C15.2658 55.4716 15.2658 55.4775 15.2658 55.4833C15.1422 55.8852 14.9965 56.28 14.8294 56.6658C14.8272 56.6693 14.824 56.672 14.8201 56.6734C14.8163 56.6749 14.8121 56.6751 14.8081 56.6739C14.8042 56.6728 14.8007 56.6704 14.7982 56.6671C14.7958 56.6638 14.7945 56.6598 14.7945 56.6557C14.8915 56.2481 15.009 55.8456 15.1465 55.4498Z"
        fill="black" />
    <path opacity="0.1"
        d="M12.8599 52.5476C12.8599 52.5403 12.8759 52.5374 12.8774 52.5476C12.9196 52.8385 12.937 53.144 12.9676 53.4422C12.9981 53.7403 13.036 54.0604 13.0694 54.3702C13.1378 54.9855 13.241 55.5993 13.2905 56.216C13.2905 56.2422 13.2454 56.2451 13.2381 56.216C13.0902 55.6229 12.9904 55.0187 12.9399 54.4094C12.9079 54.1069 12.889 53.8043 12.8745 53.5018C12.852 53.1843 12.8471 52.8657 12.8599 52.5476Z"
        fill="black" />
    <path opacity="0.1"
        d="M13.0374 57.1164C13.0521 57.0382 13.0839 56.9642 13.1305 56.8996C13.177 56.8359 13.2329 56.7795 13.2963 56.7324C13.3567 56.6838 13.4273 56.6495 13.5028 56.632C13.505 56.6316 13.5072 56.6319 13.5092 56.6329C13.5112 56.6339 13.5127 56.6355 13.5137 56.6375C13.5147 56.6394 13.515 56.6417 13.5146 56.6438C13.5142 56.646 13.5132 56.6479 13.5116 56.6494C13.4854 56.6742 13.4563 56.6931 13.4316 56.7178L13.3559 56.7949C13.309 56.8467 13.2675 56.9032 13.2323 56.9636C13.1974 57.0233 13.1625 57.0844 13.1319 57.1484C13.1014 57.2124 13.0825 57.2807 13.0578 57.3476C13.0568 57.3505 13.0549 57.3531 13.0525 57.3549C13.05 57.3567 13.047 57.3576 13.0439 57.3576C13.0409 57.3576 13.0379 57.3567 13.0354 57.3549C13.0329 57.3531 13.0311 57.3505 13.0301 57.3476C13.0149 57.271 13.0173 57.1919 13.0374 57.1164Z"
        fill="black" />
    <path opacity="0.1"
        d="M12.6155 56.8826C12.696 56.7444 12.8197 56.6365 12.9676 56.5757C12.9763 56.5757 12.9865 56.583 12.9777 56.5902C12.8665 56.6775 12.7724 56.7845 12.6999 56.9059C12.6625 56.9674 12.6382 57.036 12.6287 57.1073C12.6192 57.1787 12.6246 57.2513 12.6446 57.3204C12.6446 57.3204 12.6446 57.3291 12.6345 57.3204C12.5918 57.2561 12.5675 57.1813 12.5642 57.1041C12.5608 57.027 12.5786 56.9504 12.6155 56.8826Z"
        fill="black" />
    <path
        d="M13.1116 40.2727C13.1814 40.0167 12.5443 39.109 12.3014 38.8109C12.0585 38.5127 10.7217 38.0516 10.2941 38.2858C10.1268 38.3774 9.81552 39.0203 9.39515 39.5774C8.74351 40.4414 7.98422 41.3476 8.26059 41.5905C8.92969 42.1825 10.4584 41.2487 10.9544 40.936C11.4504 40.6232 11.9028 40.2407 12.0235 40.2538C12.1836 40.2712 12.5181 40.5243 12.6534 40.5447C12.7483 40.5511 12.8429 40.5285 12.9248 40.4799C13.0066 40.4314 13.0717 40.3591 13.1116 40.2727Z"
        fill="#2F9E44" />
    <path opacity="0.1"
        d="M13.1116 40.2727C13.1814 40.0167 12.5443 39.109 12.3014 38.8109C12.0585 38.5127 10.7217 38.0516 10.2941 38.2858C10.1268 38.3774 9.81552 39.0203 9.39515 39.5774C8.74351 40.4414 7.98422 41.3476 8.26059 41.5905C8.92969 42.1825 10.4584 41.2487 10.9544 40.936C11.4504 40.6232 11.9028 40.2407 12.0235 40.2538C12.1836 40.2712 12.5181 40.5243 12.6534 40.5447C12.7483 40.5511 12.8429 40.5285 12.9248 40.4799C13.0066 40.4314 13.0717 40.3591 13.1116 40.2727Z"
        fill="black" />
    <path
        d="M16.1981 39.3678C17.7589 40.3017 18.4513 42.7831 18.4934 43.1802C18.5284 43.5032 19.2716 44.6494 19.1393 45.8814C19.0535 46.6727 17.6309 47.7243 16.4731 47.7141C16.2607 47.7141 14.4585 48.3658 12.9356 48.261C11.4126 48.1563 10.2606 47.0756 10.2155 46.9839C10.1704 46.8923 8.92532 46.7148 8.85259 45.4421C8.72896 43.4057 10.8017 39.9497 11.3937 39.4784C12.3755 38.7002 15.1305 38.7336 16.1981 39.3678Z"
        fill="#2F9E44" />
    <path
        d="M15.4563 40.4458C15.4272 40.1695 16.2374 39.3389 16.54 39.064C16.8425 38.7891 18.3058 38.5389 18.7102 38.8531C18.8687 38.9767 19.0855 39.6938 19.4287 40.3426C19.9597 41.3477 20.5924 42.4139 20.2724 42.6204C19.4782 43.1237 18.0469 41.9019 17.5844 41.4931C17.1218 41.0844 16.7116 40.6204 16.588 40.6087C16.4193 40.6 16.0294 40.8066 15.8883 40.7993C15.7892 40.7905 15.6949 40.7521 15.6179 40.6891C15.5408 40.6261 15.4846 40.5413 15.4563 40.4458Z"
        fill="#2F9E44" />
    <path opacity="0.1"
        d="M15.4563 40.4458C15.4272 40.1695 16.2374 39.3389 16.54 39.064C16.8425 38.7891 18.3058 38.5389 18.7102 38.8531C18.8687 38.9767 19.0855 39.6938 19.4287 40.3426C19.9597 41.3477 20.5924 42.4139 20.2724 42.6204C19.4782 43.1237 18.0469 41.9019 17.5844 41.4931C17.1218 41.0844 16.7116 40.6204 16.588 40.6087C16.4193 40.6 16.0294 40.8066 15.8883 40.7993C15.7892 40.7905 15.6949 40.7521 15.6179 40.6891C15.5408 40.6261 15.4846 40.5413 15.4563 40.4458Z"
        fill="black" />
    <path opacity="0.1"
        d="M12.6054 43.9263C13.5625 43.935 13.9989 44.9605 14.1138 45.2267C14.2287 45.4929 14.8207 46.0994 14.8411 46.7438C14.8614 47.3882 13.6439 48.0966 12.3683 47.8711C11.0926 47.6456 10.4192 46.9271 10.4264 46.2784C10.4264 45.7562 10.9239 45.3038 10.9792 45.1671C11.0345 45.0303 11.7341 43.9176 12.6054 43.9263Z"
        fill="black" />
    <path opacity="0.1"
        d="M14.9589 45.7275C15.0868 45.8731 15.1949 46.035 15.2803 46.209C15.3694 46.3842 15.4326 46.5713 15.468 46.7646C15.5084 46.9652 15.4865 47.1732 15.4054 47.361C15.3616 47.4536 15.2981 47.5356 15.2192 47.601C15.141 47.6606 15.0528 47.7059 14.9589 47.7348C15.1164 47.6379 15.2368 47.4909 15.3007 47.3174C15.3521 47.1455 15.3601 46.9636 15.324 46.7879C15.2924 46.6058 15.2437 46.4271 15.1785 46.2541C15.1101 46.0781 15.0345 45.9021 14.9589 45.7275Z"
        fill="black" />
    <path opacity="0.1"
        d="M10.5733 45.3447C10.4904 45.448 10.4119 45.5484 10.3391 45.6502C10.2674 45.7496 10.2056 45.8558 10.1544 45.9673C10.1065 46.0759 10.0779 46.1921 10.07 46.3106C10.0714 46.4353 10.0945 46.5589 10.1384 46.6757C10.0411 46.5789 9.97736 46.4535 9.95659 46.3178C9.94224 46.1782 9.96481 46.0373 10.022 45.9091C10.1374 45.6645 10.3316 45.4658 10.5733 45.3447Z"
        fill="black" />
    <path
        d="M25.5277 59.0438C23.9612 59.0438 22.2317 59.0162 20.4935 58.9842C19.5975 58.9682 18.8935 58.9551 18.4484 58.9551C16.1894 58.9551 15.5392 56.046 14.9109 53.2445C14.8236 52.8532 14.7363 52.4619 14.6447 52.0808C14.4643 51.3288 14.3174 50.571 14.1734 49.8364C13.737 47.5659 13.3487 45.6066 12.3479 45.4989C11.0257 45.3535 9.84898 47.3346 9.41988 50.4197L9.12897 50.3804C9.58134 47.128 10.8861 45.048 12.3756 45.2095C13.5901 45.3389 13.9916 47.3913 14.4556 49.7812C14.601 50.5084 14.7465 51.2677 14.924 52.0125C15.017 52.3979 15.1043 52.7921 15.193 53.1848C15.8243 56.0038 16.4207 58.6671 18.4454 58.6671C18.8891 58.6671 19.5989 58.6802 20.4964 58.6962C22.463 58.734 25.151 58.7835 27.4347 58.7384C31.1322 58.6656 31.57 58.3747 31.6151 58.286C31.6151 57.6809 27.711 56.9536 26.2419 56.6787C24.7728 56.4038 24.7001 56.3878 24.7161 56.2089C24.7321 56.03 24.9124 56.0445 25.1888 56.0445H31.2893C33.202 56.0445 33.8187 53.2925 34.1882 51.6474C34.2514 51.2941 34.3453 50.9471 34.4689 50.6103C34.8966 49.7201 35.9788 49.8495 36.0239 49.8553L35.986 50.1462C35.9482 50.1462 35.0668 50.0386 34.7308 50.7383C34.6189 51.0558 34.5324 51.3817 34.4718 51.7128C34.0835 53.4423 33.4362 56.3369 31.2893 56.3369H25.9946L26.2986 56.3936C29.8507 57.0569 31.9074 57.582 31.9074 58.2991C31.9069 58.3382 31.8981 58.3767 31.8819 58.4123C31.8656 58.4478 31.8421 58.4796 31.8129 58.5056C31.3809 58.926 28.8107 59.0438 25.5277 59.0438Z"
        fill="#263238" />
    <path d="M10.1983 50.206L8.41528 50.0991L8.35115 51.1692L10.1342 51.2761L10.1983 50.206Z" fill="#455A64" />
    <path d="M9.88161 49.8474L8.76941 49.7808L8.74905 50.1205L9.86124 50.1872L9.88161 49.8474Z" fill="#37474F" />
    <path d="M8.94228 51.206L8.73175 51.1934L8.68284 52.0094L8.89338 52.022L8.94228 51.206Z" fill="#2F9E44" />
    <path d="M9.74814 51.2528L9.53906 51.2402L9.49015 52.0562L9.69924 52.0688L9.74814 51.2528Z" fill="#2F9E44" />
    <path d="M36.5693 49.1049V50.8911H37.3504V49.1049H36.5693Z" fill="#455A64" />
    <path d="M35.9395 49.441V50.5552H36.5708V49.441H35.9395Z" fill="#37474F" />
    <path
        d="M11.3981 45.4786C11.3981 45.4786 11.7777 45.915 11.9246 45.8248C12.0715 45.7346 12.4395 44.8677 12.4395 44.8677C12.4395 44.8677 12.5283 45.9673 12.8119 45.9979C13.0955 46.0284 13.5814 45.5935 13.5814 45.5935L12.4337 44.7979L11.3981 45.4786Z"
        fill="#2F9E44" />
    <path opacity="0.1"
        d="M11.3981 45.4786C11.3981 45.4786 11.7777 45.915 11.9246 45.8248C12.0715 45.7346 12.4395 44.8677 12.4395 44.8677C12.4395 44.8677 12.5283 45.9673 12.8119 45.9979C13.0955 46.0284 13.5814 45.5935 13.5814 45.5935L12.4337 44.7979L11.3981 45.4786Z"
        fill="black" />
    <path opacity="0.1"
        d="M17.02 44.1126C17.133 43.7587 17.1726 43.3855 17.1363 43.0158C17.12 42.8246 17.0754 42.6369 17.004 42.4587C16.9652 42.3669 16.9164 42.2796 16.8585 42.1984C16.8029 42.1143 16.7374 42.0372 16.6636 41.9685C16.6267 41.9342 16.5873 41.9026 16.5458 41.874C16.5036 41.8449 16.46 41.8216 16.4178 41.7955L16.3523 41.7591L16.284 41.7315C16.2366 41.711 16.188 41.6935 16.1385 41.6791C15.9499 41.6237 15.7524 41.6049 15.5567 41.6238C15.1821 41.6595 14.8251 41.8002 14.5269 42.0296C14.8581 41.9035 15.2095 41.8389 15.564 41.8391C15.731 41.8412 15.8966 41.8707 16.0541 41.9264C16.0934 41.938 16.1298 41.9598 16.1676 41.9744L16.2229 41.9991L16.2752 42.0325C16.3087 42.0544 16.3451 42.0733 16.3785 42.0965C16.4107 42.1196 16.4414 42.1449 16.4702 42.1722C16.5901 42.2819 16.6861 42.4151 16.7523 42.5635C16.8242 42.7181 16.8774 42.8807 16.9109 43.0478C16.9836 43.3981 17.0201 43.7549 17.02 44.1126Z"
        fill="black" />
    <path opacity="0.1"
        d="M9.92459 43.3692C9.94029 43.0666 9.98906 42.7667 10.07 42.4747C10.1396 42.204 10.2922 41.9619 10.5064 41.7823C10.5601 41.7431 10.6176 41.7095 10.6781 41.6819C10.7369 41.6563 10.7991 41.6392 10.8628 41.631C11.0027 41.6151 11.1441 41.6181 11.2832 41.6398C11.5825 41.6928 11.8772 41.7691 12.1646 41.8681C12.0439 41.7663 11.9128 41.6775 11.7733 41.6034C11.7035 41.567 11.6279 41.5336 11.5581 41.5016C11.4833 41.4715 11.4071 41.4453 11.3297 41.423C11.1688 41.3735 11.0001 41.3548 10.8322 41.3677C10.742 41.3743 10.6535 41.396 10.5704 41.4317C10.4898 41.4662 10.4136 41.5101 10.3435 41.5627C10.2057 41.6677 10.0934 41.8024 10.0148 41.9568C9.94153 42.1047 9.89243 42.2633 9.86932 42.4267C9.81811 42.7411 9.83698 43.0629 9.92459 43.3692Z"
        fill="black" />
    <path
        d="M14.6505 43.6562C14.6505 43.6402 14.6883 43.678 14.6869 43.6969C14.652 44.1333 14.6869 44.6424 15.1232 44.8068C15.1363 44.8068 15.1334 44.8344 15.1232 44.8315C14.5894 44.7398 14.5414 44.0664 14.6505 43.6562Z"
        fill="#263238" />
    <path
        d="M15.1014 43.2165C15.8781 43.1962 15.8767 44.6144 15.1567 44.6333C14.4367 44.6522 14.4527 43.2325 15.1014 43.2165Z"
        fill="#263238" />
    <path
        d="M11.6497 43.3113C11.6497 43.2953 11.6104 43.3288 11.609 43.3477C11.5828 43.7841 11.4635 44.283 11.0272 44.3863C11.0141 44.3863 11.0126 44.411 11.0272 44.411C11.561 44.3935 11.7021 43.7332 11.6497 43.3113Z"
        fill="#263238" />
    <path
        d="M11.2657 42.8139C10.5006 42.6859 10.3028 44.091 11.0126 44.2088C11.7225 44.3266 11.9086 42.9186 11.2657 42.8139Z"
        fill="#263238" />
    <path
        d="M12.4032 44.827C12.5487 44.8721 13.5 44.5695 13.4214 44.2786C13.3414 43.9644 11.9945 43.8902 11.8214 44.0939C11.6483 44.2975 12.2592 44.7804 12.4032 44.827Z"
        fill="#263238" />
    <path
        d="M13.5988 45.5789C13.4458 45.6945 13.2827 45.7963 13.1116 45.8829C13.0297 45.9268 12.9395 45.9525 12.8468 45.9585C12.7916 45.9687 12.745 45.8945 12.713 45.8233C12.655 45.6738 12.6144 45.5181 12.5923 45.3592C12.5632 45.2007 12.5472 45.0378 12.5297 44.8792L12.4846 44.4429L12.3523 44.872C12.3115 45.0043 12.2635 45.1367 12.2155 45.2691C12.1673 45.4009 12.11 45.5292 12.0439 45.6531C12.0277 45.6839 12.0088 45.7131 11.9872 45.7403C11.9695 45.7676 11.9468 45.7913 11.9203 45.8102C11.8954 45.8221 11.8671 45.8252 11.8403 45.8189C11.8037 45.8087 11.7685 45.7941 11.7355 45.7753C11.6052 45.6905 11.4889 45.586 11.3908 45.4654C11.4612 45.604 11.5604 45.726 11.6817 45.8233C11.7197 45.8527 11.7625 45.8753 11.8083 45.8902C11.8364 45.8972 11.8651 45.9011 11.8941 45.9018C11.9264 45.902 11.9583 45.8945 11.9872 45.88C12.0279 45.8574 12.0644 45.8279 12.0948 45.7927C12.1212 45.7629 12.1455 45.7313 12.1675 45.6982C12.2487 45.5744 12.3183 45.4434 12.3755 45.3069C12.4337 45.1745 12.4832 45.0407 12.521 44.9054L12.3421 44.8923C12.355 45.0569 12.3773 45.2205 12.409 45.3825C12.4251 45.465 12.4455 45.5466 12.4701 45.6269C12.4941 45.711 12.5268 45.7924 12.5676 45.8698C12.5902 45.9135 12.6191 45.9537 12.6534 45.9891C12.6754 46.0117 12.7016 46.03 12.7305 46.0429C12.7493 46.0519 12.7694 46.0578 12.7901 46.0603C12.808 46.0626 12.826 46.0626 12.8439 46.0603C12.956 46.0484 13.0637 46.0101 13.1581 45.9483C13.3219 45.8468 13.4703 45.7224 13.5988 45.5789Z"
        fill="#263238" />
    <path
        d="M6.29254 50.6117C6.87025 50.578 7.44989 50.6176 8.01765 50.7295C7.43995 50.7631 6.86032 50.7235 6.29254 50.6117Z"
        fill="#263238" />
    <path
        d="M10.4803 51.5322C10.7531 51.627 11.019 51.7407 11.2759 51.8726C11.5348 52 11.7842 52.1458 12.0221 52.309C11.4774 52.1156 10.9593 51.8542 10.4803 51.5308V51.5322Z"
        fill="#263238" />
    <path
        d="M7.21625 53.5366C7.50243 53.0338 7.85142 52.5695 8.25481 52.1548C8.11399 52.4084 7.95503 52.6514 7.77916 52.8821C7.60738 53.1134 7.41926 53.3321 7.21625 53.5366Z"
        fill="#263238" />
    <path
        d="M5.57983 48.8921C5.80529 48.9634 6.02493 49.0448 6.24311 49.1292C6.4613 49.2135 6.67948 49.3037 6.89476 49.3954C7.11004 49.487 7.33113 49.5816 7.53622 49.6863C7.74132 49.791 7.96096 49.8885 8.1675 50.0019C7.94205 49.9292 7.72241 49.8477 7.50422 49.7634C7.28604 49.679 7.06785 49.5888 6.85258 49.4972C6.6373 49.4056 6.41621 49.311 6.21111 49.2063C6.00602 49.1015 5.78784 49.0041 5.57983 48.8921Z"
        fill="#263238" />
    <path
        d="M10.6897 50.1808C10.8923 50.079 11.1036 49.9953 11.321 49.9306C11.5367 49.8621 11.7582 49.8135 11.9828 49.7852C11.5765 49.9876 11.1396 50.1217 10.6897 50.1823V50.1808Z"
        fill="#263238" />
    <path
        d="M8.59808 49.445C8.4788 49.2559 8.37116 49.0625 8.26498 48.8632C8.1588 48.6639 8.05698 48.4705 7.95661 48.2712C7.85625 48.0719 7.76025 47.8726 7.6657 47.669C7.57115 47.4654 7.48388 47.2632 7.40533 47.0537C7.52461 47.2428 7.6337 47.4377 7.73988 47.6355C7.84607 47.8334 7.94789 48.0283 8.04825 48.2261C8.14862 48.4239 8.24316 48.6246 8.33916 48.8283C8.43517 49.0319 8.51953 49.2356 8.59808 49.445Z"
        fill="#263238" />
    <path
        d="M11.5435 54.0459C11.4141 53.9004 11.2934 53.7419 11.1755 53.5862C11.0577 53.4306 10.9443 53.2692 10.8308 53.1091C10.7173 52.9491 10.6112 52.7848 10.5079 52.6175C10.4046 52.4502 10.3013 52.283 10.2083 52.1099C10.3377 52.2553 10.4584 52.4139 10.5763 52.5695C10.6941 52.7251 10.809 52.8866 10.921 53.0466C11.033 53.2066 11.1406 53.371 11.2439 53.5382C11.3472 53.7055 11.4504 53.8713 11.5435 54.0459Z"
        fill="#263238" />
    <path d="M50.6626 17.5888H38.6392L37.7083 9.42285H49.7317L50.6626 17.5888Z" fill="#A6A6A6" />
    <path d="M50.008 17.0418H39.1701L38.3643 9.97119H49.2022L50.008 17.0418Z" fill="white" />
    <path d="M43.3141 13.6908L43.141 13.8973L41.4363 12.4253L41.6094 12.2188L43.3141 13.6908Z" fill="#2F9E44" />
    <path d="M42.8749 12.2188L43.1134 12.4253L41.8756 13.8973L41.637 13.6908L42.8749 12.2188Z" fill="#2F9E44" />
    <path d="M46.9593 13.6908L46.7862 13.8973L45.0814 12.4253L45.2545 12.2188L46.9593 13.6908Z" fill="#2F9E44" />
    <path d="M46.52 12.2188L46.7585 12.4253L45.5207 13.8973L45.2822 13.6908L46.52 12.2188Z" fill="#2F9E44" />
    <path d="M41.2181 15.1059L41.1716 14.8149H47.7797L47.8262 15.1059H41.2181Z" fill="#2F9E44" />
    <path d="M54.1913 17.042H38.7235V17.5904H54.1913V17.042Z" fill="#A6A6A6" />
    <path d="M55.4975 17.042H42.0836V17.5904H55.4975V17.042Z" fill="#C7C7C7" />
    <path d="M49.2415 10.3145L49.2022 9.97119H38.3643L38.4035 10.3145H49.2415Z" fill="#263238" />
    <path
        d="M39.2763 10.1429C39.278 10.165 39.2876 10.1857 39.3034 10.2012C39.3192 10.2167 39.34 10.226 39.3621 10.2273C39.3724 10.2271 39.3825 10.2246 39.3917 10.2201C39.401 10.2155 39.409 10.209 39.4154 10.2009C39.4218 10.1928 39.4264 10.1835 39.4287 10.1734C39.4311 10.1634 39.4312 10.153 39.429 10.1429C39.4276 10.1206 39.4182 10.0996 39.4024 10.0838C39.3865 10.068 39.3655 10.0585 39.3432 10.0571C39.3329 10.0575 39.3227 10.0602 39.3135 10.0649C39.3043 10.0697 39.2962 10.0764 39.2898 10.0845C39.2835 10.0927 39.279 10.1021 39.2766 10.1122C39.2743 10.1223 39.2742 10.1328 39.2763 10.1429Z"
        fill="#C7C7C7" />
    <path
        d="M38.9621 10.1429C38.9641 10.1651 38.9741 10.1858 38.9901 10.2013C39.0061 10.2168 39.0271 10.226 39.0494 10.2273C39.0596 10.2269 39.0695 10.2242 39.0786 10.2196C39.0877 10.2149 39.0957 10.2084 39.1021 10.2004C39.1084 10.1924 39.113 10.1831 39.1154 10.1732C39.1179 10.1633 39.1181 10.153 39.1163 10.1429C39.1146 10.1207 39.105 10.0999 39.0893 10.0841C39.0735 10.0684 39.0526 10.0588 39.0304 10.0571C39.0201 10.0576 39.0099 10.0603 39.0006 10.065C38.9913 10.0697 38.9832 10.0763 38.9767 10.0845C38.9702 10.0926 38.9656 10.102 38.9631 10.1121C38.9605 10.1222 38.9602 10.1327 38.9621 10.1429Z"
        fill="white" />
    <path
        d="M38.6493 10.1429C38.6511 10.165 38.6607 10.1857 38.6765 10.2012C38.6922 10.2167 38.7131 10.226 38.7352 10.2273C38.7454 10.2271 38.7556 10.2246 38.7648 10.2201C38.774 10.2155 38.7821 10.209 38.7885 10.2009C38.7949 10.1928 38.7994 10.1835 38.8018 10.1734C38.8041 10.1634 38.8042 10.153 38.8021 10.1429C38.8007 10.1206 38.7912 10.0996 38.7754 10.0838C38.7596 10.068 38.7386 10.0585 38.7162 10.0571C38.7059 10.0575 38.6958 10.0602 38.6865 10.0649C38.6773 10.0697 38.6693 10.0764 38.6629 10.0845C38.6565 10.0927 38.652 10.1021 38.6497 10.1122C38.6473 10.1223 38.6472 10.1328 38.6493 10.1429Z"
        fill="#2F9E44" />
</svg>